<svg id="Layer_1" data-name="Layer 1" xmlns="http://www.w3.org/2000/svg" viewBox="0 0 2060 1008"><defs><style>.cls-1,.cls-4{opacity:0.05;}.cls-2{fill:none;stroke:#231f20;stroke-miterlimit:10;stroke-width:3.11px;}.cls-3{fill:#231f20;}.cls-4{font-size:32.12px;font-family:OxtailOT-Medium, Oxtail OT;font-weight:500;}.cls-5{letter-spacing:-0.01em;}</style></defs><title>1Artboard 10</title><g class="cls-1"><path class="cls-2" d="M534.66,317s16.54-28.79,0-55.26C534.66,261.73,516.81,285.33,534.66,317Z"/><path class="cls-2" d="M582,288.5s-15-27.66-47.35-26.77C534.66,261.73,550.35,290.48,582,288.5Z"/><path class="cls-2" d="M582,233.8s-28.65-2.41-47.35,27.93C534.66,261.73,570.22,260.33,582,233.8Z"/><path class="cls-2" d="M534.66,206s17.35,27.54,0,55.75C534.66,261.73,516.57,236.77,534.66,206Z"/><path class="cls-2" d="M486.64,233.34s29.93-1.5,48,28.39A54.47,54.47,0,0,1,486.64,233.34Z"/><path class="cls-2" d="M486.64,288.6s16-27.26,48-26.87C534.66,261.73,518.56,288.71,486.64,288.6Z"/></g><g class="cls-1"><path class="cls-3" d="M654,608.76s16.54-28.79,0-55.26C654,553.5,636.14,577.09,654,608.76Z"/><path class="cls-3" d="M701.34,580.26s-15-27.66-47.35-26.76C654,553.5,669.68,582.24,701.34,580.26Z"/><path class="cls-3" d="M701.34,525.56S672.69,523.15,654,553.5C654,553.5,689.55,552.09,701.34,525.56Z"/><path class="cls-3" d="M654,497.74s17.35,27.54,0,55.76C654,553.5,635.9,528.53,654,497.74Z"/><path class="cls-3" d="M606,525.1s29.93-1.5,48,28.4A54.47,54.47,0,0,1,606,525.1Z"/><path class="cls-3" d="M606,580.36s16-27.26,48-26.86C654,553.5,637.89,580.48,606,580.36Z"/></g><g class="cls-1"><path class="cls-3" d="M653.32,220.09s16.54-28.79,0-55.26C653.32,164.83,635.47,188.43,653.32,220.09Z"/><path class="cls-3" d="M700.68,191.6s-15-27.66-47.36-26.77C653.32,164.83,669,193.58,700.68,191.6Z"/><path class="cls-3" d="M700.68,136.9s-28.66-2.41-47.36,27.93C653.32,164.83,688.88,163.43,700.68,136.9Z"/><path class="cls-3" d="M653.32,109.08s17.36,27.54,0,55.75C653.32,164.83,635.23,139.87,653.32,109.08Z"/><path class="cls-3" d="M605.3,136.44s29.93-1.5,48,28.39A54.48,54.48,0,0,1,605.3,136.44Z"/><path class="cls-3" d="M605.3,191.7s16-27.26,48-26.87C653.32,164.83,637.23,191.81,605.3,191.7Z"/></g><g class="cls-1"><path class="cls-3" d="M653.66,414.43s16.54-28.8,0-55.27C653.66,359.16,635.81,382.76,653.66,414.43Z"/><path class="cls-3" d="M701,385.93s-15-27.66-47.35-26.77C653.66,359.16,669.35,387.91,701,385.93Z"/><path class="cls-3" d="M701,331.23s-28.65-2.41-47.35,27.93C653.66,359.16,689.22,357.76,701,331.23Z"/><path class="cls-3" d="M653.66,303.41s17.35,27.54,0,55.75C653.66,359.16,635.56,334.2,653.66,303.41Z"/><path class="cls-3" d="M605.63,330.77s29.93-1.5,48,28.39A54.47,54.47,0,0,1,605.63,330.77Z"/><path class="cls-3" d="M605.63,386s16-27.26,48-26.87C653.66,359.16,637.56,386.14,605.63,386Z"/></g><g class="cls-1"><path class="cls-2" d="M534.33,510.79s16.54-28.79,0-55.26C534.33,455.53,516.48,479.13,534.33,510.79Z"/><path class="cls-2" d="M581.68,482.29s-15-27.65-47.35-26.76C534.33,455.53,550,484.28,581.68,482.29Z"/><path class="cls-2" d="M581.68,427.6s-28.65-2.41-47.35,27.93C534.33,455.53,569.89,454.13,581.68,427.6Z"/><path class="cls-2" d="M534.33,399.78s17.35,27.54,0,55.75C534.33,455.53,516.23,430.57,534.33,399.78Z"/><path class="cls-2" d="M486.3,427.13s29.93-1.49,48,28.4A54.49,54.49,0,0,1,486.3,427.13Z"/><path class="cls-2" d="M486.3,482.4s16-27.26,48-26.87C534.33,455.53,518.23,482.51,486.3,482.4Z"/></g><text class="cls-4" transform="translate(512.06 174.24)"><tspan class="cls-5">D</tspan><tspan x="23.45" y="0">C</tspan></text><text class="cls-4" transform="translate(630.72 271.4)"><tspan class="cls-5">D</tspan><tspan x="23.45" y="0">C</tspan></text><text class="cls-4" transform="translate(512.06 368.03)"><tspan class="cls-5">D</tspan><tspan x="23.45" y="0">C</tspan></text><text class="cls-4" transform="translate(512.06 561.83)"><tspan class="cls-5">D</tspan><tspan x="23.45" y="0">C</tspan></text><text class="cls-4" transform="translate(630.56 465.73)"><tspan class="cls-5">D</tspan><tspan x="23.45" y="0">C</tspan></text><g class="cls-1"><path class="cls-2" d="M534.66,898.39s16.54-28.8,0-55.27C534.66,843.12,516.81,866.72,534.66,898.39Z"/><path class="cls-2" d="M582,869.89s-15-27.66-47.35-26.77C534.66,843.12,550.35,871.87,582,869.89Z"/><path class="cls-2" d="M582,815.19s-28.65-2.41-47.35,27.93C534.66,843.12,570.22,841.72,582,815.19Z"/><path class="cls-2" d="M534.66,787.37s17.35,27.54,0,55.75C534.66,843.12,516.57,818.16,534.66,787.37Z"/><path class="cls-2" d="M486.64,814.73s29.93-1.5,48,28.39A54.45,54.45,0,0,1,486.64,814.73Z"/><path class="cls-2" d="M486.64,870s16-27.26,48-26.87C534.66,843.12,518.56,870.1,486.64,870Z"/></g><g class="cls-1"><path class="cls-3" d="M653.32,801.49s16.54-28.79,0-55.26C653.32,746.23,635.47,769.82,653.32,801.49Z"/><path class="cls-3" d="M700.68,773s-15-27.66-47.36-26.76C653.32,746.23,669,775,700.68,773Z"/><path class="cls-3" d="M700.68,718.29s-28.66-2.41-47.36,27.94C653.32,746.23,688.88,744.82,700.68,718.29Z"/><path class="cls-3" d="M653.32,690.47s17.36,27.54,0,55.76C653.32,746.23,635.23,721.26,653.32,690.47Z"/><path class="cls-3" d="M605.3,717.83s29.93-1.5,48,28.4A54.48,54.48,0,0,1,605.3,717.83Z"/><path class="cls-3" d="M605.3,773.09s16-27.26,48-26.86C653.32,746.23,637.23,773.2,605.3,773.09Z"/></g><g class="cls-1"><path class="cls-2" d="M534.33,704.59s16.54-28.79,0-55.26C534.33,649.33,516.48,672.92,534.33,704.59Z"/><path class="cls-2" d="M581.68,676.09s-15-27.66-47.35-26.76C534.33,649.33,550,678.08,581.68,676.09Z"/><path class="cls-2" d="M581.68,621.39S553,619,534.33,649.33C534.33,649.33,569.89,647.92,581.68,621.39Z"/><path class="cls-2" d="M534.33,593.57s17.35,27.55,0,55.76C534.33,649.33,516.23,624.36,534.33,593.57Z"/><path class="cls-2" d="M486.3,620.93s29.93-1.5,48,28.4A54.49,54.49,0,0,1,486.3,620.93Z"/><path class="cls-2" d="M486.3,676.19s16-27.26,48-26.86C534.33,649.33,518.23,676.31,486.3,676.19Z"/></g><text class="cls-4" transform="translate(512.06 755.63)"><tspan class="cls-5">D</tspan><tspan x="23.45" y="0">C</tspan></text><text class="cls-4" transform="translate(630.72 852.79)"><tspan class="cls-5">D</tspan><tspan x="23.45" y="0">C</tspan></text><g class="cls-1"><path class="cls-2" d="M293.66,317s16.54-28.79,0-55.26C293.66,261.73,275.81,285.33,293.66,317Z"/><path class="cls-2" d="M341,288.5s-15-27.66-47.36-26.77C293.66,261.73,309.36,290.48,341,288.5Z"/><path class="cls-2" d="M341,233.8s-28.66-2.41-47.36,27.93C293.66,261.73,329.22,260.33,341,233.8Z"/><path class="cls-2" d="M293.66,206s17.36,27.54,0,55.75C293.66,261.73,275.57,236.77,293.66,206Z"/><path class="cls-2" d="M245.64,233.34s29.93-1.5,48,28.39A54.48,54.48,0,0,1,245.64,233.34Z"/><path class="cls-2" d="M245.64,288.6s16-27.26,48-26.87C293.66,261.73,277.56,288.71,245.64,288.6Z"/></g><g class="cls-1"><path class="cls-2" d="M293.33,510.79s16.54-28.79,0-55.26C293.33,455.53,275.48,479.13,293.33,510.79Z"/><path class="cls-2" d="M340.68,482.29s-15-27.65-47.35-26.76C293.33,455.53,309,484.28,340.68,482.29Z"/><path class="cls-2" d="M340.68,427.6s-28.65-2.41-47.35,27.93C293.33,455.53,328.89,454.13,340.68,427.6Z"/><path class="cls-2" d="M293.33,399.78s17.35,27.54,0,55.75C293.33,455.53,275.24,430.57,293.33,399.78Z"/><path class="cls-2" d="M245.31,427.13s29.93-1.49,48,28.4A54.47,54.47,0,0,1,245.31,427.13Z"/><path class="cls-2" d="M245.31,482.4s16-27.26,48-26.87C293.33,455.53,277.23,482.51,245.31,482.4Z"/></g><text class="cls-4" transform="translate(271.06 174.24)"><tspan class="cls-5">D</tspan><tspan x="23.45" y="0">C</tspan></text><text class="cls-4" transform="translate(271.06 368.03)"><tspan class="cls-5">D</tspan><tspan x="23.45" y="0">C</tspan></text><text class="cls-4" transform="translate(271.06 561.83)"><tspan class="cls-5">D</tspan><tspan x="23.45" y="0">C</tspan></text><g class="cls-1"><path class="cls-2" d="M293.66,898.39s16.54-28.8,0-55.27C293.66,843.12,275.81,866.72,293.66,898.39Z"/><path class="cls-2" d="M341,869.89s-15-27.66-47.36-26.77C293.66,843.12,309.36,871.87,341,869.89Z"/><path class="cls-2" d="M341,815.19s-28.66-2.41-47.36,27.93C293.66,843.12,329.22,841.72,341,815.19Z"/><path class="cls-2" d="M293.66,787.37s17.36,27.54,0,55.75C293.66,843.12,275.57,818.16,293.66,787.37Z"/><path class="cls-2" d="M245.64,814.73s29.93-1.5,48,28.39A54.46,54.46,0,0,1,245.64,814.73Z"/><path class="cls-2" d="M245.64,870s16-27.26,48-26.87C293.66,843.12,277.56,870.1,245.64,870Z"/></g><g class="cls-1"><path class="cls-2" d="M293.33,704.59s16.54-28.79,0-55.26C293.33,649.33,275.48,672.92,293.33,704.59Z"/><path class="cls-2" d="M340.68,676.09s-15-27.66-47.35-26.76C293.33,649.33,309,678.08,340.68,676.09Z"/><path class="cls-2" d="M340.68,621.39S312,619,293.33,649.33C293.33,649.33,328.89,647.92,340.68,621.39Z"/><path class="cls-2" d="M293.33,593.57s17.35,27.55,0,55.76C293.33,649.33,275.24,624.36,293.33,593.57Z"/><path class="cls-2" d="M245.31,620.93s29.93-1.5,48,28.4A54.47,54.47,0,0,1,245.31,620.93Z"/><path class="cls-2" d="M245.31,676.19s16-27.26,48-26.86C293.33,649.33,277.23,676.31,245.31,676.19Z"/></g><text class="cls-4" transform="translate(271.06 755.63)"><tspan class="cls-5">D</tspan><tspan x="23.45" y="0">C</tspan></text><g class="cls-1"><path class="cls-2" d="M49.66,317s16.54-28.79,0-55.26C49.66,261.73,31.81,285.33,49.66,317Z"/><path class="cls-2" d="M97,288.5s-15-27.66-47.36-26.77C49.66,261.73,65.36,290.48,97,288.5Z"/><path class="cls-2" d="M97,233.8s-28.66-2.41-47.36,27.93C49.66,261.73,85.22,260.33,97,233.8Z"/><path class="cls-2" d="M49.66,206s17.36,27.54,0,55.75C49.66,261.73,31.57,236.77,49.66,206Z"/><path class="cls-2" d="M1.64,233.34s29.93-1.5,48,28.39A54.48,54.48,0,0,1,1.64,233.34Z"/><path class="cls-2" d="M1.64,288.6s16-27.26,48-26.87C49.66,261.73,33.57,288.71,1.64,288.6Z"/></g><g class="cls-1"><path class="cls-2" d="M49.33,510.79s16.54-28.79,0-55.26C49.33,455.53,31.48,479.13,49.33,510.79Z"/><path class="cls-2" d="M96.68,482.29s-15-27.65-47.35-26.76C49.33,455.53,65,484.28,96.68,482.29Z"/><path class="cls-2" d="M96.68,427.6S68,425.19,49.33,455.53C49.33,455.53,84.89,454.13,96.68,427.6Z"/><path class="cls-2" d="M49.33,399.78s17.35,27.54,0,55.75C49.33,455.53,31.24,430.57,49.33,399.78Z"/><path class="cls-2" d="M1.31,427.13s29.93-1.49,48,28.4A54.47,54.47,0,0,1,1.31,427.13Z"/><path class="cls-2" d="M1.31,482.4s16-27.26,48-26.87C49.33,455.53,33.23,482.51,1.31,482.4Z"/></g><text class="cls-4" transform="translate(27.06 174.24)"><tspan class="cls-5">D</tspan><tspan x="23.45" y="0">C</tspan></text><text class="cls-4" transform="translate(27.06 368.03)"><tspan class="cls-5">D</tspan><tspan x="23.45" y="0">C</tspan></text><text class="cls-4" transform="translate(27.06 561.83)"><tspan class="cls-5">D</tspan><tspan x="23.45" y="0">C</tspan></text><g class="cls-1"><path class="cls-2" d="M49.66,898.39s16.54-28.8,0-55.27C49.66,843.12,31.81,866.72,49.66,898.39Z"/><path class="cls-2" d="M97,869.89s-15-27.66-47.36-26.77C49.66,843.12,65.36,871.87,97,869.89Z"/><path class="cls-2" d="M97,815.19s-28.66-2.41-47.36,27.93C49.66,843.12,85.22,841.72,97,815.19Z"/><path class="cls-2" d="M49.66,787.37s17.36,27.54,0,55.75C49.66,843.12,31.57,818.16,49.66,787.37Z"/><path class="cls-2" d="M1.64,814.73s29.93-1.5,48,28.39A54.46,54.46,0,0,1,1.64,814.73Z"/><path class="cls-2" d="M1.64,870s16-27.26,48-26.87C49.66,843.12,33.57,870.1,1.64,870Z"/></g><g class="cls-1"><path class="cls-2" d="M49.33,704.59s16.54-28.79,0-55.26C49.33,649.33,31.48,672.92,49.33,704.59Z"/><path class="cls-2" d="M96.68,676.09s-15-27.66-47.35-26.76C49.33,649.33,65,678.08,96.68,676.09Z"/><path class="cls-2" d="M96.68,621.39S68,619,49.33,649.33C49.33,649.33,84.89,647.92,96.68,621.39Z"/><path class="cls-2" d="M49.33,593.57s17.35,27.55,0,55.76C49.33,649.33,31.24,624.36,49.33,593.57Z"/><path class="cls-2" d="M1.31,620.93s29.93-1.5,48,28.4A54.47,54.47,0,0,1,1.31,620.93Z"/><path class="cls-2" d="M1.31,676.19s16-27.26,48-26.86C49.33,649.33,33.23,676.31,1.31,676.19Z"/></g><text class="cls-4" transform="translate(27.06 755.63)"><tspan class="cls-5">D</tspan><tspan x="23.45" y="0">C</tspan></text><g class="cls-1"><path class="cls-2" d="M774,317s16.54-28.79,0-55.26C774,261.73,756.14,285.33,774,317Z"/><path class="cls-2" d="M821.34,288.5s-15-27.66-47.35-26.77C774,261.73,789.68,290.48,821.34,288.5Z"/><path class="cls-2" d="M821.34,233.8s-28.65-2.41-47.35,27.93C774,261.73,809.55,260.33,821.34,233.8Z"/><path class="cls-2" d="M774,206s17.35,27.54,0,55.75C774,261.73,755.89,236.77,774,206Z"/><path class="cls-2" d="M726,233.34s29.92-1.5,48,28.39A54.47,54.47,0,0,1,726,233.34Z"/><path class="cls-2" d="M726,288.6s16-27.26,48-26.87C774,261.73,757.89,288.71,726,288.6Z"/></g><g class="cls-1"><path class="cls-2" d="M773.65,510.79s16.55-28.79,0-55.26C773.65,455.53,755.81,479.13,773.65,510.79Z"/><path class="cls-2" d="M821,482.29s-15-27.65-47.36-26.76C773.65,455.53,789.35,484.28,821,482.29Z"/><path class="cls-2" d="M821,427.6s-28.66-2.41-47.36,27.93C773.65,455.53,809.22,454.13,821,427.6Z"/><path class="cls-2" d="M773.65,399.78s17.36,27.54,0,55.75C773.65,455.53,755.56,430.57,773.65,399.78Z"/><path class="cls-2" d="M725.63,427.13s29.93-1.49,48,28.4A54.48,54.48,0,0,1,725.63,427.13Z"/><path class="cls-2" d="M725.63,482.4s16-27.26,48-26.87C773.65,455.53,757.56,482.51,725.63,482.4Z"/></g><text class="cls-4" transform="translate(751.39 174.24)"><tspan class="cls-5">D</tspan><tspan x="23.45" y="0">C</tspan></text><text class="cls-4" transform="translate(751.39 368.03)"><tspan class="cls-5">D</tspan><tspan x="23.45" y="0">C</tspan></text><text class="cls-4" transform="translate(751.39 561.83)"><tspan class="cls-5">D</tspan><tspan x="23.45" y="0">C</tspan></text><g class="cls-1"><path class="cls-2" d="M774,898.39s16.54-28.8,0-55.27C774,843.12,756.14,866.72,774,898.39Z"/><path class="cls-2" d="M821.34,869.89s-15-27.66-47.35-26.77C774,843.12,789.68,871.87,821.34,869.89Z"/><path class="cls-2" d="M821.34,815.19s-28.65-2.41-47.35,27.93C774,843.12,809.55,841.72,821.34,815.19Z"/><path class="cls-2" d="M774,787.37s17.35,27.54,0,55.75C774,843.12,755.89,818.16,774,787.37Z"/><path class="cls-2" d="M726,814.73s29.92-1.5,48,28.39A54.45,54.45,0,0,1,726,814.73Z"/><path class="cls-2" d="M726,870s16-27.26,48-26.87C774,843.12,757.89,870.1,726,870Z"/></g><g class="cls-1"><path class="cls-2" d="M773.65,704.59s16.55-28.79,0-55.26C773.65,649.33,755.81,672.92,773.65,704.59Z"/><path class="cls-2" d="M821,676.09s-15-27.66-47.36-26.76C773.65,649.33,789.35,678.08,821,676.09Z"/><path class="cls-2" d="M821,621.39s-28.66-2.41-47.36,27.94C773.65,649.33,809.22,647.92,821,621.39Z"/><path class="cls-2" d="M773.65,593.57s17.36,27.55,0,55.76C773.65,649.33,755.56,624.36,773.65,593.57Z"/><path class="cls-2" d="M725.63,620.93s29.93-1.5,48,28.4A54.48,54.48,0,0,1,725.63,620.93Z"/><path class="cls-2" d="M725.63,676.19s16-27.26,48-26.86C773.65,649.33,757.56,676.31,725.63,676.19Z"/></g><text class="cls-4" transform="translate(751.39 755.63)"><tspan class="cls-5">D</tspan><tspan x="23.45" y="0">C</tspan></text><g class="cls-1"><path class="cls-2" d="M1016.65,317s16.54-28.79,0-55.26C1016.65,261.73,998.8,285.33,1016.65,317Z"/><path class="cls-2" d="M1064,288.5s-15-27.66-47.36-26.77C1016.65,261.73,1032.35,290.48,1064,288.5Z"/><path class="cls-2" d="M1064,233.8s-28.66-2.41-47.36,27.93C1016.65,261.73,1052.21,260.33,1064,233.8Z"/><path class="cls-2" d="M1016.65,206s17.36,27.54,0,55.75C1016.65,261.73,998.56,236.77,1016.65,206Z"/><path class="cls-2" d="M968.63,233.34s29.93-1.5,48,28.39A54.48,54.48,0,0,1,968.63,233.34Z"/><path class="cls-2" d="M968.63,288.6s16-27.26,48-26.87C1016.65,261.73,1000.56,288.71,968.63,288.6Z"/></g><g class="cls-1"><path class="cls-2" d="M1016.32,510.79s16.54-28.79,0-55.26C1016.32,455.53,998.47,479.13,1016.32,510.79Z"/><path class="cls-2" d="M1063.67,482.29s-15-27.65-47.35-26.76C1016.32,455.53,1032,484.28,1063.67,482.29Z"/><path class="cls-2" d="M1063.67,427.6s-28.65-2.41-47.35,27.93C1016.32,455.53,1051.88,454.13,1063.67,427.6Z"/><path class="cls-2" d="M1016.32,399.78s17.35,27.54,0,55.75C1016.32,455.53,998.23,430.57,1016.32,399.78Z"/><path class="cls-2" d="M968.3,427.13s29.93-1.49,48,28.4A54.47,54.47,0,0,1,968.3,427.13Z"/><path class="cls-2" d="M968.3,482.4s16-27.26,48-26.87C1016.32,455.53,1000.22,482.51,968.3,482.4Z"/></g><text class="cls-4" transform="translate(994.06 174.24)"><tspan class="cls-5">D</tspan><tspan x="23.45" y="0">C</tspan></text><text class="cls-4" transform="translate(994.06 368.03)"><tspan class="cls-5">D</tspan><tspan x="23.45" y="0">C</tspan></text><text class="cls-4" transform="translate(994.06 561.83)"><tspan class="cls-5">D</tspan><tspan x="23.45" y="0">C</tspan></text><g class="cls-1"><path class="cls-2" d="M1016.65,898.39s16.54-28.8,0-55.27C1016.65,843.12,998.8,866.72,1016.65,898.39Z"/><path class="cls-2" d="M1064,869.89s-15-27.66-47.36-26.77C1016.65,843.12,1032.35,871.87,1064,869.89Z"/><path class="cls-2" d="M1064,815.19s-28.66-2.41-47.36,27.93C1016.65,843.12,1052.21,841.72,1064,815.19Z"/><path class="cls-2" d="M1016.65,787.37s17.36,27.54,0,55.75C1016.65,843.12,998.56,818.16,1016.65,787.37Z"/><path class="cls-2" d="M968.63,814.73s29.93-1.5,48,28.39A54.46,54.46,0,0,1,968.63,814.73Z"/><path class="cls-2" d="M968.63,870s16-27.26,48-26.87C1016.65,843.12,1000.56,870.1,968.63,870Z"/></g><g class="cls-1"><path class="cls-2" d="M1016.32,704.59s16.54-28.79,0-55.26C1016.32,649.33,998.47,672.92,1016.32,704.59Z"/><path class="cls-2" d="M1063.67,676.09s-15-27.66-47.35-26.76C1016.32,649.33,1032,678.08,1063.67,676.09Z"/><path class="cls-2" d="M1063.67,621.39S1035,619,1016.32,649.33C1016.32,649.33,1051.88,647.92,1063.67,621.39Z"/><path class="cls-2" d="M1016.32,593.57s17.35,27.55,0,55.76C1016.32,649.33,998.23,624.36,1016.32,593.57Z"/><path class="cls-2" d="M968.3,620.93s29.93-1.5,48,28.4A54.47,54.47,0,0,1,968.3,620.93Z"/><path class="cls-2" d="M968.3,676.19s16-27.26,48-26.86C1016.32,649.33,1000.22,676.31,968.3,676.19Z"/></g><text class="cls-4" transform="translate(994.06 755.63)"><tspan class="cls-5">D</tspan><tspan x="23.45" y="0">C</tspan></text><g class="cls-1"><path class="cls-2" d="M1263.32,317s16.54-28.79,0-55.26C1263.32,261.73,1245.47,285.33,1263.32,317Z"/><path class="cls-2" d="M1310.68,288.5s-15-27.66-47.36-26.77C1263.32,261.73,1279,290.48,1310.68,288.5Z"/><path class="cls-2" d="M1310.68,233.8s-28.66-2.41-47.36,27.93C1263.32,261.73,1298.88,260.33,1310.68,233.8Z"/><path class="cls-2" d="M1263.32,206s17.35,27.54,0,55.75C1263.32,261.73,1245.23,236.77,1263.32,206Z"/><path class="cls-2" d="M1215.3,233.34s29.93-1.5,48,28.39A54.47,54.47,0,0,1,1215.3,233.34Z"/><path class="cls-2" d="M1215.3,288.6s16-27.26,48-26.87C1263.32,261.73,1247.22,288.71,1215.3,288.6Z"/></g><g class="cls-1"><path class="cls-2" d="M1263,510.79s16.54-28.79,0-55.26C1263,455.53,1245.14,479.13,1263,510.79Z"/><path class="cls-2" d="M1310.34,482.29s-15-27.65-47.35-26.76C1263,455.53,1278.68,484.28,1310.34,482.29Z"/><path class="cls-2" d="M1310.34,427.6s-28.65-2.41-47.35,27.93C1263,455.53,1298.55,454.13,1310.34,427.6Z"/><path class="cls-2" d="M1263,399.78s17.35,27.54,0,55.75C1263,455.53,1244.89,430.57,1263,399.78Z"/><path class="cls-2" d="M1215,427.13s29.92-1.49,48,28.4A54.47,54.47,0,0,1,1215,427.13Z"/><path class="cls-2" d="M1215,482.4s16-27.26,48-26.87C1263,455.53,1246.89,482.51,1215,482.4Z"/></g><text class="cls-4" transform="translate(1240.72 174.24)"><tspan class="cls-5">D</tspan><tspan x="23.45" y="0">C</tspan></text><text class="cls-4" transform="translate(1240.72 368.03)"><tspan class="cls-5">D</tspan><tspan x="23.45" y="0">C</tspan></text><text class="cls-4" transform="translate(1240.72 561.83)"><tspan class="cls-5">D</tspan><tspan x="23.45" y="0">C</tspan></text><g class="cls-1"><path class="cls-2" d="M1263.32,898.39s16.54-28.8,0-55.27C1263.32,843.12,1245.47,866.72,1263.32,898.39Z"/><path class="cls-2" d="M1310.68,869.89s-15-27.66-47.36-26.77C1263.32,843.12,1279,871.87,1310.68,869.89Z"/><path class="cls-2" d="M1310.68,815.19s-28.66-2.41-47.36,27.93C1263.32,843.12,1298.88,841.72,1310.68,815.19Z"/><path class="cls-2" d="M1263.32,787.37s17.35,27.54,0,55.75C1263.32,843.12,1245.23,818.16,1263.32,787.37Z"/><path class="cls-2" d="M1215.3,814.73s29.93-1.5,48,28.39A54.45,54.45,0,0,1,1215.3,814.73Z"/><path class="cls-2" d="M1215.3,870s16-27.26,48-26.87C1263.32,843.12,1247.22,870.1,1215.3,870Z"/></g><g class="cls-1"><path class="cls-2" d="M1263,704.59s16.54-28.79,0-55.26C1263,649.33,1245.14,672.92,1263,704.59Z"/><path class="cls-2" d="M1310.34,676.09s-15-27.66-47.35-26.76C1263,649.33,1278.68,678.08,1310.34,676.09Z"/><path class="cls-2" d="M1310.34,621.39S1281.69,619,1263,649.33C1263,649.33,1298.55,647.92,1310.34,621.39Z"/><path class="cls-2" d="M1263,593.57s17.35,27.55,0,55.76C1263,649.33,1244.89,624.36,1263,593.57Z"/><path class="cls-2" d="M1215,620.93s29.92-1.5,48,28.4A54.47,54.47,0,0,1,1215,620.93Z"/><path class="cls-2" d="M1215,676.19s16-27.26,48-26.86C1263,649.33,1246.89,676.31,1215,676.19Z"/></g><text class="cls-4" transform="translate(1240.72 755.63)"><tspan class="cls-5">D</tspan><tspan x="23.45" y="0">C</tspan></text><g class="cls-1"><path class="cls-2" d="M1514,317s16.54-28.79,0-55.26C1514,261.73,1496.14,285.33,1514,317Z"/><path class="cls-2" d="M1561.35,288.5s-15-27.66-47.36-26.77C1514,261.73,1529.69,290.48,1561.35,288.5Z"/><path class="cls-2" d="M1561.35,233.8s-28.66-2.41-47.36,27.93C1514,261.73,1549.55,260.33,1561.35,233.8Z"/><path class="cls-2" d="M1514,206s17.36,27.54,0,55.75C1514,261.73,1495.9,236.77,1514,206Z"/><path class="cls-2" d="M1466,233.34s29.93-1.5,48,28.39A54.48,54.48,0,0,1,1466,233.34Z"/><path class="cls-2" d="M1466,288.6s16-27.26,48-26.87C1514,261.73,1497.89,288.71,1466,288.6Z"/></g><g class="cls-1"><path class="cls-2" d="M1513.66,510.79s16.54-28.79,0-55.26C1513.66,455.53,1495.81,479.13,1513.66,510.79Z"/><path class="cls-2" d="M1561,482.29s-15-27.65-47.35-26.76C1513.66,455.53,1529.35,484.28,1561,482.29Z"/><path class="cls-2" d="M1561,427.6s-28.65-2.41-47.35,27.93C1513.66,455.53,1549.22,454.13,1561,427.6Z"/><path class="cls-2" d="M1513.66,399.78s17.35,27.54,0,55.75C1513.66,455.53,1495.57,430.57,1513.66,399.78Z"/><path class="cls-2" d="M1465.64,427.13s29.93-1.49,48,28.4A54.47,54.47,0,0,1,1465.64,427.13Z"/><path class="cls-2" d="M1465.64,482.4s16-27.26,48-26.87C1513.66,455.53,1497.56,482.51,1465.64,482.4Z"/></g><text class="cls-4" transform="translate(1491.39 174.24)"><tspan class="cls-5">D</tspan><tspan x="23.45" y="0">C</tspan></text><text class="cls-4" transform="translate(1491.39 368.03)"><tspan class="cls-5">D</tspan><tspan x="23.45" y="0">C</tspan></text><text class="cls-4" transform="translate(1491.39 561.83)"><tspan class="cls-5">D</tspan><tspan x="23.45" y="0">C</tspan></text><g class="cls-1"><path class="cls-2" d="M1514,898.39s16.54-28.8,0-55.27C1514,843.12,1496.14,866.72,1514,898.39Z"/><path class="cls-2" d="M1561.35,869.89s-15-27.66-47.36-26.77C1514,843.12,1529.69,871.87,1561.35,869.89Z"/><path class="cls-2" d="M1561.35,815.19s-28.66-2.41-47.36,27.93C1514,843.12,1549.55,841.72,1561.35,815.19Z"/><path class="cls-2" d="M1514,787.37s17.36,27.54,0,55.75C1514,843.12,1495.9,818.16,1514,787.37Z"/><path class="cls-2" d="M1466,814.73s29.93-1.5,48,28.39A54.46,54.46,0,0,1,1466,814.73Z"/><path class="cls-2" d="M1466,870s16-27.26,48-26.87C1514,843.12,1497.89,870.1,1466,870Z"/></g><g class="cls-1"><path class="cls-2" d="M1513.66,704.59s16.54-28.79,0-55.26C1513.66,649.33,1495.81,672.92,1513.66,704.59Z"/><path class="cls-2" d="M1561,676.09s-15-27.66-47.35-26.76C1513.66,649.33,1529.35,678.08,1561,676.09Z"/><path class="cls-2" d="M1561,621.39s-28.65-2.41-47.35,27.94C1513.66,649.33,1549.22,647.92,1561,621.39Z"/><path class="cls-2" d="M1513.66,593.57s17.35,27.55,0,55.76C1513.66,649.33,1495.57,624.36,1513.66,593.57Z"/><path class="cls-2" d="M1465.64,620.93s29.93-1.5,48,28.4A54.47,54.47,0,0,1,1465.64,620.93Z"/><path class="cls-2" d="M1465.64,676.19s16-27.26,48-26.86C1513.66,649.33,1497.56,676.31,1465.64,676.19Z"/></g><text class="cls-4" transform="translate(1491.39 755.63)"><tspan class="cls-5">D</tspan><tspan x="23.45" y="0">C</tspan></text><g class="cls-1"><path class="cls-2" d="M1768.67,317s16.54-28.79,0-55.26C1768.67,261.73,1750.82,285.33,1768.67,317Z"/><path class="cls-2" d="M1816,288.5s-15-27.66-47.35-26.77C1768.67,261.73,1784.36,290.48,1816,288.5Z"/><path class="cls-2" d="M1816,233.8s-28.65-2.41-47.35,27.93C1768.67,261.73,1804.23,260.33,1816,233.8Z"/><path class="cls-2" d="M1768.67,206s17.35,27.54,0,55.75C1768.67,261.73,1750.57,236.77,1768.67,206Z"/><path class="cls-2" d="M1720.64,233.34s29.93-1.5,48,28.39A54.49,54.49,0,0,1,1720.64,233.34Z"/><path class="cls-2" d="M1720.64,288.6s16-27.26,48-26.87C1768.67,261.73,1752.57,288.71,1720.64,288.6Z"/></g><g class="cls-1"><path class="cls-2" d="M1768.33,510.79s16.54-28.79,0-55.26C1768.33,455.53,1750.48,479.13,1768.33,510.79Z"/><path class="cls-2" d="M1815.69,482.29s-15-27.65-47.36-26.76C1768.33,455.53,1784,484.28,1815.69,482.29Z"/><path class="cls-2" d="M1815.69,427.6s-28.66-2.41-47.36,27.93C1768.33,455.53,1803.89,454.13,1815.69,427.6Z"/><path class="cls-2" d="M1768.33,399.78s17.36,27.54,0,55.75C1768.33,455.53,1750.24,430.57,1768.33,399.78Z"/><path class="cls-2" d="M1720.31,427.13s29.93-1.49,48,28.4A54.48,54.48,0,0,1,1720.31,427.13Z"/><path class="cls-2" d="M1720.31,482.4s16-27.26,48-26.87C1768.33,455.53,1752.24,482.51,1720.31,482.4Z"/></g><text class="cls-4" transform="translate(1746.07 174.24)"><tspan class="cls-5">D</tspan><tspan x="23.45" y="0">C</tspan></text><text class="cls-4" transform="translate(1746.07 368.03)"><tspan class="cls-5">D</tspan><tspan x="23.45" y="0">C</tspan></text><text class="cls-4" transform="translate(1746.07 561.83)"><tspan class="cls-5">D</tspan><tspan x="23.45" y="0">C</tspan></text><g class="cls-1"><path class="cls-2" d="M1768.67,898.39s16.54-28.8,0-55.27C1768.67,843.12,1750.82,866.72,1768.67,898.39Z"/><path class="cls-2" d="M1816,869.89s-15-27.66-47.35-26.77C1768.67,843.12,1784.36,871.87,1816,869.89Z"/><path class="cls-2" d="M1816,815.19s-28.65-2.41-47.35,27.93C1768.67,843.12,1804.23,841.72,1816,815.19Z"/><path class="cls-2" d="M1768.67,787.37s17.35,27.54,0,55.75C1768.67,843.12,1750.57,818.16,1768.67,787.37Z"/><path class="cls-2" d="M1720.64,814.73s29.93-1.5,48,28.39A54.47,54.47,0,0,1,1720.64,814.73Z"/><path class="cls-2" d="M1720.64,870s16-27.26,48-26.87C1768.67,843.12,1752.57,870.1,1720.64,870Z"/></g><g class="cls-1"><path class="cls-2" d="M1768.33,704.59s16.54-28.79,0-55.26C1768.33,649.33,1750.48,672.92,1768.33,704.59Z"/><path class="cls-2" d="M1815.69,676.09s-15-27.66-47.36-26.76C1768.33,649.33,1784,678.08,1815.69,676.09Z"/><path class="cls-2" d="M1815.69,621.39S1787,619,1768.33,649.33C1768.33,649.33,1803.89,647.92,1815.69,621.39Z"/><path class="cls-2" d="M1768.33,593.57s17.36,27.55,0,55.76C1768.33,649.33,1750.24,624.36,1768.33,593.57Z"/><path class="cls-2" d="M1720.31,620.93s29.93-1.5,48,28.4A54.48,54.48,0,0,1,1720.31,620.93Z"/><path class="cls-2" d="M1720.31,676.19s16-27.26,48-26.86C1768.33,649.33,1752.24,676.31,1720.31,676.19Z"/></g><text class="cls-4" transform="translate(1746.07 755.63)"><tspan class="cls-5">D</tspan><tspan x="23.45" y="0">C</tspan></text><g class="cls-1"><path class="cls-2" d="M2011.34,317s16.54-28.79,0-55.26C2011.34,261.73,1993.49,285.33,2011.34,317Z"/><path class="cls-2" d="M2058.69,288.5s-15-27.66-47.35-26.77C2011.34,261.73,2027,290.48,2058.69,288.5Z"/><path class="cls-2" d="M2058.69,233.8s-28.65-2.41-47.35,27.93C2011.34,261.73,2046.9,260.33,2058.69,233.8Z"/><path class="cls-2" d="M2011.34,206s17.35,27.54,0,55.75C2011.34,261.73,1993.24,236.77,2011.34,206Z"/><path class="cls-2" d="M1963.32,233.34s29.92-1.5,48,28.39A54.47,54.47,0,0,1,1963.32,233.34Z"/><path class="cls-2" d="M1963.32,288.6s16-27.26,48-26.87C2011.34,261.73,1995.24,288.71,1963.32,288.6Z"/></g><g class="cls-1"><path class="cls-2" d="M2011,510.79s16.55-28.79,0-55.26C2011,455.53,1993.16,479.13,2011,510.79Z"/><path class="cls-2" d="M2058.36,482.29s-15-27.65-47.36-26.76C2011,455.53,2026.7,484.28,2058.36,482.29Z"/><path class="cls-2" d="M2058.36,427.6s-28.66-2.41-47.36,27.93C2011,455.53,2046.56,454.13,2058.36,427.6Z"/><path class="cls-2" d="M2011,399.78s17.36,27.54,0,55.75C2011,455.53,1992.91,430.57,2011,399.78Z"/><path class="cls-2" d="M1963,427.13s29.93-1.49,48,28.4A54.48,54.48,0,0,1,1963,427.13Z"/><path class="cls-2" d="M1963,482.4s16-27.26,48-26.87C2011,455.53,1994.91,482.51,1963,482.4Z"/></g><text class="cls-4" transform="translate(1988.74 174.24)"><tspan class="cls-5">D</tspan><tspan x="23.45" y="0">C</tspan></text><text class="cls-4" transform="translate(1988.74 368.03)"><tspan class="cls-5">D</tspan><tspan x="23.45" y="0">C</tspan></text><text class="cls-4" transform="translate(1988.74 561.83)"><tspan class="cls-5">D</tspan><tspan x="23.45" y="0">C</tspan></text><g class="cls-1"><path class="cls-2" d="M2011.34,898.39s16.54-28.8,0-55.27C2011.34,843.12,1993.49,866.72,2011.34,898.39Z"/><path class="cls-2" d="M2058.69,869.89s-15-27.66-47.35-26.77C2011.34,843.12,2027,871.87,2058.69,869.89Z"/><path class="cls-2" d="M2058.69,815.19s-28.65-2.41-47.35,27.93C2011.34,843.12,2046.9,841.72,2058.69,815.19Z"/><path class="cls-2" d="M2011.34,787.37s17.35,27.54,0,55.75C2011.34,843.12,1993.24,818.16,2011.34,787.37Z"/><path class="cls-2" d="M1963.32,814.73s29.92-1.5,48,28.39A54.45,54.45,0,0,1,1963.32,814.73Z"/><path class="cls-2" d="M1963.32,870s16-27.26,48-26.87C2011.34,843.12,1995.24,870.1,1963.32,870Z"/></g><g class="cls-1"><path class="cls-2" d="M2011,704.59s16.55-28.79,0-55.26C2011,649.33,1993.16,672.92,2011,704.59Z"/><path class="cls-2" d="M2058.36,676.09s-15-27.66-47.36-26.76C2011,649.33,2026.7,678.08,2058.36,676.09Z"/><path class="cls-2" d="M2058.36,621.39S2029.7,619,2011,649.33C2011,649.33,2046.56,647.92,2058.36,621.39Z"/><path class="cls-2" d="M2011,593.57s17.36,27.55,0,55.76C2011,649.33,1992.91,624.36,2011,593.57Z"/><path class="cls-2" d="M1963,620.93s29.93-1.5,48,28.4A54.48,54.48,0,0,1,1963,620.93Z"/><path class="cls-2" d="M1963,676.19s16-27.26,48-26.86C2011,649.33,1994.91,676.31,1963,676.19Z"/></g><text class="cls-4" transform="translate(1988.74 755.63)"><tspan class="cls-5">D</tspan><tspan x="23.45" y="0">C</tspan></text><text class="cls-4" transform="translate(630.39 658.95)"><tspan class="cls-5">D</tspan><tspan x="23.45" y="0">C</tspan></text><g class="cls-1"><path class="cls-3" d="M414.66,608.76s16.54-28.79,0-55.26C414.66,553.5,396.81,577.09,414.66,608.76Z"/><path class="cls-3" d="M462,580.26s-15-27.66-47.36-26.76C414.66,553.5,430.36,582.24,462,580.26Z"/><path class="cls-3" d="M462,525.56s-28.66-2.41-47.36,27.94C414.66,553.5,450.22,552.09,462,525.56Z"/><path class="cls-3" d="M414.66,497.74s17.35,27.54,0,55.76C414.66,553.5,396.57,528.53,414.66,497.74Z"/><path class="cls-3" d="M366.64,525.1s29.93-1.5,48,28.4A54.47,54.47,0,0,1,366.64,525.1Z"/><path class="cls-3" d="M366.64,580.36s16-27.26,48-26.86C414.66,553.5,398.56,580.48,366.64,580.36Z"/></g><g class="cls-1"><path class="cls-3" d="M414,220.09s16.55-28.79,0-55.26C414,164.83,396.15,188.43,414,220.09Z"/><path class="cls-3" d="M461.35,191.6s-15-27.66-47.36-26.77C414,164.83,429.69,193.58,461.35,191.6Z"/><path class="cls-3" d="M461.35,136.9s-28.66-2.41-47.36,27.93C414,164.83,449.55,163.43,461.35,136.9Z"/><path class="cls-3" d="M414,109.08s17.36,27.54,0,55.75C414,164.83,395.9,139.87,414,109.08Z"/><path class="cls-3" d="M366,136.44s29.93-1.5,48,28.39A54.48,54.48,0,0,1,366,136.44Z"/><path class="cls-3" d="M366,191.7s16-27.26,48-26.87C414,164.83,397.9,191.81,366,191.7Z"/></g><g class="cls-1"><path class="cls-3" d="M414.33,414.43s16.54-28.8,0-55.27C414.33,359.16,396.48,382.76,414.33,414.43Z"/><path class="cls-3" d="M461.68,385.93s-15-27.66-47.35-26.77C414.33,359.16,430,387.91,461.68,385.93Z"/><path class="cls-3" d="M461.68,331.23s-28.65-2.41-47.35,27.93C414.33,359.16,449.89,357.76,461.68,331.23Z"/><path class="cls-3" d="M414.33,303.41s17.35,27.54,0,55.75C414.33,359.16,396.23,334.2,414.33,303.41Z"/><path class="cls-3" d="M366.31,330.77s29.92-1.5,48,28.39A54.45,54.45,0,0,1,366.31,330.77Z"/><path class="cls-3" d="M366.31,386s16-27.26,48-26.87C414.33,359.16,398.23,386.14,366.31,386Z"/></g><text class="cls-4" transform="translate(391.4 271.4)"><tspan class="cls-5">D</tspan><tspan x="23.45" y="0">C</tspan></text><text class="cls-4" transform="translate(391.23 465.73)"><tspan class="cls-5">D</tspan><tspan x="23.45" y="0">C</tspan></text><g class="cls-1"><path class="cls-3" d="M414,801.49s16.55-28.79,0-55.26C414,746.23,396.15,769.82,414,801.49Z"/><path class="cls-3" d="M461.35,773s-15-27.66-47.36-26.76C414,746.23,429.69,775,461.35,773Z"/><path class="cls-3" d="M461.35,718.29s-28.66-2.41-47.36,27.94C414,746.23,449.55,744.82,461.35,718.29Z"/><path class="cls-3" d="M414,690.47s17.36,27.54,0,55.76C414,746.23,395.9,721.26,414,690.47Z"/><path class="cls-3" d="M366,717.83s29.93-1.5,48,28.4A54.48,54.48,0,0,1,366,717.83Z"/><path class="cls-3" d="M366,773.09s16-27.26,48-26.86C414,746.23,397.9,773.2,366,773.09Z"/></g><text class="cls-4" transform="translate(391.4 852.79)"><tspan class="cls-5">D</tspan><tspan x="23.45" y="0">C</tspan></text><text class="cls-4" transform="translate(391.06 658.95)"><tspan class="cls-5">D</tspan><tspan x="23.45" y="0">C</tspan></text><g class="cls-1"><path class="cls-3" d="M172.33,608.76s16.54-28.79,0-55.26C172.33,553.5,154.48,577.09,172.33,608.76Z"/><path class="cls-3" d="M219.68,580.26s-15-27.66-47.35-26.76C172.33,553.5,188,582.24,219.68,580.26Z"/><path class="cls-3" d="M219.68,525.56S191,523.15,172.33,553.5C172.33,553.5,207.89,552.09,219.68,525.56Z"/><path class="cls-3" d="M172.33,497.74s17.35,27.54,0,55.76C172.33,553.5,154.24,528.53,172.33,497.74Z"/><path class="cls-3" d="M124.31,525.1s29.93-1.5,48,28.4A54.47,54.47,0,0,1,124.31,525.1Z"/><path class="cls-3" d="M124.31,580.36s16-27.26,48-26.86C172.33,553.5,156.23,580.48,124.31,580.36Z"/></g><g class="cls-1"><path class="cls-3" d="M171.66,220.09s16.54-28.79,0-55.26C171.66,164.83,153.81,188.43,171.66,220.09Z"/><path class="cls-3" d="M219,191.6s-15-27.66-47.36-26.77C171.66,164.83,187.36,193.58,219,191.6Z"/><path class="cls-3" d="M219,136.9s-28.66-2.41-47.36,27.93C171.66,164.83,207.22,163.43,219,136.9Z"/><path class="cls-3" d="M171.66,109.08s17.36,27.54,0,55.75C171.66,164.83,153.57,139.87,171.66,109.08Z"/><path class="cls-3" d="M123.64,136.44s29.93-1.5,48,28.39A54.48,54.48,0,0,1,123.64,136.44Z"/><path class="cls-3" d="M123.64,191.7s16-27.26,48-26.87C171.66,164.83,155.57,191.81,123.64,191.7Z"/></g><g class="cls-1"><path class="cls-3" d="M172,414.43s16.54-28.8,0-55.27C172,359.16,154.15,382.76,172,414.43Z"/><path class="cls-3" d="M219.35,385.93s-15-27.66-47.35-26.77C172,359.16,187.69,387.91,219.35,385.93Z"/><path class="cls-3" d="M219.35,331.23S190.7,328.82,172,359.16C172,359.16,207.56,357.76,219.35,331.23Z"/><path class="cls-3" d="M172,303.41s17.35,27.54,0,55.75C172,359.16,153.9,334.2,172,303.41Z"/><path class="cls-3" d="M124,330.77s29.93-1.5,48,28.39A54.47,54.47,0,0,1,124,330.77Z"/><path class="cls-3" d="M124,386s16-27.26,48-26.87C172,359.16,155.9,386.14,124,386Z"/></g><text class="cls-4" transform="translate(149.06 271.4)"><tspan class="cls-5">D</tspan><tspan x="23.45" y="0">C</tspan></text><text class="cls-4" transform="translate(148.9 465.73)"><tspan class="cls-5">D</tspan><tspan x="23.45" y="0">C</tspan></text><g class="cls-1"><path class="cls-3" d="M171.66,801.49s16.54-28.79,0-55.26C171.66,746.23,153.81,769.82,171.66,801.49Z"/><path class="cls-3" d="M219,773s-15-27.66-47.36-26.76C171.66,746.23,187.36,775,219,773Z"/><path class="cls-3" d="M219,718.29s-28.66-2.41-47.36,27.94C171.66,746.23,207.22,744.82,219,718.29Z"/><path class="cls-3" d="M171.66,690.47s17.36,27.54,0,55.76C171.66,746.23,153.57,721.26,171.66,690.47Z"/><path class="cls-3" d="M123.64,717.83s29.93-1.5,48,28.4A54.48,54.48,0,0,1,123.64,717.83Z"/><path class="cls-3" d="M123.64,773.09s16-27.26,48-26.86C171.66,746.23,155.57,773.2,123.64,773.09Z"/></g><text class="cls-4" transform="translate(149.06 852.79)"><tspan class="cls-5">D</tspan><tspan x="23.45" y="0">C</tspan></text><text class="cls-4" transform="translate(148.73 658.95)"><tspan class="cls-5">D</tspan><tspan x="23.45" y="0">C</tspan></text><g class="cls-1"><path class="cls-3" d="M895,608.76s16.54-28.79,0-55.26C895,553.5,877.14,577.09,895,608.76Z"/><path class="cls-3" d="M942.34,580.26s-15-27.66-47.35-26.76C895,553.5,910.68,582.24,942.34,580.26Z"/><path class="cls-3" d="M942.34,525.56S913.69,523.15,895,553.5C895,553.5,930.55,552.09,942.34,525.56Z"/><path class="cls-3" d="M895,497.74s17.35,27.54,0,55.76C895,553.5,876.89,528.53,895,497.74Z"/><path class="cls-3" d="M847,525.1s29.93-1.5,48,28.4A54.49,54.49,0,0,1,847,525.1Z"/><path class="cls-3" d="M847,580.36s16-27.26,48-26.86C895,553.5,878.89,580.48,847,580.36Z"/></g><g class="cls-1"><path class="cls-3" d="M894.32,220.09s16.54-28.79,0-55.26C894.32,164.83,876.47,188.43,894.32,220.09Z"/><path class="cls-3" d="M941.67,191.6s-15-27.66-47.35-26.77C894.32,164.83,910,193.58,941.67,191.6Z"/><path class="cls-3" d="M941.67,136.9s-28.65-2.41-47.35,27.93C894.32,164.83,929.88,163.43,941.67,136.9Z"/><path class="cls-3" d="M894.32,109.08s17.35,27.54,0,55.75C894.32,164.83,876.23,139.87,894.32,109.08Z"/><path class="cls-3" d="M846.3,136.44s29.93-1.5,48,28.39A54.47,54.47,0,0,1,846.3,136.44Z"/><path class="cls-3" d="M846.3,191.7s16-27.26,48-26.87C894.32,164.83,878.22,191.81,846.3,191.7Z"/></g><g class="cls-1"><path class="cls-3" d="M894.65,414.43s16.54-28.8,0-55.27C894.65,359.16,876.8,382.76,894.65,414.43Z"/><path class="cls-3" d="M942,385.93s-15-27.66-47.36-26.77C894.65,359.16,910.35,387.91,942,385.93Z"/><path class="cls-3" d="M942,331.23s-28.66-2.41-47.36,27.93C894.65,359.16,930.21,357.76,942,331.23Z"/><path class="cls-3" d="M894.65,303.41s17.36,27.54,0,55.75C894.65,359.16,876.56,334.2,894.65,303.41Z"/><path class="cls-3" d="M846.63,330.77s29.93-1.5,48,28.39A54.46,54.46,0,0,1,846.63,330.77Z"/><path class="cls-3" d="M846.63,386s16-27.26,48-26.87C894.65,359.16,878.56,386.14,846.63,386Z"/></g><text class="cls-4" transform="translate(871.72 271.4)"><tspan class="cls-5">D</tspan><tspan x="23.45" y="0">C</tspan></text><text class="cls-4" transform="translate(871.56 465.73)"><tspan class="cls-5">D</tspan><tspan x="23.45" y="0">C</tspan></text><g class="cls-1"><path class="cls-3" d="M894.32,801.49s16.54-28.79,0-55.26C894.32,746.23,876.47,769.82,894.32,801.49Z"/><path class="cls-3" d="M941.67,773s-15-27.66-47.35-26.76C894.32,746.23,910,775,941.67,773Z"/><path class="cls-3" d="M941.67,718.29s-28.65-2.41-47.35,27.94C894.32,746.23,929.88,744.82,941.67,718.29Z"/><path class="cls-3" d="M894.32,690.47s17.35,27.54,0,55.76C894.32,746.23,876.23,721.26,894.32,690.47Z"/><path class="cls-3" d="M846.3,717.83s29.93-1.5,48,28.4A54.47,54.47,0,0,1,846.3,717.83Z"/><path class="cls-3" d="M846.3,773.09s16-27.26,48-26.86C894.32,746.23,878.22,773.2,846.3,773.09Z"/></g><text class="cls-4" transform="translate(871.72 852.79)"><tspan class="cls-5">D</tspan><tspan x="23.45" y="0">C</tspan></text><text class="cls-4" transform="translate(871.39 658.95)"><tspan class="cls-5">D</tspan><tspan x="23.45" y="0">C</tspan></text><g class="cls-1"><path class="cls-3" d="M1139.65,608.76s16.54-28.79,0-55.26C1139.65,553.5,1121.8,577.09,1139.65,608.76Z"/><path class="cls-3" d="M1187,580.26s-15-27.66-47.36-26.76C1139.65,553.5,1155.35,582.24,1187,580.26Z"/><path class="cls-3" d="M1187,525.56s-28.66-2.41-47.36,27.94C1139.65,553.5,1175.21,552.09,1187,525.56Z"/><path class="cls-3" d="M1139.65,497.74s17.36,27.54,0,55.76C1139.65,553.5,1121.56,528.53,1139.65,497.74Z"/><path class="cls-3" d="M1091.63,525.1s29.93-1.5,48,28.4A54.48,54.48,0,0,1,1091.63,525.1Z"/><path class="cls-3" d="M1091.63,580.36s16-27.26,48-26.86C1139.65,553.5,1123.56,580.48,1091.63,580.36Z"/></g><g class="cls-1"><path class="cls-3" d="M1139,220.09s16.54-28.79,0-55.26C1139,164.83,1121.14,188.43,1139,220.09Z"/><path class="cls-3" d="M1186.34,191.6s-15-27.66-47.35-26.77C1139,164.83,1154.68,193.58,1186.34,191.6Z"/><path class="cls-3" d="M1186.34,136.9s-28.65-2.41-47.35,27.93C1139,164.83,1174.55,163.43,1186.34,136.9Z"/><path class="cls-3" d="M1139,109.08s17.35,27.54,0,55.75C1139,164.83,1120.89,139.87,1139,109.08Z"/><path class="cls-3" d="M1091,136.44s29.93-1.5,48,28.39A54.49,54.49,0,0,1,1091,136.44Z"/><path class="cls-3" d="M1091,191.7s16-27.26,48-26.87C1139,164.83,1122.89,191.81,1091,191.7Z"/></g><g class="cls-1"><path class="cls-3" d="M1139.32,414.43s16.54-28.8,0-55.27C1139.32,359.16,1121.47,382.76,1139.32,414.43Z"/><path class="cls-3" d="M1186.67,385.93s-15-27.66-47.35-26.77C1139.32,359.16,1155,387.91,1186.67,385.93Z"/><path class="cls-3" d="M1186.67,331.23s-28.65-2.41-47.35,27.93C1139.32,359.16,1174.88,357.76,1186.67,331.23Z"/><path class="cls-3" d="M1139.32,303.41s17.35,27.54,0,55.75C1139.32,359.16,1121.23,334.2,1139.32,303.41Z"/><path class="cls-3" d="M1091.3,330.77s29.93-1.5,48,28.39A54.45,54.45,0,0,1,1091.3,330.77Z"/><path class="cls-3" d="M1091.3,386s16-27.26,48-26.87C1139.32,359.16,1123.22,386.14,1091.3,386Z"/></g><text class="cls-4" transform="translate(1116.39 271.4)"><tspan class="cls-5">D</tspan><tspan x="23.45" y="0">C</tspan></text><text class="cls-4" transform="translate(1116.22 465.73)"><tspan class="cls-5">D</tspan><tspan x="23.45" y="0">C</tspan></text><g class="cls-1"><path class="cls-3" d="M1139,801.49s16.54-28.79,0-55.26C1139,746.23,1121.14,769.82,1139,801.49Z"/><path class="cls-3" d="M1186.34,773s-15-27.66-47.35-26.76C1139,746.23,1154.68,775,1186.34,773Z"/><path class="cls-3" d="M1186.34,718.29s-28.65-2.41-47.35,27.94C1139,746.23,1174.55,744.82,1186.34,718.29Z"/><path class="cls-3" d="M1139,690.47s17.35,27.54,0,55.76C1139,746.23,1120.89,721.26,1139,690.47Z"/><path class="cls-3" d="M1091,717.83s29.93-1.5,48,28.4A54.49,54.49,0,0,1,1091,717.83Z"/><path class="cls-3" d="M1091,773.09s16-27.26,48-26.86C1139,746.23,1122.89,773.2,1091,773.09Z"/></g><text class="cls-4" transform="translate(1116.39 852.79)"><tspan class="cls-5">D</tspan><tspan x="23.45" y="0">C</tspan></text><text class="cls-4" transform="translate(1116.05 658.95)"><tspan class="cls-5">D</tspan><tspan x="23.45" y="0">C</tspan></text><g class="cls-1"><path class="cls-3" d="M1388.32,608.76s16.54-28.79,0-55.26C1388.32,553.5,1370.47,577.09,1388.32,608.76Z"/><path class="cls-3" d="M1435.68,580.26s-15-27.66-47.36-26.76C1388.32,553.5,1404,582.24,1435.68,580.26Z"/><path class="cls-3" d="M1435.68,525.56s-28.66-2.41-47.36,27.94C1388.32,553.5,1423.88,552.09,1435.68,525.56Z"/><path class="cls-3" d="M1388.32,497.74s17.36,27.54,0,55.76C1388.32,553.5,1370.23,528.53,1388.32,497.74Z"/><path class="cls-3" d="M1340.3,525.1s29.93-1.5,48,28.4A54.48,54.48,0,0,1,1340.3,525.1Z"/><path class="cls-3" d="M1340.3,580.36s16-27.26,48-26.86C1388.32,553.5,1372.23,580.48,1340.3,580.36Z"/></g><g class="cls-1"><path class="cls-3" d="M1387.66,220.09s16.54-28.79,0-55.26C1387.66,164.83,1369.81,188.43,1387.66,220.09Z"/><path class="cls-3" d="M1435,191.6s-15-27.66-47.35-26.77C1387.66,164.83,1403.35,193.58,1435,191.6Z"/><path class="cls-3" d="M1435,136.9s-28.65-2.41-47.35,27.93C1387.66,164.83,1423.22,163.43,1435,136.9Z"/><path class="cls-3" d="M1387.66,109.08s17.35,27.54,0,55.75C1387.66,164.83,1369.56,139.87,1387.66,109.08Z"/><path class="cls-3" d="M1339.63,136.44s29.93-1.5,48,28.39A54.49,54.49,0,0,1,1339.63,136.44Z"/><path class="cls-3" d="M1339.63,191.7s16-27.26,48-26.87C1387.66,164.83,1371.56,191.81,1339.63,191.7Z"/></g><g class="cls-1"><path class="cls-3" d="M1388,414.43s16.54-28.8,0-55.27C1388,359.16,1370.14,382.76,1388,414.43Z"/><path class="cls-3" d="M1435.34,385.93s-15-27.66-47.35-26.77C1388,359.16,1403.68,387.91,1435.34,385.93Z"/><path class="cls-3" d="M1435.34,331.23s-28.65-2.41-47.35,27.93C1388,359.16,1423.55,357.76,1435.34,331.23Z"/><path class="cls-3" d="M1388,303.41s17.35,27.54,0,55.75C1388,359.16,1369.9,334.2,1388,303.41Z"/><path class="cls-3" d="M1340,330.77s29.93-1.5,48,28.39A54.45,54.45,0,0,1,1340,330.77Z"/><path class="cls-3" d="M1340,386s16-27.26,48-26.87C1388,359.16,1371.89,386.14,1340,386Z"/></g><text class="cls-4" transform="translate(1365.06 271.4)"><tspan class="cls-5">D</tspan><tspan x="23.45" y="0">C</tspan></text><text class="cls-4" transform="translate(1364.89 465.73)"><tspan class="cls-5">D</tspan><tspan x="23.45" y="0">C</tspan></text><g class="cls-1"><path class="cls-3" d="M1387.66,801.49s16.54-28.79,0-55.26C1387.66,746.23,1369.81,769.82,1387.66,801.49Z"/><path class="cls-3" d="M1435,773s-15-27.66-47.35-26.76C1387.66,746.23,1403.35,775,1435,773Z"/><path class="cls-3" d="M1435,718.29s-28.65-2.41-47.35,27.94C1387.66,746.23,1423.22,744.82,1435,718.29Z"/><path class="cls-3" d="M1387.66,690.47s17.35,27.54,0,55.76C1387.66,746.23,1369.56,721.26,1387.66,690.47Z"/><path class="cls-3" d="M1339.63,717.83s29.93-1.5,48,28.4A54.49,54.49,0,0,1,1339.63,717.83Z"/><path class="cls-3" d="M1339.63,773.09s16-27.26,48-26.86C1387.66,746.23,1371.56,773.2,1339.63,773.09Z"/></g><text class="cls-4" transform="translate(1365.06 852.79)"><tspan class="cls-5">D</tspan><tspan x="23.45" y="0">C</tspan></text><text class="cls-4" transform="translate(1364.72 658.95)"><tspan class="cls-5">D</tspan><tspan x="23.45" y="0">C</tspan></text><g class="cls-1"><path class="cls-3" d="M1641,608.76s16.54-28.79,0-55.26C1641,553.5,1623.15,577.09,1641,608.76Z"/><path class="cls-3" d="M1688.35,580.26s-15-27.66-47.35-26.76C1641,553.5,1656.69,582.24,1688.35,580.26Z"/><path class="cls-3" d="M1688.35,525.56s-28.65-2.41-47.35,27.94C1641,553.5,1676.56,552.09,1688.35,525.56Z"/><path class="cls-3" d="M1641,497.74s17.35,27.54,0,55.76C1641,553.5,1622.9,528.53,1641,497.74Z"/><path class="cls-3" d="M1593,525.1s29.93-1.5,48,28.4A54.49,54.49,0,0,1,1593,525.1Z"/><path class="cls-3" d="M1593,580.36s16-27.26,48-26.86C1641,553.5,1624.9,580.48,1593,580.36Z"/></g><g class="cls-1"><path class="cls-3" d="M1640.33,220.09s16.54-28.79,0-55.26C1640.33,164.83,1622.48,188.43,1640.33,220.09Z"/><path class="cls-3" d="M1687.68,191.6s-15-27.66-47.35-26.77C1640.33,164.83,1656,193.58,1687.68,191.6Z"/><path class="cls-3" d="M1687.68,136.9s-28.65-2.41-47.35,27.93C1640.33,164.83,1675.89,163.43,1687.68,136.9Z"/><path class="cls-3" d="M1640.33,109.08s17.35,27.54,0,55.75C1640.33,164.83,1622.24,139.87,1640.33,109.08Z"/><path class="cls-3" d="M1592.31,136.44s29.93-1.5,48,28.39A54.47,54.47,0,0,1,1592.31,136.44Z"/><path class="cls-3" d="M1592.31,191.7s16-27.26,48-26.87C1640.33,164.83,1624.23,191.81,1592.31,191.7Z"/></g><g class="cls-1"><path class="cls-3" d="M1640.66,414.43s16.54-28.8,0-55.27C1640.66,359.16,1622.81,382.76,1640.66,414.43Z"/><path class="cls-3" d="M1688,385.93s-15-27.66-47.36-26.77C1640.66,359.16,1656.36,387.91,1688,385.93Z"/><path class="cls-3" d="M1688,331.23s-28.66-2.41-47.36,27.93C1640.66,359.16,1676.22,357.76,1688,331.23Z"/><path class="cls-3" d="M1640.66,303.41s17.36,27.54,0,55.75C1640.66,359.16,1622.57,334.2,1640.66,303.41Z"/><path class="cls-3" d="M1592.64,330.77s29.93-1.5,48,28.39A54.46,54.46,0,0,1,1592.64,330.77Z"/><path class="cls-3" d="M1592.64,386s16-27.26,48-26.87C1640.66,359.16,1624.56,386.14,1592.64,386Z"/></g><text class="cls-4" transform="translate(1617.73 271.4)"><tspan class="cls-5">D</tspan><tspan x="23.45" y="0">C</tspan></text><text class="cls-4" transform="translate(1617.56 465.73)"><tspan class="cls-5">D</tspan><tspan x="23.45" y="0">C</tspan></text><g class="cls-1"><path class="cls-3" d="M1640.33,801.49s16.54-28.79,0-55.26C1640.33,746.23,1622.48,769.82,1640.33,801.49Z"/><path class="cls-3" d="M1687.68,773s-15-27.66-47.35-26.76C1640.33,746.23,1656,775,1687.68,773Z"/><path class="cls-3" d="M1687.68,718.29s-28.65-2.41-47.35,27.94C1640.33,746.23,1675.89,744.82,1687.68,718.29Z"/><path class="cls-3" d="M1640.33,690.47s17.35,27.54,0,55.76C1640.33,746.23,1622.24,721.26,1640.33,690.47Z"/><path class="cls-3" d="M1592.31,717.83s29.93-1.5,48,28.4A54.47,54.47,0,0,1,1592.31,717.83Z"/><path class="cls-3" d="M1592.31,773.09s16-27.26,48-26.86C1640.33,746.23,1624.23,773.2,1592.31,773.09Z"/></g><text class="cls-4" transform="translate(1617.73 852.79)"><tspan class="cls-5">D</tspan><tspan x="23.45" y="0">C</tspan></text><text class="cls-4" transform="translate(1617.4 658.95)"><tspan class="cls-5">D</tspan><tspan x="23.45" y="0">C</tspan></text><g class="cls-1"><path class="cls-3" d="M1897.34,608.76s16.54-28.79,0-55.26C1897.34,553.5,1879.49,577.09,1897.34,608.76Z"/><path class="cls-3" d="M1944.69,580.26s-15-27.66-47.35-26.76C1897.34,553.5,1913,582.24,1944.69,580.26Z"/><path class="cls-3" d="M1944.69,525.56s-28.65-2.41-47.35,27.94C1897.34,553.5,1932.9,552.09,1944.69,525.56Z"/><path class="cls-3" d="M1897.34,497.74s17.35,27.54,0,55.76C1897.34,553.5,1879.24,528.53,1897.34,497.74Z"/><path class="cls-3" d="M1849.32,525.1s29.92-1.5,48,28.4A54.47,54.47,0,0,1,1849.32,525.1Z"/><path class="cls-3" d="M1849.32,580.36s16-27.26,48-26.86C1897.34,553.5,1881.24,580.48,1849.32,580.36Z"/></g><g class="cls-1"><path class="cls-3" d="M1896.67,220.09s16.54-28.79,0-55.26C1896.67,164.83,1878.82,188.43,1896.67,220.09Z"/><path class="cls-3" d="M1944,191.6s-15-27.66-47.36-26.77C1896.67,164.83,1912.36,193.58,1944,191.6Z"/><path class="cls-3" d="M1944,136.9s-28.66-2.41-47.36,27.93C1896.67,164.83,1932.23,163.43,1944,136.9Z"/><path class="cls-3" d="M1896.67,109.08s17.35,27.54,0,55.75C1896.67,164.83,1878.58,139.87,1896.67,109.08Z"/><path class="cls-3" d="M1848.65,136.44s29.93-1.5,48,28.39A54.47,54.47,0,0,1,1848.65,136.44Z"/><path class="cls-3" d="M1848.65,191.7s16-27.26,48-26.87C1896.67,164.83,1880.57,191.81,1848.65,191.7Z"/></g><g class="cls-1"><path class="cls-3" d="M1897,414.43s16.55-28.8,0-55.27C1897,359.16,1879.16,382.76,1897,414.43Z"/><path class="cls-3" d="M1944.36,385.93s-15-27.66-47.36-26.77C1897,359.16,1912.7,387.91,1944.36,385.93Z"/><path class="cls-3" d="M1944.36,331.23s-28.66-2.41-47.36,27.93C1897,359.16,1932.57,357.76,1944.36,331.23Z"/><path class="cls-3" d="M1897,303.41s17.36,27.54,0,55.75C1897,359.16,1878.91,334.2,1897,303.41Z"/><path class="cls-3" d="M1849,330.77s29.93-1.5,48,28.39A54.46,54.46,0,0,1,1849,330.77Z"/><path class="cls-3" d="M1849,386s16-27.26,48-26.87C1897,359.16,1880.91,386.14,1849,386Z"/></g><text class="cls-4" transform="translate(1874.07 271.4)"><tspan class="cls-5">D</tspan><tspan x="23.45" y="0">C</tspan></text><g class="cls-1"><path class="cls-2" d="M534.66,123.2s16.54-28.8,0-55.26C534.66,67.94,516.81,91.53,534.66,123.2Z"/><path class="cls-2" d="M582,94.7S567,67,534.66,67.94C534.66,67.94,550.35,96.68,582,94.7Z"/><path class="cls-2" d="M582,40s-28.65-2.41-47.35,27.94C534.66,67.94,570.22,66.53,582,40Z"/><path class="cls-2" d="M534.66,12.18s17.35,27.54,0,55.76C534.66,67.94,516.57,43,534.66,12.18Z"/><path class="cls-2" d="M486.64,39.54s29.93-1.5,48,28.4A54.47,54.47,0,0,1,486.64,39.54Z"/><path class="cls-2" d="M486.64,94.8s16-27.26,48-26.86C534.66,67.94,518.56,94.91,486.64,94.8Z"/></g><text class="cls-4" transform="translate(630.72 77.6)"><tspan class="cls-5">D</tspan><tspan x="23.45" y="0">C</tspan></text><g class="cls-1"><path class="cls-2" d="M293.66,123.2s16.54-28.8,0-55.26C293.66,67.94,275.81,91.53,293.66,123.2Z"/><path class="cls-2" d="M341,94.7S326,67,293.66,67.94C293.66,67.94,309.36,96.68,341,94.7Z"/><path class="cls-2" d="M341,40s-28.66-2.41-47.36,27.94C293.66,67.94,329.22,66.53,341,40Z"/><path class="cls-2" d="M293.66,12.18s17.36,27.54,0,55.76C293.66,67.94,275.57,43,293.66,12.18Z"/><path class="cls-2" d="M245.64,39.54s29.93-1.5,48,28.4A54.48,54.48,0,0,1,245.64,39.54Z"/><path class="cls-2" d="M245.64,94.8s16-27.26,48-26.86C293.66,67.94,277.56,94.91,245.64,94.8Z"/></g><g class="cls-1"><path class="cls-2" d="M49.66,123.2s16.54-28.8,0-55.26C49.66,67.94,31.81,91.53,49.66,123.2Z"/><path class="cls-2" d="M97,94.7S82,67,49.66,67.94C49.66,67.94,65.36,96.68,97,94.7Z"/><path class="cls-2" d="M97,40S68.36,37.59,49.66,67.94C49.66,67.94,85.22,66.53,97,40Z"/><path class="cls-2" d="M49.66,12.18s17.36,27.54,0,55.76C49.66,67.94,31.57,43,49.66,12.18Z"/><path class="cls-2" d="M1.64,39.54s29.93-1.5,48,28.4A54.48,54.48,0,0,1,1.64,39.54Z"/><path class="cls-2" d="M1.64,94.8s16-27.26,48-26.86C49.66,67.94,33.57,94.91,1.64,94.8Z"/></g><g class="cls-1"><path class="cls-2" d="M774,123.2s16.54-28.8,0-55.26C774,67.94,756.14,91.53,774,123.2Z"/><path class="cls-2" d="M821.34,94.7S806.37,67,774,67.94C774,67.94,789.68,96.68,821.34,94.7Z"/><path class="cls-2" d="M821.34,40S792.69,37.59,774,67.94C774,67.94,809.55,66.53,821.34,40Z"/><path class="cls-2" d="M774,12.18s17.35,27.54,0,55.76C774,67.94,755.89,43,774,12.18Z"/><path class="cls-2" d="M726,39.54s29.92-1.5,48,28.4A54.47,54.47,0,0,1,726,39.54Z"/><path class="cls-2" d="M726,94.8s16-27.26,48-26.86C774,67.94,757.89,94.91,726,94.8Z"/></g><g class="cls-1"><path class="cls-2" d="M1016.65,123.2s16.54-28.8,0-55.26C1016.65,67.94,998.8,91.53,1016.65,123.2Z"/><path class="cls-2" d="M1064,94.7S1049,67,1016.65,67.94C1016.65,67.94,1032.35,96.68,1064,94.7Z"/><path class="cls-2" d="M1064,40s-28.66-2.41-47.36,27.94C1016.65,67.94,1052.21,66.53,1064,40Z"/><path class="cls-2" d="M1016.65,12.18s17.36,27.54,0,55.76C1016.65,67.94,998.56,43,1016.65,12.18Z"/><path class="cls-2" d="M968.63,39.54s29.93-1.5,48,28.4A54.48,54.48,0,0,1,968.63,39.54Z"/><path class="cls-2" d="M968.63,94.8s16-27.26,48-26.86C1016.65,67.94,1000.56,94.91,968.63,94.8Z"/></g><g class="cls-1"><path class="cls-2" d="M1263.32,123.2s16.54-28.8,0-55.26C1263.32,67.94,1245.47,91.53,1263.32,123.2Z"/><path class="cls-2" d="M1310.68,94.7s-15-27.66-47.36-26.76C1263.32,67.94,1279,96.68,1310.68,94.7Z"/><path class="cls-2" d="M1310.68,40s-28.66-2.41-47.36,27.94C1263.32,67.94,1298.88,66.53,1310.68,40Z"/><path class="cls-2" d="M1263.32,12.18s17.35,27.54,0,55.76C1263.32,67.94,1245.23,43,1263.32,12.18Z"/><path class="cls-2" d="M1215.3,39.54s29.93-1.5,48,28.4A54.47,54.47,0,0,1,1215.3,39.54Z"/><path class="cls-2" d="M1215.3,94.8s16-27.26,48-26.86C1263.32,67.94,1247.22,94.91,1215.3,94.8Z"/></g><g class="cls-1"><path class="cls-2" d="M1514,123.2s16.54-28.8,0-55.26C1514,67.94,1496.14,91.53,1514,123.2Z"/><path class="cls-2" d="M1561.35,94.7S1546.37,67,1514,67.94C1514,67.94,1529.69,96.68,1561.35,94.7Z"/><path class="cls-2" d="M1561.35,40s-28.66-2.41-47.36,27.94C1514,67.94,1549.55,66.53,1561.35,40Z"/><path class="cls-2" d="M1514,12.18s17.36,27.54,0,55.76C1514,67.94,1495.9,43,1514,12.18Z"/><path class="cls-2" d="M1466,39.54s29.93-1.5,48,28.4A54.48,54.48,0,0,1,1466,39.54Z"/><path class="cls-2" d="M1466,94.8s16-27.26,48-26.86C1514,67.94,1497.89,94.91,1466,94.8Z"/></g><g class="cls-1"><path class="cls-2" d="M1768.67,123.2s16.54-28.8,0-55.26C1768.67,67.94,1750.82,91.53,1768.67,123.2Z"/><path class="cls-2" d="M1816,94.7S1801,67,1768.67,67.94C1768.67,67.94,1784.36,96.68,1816,94.7Z"/><path class="cls-2" d="M1816,40s-28.65-2.41-47.35,27.94C1768.67,67.94,1804.23,66.53,1816,40Z"/><path class="cls-2" d="M1768.67,12.18s17.35,27.54,0,55.76C1768.67,67.94,1750.57,43,1768.67,12.18Z"/><path class="cls-2" d="M1720.64,39.54s29.93-1.5,48,28.4A54.49,54.49,0,0,1,1720.64,39.54Z"/><path class="cls-2" d="M1720.64,94.8s16-27.26,48-26.86C1768.67,67.94,1752.57,94.91,1720.64,94.8Z"/></g><g class="cls-1"><path class="cls-2" d="M2011.34,123.2s16.54-28.8,0-55.26C2011.34,67.94,1993.49,91.53,2011.34,123.2Z"/><path class="cls-2" d="M2058.69,94.7s-15-27.66-47.35-26.76C2011.34,67.94,2027,96.68,2058.69,94.7Z"/><path class="cls-2" d="M2058.69,40s-28.65-2.41-47.35,27.94C2011.34,67.94,2046.9,66.53,2058.69,40Z"/><path class="cls-2" d="M2011.34,12.18s17.35,27.54,0,55.76C2011.34,67.94,1993.24,43,2011.34,12.18Z"/><path class="cls-2" d="M1963.32,39.54s29.92-1.5,48,28.4A54.47,54.47,0,0,1,1963.32,39.54Z"/><path class="cls-2" d="M1963.32,94.8s16-27.26,48-26.86C2011.34,67.94,1995.24,94.91,1963.32,94.8Z"/></g><text class="cls-4" transform="translate(391.4 77.6)"><tspan class="cls-5">D</tspan><tspan x="23.45" y="0">C</tspan></text><text class="cls-4" transform="translate(149.06 77.6)"><tspan class="cls-5">D</tspan><tspan x="23.45" y="0">C</tspan></text><text class="cls-4" transform="translate(871.72 77.6)"><tspan class="cls-5">D</tspan><tspan x="23.45" y="0">C</tspan></text><text class="cls-4" transform="translate(1116.39 77.6)"><tspan class="cls-5">D</tspan><tspan x="23.45" y="0">C</tspan></text><text class="cls-4" transform="translate(1365.06 77.6)"><tspan class="cls-5">D</tspan><tspan x="23.45" y="0">C</tspan></text><text class="cls-4" transform="translate(1617.73 77.6)"><tspan class="cls-5">D</tspan><tspan x="23.45" y="0">C</tspan></text><text class="cls-4" transform="translate(1874.07 77.6)"><tspan class="cls-5">D</tspan><tspan x="23.45" y="0">C</tspan></text><text class="cls-4" transform="translate(1873.91 465.73)"><tspan class="cls-5">D</tspan><tspan x="23.45" y="0">C</tspan></text><g class="cls-1"><path class="cls-3" d="M1896.67,801.49s16.54-28.79,0-55.26C1896.67,746.23,1878.82,769.82,1896.67,801.49Z"/><path class="cls-3" d="M1944,773s-15-27.66-47.36-26.76C1896.67,746.23,1912.36,775,1944,773Z"/><path class="cls-3" d="M1944,718.29s-28.66-2.41-47.36,27.94C1896.67,746.23,1932.23,744.82,1944,718.29Z"/><path class="cls-3" d="M1896.67,690.47s17.35,27.54,0,55.76C1896.67,746.23,1878.58,721.26,1896.67,690.47Z"/><path class="cls-3" d="M1848.65,717.83s29.93-1.5,48,28.4A54.47,54.47,0,0,1,1848.65,717.83Z"/><path class="cls-3" d="M1848.65,773.09s16-27.26,48-26.86C1896.67,746.23,1880.57,773.2,1848.65,773.09Z"/></g><text class="cls-4" transform="translate(1874.07 852.79)"><tspan class="cls-5">D</tspan><tspan x="23.45" y="0">C</tspan></text><g class="cls-1"><path class="cls-3" d="M653.32,995.82s16.54-28.79,0-55.26C653.32,940.56,635.47,964.15,653.32,995.82Z"/><path class="cls-3" d="M700.68,967.32s-15-27.66-47.36-26.76C653.32,940.56,669,969.31,700.68,967.32Z"/><path class="cls-3" d="M700.68,912.62s-28.66-2.41-47.36,27.94C653.32,940.56,688.88,939.15,700.68,912.62Z"/><path class="cls-3" d="M653.32,884.8s17.36,27.55,0,55.76C653.32,940.56,635.23,915.59,653.32,884.8Z"/><path class="cls-3" d="M605.3,912.16s29.93-1.5,48,28.4A54.48,54.48,0,0,1,605.3,912.16Z"/><path class="cls-3" d="M605.3,967.42s16-27.26,48-26.86C653.32,940.56,637.23,967.54,605.3,967.42Z"/></g><text class="cls-4" transform="translate(512.06 949.96)"><tspan class="cls-5">D</tspan><tspan x="23.45" y="0">C</tspan></text><text class="cls-4" transform="translate(271.06 949.96)"><tspan class="cls-5">D</tspan><tspan x="23.45" y="0">C</tspan></text><text class="cls-4" transform="translate(27.06 949.96)"><tspan class="cls-5">D</tspan><tspan x="23.45" y="0">C</tspan></text><text class="cls-4" transform="translate(751.39 949.96)"><tspan class="cls-5">D</tspan><tspan x="23.45" y="0">C</tspan></text><text class="cls-4" transform="translate(994.06 949.96)"><tspan class="cls-5">D</tspan><tspan x="23.45" y="0">C</tspan></text><text class="cls-4" transform="translate(1240.72 949.96)"><tspan class="cls-5">D</tspan><tspan x="23.45" y="0">C</tspan></text><text class="cls-4" transform="translate(1491.39 949.96)"><tspan class="cls-5">D</tspan><tspan x="23.45" y="0">C</tspan></text><text class="cls-4" transform="translate(1746.07 949.96)"><tspan class="cls-5">D</tspan><tspan x="23.45" y="0">C</tspan></text><text class="cls-4" transform="translate(1988.74 949.96)"><tspan class="cls-5">D</tspan><tspan x="23.45" y="0">C</tspan></text><g class="cls-1"><path class="cls-3" d="M414,995.82s16.55-28.79,0-55.26C414,940.56,396.15,964.15,414,995.82Z"/><path class="cls-3" d="M461.35,967.32s-15-27.66-47.36-26.76C414,940.56,429.69,969.31,461.35,967.32Z"/><path class="cls-3" d="M461.35,912.62s-28.66-2.41-47.36,27.94C414,940.56,449.55,939.15,461.35,912.62Z"/><path class="cls-3" d="M414,884.8s17.36,27.55,0,55.76C414,940.56,395.9,915.59,414,884.8Z"/><path class="cls-3" d="M366,912.16s29.93-1.5,48,28.4A54.48,54.48,0,0,1,366,912.16Z"/><path class="cls-3" d="M366,967.42s16-27.26,48-26.86C414,940.56,397.9,967.54,366,967.42Z"/></g><g class="cls-1"><path class="cls-3" d="M171.66,995.82s16.54-28.79,0-55.26C171.66,940.56,153.81,964.15,171.66,995.82Z"/><path class="cls-3" d="M219,967.32s-15-27.66-47.36-26.76C171.66,940.56,187.36,969.31,219,967.32Z"/><path class="cls-3" d="M219,912.62s-28.66-2.41-47.36,27.94C171.66,940.56,207.22,939.15,219,912.62Z"/><path class="cls-3" d="M171.66,884.8s17.36,27.55,0,55.76C171.66,940.56,153.57,915.59,171.66,884.8Z"/><path class="cls-3" d="M123.64,912.16s29.93-1.5,48,28.4A54.48,54.48,0,0,1,123.64,912.16Z"/><path class="cls-3" d="M123.64,967.42s16-27.26,48-26.86C171.66,940.56,155.57,967.54,123.64,967.42Z"/></g><g class="cls-1"><path class="cls-3" d="M894.32,995.82s16.54-28.79,0-55.26C894.32,940.56,876.47,964.15,894.32,995.82Z"/><path class="cls-3" d="M941.67,967.32s-15-27.66-47.35-26.76C894.32,940.56,910,969.31,941.67,967.32Z"/><path class="cls-3" d="M941.67,912.62s-28.65-2.41-47.35,27.94C894.32,940.56,929.88,939.15,941.67,912.62Z"/><path class="cls-3" d="M894.32,884.8s17.35,27.55,0,55.76C894.32,940.56,876.23,915.59,894.32,884.8Z"/><path class="cls-3" d="M846.3,912.16s29.93-1.5,48,28.4A54.47,54.47,0,0,1,846.3,912.16Z"/><path class="cls-3" d="M846.3,967.42s16-27.26,48-26.86C894.32,940.56,878.22,967.54,846.3,967.42Z"/></g><g class="cls-1"><path class="cls-3" d="M1139,995.82s16.54-28.79,0-55.26C1139,940.56,1121.14,964.15,1139,995.82Z"/><path class="cls-3" d="M1186.34,967.32s-15-27.66-47.35-26.76C1139,940.56,1154.68,969.31,1186.34,967.32Z"/><path class="cls-3" d="M1186.34,912.62s-28.65-2.41-47.35,27.94C1139,940.56,1174.55,939.15,1186.34,912.62Z"/><path class="cls-3" d="M1139,884.8s17.35,27.55,0,55.76C1139,940.56,1120.89,915.59,1139,884.8Z"/><path class="cls-3" d="M1091,912.16s29.93-1.5,48,28.4A54.49,54.49,0,0,1,1091,912.16Z"/><path class="cls-3" d="M1091,967.42s16-27.26,48-26.86C1139,940.56,1122.89,967.54,1091,967.42Z"/></g><g class="cls-1"><path class="cls-3" d="M1387.66,995.82s16.54-28.79,0-55.26C1387.66,940.56,1369.81,964.15,1387.66,995.82Z"/><path class="cls-3" d="M1435,967.32s-15-27.66-47.35-26.76C1387.66,940.56,1403.35,969.31,1435,967.32Z"/><path class="cls-3" d="M1435,912.62s-28.65-2.41-47.35,27.94C1387.66,940.56,1423.22,939.15,1435,912.62Z"/><path class="cls-3" d="M1387.66,884.8s17.35,27.55,0,55.76C1387.66,940.56,1369.56,915.59,1387.66,884.8Z"/><path class="cls-3" d="M1339.63,912.16s29.93-1.5,48,28.4A54.49,54.49,0,0,1,1339.63,912.16Z"/><path class="cls-3" d="M1339.63,967.42s16-27.26,48-26.86C1387.66,940.56,1371.56,967.54,1339.63,967.42Z"/></g><g class="cls-1"><path class="cls-3" d="M1640.33,995.82s16.54-28.79,0-55.26C1640.33,940.56,1622.48,964.15,1640.33,995.82Z"/><path class="cls-3" d="M1687.68,967.32s-15-27.66-47.35-26.76C1640.33,940.56,1656,969.31,1687.68,967.32Z"/><path class="cls-3" d="M1687.68,912.62s-28.65-2.41-47.35,27.94C1640.33,940.56,1675.89,939.15,1687.68,912.62Z"/><path class="cls-3" d="M1640.33,884.8s17.35,27.55,0,55.76C1640.33,940.56,1622.24,915.59,1640.33,884.8Z"/><path class="cls-3" d="M1592.31,912.16s29.93-1.5,48,28.4A54.47,54.47,0,0,1,1592.31,912.16Z"/><path class="cls-3" d="M1592.31,967.42s16-27.26,48-26.86C1640.33,940.56,1624.23,967.54,1592.31,967.42Z"/></g><g class="cls-1"><path class="cls-3" d="M1896.67,995.82s16.54-28.79,0-55.26C1896.67,940.56,1878.82,964.15,1896.67,995.82Z"/><path class="cls-3" d="M1944,967.32s-15-27.66-47.36-26.76C1896.67,940.56,1912.36,969.31,1944,967.32Z"/><path class="cls-3" d="M1944,912.62s-28.66-2.41-47.36,27.94C1896.67,940.56,1932.23,939.15,1944,912.62Z"/><path class="cls-3" d="M1896.67,884.8s17.35,27.55,0,55.76C1896.67,940.56,1878.58,915.59,1896.67,884.8Z"/><path class="cls-3" d="M1848.65,912.16s29.93-1.5,48,28.4A54.47,54.47,0,0,1,1848.65,912.16Z"/><path class="cls-3" d="M1848.65,967.42s16-27.26,48-26.86C1896.67,940.56,1880.57,967.54,1848.65,967.42Z"/></g><text class="cls-4" transform="translate(1873.74 658.95)"><tspan class="cls-5">D</tspan><tspan x="23.45" y="0">C</tspan></text></svg>