<svg id="Layer_1" data-name="Layer 1" xmlns="http://www.w3.org/2000/svg" viewBox="0 0 2060 1080"><defs><style>.cls-1,.cls-4{opacity:0.05;}.cls-2{fill:none;stroke:#231f20;stroke-miterlimit:10;stroke-width:3.11px;}.cls-3{fill:#231f20;}.cls-4{font-size:32.12px;font-family:OxtailOT-Medium, Oxtail OT;font-weight:500;}.cls-5{letter-spacing:-0.01em;}</style></defs><title>1Artboard 10</title><g class="cls-1"><path class="cls-2" d="M534,304.81s16.54-28.79,0-55.26C534,249.55,516.15,273.15,534,304.81Z"/><path class="cls-2" d="M581.35,276.31s-15-27.65-47.35-26.76C534,249.55,549.69,278.3,581.35,276.31Z"/><path class="cls-2" d="M581.35,221.62s-28.66-2.41-47.35,27.93C534,249.55,569.56,248.15,581.35,221.62Z"/><path class="cls-2" d="M534,193.8s17.35,27.54,0,55.75C534,249.55,515.9,224.59,534,193.8Z"/><path class="cls-2" d="M486,221.16s29.93-1.5,48,28.39A54.49,54.49,0,0,1,486,221.16Z"/><path class="cls-2" d="M486,276.42s16-27.26,48-26.87C534,249.55,517.9,276.53,486,276.42Z"/></g><g class="cls-1"><path class="cls-3" d="M653.33,596.57s16.54-28.79,0-55.26C653.33,541.31,635.48,564.91,653.33,596.57Z"/><path class="cls-3" d="M700.68,568.08s-15-27.66-47.35-26.77C653.33,541.31,669,570.06,700.68,568.08Z"/><path class="cls-3" d="M700.68,513.38S672,511,653.33,541.31C653.33,541.31,688.89,539.91,700.68,513.38Z"/><path class="cls-3" d="M653.33,485.56s17.35,27.54,0,55.75C653.33,541.31,635.23,516.35,653.33,485.56Z"/><path class="cls-3" d="M605.3,512.92s29.93-1.5,48,28.39A54.49,54.49,0,0,1,605.3,512.92Z"/><path class="cls-3" d="M605.3,568.18s16-27.26,48-26.87C653.33,541.31,637.23,568.29,605.3,568.18Z"/></g><g class="cls-1"><path class="cls-3" d="M652.66,207.91s16.54-28.79,0-55.26C652.66,152.65,634.81,176.25,652.66,207.91Z"/><path class="cls-3" d="M700,179.41s-15-27.65-47.35-26.76C652.66,152.65,668.35,181.4,700,179.41Z"/><path class="cls-3" d="M700,124.72s-28.65-2.41-47.35,27.93C652.66,152.65,688.22,151.25,700,124.72Z"/><path class="cls-3" d="M652.66,96.9s17.35,27.54,0,55.75C652.66,152.65,634.57,127.69,652.66,96.9Z"/><path class="cls-3" d="M604.64,124.26s29.93-1.5,48,28.39A54.47,54.47,0,0,1,604.64,124.26Z"/><path class="cls-3" d="M604.64,179.52s16-27.26,48-26.87C652.66,152.65,636.56,179.63,604.64,179.52Z"/></g><g class="cls-1"><path class="cls-3" d="M653,402.24s16.54-28.79,0-55.26C653,347,635.14,370.58,653,402.24Z"/><path class="cls-3" d="M700.35,373.75S685.37,346.09,653,347C653,347,668.69,375.73,700.35,373.75Z"/><path class="cls-3" d="M700.35,319.05S671.69,316.64,653,347C653,347,688.55,345.58,700.35,319.05Z"/><path class="cls-3" d="M653,291.23s17.36,27.54,0,55.75C653,347,634.9,322,653,291.23Z"/><path class="cls-3" d="M605,318.59s29.93-1.5,48,28.39A54.48,54.48,0,0,1,605,318.59Z"/><path class="cls-3" d="M605,373.85s16-27.26,48-26.87C653,347,636.89,374,605,373.85Z"/></g><g class="cls-1"><path class="cls-2" d="M533.66,498.61s16.54-28.79,0-55.26C533.66,443.35,515.81,466.94,533.66,498.61Z"/><path class="cls-2" d="M581,470.11s-15-27.66-47.36-26.76C533.66,443.35,549.36,472.1,581,470.11Z"/><path class="cls-2" d="M581,415.42s-28.66-2.42-47.36,27.93C533.66,443.35,569.22,441.94,581,415.42Z"/><path class="cls-2" d="M533.66,387.59s17.36,27.55,0,55.76C533.66,443.35,515.57,418.38,533.66,387.59Z"/><path class="cls-2" d="M485.64,415s29.93-1.5,48,28.4A54.48,54.48,0,0,1,485.64,415Z"/><path class="cls-2" d="M485.64,470.21s16-27.26,48-26.86C533.66,443.35,517.56,470.33,485.64,470.21Z"/></g><text class="cls-4" transform="translate(511.4 162.05)"><tspan class="cls-5">D</tspan><tspan x="23.45" y="0">C</tspan></text><text class="cls-4" transform="translate(630.06 259.22)"><tspan class="cls-5">D</tspan><tspan x="23.45" y="0">C</tspan></text><text class="cls-4" transform="translate(511.4 355.85)"><tspan class="cls-5">D</tspan><tspan x="23.45" y="0">C</tspan></text><text class="cls-4" transform="translate(511.4 549.65)"><tspan class="cls-5">D</tspan><tspan x="23.45" y="0">C</tspan></text><text class="cls-4" transform="translate(629.9 453.55)"><tspan class="cls-5">D</tspan><tspan x="23.45" y="0">C</tspan></text><g class="cls-1"><path class="cls-2" d="M534,886.2s16.54-28.79,0-55.26C534,830.94,516.15,854.54,534,886.2Z"/><path class="cls-2" d="M581.35,857.71s-15-27.66-47.35-26.77C534,830.94,549.69,859.69,581.35,857.71Z"/><path class="cls-2" d="M581.35,803S552.69,800.6,534,830.94C534,830.94,569.56,829.54,581.35,803Z"/><path class="cls-2" d="M534,775.19s17.35,27.54,0,55.75C534,830.94,515.9,806,534,775.19Z"/><path class="cls-2" d="M486,802.55s29.93-1.5,48,28.39A54.49,54.49,0,0,1,486,802.55Z"/><path class="cls-2" d="M486,857.81s16-27.26,48-26.87C534,830.94,517.9,857.92,486,857.81Z"/></g><g class="cls-1"><path class="cls-3" d="M652.66,789.3s16.54-28.79,0-55.26C652.66,734,634.81,757.64,652.66,789.3Z"/><path class="cls-3" d="M700,760.81S685,733.15,652.66,734C652.66,734,668.35,762.79,700,760.81Z"/><path class="cls-3" d="M700,706.11S671.36,703.7,652.66,734C652.66,734,688.22,732.64,700,706.11Z"/><path class="cls-3" d="M652.66,678.29s17.35,27.54,0,55.75C652.66,734,634.57,709.08,652.66,678.29Z"/><path class="cls-3" d="M604.64,705.65s29.93-1.5,48,28.39A54.47,54.47,0,0,1,604.64,705.65Z"/><path class="cls-3" d="M604.64,760.91s16-27.26,48-26.87C652.66,734,636.56,761,604.64,760.91Z"/></g><g class="cls-1"><path class="cls-2" d="M533.66,692.41s16.54-28.8,0-55.27C533.66,637.14,515.81,660.74,533.66,692.41Z"/><path class="cls-2" d="M581,663.91s-15-27.66-47.36-26.77C533.66,637.14,549.36,665.89,581,663.91Z"/><path class="cls-2" d="M581,609.21s-28.66-2.41-47.36,27.93C533.66,637.14,569.22,635.74,581,609.21Z"/><path class="cls-2" d="M533.66,581.39s17.36,27.54,0,55.75C533.66,637.14,515.57,612.18,533.66,581.39Z"/><path class="cls-2" d="M485.64,608.75s29.93-1.5,48,28.39A54.46,54.46,0,0,1,485.64,608.75Z"/><path class="cls-2" d="M485.64,664s16-27.26,48-26.87C533.66,637.14,517.56,664.12,485.64,664Z"/></g><g class="cls-1"><path class="cls-3" d="M653,983.64s16.54-28.8,0-55.27C653,928.37,635.14,952,653,983.64Z"/><path class="cls-3" d="M700.35,955.14s-15-27.66-47.36-26.77C653,928.37,668.69,957.12,700.35,955.14Z"/><path class="cls-3" d="M700.35,900.44S671.69,898,653,928.37C653,928.37,688.55,927,700.35,900.44Z"/><path class="cls-3" d="M653,872.62s17.36,27.54,0,55.75C653,928.37,634.9,903.41,653,872.62Z"/><path class="cls-3" d="M605,900s29.93-1.5,48,28.39A54.46,54.46,0,0,1,605,900Z"/><path class="cls-3" d="M605,955.24s16-27.26,48-26.87C653,928.37,636.89,955.35,605,955.24Z"/></g><text class="cls-4" transform="translate(511.4 743.45)"><tspan class="cls-5">D</tspan><tspan x="23.45" y="0">C</tspan></text><text class="cls-4" transform="translate(630.06 840.61)"><tspan class="cls-5">D</tspan><tspan x="23.45" y="0">C</tspan></text><text class="cls-4" transform="translate(511.4 937.24)"><tspan class="cls-5">D</tspan><tspan x="23.45" y="0">C</tspan></text><g class="cls-1"><path class="cls-2" d="M293,304.81s16.54-28.79,0-55.26C293,249.55,275.15,273.15,293,304.81Z"/><path class="cls-2" d="M340.35,276.31s-15-27.65-47.35-26.76C293,249.55,308.69,278.3,340.35,276.31Z"/><path class="cls-2" d="M340.35,221.62S311.7,219.21,293,249.55C293,249.55,328.56,248.15,340.35,221.62Z"/><path class="cls-2" d="M293,193.8s17.35,27.54,0,55.75C293,249.55,274.91,224.59,293,193.8Z"/><path class="cls-2" d="M245,221.16s29.93-1.5,48,28.39A54.47,54.47,0,0,1,245,221.16Z"/><path class="cls-2" d="M245,276.42s16-27.26,48-26.87C293,249.55,276.9,276.53,245,276.42Z"/></g><g class="cls-1"><path class="cls-2" d="M292.66,498.61s16.55-28.79,0-55.26C292.66,443.35,274.82,466.94,292.66,498.61Z"/><path class="cls-2" d="M340,470.11s-15-27.66-47.36-26.76C292.66,443.35,308.36,472.1,340,470.11Z"/><path class="cls-2" d="M340,415.42s-28.66-2.42-47.36,27.93C292.66,443.35,328.23,441.94,340,415.42Z"/><path class="cls-2" d="M292.66,387.59s17.36,27.55,0,55.76C292.66,443.35,274.57,418.38,292.66,387.59Z"/><path class="cls-2" d="M244.64,415s29.93-1.5,48,28.4A54.48,54.48,0,0,1,244.64,415Z"/><path class="cls-2" d="M244.64,470.21s16-27.26,48-26.86C292.66,443.35,276.57,470.33,244.64,470.21Z"/></g><text class="cls-4" transform="translate(270.4 162.05)"><tspan class="cls-5">D</tspan><tspan x="23.45" y="0">C</tspan></text><text class="cls-4" transform="translate(270.4 355.85)"><tspan class="cls-5">D</tspan><tspan x="23.45" y="0">C</tspan></text><text class="cls-4" transform="translate(270.4 549.65)"><tspan class="cls-5">D</tspan><tspan x="23.45" y="0">C</tspan></text><g class="cls-1"><path class="cls-2" d="M293,886.2s16.54-28.79,0-55.26C293,830.94,275.15,854.54,293,886.2Z"/><path class="cls-2" d="M340.35,857.71s-15-27.66-47.35-26.77C293,830.94,308.69,859.69,340.35,857.71Z"/><path class="cls-2" d="M340.35,803S311.7,800.6,293,830.94C293,830.94,328.56,829.54,340.35,803Z"/><path class="cls-2" d="M293,775.19s17.35,27.54,0,55.75C293,830.94,274.91,806,293,775.19Z"/><path class="cls-2" d="M245,802.55s29.93-1.5,48,28.39A54.47,54.47,0,0,1,245,802.55Z"/><path class="cls-2" d="M245,857.81s16-27.26,48-26.87C293,830.94,276.9,857.92,245,857.81Z"/></g><g class="cls-1"><path class="cls-2" d="M292.66,692.41s16.55-28.8,0-55.27C292.66,637.14,274.82,660.74,292.66,692.41Z"/><path class="cls-2" d="M340,663.91s-15-27.66-47.36-26.77C292.66,637.14,308.36,665.89,340,663.91Z"/><path class="cls-2" d="M340,609.21s-28.66-2.41-47.36,27.93C292.66,637.14,328.23,635.74,340,609.21Z"/><path class="cls-2" d="M292.66,581.39s17.36,27.54,0,55.75C292.66,637.14,274.57,612.18,292.66,581.39Z"/><path class="cls-2" d="M244.64,608.75s29.93-1.5,48,28.39A54.46,54.46,0,0,1,244.64,608.75Z"/><path class="cls-2" d="M244.64,664s16-27.26,48-26.87C292.66,637.14,276.57,664.12,244.64,664Z"/></g><text class="cls-4" transform="translate(270.4 743.45)"><tspan class="cls-5">D</tspan><tspan x="23.45" y="0">C</tspan></text><text class="cls-4" transform="translate(270.4 937.24)"><tspan class="cls-5">D</tspan><tspan x="23.45" y="0">C</tspan></text><g class="cls-1"><path class="cls-2" d="M49,304.81S65.54,276,49,249.55C49,249.55,31.15,273.15,49,304.81Z"/><path class="cls-2" d="M96.35,276.31s-15-27.65-47.35-26.76C49,249.55,64.69,278.3,96.35,276.31Z"/><path class="cls-2" d="M96.35,221.62S67.7,219.21,49,249.55C49,249.55,84.56,248.15,96.35,221.62Z"/><path class="cls-2" d="M49,193.8s17.35,27.54,0,55.75C49,249.55,30.91,224.59,49,193.8Z"/><path class="cls-2" d="M1,221.16s29.93-1.5,48,28.39A54.47,54.47,0,0,1,1,221.16Z"/><path class="cls-2" d="M1,276.42s16-27.26,48-26.87C49,249.55,32.9,276.53,1,276.42Z"/></g><g class="cls-1"><path class="cls-2" d="M48.67,498.61s16.54-28.79,0-55.26C48.67,443.35,30.82,466.94,48.67,498.61Z"/><path class="cls-2" d="M96,470.11s-15-27.66-47.35-26.76C48.67,443.35,64.36,472.1,96,470.11Z"/><path class="cls-2" d="M96,415.42S67.37,413,48.67,443.35C48.67,443.35,84.23,441.94,96,415.42Z"/><path class="cls-2" d="M48.67,387.59s17.35,27.55,0,55.76C48.67,443.35,30.57,418.38,48.67,387.59Z"/><path class="cls-2" d="M.64,415s29.93-1.5,48,28.4A54.49,54.49,0,0,1,.64,415Z"/><path class="cls-2" d="M.64,470.21s16-27.26,48-26.86C48.67,443.35,32.57,470.33.64,470.21Z"/></g><text class="cls-4" transform="translate(26.4 162.05)"><tspan class="cls-5">D</tspan><tspan x="23.45" y="0">C</tspan></text><text class="cls-4" transform="translate(26.4 355.85)"><tspan class="cls-5">D</tspan><tspan x="23.45" y="0">C</tspan></text><text class="cls-4" transform="translate(26.4 549.65)"><tspan class="cls-5">D</tspan><tspan x="23.45" y="0">C</tspan></text><g class="cls-1"><path class="cls-2" d="M49,886.2s16.54-28.79,0-55.26C49,830.94,31.15,854.54,49,886.2Z"/><path class="cls-2" d="M96.35,857.71s-15-27.66-47.35-26.77C49,830.94,64.69,859.69,96.35,857.71Z"/><path class="cls-2" d="M96.35,803S67.7,800.6,49,830.94C49,830.94,84.56,829.54,96.35,803Z"/><path class="cls-2" d="M49,775.19s17.35,27.54,0,55.75C49,830.94,30.91,806,49,775.19Z"/><path class="cls-2" d="M1,802.55s29.93-1.5,48,28.39A54.47,54.47,0,0,1,1,802.55Z"/><path class="cls-2" d="M1,857.81s16-27.26,48-26.87C49,830.94,32.9,857.92,1,857.81Z"/></g><g class="cls-1"><path class="cls-2" d="M48.67,692.41s16.54-28.8,0-55.27C48.67,637.14,30.82,660.74,48.67,692.41Z"/><path class="cls-2" d="M96,663.91s-15-27.66-47.35-26.77C48.67,637.14,64.36,665.89,96,663.91Z"/><path class="cls-2" d="M96,609.21s-28.65-2.41-47.35,27.93C48.67,637.14,84.23,635.74,96,609.21Z"/><path class="cls-2" d="M48.67,581.39s17.35,27.54,0,55.75C48.67,637.14,30.57,612.18,48.67,581.39Z"/><path class="cls-2" d="M.64,608.75s29.93-1.5,48,28.39A54.47,54.47,0,0,1,.64,608.75Z"/><path class="cls-2" d="M.64,664s16-27.26,48-26.87C48.67,637.14,32.57,664.12.64,664Z"/></g><text class="cls-4" transform="translate(26.4 743.45)"><tspan class="cls-5">D</tspan><tspan x="23.45" y="0">C</tspan></text><text class="cls-4" transform="translate(26.4 937.24)"><tspan class="cls-5">D</tspan><tspan x="23.45" y="0">C</tspan></text><g class="cls-1"><path class="cls-2" d="M773.32,304.81s16.55-28.79,0-55.26C773.32,249.55,755.48,273.15,773.32,304.81Z"/><path class="cls-2" d="M820.68,276.31s-15-27.65-47.36-26.76C773.32,249.55,789,278.3,820.68,276.31Z"/><path class="cls-2" d="M820.68,221.62s-28.66-2.41-47.36,27.93C773.32,249.55,808.88,248.15,820.68,221.62Z"/><path class="cls-2" d="M773.32,193.8s17.36,27.54,0,55.75C773.32,249.55,755.23,224.59,773.32,193.8Z"/><path class="cls-2" d="M725.3,221.16s29.93-1.5,48,28.39A54.48,54.48,0,0,1,725.3,221.16Z"/><path class="cls-2" d="M725.3,276.42s16-27.26,48-26.87C773.32,249.55,757.23,276.53,725.3,276.42Z"/></g><g class="cls-1"><path class="cls-2" d="M773,498.61s16.54-28.79,0-55.26C773,443.35,755.14,466.94,773,498.61Z"/><path class="cls-2" d="M820.34,470.11s-15-27.66-47.35-26.76C773,443.35,788.68,472.1,820.34,470.11Z"/><path class="cls-2" d="M820.34,415.42S791.69,413,773,443.35C773,443.35,808.55,441.94,820.34,415.42Z"/><path class="cls-2" d="M773,387.59s17.35,27.55,0,55.76C773,443.35,754.9,418.38,773,387.59Z"/><path class="cls-2" d="M725,415s29.93-1.5,48,28.4A54.47,54.47,0,0,1,725,415Z"/><path class="cls-2" d="M725,470.21s16-27.26,48-26.86C773,443.35,756.89,470.33,725,470.21Z"/></g><text class="cls-4" transform="translate(750.73 162.05)"><tspan class="cls-5">D</tspan><tspan x="23.45" y="0">C</tspan></text><text class="cls-4" transform="translate(750.73 355.85)"><tspan class="cls-5">D</tspan><tspan x="23.45" y="0">C</tspan></text><text class="cls-4" transform="translate(750.73 549.65)"><tspan class="cls-5">D</tspan><tspan x="23.45" y="0">C</tspan></text><g class="cls-1"><path class="cls-2" d="M773.32,886.2s16.55-28.79,0-55.26C773.32,830.94,755.48,854.54,773.32,886.2Z"/><path class="cls-2" d="M820.68,857.71s-15-27.66-47.36-26.77C773.32,830.94,789,859.69,820.68,857.71Z"/><path class="cls-2" d="M820.68,803S792,800.6,773.32,830.94C773.32,830.94,808.88,829.54,820.68,803Z"/><path class="cls-2" d="M773.32,775.19s17.36,27.54,0,55.75C773.32,830.94,755.23,806,773.32,775.19Z"/><path class="cls-2" d="M725.3,802.55s29.93-1.5,48,28.39A54.48,54.48,0,0,1,725.3,802.55Z"/><path class="cls-2" d="M725.3,857.81s16-27.26,48-26.87C773.32,830.94,757.23,857.92,725.3,857.81Z"/></g><g class="cls-1"><path class="cls-2" d="M773,692.41s16.54-28.8,0-55.27C773,637.14,755.14,660.74,773,692.41Z"/><path class="cls-2" d="M820.34,663.91s-15-27.66-47.35-26.77C773,637.14,788.68,665.89,820.34,663.91Z"/><path class="cls-2" d="M820.34,609.21S791.69,606.8,773,637.14C773,637.14,808.55,635.74,820.34,609.21Z"/><path class="cls-2" d="M773,581.39s17.35,27.54,0,55.75C773,637.14,754.9,612.18,773,581.39Z"/><path class="cls-2" d="M725,608.75s29.93-1.5,48,28.39A54.45,54.45,0,0,1,725,608.75Z"/><path class="cls-2" d="M725,664s16-27.26,48-26.87C773,637.14,756.89,664.12,725,664Z"/></g><text class="cls-4" transform="translate(750.73 743.45)"><tspan class="cls-5">D</tspan><tspan x="23.45" y="0">C</tspan></text><text class="cls-4" transform="translate(750.73 937.24)"><tspan class="cls-5">D</tspan><tspan x="23.45" y="0">C</tspan></text><g class="cls-1"><path class="cls-2" d="M1016,304.81s16.54-28.79,0-55.26C1016,249.55,998.14,273.15,1016,304.81Z"/><path class="cls-2" d="M1063.34,276.31s-15-27.65-47.35-26.76C1016,249.55,1031.68,278.3,1063.34,276.31Z"/><path class="cls-2" d="M1063.34,221.62s-28.65-2.41-47.35,27.93C1016,249.55,1051.55,248.15,1063.34,221.62Z"/><path class="cls-2" d="M1016,193.8s17.35,27.54,0,55.75C1016,249.55,997.9,224.59,1016,193.8Z"/><path class="cls-2" d="M968,221.16s29.93-1.5,48,28.39A54.47,54.47,0,0,1,968,221.16Z"/><path class="cls-2" d="M968,276.42s16-27.26,48-26.87C1016,249.55,999.89,276.53,968,276.42Z"/></g><g class="cls-1"><path class="cls-2" d="M1015.65,498.61s16.55-28.79,0-55.26C1015.65,443.35,997.81,466.94,1015.65,498.61Z"/><path class="cls-2" d="M1063,470.11s-15-27.66-47.36-26.76C1015.65,443.35,1031.35,472.1,1063,470.11Z"/><path class="cls-2" d="M1063,415.42s-28.66-2.42-47.36,27.93C1015.65,443.35,1051.22,441.94,1063,415.42Z"/><path class="cls-2" d="M1015.65,387.59s17.36,27.55,0,55.76C1015.65,443.35,997.56,418.38,1015.65,387.59Z"/><path class="cls-2" d="M967.63,415s29.93-1.5,48,28.4A54.48,54.48,0,0,1,967.63,415Z"/><path class="cls-2" d="M967.63,470.21s16-27.26,48-26.86C1015.65,443.35,999.56,470.33,967.63,470.21Z"/></g><text class="cls-4" transform="translate(993.39 162.05)"><tspan class="cls-5">D</tspan><tspan x="23.45" y="0">C</tspan></text><text class="cls-4" transform="translate(993.39 355.85)"><tspan class="cls-5">D</tspan><tspan x="23.45" y="0">C</tspan></text><text class="cls-4" transform="translate(993.39 549.65)"><tspan class="cls-5">D</tspan><tspan x="23.45" y="0">C</tspan></text><g class="cls-1"><path class="cls-2" d="M1016,886.2s16.54-28.79,0-55.26C1016,830.94,998.14,854.54,1016,886.2Z"/><path class="cls-2" d="M1063.34,857.71s-15-27.66-47.35-26.77C1016,830.94,1031.68,859.69,1063.34,857.71Z"/><path class="cls-2" d="M1063.34,803s-28.65-2.41-47.35,27.93C1016,830.94,1051.55,829.54,1063.34,803Z"/><path class="cls-2" d="M1016,775.19s17.35,27.54,0,55.75C1016,830.94,997.9,806,1016,775.19Z"/><path class="cls-2" d="M968,802.55s29.93-1.5,48,28.39A54.47,54.47,0,0,1,968,802.55Z"/><path class="cls-2" d="M968,857.81s16-27.26,48-26.87C1016,830.94,999.89,857.92,968,857.81Z"/></g><g class="cls-1"><path class="cls-2" d="M1015.65,692.41s16.55-28.8,0-55.27C1015.65,637.14,997.81,660.74,1015.65,692.41Z"/><path class="cls-2" d="M1063,663.91s-15-27.66-47.36-26.77C1015.65,637.14,1031.35,665.89,1063,663.91Z"/><path class="cls-2" d="M1063,609.21s-28.66-2.41-47.36,27.93C1015.65,637.14,1051.22,635.74,1063,609.21Z"/><path class="cls-2" d="M1015.65,581.39s17.36,27.54,0,55.75C1015.65,637.14,997.56,612.18,1015.65,581.39Z"/><path class="cls-2" d="M967.63,608.75s29.93-1.5,48,28.39A54.46,54.46,0,0,1,967.63,608.75Z"/><path class="cls-2" d="M967.63,664s16-27.26,48-26.87C1015.65,637.14,999.56,664.12,967.63,664Z"/></g><text class="cls-4" transform="translate(993.39 743.45)"><tspan class="cls-5">D</tspan><tspan x="23.45" y="0">C</tspan></text><text class="cls-4" transform="translate(993.39 937.24)"><tspan class="cls-5">D</tspan><tspan x="23.45" y="0">C</tspan></text><g class="cls-1"><path class="cls-2" d="M1262.66,304.81s16.54-28.79,0-55.26C1262.66,249.55,1244.81,273.15,1262.66,304.81Z"/><path class="cls-2" d="M1310,276.31s-15-27.65-47.35-26.76C1262.66,249.55,1278.35,278.3,1310,276.31Z"/><path class="cls-2" d="M1310,221.62s-28.65-2.41-47.35,27.93C1262.66,249.55,1298.22,248.15,1310,221.62Z"/><path class="cls-2" d="M1262.66,193.8s17.35,27.54,0,55.75C1262.66,249.55,1244.56,224.59,1262.66,193.8Z"/><path class="cls-2" d="M1214.63,221.16s29.93-1.5,48,28.39A54.49,54.49,0,0,1,1214.63,221.16Z"/><path class="cls-2" d="M1214.63,276.42s16-27.26,48-26.87C1262.66,249.55,1246.56,276.53,1214.63,276.42Z"/></g><g class="cls-1"><path class="cls-2" d="M1262.32,498.61s16.54-28.79,0-55.26C1262.32,443.35,1244.47,466.94,1262.32,498.61Z"/><path class="cls-2" d="M1309.68,470.11s-15-27.66-47.36-26.76C1262.32,443.35,1278,472.1,1309.68,470.11Z"/><path class="cls-2" d="M1309.68,415.42S1281,413,1262.32,443.35C1262.32,443.35,1297.88,441.94,1309.68,415.42Z"/><path class="cls-2" d="M1262.32,387.59s17.36,27.55,0,55.76C1262.32,443.35,1244.23,418.38,1262.32,387.59Z"/><path class="cls-2" d="M1214.3,415s29.93-1.5,48,28.4A54.48,54.48,0,0,1,1214.3,415Z"/><path class="cls-2" d="M1214.3,470.21s16-27.26,48-26.86C1262.32,443.35,1246.23,470.33,1214.3,470.21Z"/></g><text class="cls-4" transform="translate(1240.06 162.05)"><tspan class="cls-5">D</tspan><tspan x="23.45" y="0">C</tspan></text><text class="cls-4" transform="translate(1240.06 355.85)"><tspan class="cls-5">D</tspan><tspan x="23.45" y="0">C</tspan></text><text class="cls-4" transform="translate(1240.06 549.65)"><tspan class="cls-5">D</tspan><tspan x="23.45" y="0">C</tspan></text><g class="cls-1"><path class="cls-2" d="M1262.66,886.2s16.54-28.79,0-55.26C1262.66,830.94,1244.81,854.54,1262.66,886.2Z"/><path class="cls-2" d="M1310,857.71s-15-27.66-47.35-26.77C1262.66,830.94,1278.35,859.69,1310,857.71Z"/><path class="cls-2" d="M1310,803s-28.65-2.41-47.35,27.93C1262.66,830.94,1298.22,829.54,1310,803Z"/><path class="cls-2" d="M1262.66,775.19s17.35,27.54,0,55.75C1262.66,830.94,1244.56,806,1262.66,775.19Z"/><path class="cls-2" d="M1214.63,802.55s29.93-1.5,48,28.39A54.49,54.49,0,0,1,1214.63,802.55Z"/><path class="cls-2" d="M1214.63,857.81s16-27.26,48-26.87C1262.66,830.94,1246.56,857.92,1214.63,857.81Z"/></g><g class="cls-1"><path class="cls-2" d="M1262.32,692.41s16.54-28.8,0-55.27C1262.32,637.14,1244.47,660.74,1262.32,692.41Z"/><path class="cls-2" d="M1309.68,663.91s-15-27.66-47.36-26.77C1262.32,637.14,1278,665.89,1309.68,663.91Z"/><path class="cls-2" d="M1309.68,609.21s-28.66-2.41-47.36,27.93C1262.32,637.14,1297.88,635.74,1309.68,609.21Z"/><path class="cls-2" d="M1262.32,581.39s17.36,27.54,0,55.75C1262.32,637.14,1244.23,612.18,1262.32,581.39Z"/><path class="cls-2" d="M1214.3,608.75s29.93-1.5,48,28.39A54.46,54.46,0,0,1,1214.3,608.75Z"/><path class="cls-2" d="M1214.3,664s16-27.26,48-26.87C1262.32,637.14,1246.23,664.12,1214.3,664Z"/></g><text class="cls-4" transform="translate(1240.06 743.45)"><tspan class="cls-5">D</tspan><tspan x="23.45" y="0">C</tspan></text><text class="cls-4" transform="translate(1240.06 937.24)"><tspan class="cls-5">D</tspan><tspan x="23.45" y="0">C</tspan></text><g class="cls-1"><path class="cls-2" d="M1513.33,304.81s16.54-28.79,0-55.26C1513.33,249.55,1495.48,273.15,1513.33,304.81Z"/><path class="cls-2" d="M1560.68,276.31s-15-27.65-47.35-26.76C1513.33,249.55,1529,278.3,1560.68,276.31Z"/><path class="cls-2" d="M1560.68,221.62s-28.65-2.41-47.35,27.93C1513.33,249.55,1548.89,248.15,1560.68,221.62Z"/><path class="cls-2" d="M1513.33,193.8s17.35,27.54,0,55.75C1513.33,249.55,1495.23,224.59,1513.33,193.8Z"/><path class="cls-2" d="M1465.31,221.16s29.92-1.5,48,28.39A54.47,54.47,0,0,1,1465.31,221.16Z"/><path class="cls-2" d="M1465.31,276.42s16-27.26,48-26.87C1513.33,249.55,1497.23,276.53,1465.31,276.42Z"/></g><g class="cls-1"><path class="cls-2" d="M1513,498.61s16.55-28.79,0-55.26C1513,443.35,1495.15,466.94,1513,498.61Z"/><path class="cls-2" d="M1560.35,470.11s-15-27.66-47.36-26.76C1513,443.35,1528.69,472.1,1560.35,470.11Z"/><path class="cls-2" d="M1560.35,415.42S1531.69,413,1513,443.35C1513,443.35,1548.56,441.94,1560.35,415.42Z"/><path class="cls-2" d="M1513,387.59s17.36,27.55,0,55.76C1513,443.35,1494.9,418.38,1513,387.59Z"/><path class="cls-2" d="M1465,415s29.93-1.5,48,28.4A54.48,54.48,0,0,1,1465,415Z"/><path class="cls-2" d="M1465,470.21s16-27.26,48-26.86C1513,443.35,1496.9,470.33,1465,470.21Z"/></g><text class="cls-4" transform="translate(1490.73 162.05)"><tspan class="cls-5">D</tspan><tspan x="23.45" y="0">C</tspan></text><text class="cls-4" transform="translate(1490.73 355.85)"><tspan class="cls-5">D</tspan><tspan x="23.45" y="0">C</tspan></text><text class="cls-4" transform="translate(1490.73 549.65)"><tspan class="cls-5">D</tspan><tspan x="23.45" y="0">C</tspan></text><g class="cls-1"><path class="cls-2" d="M1513.33,886.2s16.54-28.79,0-55.26C1513.33,830.94,1495.48,854.54,1513.33,886.2Z"/><path class="cls-2" d="M1560.68,857.71s-15-27.66-47.35-26.77C1513.33,830.94,1529,859.69,1560.68,857.71Z"/><path class="cls-2" d="M1560.68,803s-28.65-2.41-47.35,27.93C1513.33,830.94,1548.89,829.54,1560.68,803Z"/><path class="cls-2" d="M1513.33,775.19s17.35,27.54,0,55.75C1513.33,830.94,1495.23,806,1513.33,775.19Z"/><path class="cls-2" d="M1465.31,802.55s29.92-1.5,48,28.39A54.47,54.47,0,0,1,1465.31,802.55Z"/><path class="cls-2" d="M1465.31,857.81s16-27.26,48-26.87C1513.33,830.94,1497.23,857.92,1465.31,857.81Z"/></g><g class="cls-1"><path class="cls-2" d="M1513,692.41s16.55-28.8,0-55.27C1513,637.14,1495.15,660.74,1513,692.41Z"/><path class="cls-2" d="M1560.35,663.91s-15-27.66-47.36-26.77C1513,637.14,1528.69,665.89,1560.35,663.91Z"/><path class="cls-2" d="M1560.35,609.21s-28.66-2.41-47.36,27.93C1513,637.14,1548.56,635.74,1560.35,609.21Z"/><path class="cls-2" d="M1513,581.39s17.36,27.54,0,55.75C1513,637.14,1494.9,612.18,1513,581.39Z"/><path class="cls-2" d="M1465,608.75s29.93-1.5,48,28.39A54.46,54.46,0,0,1,1465,608.75Z"/><path class="cls-2" d="M1465,664s16-27.26,48-26.87C1513,637.14,1496.9,664.12,1465,664Z"/></g><text class="cls-4" transform="translate(1490.73 743.45)"><tspan class="cls-5">D</tspan><tspan x="23.45" y="0">C</tspan></text><text class="cls-4" transform="translate(1490.73 937.24)"><tspan class="cls-5">D</tspan><tspan x="23.45" y="0">C</tspan></text><g class="cls-1"><path class="cls-2" d="M1768,304.81s16.54-28.79,0-55.26C1768,249.55,1750.15,273.15,1768,304.81Z"/><path class="cls-2" d="M1815.36,276.31s-15-27.65-47.36-26.76C1768,249.55,1783.7,278.3,1815.36,276.31Z"/><path class="cls-2" d="M1815.36,221.62s-28.66-2.41-47.36,27.93C1768,249.55,1803.56,248.15,1815.36,221.62Z"/><path class="cls-2" d="M1768,193.8s17.36,27.54,0,55.75C1768,249.55,1749.91,224.59,1768,193.8Z"/><path class="cls-2" d="M1720,221.16s29.93-1.5,48,28.39A54.48,54.48,0,0,1,1720,221.16Z"/><path class="cls-2" d="M1720,276.42s16-27.26,48-26.87C1768,249.55,1751.9,276.53,1720,276.42Z"/></g><g class="cls-1"><path class="cls-2" d="M1767.67,498.61s16.54-28.79,0-55.26C1767.67,443.35,1749.82,466.94,1767.67,498.61Z"/><path class="cls-2" d="M1815,470.11s-15-27.66-47.35-26.76C1767.67,443.35,1783.36,472.1,1815,470.11Z"/><path class="cls-2" d="M1815,415.42s-28.65-2.42-47.35,27.93C1767.67,443.35,1803.23,441.94,1815,415.42Z"/><path class="cls-2" d="M1767.67,387.59s17.35,27.55,0,55.76C1767.67,443.35,1749.58,418.38,1767.67,387.59Z"/><path class="cls-2" d="M1719.65,415s29.93-1.5,48,28.4A54.47,54.47,0,0,1,1719.65,415Z"/><path class="cls-2" d="M1719.65,470.21s16-27.26,48-26.86C1767.67,443.35,1751.57,470.33,1719.65,470.21Z"/></g><text class="cls-4" transform="translate(1745.4 162.05)"><tspan class="cls-5">D</tspan><tspan x="23.45" y="0">C</tspan></text><text class="cls-4" transform="translate(1745.4 355.85)"><tspan class="cls-5">D</tspan><tspan x="23.45" y="0">C</tspan></text><text class="cls-4" transform="translate(1745.4 549.65)"><tspan class="cls-5">D</tspan><tspan x="23.45" y="0">C</tspan></text><g class="cls-1"><path class="cls-2" d="M1768,886.2s16.54-28.79,0-55.26C1768,830.94,1750.15,854.54,1768,886.2Z"/><path class="cls-2" d="M1815.36,857.71s-15-27.66-47.36-26.77C1768,830.94,1783.7,859.69,1815.36,857.71Z"/><path class="cls-2" d="M1815.36,803s-28.66-2.41-47.36,27.93C1768,830.94,1803.56,829.54,1815.36,803Z"/><path class="cls-2" d="M1768,775.19s17.36,27.54,0,55.75C1768,830.94,1749.91,806,1768,775.19Z"/><path class="cls-2" d="M1720,802.55s29.93-1.5,48,28.39A54.48,54.48,0,0,1,1720,802.55Z"/><path class="cls-2" d="M1720,857.81s16-27.26,48-26.87C1768,830.94,1751.9,857.92,1720,857.81Z"/></g><g class="cls-1"><path class="cls-2" d="M1767.67,692.41s16.54-28.8,0-55.27C1767.67,637.14,1749.82,660.74,1767.67,692.41Z"/><path class="cls-2" d="M1815,663.91s-15-27.66-47.35-26.77C1767.67,637.14,1783.36,665.89,1815,663.91Z"/><path class="cls-2" d="M1815,609.21s-28.65-2.41-47.35,27.93C1767.67,637.14,1803.23,635.74,1815,609.21Z"/><path class="cls-2" d="M1767.67,581.39s17.35,27.54,0,55.75C1767.67,637.14,1749.58,612.18,1767.67,581.39Z"/><path class="cls-2" d="M1719.65,608.75s29.93-1.5,48,28.39A54.45,54.45,0,0,1,1719.65,608.75Z"/><path class="cls-2" d="M1719.65,664s16-27.26,48-26.87C1767.67,637.14,1751.57,664.12,1719.65,664Z"/></g><text class="cls-4" transform="translate(1745.4 743.45)"><tspan class="cls-5">D</tspan><tspan x="23.45" y="0">C</tspan></text><text class="cls-4" transform="translate(1745.4 937.24)"><tspan class="cls-5">D</tspan><tspan x="23.45" y="0">C</tspan></text><g class="cls-1"><path class="cls-2" d="M2010.67,304.81s16.55-28.79,0-55.26C2010.67,249.55,1992.83,273.15,2010.67,304.81Z"/><path class="cls-2" d="M2058,276.31s-15-27.65-47.36-26.76C2010.67,249.55,2026.37,278.3,2058,276.31Z"/><path class="cls-2" d="M2058,221.62s-28.66-2.41-47.36,27.93C2010.67,249.55,2046.23,248.15,2058,221.62Z"/><path class="cls-2" d="M2010.67,193.8s17.36,27.54,0,55.75C2010.67,249.55,1992.58,224.59,2010.67,193.8Z"/><path class="cls-2" d="M1962.65,221.16s29.93-1.5,48,28.39A54.48,54.48,0,0,1,1962.65,221.16Z"/><path class="cls-2" d="M1962.65,276.42s16-27.26,48-26.87C2010.67,249.55,1994.58,276.53,1962.65,276.42Z"/></g><g class="cls-1"><path class="cls-2" d="M2010.34,498.61s16.54-28.79,0-55.26C2010.34,443.35,1992.49,466.94,2010.34,498.61Z"/><path class="cls-2" d="M2057.69,470.11s-15-27.66-47.35-26.76C2010.34,443.35,2026,472.1,2057.69,470.11Z"/><path class="cls-2" d="M2057.69,415.42S2029,413,2010.34,443.35C2010.34,443.35,2045.9,441.94,2057.69,415.42Z"/><path class="cls-2" d="M2010.34,387.59s17.35,27.55,0,55.76C2010.34,443.35,1992.25,418.38,2010.34,387.59Z"/><path class="cls-2" d="M1962.32,415s29.93-1.5,48,28.4A54.47,54.47,0,0,1,1962.32,415Z"/><path class="cls-2" d="M1962.32,470.21s16-27.26,48-26.86C2010.34,443.35,1994.24,470.33,1962.32,470.21Z"/></g><text class="cls-4" transform="translate(1988.07 162.05)"><tspan class="cls-5">D</tspan><tspan x="23.45" y="0">C</tspan></text><text class="cls-4" transform="translate(1988.07 355.85)"><tspan class="cls-5">D</tspan><tspan x="23.45" y="0">C</tspan></text><text class="cls-4" transform="translate(1988.07 549.65)"><tspan class="cls-5">D</tspan><tspan x="23.45" y="0">C</tspan></text><g class="cls-1"><path class="cls-2" d="M2010.67,886.2s16.55-28.79,0-55.26C2010.67,830.94,1992.83,854.54,2010.67,886.2Z"/><path class="cls-2" d="M2058,857.71s-15-27.66-47.36-26.77C2010.67,830.94,2026.37,859.69,2058,857.71Z"/><path class="cls-2" d="M2058,803s-28.66-2.41-47.36,27.93C2010.67,830.94,2046.23,829.54,2058,803Z"/><path class="cls-2" d="M2010.67,775.19s17.36,27.54,0,55.75C2010.67,830.94,1992.58,806,2010.67,775.19Z"/><path class="cls-2" d="M1962.65,802.55s29.93-1.5,48,28.39A54.48,54.48,0,0,1,1962.65,802.55Z"/><path class="cls-2" d="M1962.65,857.81s16-27.26,48-26.87C2010.67,830.94,1994.58,857.92,1962.65,857.81Z"/></g><g class="cls-1"><path class="cls-2" d="M2010.34,692.41s16.54-28.8,0-55.27C2010.34,637.14,1992.49,660.74,2010.34,692.41Z"/><path class="cls-2" d="M2057.69,663.91s-15-27.66-47.35-26.77C2010.34,637.14,2026,665.89,2057.69,663.91Z"/><path class="cls-2" d="M2057.69,609.21s-28.65-2.41-47.35,27.93C2010.34,637.14,2045.9,635.74,2057.69,609.21Z"/><path class="cls-2" d="M2010.34,581.39s17.35,27.54,0,55.75C2010.34,637.14,1992.25,612.18,2010.34,581.39Z"/><path class="cls-2" d="M1962.32,608.75s29.93-1.5,48,28.39A54.45,54.45,0,0,1,1962.32,608.75Z"/><path class="cls-2" d="M1962.32,664s16-27.26,48-26.87C2010.34,637.14,1994.24,664.12,1962.32,664Z"/></g><text class="cls-4" transform="translate(1988.07 743.45)"><tspan class="cls-5">D</tspan><tspan x="23.45" y="0">C</tspan></text><text class="cls-4" transform="translate(1988.07 937.24)"><tspan class="cls-5">D</tspan><tspan x="23.45" y="0">C</tspan></text><text class="cls-4" transform="translate(629.73 646.77)"><tspan class="cls-5">D</tspan><tspan x="23.45" y="0">C</tspan></text><g class="cls-1"><path class="cls-3" d="M414,596.57s16.54-28.79,0-55.26C414,541.31,396.15,564.91,414,596.57Z"/><path class="cls-3" d="M461.35,568.08s-15-27.66-47.35-26.77C414,541.31,429.69,570.06,461.35,568.08Z"/><path class="cls-3" d="M461.35,513.38S432.7,511,414,541.31C414,541.31,449.56,539.91,461.35,513.38Z"/><path class="cls-3" d="M414,485.56s17.35,27.54,0,55.75C414,541.31,395.9,516.35,414,485.56Z"/><path class="cls-3" d="M366,512.92s29.92-1.5,48,28.39A54.47,54.47,0,0,1,366,512.92Z"/><path class="cls-3" d="M366,568.18s16-27.26,48-26.87C414,541.31,397.9,568.29,366,568.18Z"/></g><g class="cls-1"><path class="cls-3" d="M413.33,207.91s16.54-28.79,0-55.26C413.33,152.65,395.48,176.25,413.33,207.91Z"/><path class="cls-3" d="M460.68,179.41s-15-27.65-47.35-26.76C413.33,152.65,429,181.4,460.68,179.41Z"/><path class="cls-3" d="M460.68,124.72s-28.65-2.41-47.35,27.93C413.33,152.65,448.89,151.25,460.68,124.72Z"/><path class="cls-3" d="M413.33,96.9s17.35,27.54,0,55.75C413.33,152.65,395.24,127.69,413.33,96.9Z"/><path class="cls-3" d="M365.31,124.26s29.93-1.5,48,28.39A54.47,54.47,0,0,1,365.31,124.26Z"/><path class="cls-3" d="M365.31,179.52s16-27.26,48-26.87C413.33,152.65,397.23,179.63,365.31,179.52Z"/></g><g class="cls-1"><path class="cls-3" d="M413.66,402.24s16.55-28.79,0-55.26C413.66,347,395.82,370.58,413.66,402.24Z"/><path class="cls-3" d="M461,373.75S446,346.09,413.66,347C413.66,347,429.36,375.73,461,373.75Z"/><path class="cls-3" d="M461,319.05s-28.66-2.41-47.36,27.93C413.66,347,449.22,345.58,461,319.05Z"/><path class="cls-3" d="M413.66,291.23s17.36,27.54,0,55.75C413.66,347,395.57,322,413.66,291.23Z"/><path class="cls-3" d="M365.64,318.59s29.93-1.5,48,28.39A54.48,54.48,0,0,1,365.64,318.59Z"/><path class="cls-3" d="M365.64,373.85s16-27.26,48-26.87C413.66,347,397.57,374,365.64,373.85Z"/></g><text class="cls-4" transform="translate(390.73 259.22)"><tspan class="cls-5">D</tspan><tspan x="23.45" y="0">C</tspan></text><text class="cls-4" transform="translate(390.57 453.55)"><tspan class="cls-5">D</tspan><tspan x="23.45" y="0">C</tspan></text><g class="cls-1"><path class="cls-3" d="M413.33,789.3s16.54-28.79,0-55.26C413.33,734,395.48,757.64,413.33,789.3Z"/><path class="cls-3" d="M460.68,760.81s-15-27.66-47.35-26.77C413.33,734,429,762.79,460.68,760.81Z"/><path class="cls-3" d="M460.68,706.11S432,703.7,413.33,734C413.33,734,448.89,732.64,460.68,706.11Z"/><path class="cls-3" d="M413.33,678.29s17.35,27.54,0,55.75C413.33,734,395.24,709.08,413.33,678.29Z"/><path class="cls-3" d="M365.31,705.65s29.93-1.5,48,28.39A54.47,54.47,0,0,1,365.31,705.65Z"/><path class="cls-3" d="M365.31,760.91s16-27.26,48-26.87C413.33,734,397.23,761,365.31,760.91Z"/></g><g class="cls-1"><path class="cls-3" d="M413.66,983.64s16.55-28.8,0-55.27C413.66,928.37,395.82,952,413.66,983.64Z"/><path class="cls-3" d="M461,955.14s-15-27.66-47.36-26.77C413.66,928.37,429.36,957.12,461,955.14Z"/><path class="cls-3" d="M461,900.44s-28.66-2.41-47.36,27.93C413.66,928.37,449.22,927,461,900.44Z"/><path class="cls-3" d="M413.66,872.62s17.36,27.54,0,55.75C413.66,928.37,395.57,903.41,413.66,872.62Z"/><path class="cls-3" d="M365.64,900s29.93-1.5,48,28.39A54.46,54.46,0,0,1,365.64,900Z"/><path class="cls-3" d="M365.64,955.24s16-27.26,48-26.87C413.66,928.37,397.57,955.35,365.64,955.24Z"/></g><text class="cls-4" transform="translate(390.73 840.61)"><tspan class="cls-5">D</tspan><tspan x="23.45" y="0">C</tspan></text><text class="cls-4" transform="translate(390.4 646.77)"><tspan class="cls-5">D</tspan><tspan x="23.45" y="0">C</tspan></text><g class="cls-1"><path class="cls-3" d="M171.67,596.57s16.54-28.79,0-55.26C171.67,541.31,153.82,564.91,171.67,596.57Z"/><path class="cls-3" d="M219,568.08s-15-27.66-47.35-26.77C171.67,541.31,187.36,570.06,219,568.08Z"/><path class="cls-3" d="M219,513.38s-28.65-2.41-47.35,27.93C171.67,541.31,207.23,539.91,219,513.38Z"/><path class="cls-3" d="M171.67,485.56s17.35,27.54,0,55.75C171.67,541.31,153.57,516.35,171.67,485.56Z"/><path class="cls-3" d="M123.64,512.92s29.93-1.5,48,28.39A54.49,54.49,0,0,1,123.64,512.92Z"/><path class="cls-3" d="M123.64,568.18s16-27.26,48-26.87C171.67,541.31,155.57,568.29,123.64,568.18Z"/></g><g class="cls-1"><path class="cls-3" d="M171,207.91s16.54-28.79,0-55.26C171,152.65,153.15,176.25,171,207.91Z"/><path class="cls-3" d="M218.35,179.41s-15-27.65-47.35-26.76C171,152.65,186.69,181.4,218.35,179.41Z"/><path class="cls-3" d="M218.35,124.72S189.7,122.31,171,152.65C171,152.65,206.56,151.25,218.35,124.72Z"/><path class="cls-3" d="M171,96.9s17.35,27.54,0,55.75C171,152.65,152.91,127.69,171,96.9Z"/><path class="cls-3" d="M123,124.26s29.93-1.5,48,28.39A54.47,54.47,0,0,1,123,124.26Z"/><path class="cls-3" d="M123,179.52s16-27.26,48-26.87C171,152.65,154.9,179.63,123,179.52Z"/></g><g class="cls-1"><path class="cls-3" d="M171.33,402.24s16.54-28.79,0-55.26C171.33,347,153.48,370.58,171.33,402.24Z"/><path class="cls-3" d="M218.69,373.75s-15-27.66-47.36-26.77C171.33,347,187,375.73,218.69,373.75Z"/><path class="cls-3" d="M218.69,319.05S190,316.64,171.33,347C171.33,347,206.89,345.58,218.69,319.05Z"/><path class="cls-3" d="M171.33,291.23s17.36,27.54,0,55.75C171.33,347,153.24,322,171.33,291.23Z"/><path class="cls-3" d="M123.31,318.59s29.93-1.5,48,28.39A54.48,54.48,0,0,1,123.31,318.59Z"/><path class="cls-3" d="M123.31,373.85s16-27.26,48-26.87C171.33,347,155.24,374,123.31,373.85Z"/></g><text class="cls-4" transform="translate(148.4 259.22)"><tspan class="cls-5">D</tspan><tspan x="23.45" y="0">C</tspan></text><text class="cls-4" transform="translate(148.24 453.55)"><tspan class="cls-5">D</tspan><tspan x="23.45" y="0">C</tspan></text><g class="cls-1"><path class="cls-3" d="M171,789.3s16.54-28.79,0-55.26C171,734,153.15,757.64,171,789.3Z"/><path class="cls-3" d="M218.35,760.81S203.38,733.15,171,734C171,734,186.69,762.79,218.35,760.81Z"/><path class="cls-3" d="M218.35,706.11S189.7,703.7,171,734C171,734,206.56,732.64,218.35,706.11Z"/><path class="cls-3" d="M171,678.29s17.35,27.54,0,55.75C171,734,152.91,709.08,171,678.29Z"/><path class="cls-3" d="M123,705.65s29.93-1.5,48,28.39A54.47,54.47,0,0,1,123,705.65Z"/><path class="cls-3" d="M123,760.91s16-27.26,48-26.87C171,734,154.9,761,123,760.91Z"/></g><g class="cls-1"><path class="cls-3" d="M171.33,983.64s16.54-28.8,0-55.27C171.33,928.37,153.48,952,171.33,983.64Z"/><path class="cls-3" d="M218.69,955.14s-15-27.66-47.36-26.77C171.33,928.37,187,957.12,218.69,955.14Z"/><path class="cls-3" d="M218.69,900.44S190,898,171.33,928.37C171.33,928.37,206.89,927,218.69,900.44Z"/><path class="cls-3" d="M171.33,872.62s17.36,27.54,0,55.75C171.33,928.37,153.24,903.41,171.33,872.62Z"/><path class="cls-3" d="M123.31,900s29.93-1.5,48,28.39A54.46,54.46,0,0,1,123.31,900Z"/><path class="cls-3" d="M123.31,955.24s16-27.26,48-26.87C171.33,928.37,155.24,955.35,123.31,955.24Z"/></g><text class="cls-4" transform="translate(148.4 840.61)"><tspan class="cls-5">D</tspan><tspan x="23.45" y="0">C</tspan></text><text class="cls-4" transform="translate(148.07 646.77)"><tspan class="cls-5">D</tspan><tspan x="23.45" y="0">C</tspan></text><g class="cls-1"><path class="cls-3" d="M894.32,596.57s16.54-28.79,0-55.26C894.32,541.31,876.47,564.91,894.32,596.57Z"/><path class="cls-3" d="M941.68,568.08s-15-27.66-47.36-26.77C894.32,541.31,910,570.06,941.68,568.08Z"/><path class="cls-3" d="M941.68,513.38S913,511,894.32,541.31C894.32,541.31,929.88,539.91,941.68,513.38Z"/><path class="cls-3" d="M894.32,485.56s17.36,27.54,0,55.75C894.32,541.31,876.23,516.35,894.32,485.56Z"/><path class="cls-3" d="M846.3,512.92s29.93-1.5,48,28.39A54.48,54.48,0,0,1,846.3,512.92Z"/><path class="cls-3" d="M846.3,568.18s16-27.26,48-26.87C894.32,541.31,878.23,568.29,846.3,568.18Z"/></g><g class="cls-1"><path class="cls-3" d="M893.66,207.91s16.54-28.79,0-55.26C893.66,152.65,875.81,176.25,893.66,207.91Z"/><path class="cls-3" d="M941,179.41s-15-27.65-47.35-26.76C893.66,152.65,909.35,181.4,941,179.41Z"/><path class="cls-3" d="M941,124.72s-28.65-2.41-47.35,27.93C893.66,152.65,929.22,151.25,941,124.72Z"/><path class="cls-3" d="M893.66,96.9s17.35,27.54,0,55.75C893.66,152.65,875.56,127.69,893.66,96.9Z"/><path class="cls-3" d="M845.63,124.26s29.93-1.5,48,28.39A54.49,54.49,0,0,1,845.63,124.26Z"/><path class="cls-3" d="M845.63,179.52s16-27.26,48-26.87C893.66,152.65,877.56,179.63,845.63,179.52Z"/></g><g class="cls-1"><path class="cls-3" d="M894,402.24s16.54-28.79,0-55.26C894,347,876.14,370.58,894,402.24Z"/><path class="cls-3" d="M941.34,373.75S926.37,346.09,894,347C894,347,909.68,375.73,941.34,373.75Z"/><path class="cls-3" d="M941.34,319.05S912.69,316.64,894,347C894,347,929.55,345.58,941.34,319.05Z"/><path class="cls-3" d="M894,291.23s17.35,27.54,0,55.75C894,347,875.9,322,894,291.23Z"/><path class="cls-3" d="M846,318.59s29.93-1.5,48,28.39A54.47,54.47,0,0,1,846,318.59Z"/><path class="cls-3" d="M846,373.85s16-27.26,48-26.87C894,347,877.89,374,846,373.85Z"/></g><text class="cls-4" transform="translate(871.06 259.22)"><tspan class="cls-5">D</tspan><tspan x="23.45" y="0">C</tspan></text><text class="cls-4" transform="translate(870.89 453.55)"><tspan class="cls-5">D</tspan><tspan x="23.45" y="0">C</tspan></text><g class="cls-1"><path class="cls-3" d="M893.66,789.3s16.54-28.79,0-55.26C893.66,734,875.81,757.64,893.66,789.3Z"/><path class="cls-3" d="M941,760.81S926,733.15,893.66,734C893.66,734,909.35,762.79,941,760.81Z"/><path class="cls-3" d="M941,706.11S912.36,703.7,893.66,734C893.66,734,929.22,732.64,941,706.11Z"/><path class="cls-3" d="M893.66,678.29s17.35,27.54,0,55.75C893.66,734,875.56,709.08,893.66,678.29Z"/><path class="cls-3" d="M845.63,705.65s29.93-1.5,48,28.39A54.49,54.49,0,0,1,845.63,705.65Z"/><path class="cls-3" d="M845.63,760.91s16-27.26,48-26.87C893.66,734,877.56,761,845.63,760.91Z"/></g><g class="cls-1"><path class="cls-3" d="M894,983.64s16.54-28.8,0-55.27C894,928.37,876.14,952,894,983.64Z"/><path class="cls-3" d="M941.34,955.14s-15-27.66-47.35-26.77C894,928.37,909.68,957.12,941.34,955.14Z"/><path class="cls-3" d="M941.34,900.44S912.69,898,894,928.37C894,928.37,929.55,927,941.34,900.44Z"/><path class="cls-3" d="M894,872.62s17.35,27.54,0,55.75C894,928.37,875.9,903.41,894,872.62Z"/><path class="cls-3" d="M846,900s29.93-1.5,48,28.39A54.45,54.45,0,0,1,846,900Z"/><path class="cls-3" d="M846,955.24s16-27.26,48-26.87C894,928.37,877.89,955.35,846,955.24Z"/></g><text class="cls-4" transform="translate(871.06 840.61)"><tspan class="cls-5">D</tspan><tspan x="23.45" y="0">C</tspan></text><text class="cls-4" transform="translate(870.72 646.77)"><tspan class="cls-5">D</tspan><tspan x="23.45" y="0">C</tspan></text><g class="cls-1"><path class="cls-3" d="M1139,596.57s16.54-28.79,0-55.26C1139,541.31,1121.14,564.91,1139,596.57Z"/><path class="cls-3" d="M1186.34,568.08s-15-27.66-47.35-26.77C1139,541.31,1154.68,570.06,1186.34,568.08Z"/><path class="cls-3" d="M1186.34,513.38S1157.69,511,1139,541.31C1139,541.31,1174.55,539.91,1186.34,513.38Z"/><path class="cls-3" d="M1139,485.56s17.35,27.54,0,55.75C1139,541.31,1120.9,516.35,1139,485.56Z"/><path class="cls-3" d="M1091,512.92s29.93-1.5,48,28.39A54.47,54.47,0,0,1,1091,512.92Z"/><path class="cls-3" d="M1091,568.18s16-27.26,48-26.87C1139,541.31,1122.89,568.29,1091,568.18Z"/></g><g class="cls-1"><path class="cls-3" d="M1138.32,207.91s16.54-28.79,0-55.26C1138.32,152.65,1120.47,176.25,1138.32,207.91Z"/><path class="cls-3" d="M1185.68,179.41s-15-27.65-47.36-26.76C1138.32,152.65,1154,181.4,1185.68,179.41Z"/><path class="cls-3" d="M1185.68,124.72s-28.66-2.41-47.36,27.93C1138.32,152.65,1173.88,151.25,1185.68,124.72Z"/><path class="cls-3" d="M1138.32,96.9s17.36,27.54,0,55.75C1138.32,152.65,1120.23,127.69,1138.32,96.9Z"/><path class="cls-3" d="M1090.3,124.26s29.93-1.5,48,28.39A54.48,54.48,0,0,1,1090.3,124.26Z"/><path class="cls-3" d="M1090.3,179.52s16-27.26,48-26.87C1138.32,152.65,1122.22,179.63,1090.3,179.52Z"/></g><g class="cls-1"><path class="cls-3" d="M1138.66,402.24s16.54-28.79,0-55.26C1138.66,347,1120.81,370.58,1138.66,402.24Z"/><path class="cls-3" d="M1186,373.75s-15-27.66-47.35-26.77C1138.66,347,1154.35,375.73,1186,373.75Z"/><path class="cls-3" d="M1186,319.05s-28.65-2.41-47.35,27.93C1138.66,347,1174.22,345.58,1186,319.05Z"/><path class="cls-3" d="M1138.66,291.23s17.35,27.54,0,55.75C1138.66,347,1120.56,322,1138.66,291.23Z"/><path class="cls-3" d="M1090.63,318.59s29.93-1.5,48,28.39A54.49,54.49,0,0,1,1090.63,318.59Z"/><path class="cls-3" d="M1090.63,373.85s16-27.26,48-26.87C1138.66,347,1122.56,374,1090.63,373.85Z"/></g><text class="cls-4" transform="translate(1115.72 259.22)"><tspan class="cls-5">D</tspan><tspan x="23.45" y="0">C</tspan></text><text class="cls-4" transform="translate(1115.56 453.55)"><tspan class="cls-5">D</tspan><tspan x="23.45" y="0">C</tspan></text><g class="cls-1"><path class="cls-3" d="M1138.32,789.3s16.54-28.79,0-55.26C1138.32,734,1120.47,757.64,1138.32,789.3Z"/><path class="cls-3" d="M1185.68,760.81s-15-27.66-47.36-26.77C1138.32,734,1154,762.79,1185.68,760.81Z"/><path class="cls-3" d="M1185.68,706.11S1157,703.7,1138.32,734C1138.32,734,1173.88,732.64,1185.68,706.11Z"/><path class="cls-3" d="M1138.32,678.29s17.36,27.54,0,55.75C1138.32,734,1120.23,709.08,1138.32,678.29Z"/><path class="cls-3" d="M1090.3,705.65s29.93-1.5,48,28.39A54.48,54.48,0,0,1,1090.3,705.65Z"/><path class="cls-3" d="M1090.3,760.91s16-27.26,48-26.87C1138.32,734,1122.22,761,1090.3,760.91Z"/></g><g class="cls-1"><path class="cls-3" d="M1138.66,983.64s16.54-28.8,0-55.27C1138.66,928.37,1120.81,952,1138.66,983.64Z"/><path class="cls-3" d="M1186,955.14s-15-27.66-47.35-26.77C1138.66,928.37,1154.35,957.12,1186,955.14Z"/><path class="cls-3" d="M1186,900.44s-28.65-2.41-47.35,27.93C1138.66,928.37,1174.22,927,1186,900.44Z"/><path class="cls-3" d="M1138.66,872.62s17.35,27.54,0,55.75C1138.66,928.37,1120.56,903.41,1138.66,872.62Z"/><path class="cls-3" d="M1090.63,900s29.93-1.5,48,28.39A54.47,54.47,0,0,1,1090.63,900Z"/><path class="cls-3" d="M1090.63,955.24s16-27.26,48-26.87C1138.66,928.37,1122.56,955.35,1090.63,955.24Z"/></g><text class="cls-4" transform="translate(1115.72 840.61)"><tspan class="cls-5">D</tspan><tspan x="23.45" y="0">C</tspan></text><text class="cls-4" transform="translate(1115.39 646.77)"><tspan class="cls-5">D</tspan><tspan x="23.45" y="0">C</tspan></text><g class="cls-1"><path class="cls-3" d="M1387.66,596.57s16.54-28.79,0-55.26C1387.66,541.31,1369.81,564.91,1387.66,596.57Z"/><path class="cls-3" d="M1435,568.08s-15-27.66-47.35-26.77C1387.66,541.31,1403.35,570.06,1435,568.08Z"/><path class="cls-3" d="M1435,513.38s-28.65-2.41-47.35,27.93C1387.66,541.31,1423.22,539.91,1435,513.38Z"/><path class="cls-3" d="M1387.66,485.56s17.35,27.54,0,55.75C1387.66,541.31,1369.57,516.35,1387.66,485.56Z"/><path class="cls-3" d="M1339.64,512.92s29.93-1.5,48,28.39A54.47,54.47,0,0,1,1339.64,512.92Z"/><path class="cls-3" d="M1339.64,568.18s16-27.26,48-26.87C1387.66,541.31,1371.56,568.29,1339.64,568.18Z"/></g><g class="cls-1"><path class="cls-3" d="M1387,207.91s16.54-28.79,0-55.26C1387,152.65,1369.14,176.25,1387,207.91Z"/><path class="cls-3" d="M1434.35,179.41s-15-27.65-47.36-26.76C1387,152.65,1402.69,181.4,1434.35,179.41Z"/><path class="cls-3" d="M1434.35,124.72s-28.66-2.41-47.36,27.93C1387,152.65,1422.55,151.25,1434.35,124.72Z"/><path class="cls-3" d="M1387,96.9s17.36,27.54,0,55.75C1387,152.65,1368.9,127.69,1387,96.9Z"/><path class="cls-3" d="M1339,124.26s29.93-1.5,48,28.39A54.47,54.47,0,0,1,1339,124.26Z"/><path class="cls-3" d="M1339,179.52s16-27.26,48-26.87C1387,152.65,1370.89,179.63,1339,179.52Z"/></g><g class="cls-1"><path class="cls-3" d="M1387.33,402.24s16.54-28.79,0-55.26C1387.33,347,1369.48,370.58,1387.33,402.24Z"/><path class="cls-3" d="M1434.68,373.75s-15-27.66-47.35-26.77C1387.33,347,1403,375.73,1434.68,373.75Z"/><path class="cls-3" d="M1434.68,319.05S1406,316.64,1387.33,347C1387.33,347,1422.89,345.58,1434.68,319.05Z"/><path class="cls-3" d="M1387.33,291.23s17.35,27.54,0,55.75C1387.33,347,1369.23,322,1387.33,291.23Z"/><path class="cls-3" d="M1339.3,318.59s29.93-1.5,48,28.39A54.49,54.49,0,0,1,1339.3,318.59Z"/><path class="cls-3" d="M1339.3,373.85s16-27.26,48-26.87C1387.33,347,1371.23,374,1339.3,373.85Z"/></g><text class="cls-4" transform="translate(1364.39 259.22)"><tspan class="cls-5">D</tspan><tspan x="23.45" y="0">C</tspan></text><text class="cls-4" transform="translate(1364.23 453.55)"><tspan class="cls-5">D</tspan><tspan x="23.45" y="0">C</tspan></text><g class="cls-1"><path class="cls-3" d="M1387,789.3s16.54-28.79,0-55.26C1387,734,1369.14,757.64,1387,789.3Z"/><path class="cls-3" d="M1434.35,760.81s-15-27.66-47.36-26.77C1387,734,1402.69,762.79,1434.35,760.81Z"/><path class="cls-3" d="M1434.35,706.11S1405.69,703.7,1387,734C1387,734,1422.55,732.64,1434.35,706.11Z"/><path class="cls-3" d="M1387,678.29s17.36,27.54,0,55.75C1387,734,1368.9,709.08,1387,678.29Z"/><path class="cls-3" d="M1339,705.65s29.93-1.5,48,28.39A54.47,54.47,0,0,1,1339,705.65Z"/><path class="cls-3" d="M1339,760.91s16-27.26,48-26.87C1387,734,1370.89,761,1339,760.91Z"/></g><g class="cls-1"><path class="cls-3" d="M1387.33,983.64s16.54-28.8,0-55.27C1387.33,928.37,1369.48,952,1387.33,983.64Z"/><path class="cls-3" d="M1434.68,955.14s-15-27.66-47.35-26.77C1387.33,928.37,1403,957.12,1434.68,955.14Z"/><path class="cls-3" d="M1434.68,900.44S1406,898,1387.33,928.37C1387.33,928.37,1422.89,927,1434.68,900.44Z"/><path class="cls-3" d="M1387.33,872.62s17.35,27.54,0,55.75C1387.33,928.37,1369.23,903.41,1387.33,872.62Z"/><path class="cls-3" d="M1339.3,900s29.93-1.5,48,28.39A54.47,54.47,0,0,1,1339.3,900Z"/><path class="cls-3" d="M1339.3,955.24s16-27.26,48-26.87C1387.33,928.37,1371.23,955.35,1339.3,955.24Z"/></g><text class="cls-4" transform="translate(1364.39 840.61)"><tspan class="cls-5">D</tspan><tspan x="23.45" y="0">C</tspan></text><text class="cls-4" transform="translate(1364.06 646.77)"><tspan class="cls-5">D</tspan><tspan x="23.45" y="0">C</tspan></text><g class="cls-1"><path class="cls-3" d="M1640.33,596.57s16.54-28.79,0-55.26C1640.33,541.31,1622.48,564.91,1640.33,596.57Z"/><path class="cls-3" d="M1687.69,568.08s-15-27.66-47.36-26.77C1640.33,541.31,1656,570.06,1687.69,568.08Z"/><path class="cls-3" d="M1687.69,513.38S1659,511,1640.33,541.31C1640.33,541.31,1675.89,539.91,1687.69,513.38Z"/><path class="cls-3" d="M1640.33,485.56s17.36,27.54,0,55.75C1640.33,541.31,1622.24,516.35,1640.33,485.56Z"/><path class="cls-3" d="M1592.31,512.92s29.93-1.5,48,28.39A54.48,54.48,0,0,1,1592.31,512.92Z"/><path class="cls-3" d="M1592.31,568.18s16-27.26,48-26.87C1640.33,541.31,1624.23,568.29,1592.31,568.18Z"/></g><g class="cls-1"><path class="cls-3" d="M1639.66,207.91s16.55-28.79,0-55.26C1639.66,152.65,1621.82,176.25,1639.66,207.91Z"/><path class="cls-3" d="M1687,179.41s-15-27.65-47.36-26.76C1639.66,152.65,1655.36,181.4,1687,179.41Z"/><path class="cls-3" d="M1687,124.72s-28.66-2.41-47.36,27.93C1639.66,152.65,1675.23,151.25,1687,124.72Z"/><path class="cls-3" d="M1639.66,96.9s17.36,27.54,0,55.75C1639.66,152.65,1621.57,127.69,1639.66,96.9Z"/><path class="cls-3" d="M1591.64,124.26s29.93-1.5,48,28.39A54.48,54.48,0,0,1,1591.64,124.26Z"/><path class="cls-3" d="M1591.64,179.52s16-27.26,48-26.87C1639.66,152.65,1623.57,179.63,1591.64,179.52Z"/></g><g class="cls-1"><path class="cls-3" d="M1640,402.24s16.54-28.79,0-55.26C1640,347,1622.15,370.58,1640,402.24Z"/><path class="cls-3" d="M1687.35,373.75s-15-27.66-47.35-26.77C1640,347,1655.69,375.73,1687.35,373.75Z"/><path class="cls-3" d="M1687.35,319.05S1658.7,316.64,1640,347C1640,347,1675.56,345.58,1687.35,319.05Z"/><path class="cls-3" d="M1640,291.23s17.35,27.54,0,55.75C1640,347,1621.9,322,1640,291.23Z"/><path class="cls-3" d="M1592,318.59s29.92-1.5,48,28.39A54.47,54.47,0,0,1,1592,318.59Z"/><path class="cls-3" d="M1592,373.85s16-27.26,48-26.87C1640,347,1623.9,374,1592,373.85Z"/></g><text class="cls-4" transform="translate(1617.07 259.22)"><tspan class="cls-5">D</tspan><tspan x="23.45" y="0">C</tspan></text><text class="cls-4" transform="translate(1616.9 453.55)"><tspan class="cls-5">D</tspan><tspan x="23.45" y="0">C</tspan></text><g class="cls-1"><path class="cls-3" d="M1639.66,789.3s16.55-28.79,0-55.26C1639.66,734,1621.82,757.64,1639.66,789.3Z"/><path class="cls-3" d="M1687,760.81s-15-27.66-47.36-26.77C1639.66,734,1655.36,762.79,1687,760.81Z"/><path class="cls-3" d="M1687,706.11s-28.66-2.41-47.36,27.93C1639.66,734,1675.23,732.64,1687,706.11Z"/><path class="cls-3" d="M1639.66,678.29s17.36,27.54,0,55.75C1639.66,734,1621.57,709.08,1639.66,678.29Z"/><path class="cls-3" d="M1591.64,705.65s29.93-1.5,48,28.39A54.48,54.48,0,0,1,1591.64,705.65Z"/><path class="cls-3" d="M1591.64,760.91s16-27.26,48-26.87C1639.66,734,1623.57,761,1591.64,760.91Z"/></g><g class="cls-1"><path class="cls-3" d="M1640,983.64s16.54-28.8,0-55.27C1640,928.37,1622.15,952,1640,983.64Z"/><path class="cls-3" d="M1687.35,955.14s-15-27.66-47.35-26.77C1640,928.37,1655.69,957.12,1687.35,955.14Z"/><path class="cls-3" d="M1687.35,900.44S1658.7,898,1640,928.37C1640,928.37,1675.56,927,1687.35,900.44Z"/><path class="cls-3" d="M1640,872.62s17.35,27.54,0,55.75C1640,928.37,1621.9,903.41,1640,872.62Z"/><path class="cls-3" d="M1592,900s29.92-1.5,48,28.39A54.45,54.45,0,0,1,1592,900Z"/><path class="cls-3" d="M1592,955.24s16-27.26,48-26.87C1640,928.37,1623.9,955.35,1592,955.24Z"/></g><text class="cls-4" transform="translate(1617.07 840.61)"><tspan class="cls-5">D</tspan><tspan x="23.45" y="0">C</tspan></text><text class="cls-4" transform="translate(1616.73 646.77)"><tspan class="cls-5">D</tspan><tspan x="23.45" y="0">C</tspan></text><g class="cls-1"><path class="cls-3" d="M1896.67,596.57s16.55-28.79,0-55.26C1896.67,541.31,1878.83,564.91,1896.67,596.57Z"/><path class="cls-3" d="M1944,568.08s-15-27.66-47.36-26.77C1896.67,541.31,1912.37,570.06,1944,568.08Z"/><path class="cls-3" d="M1944,513.38s-28.66-2.41-47.36,27.93C1896.67,541.31,1932.23,539.91,1944,513.38Z"/><path class="cls-3" d="M1896.67,485.56s17.36,27.54,0,55.75C1896.67,541.31,1878.58,516.35,1896.67,485.56Z"/><path class="cls-3" d="M1848.65,512.92s29.93-1.5,48,28.39A54.48,54.48,0,0,1,1848.65,512.92Z"/><path class="cls-3" d="M1848.65,568.18s16-27.26,48-26.87C1896.67,541.31,1880.58,568.29,1848.65,568.18Z"/></g><g class="cls-1"><path class="cls-3" d="M1896,207.91s16.54-28.79,0-55.26C1896,152.65,1878.16,176.25,1896,207.91Z"/><path class="cls-3" d="M1943.36,179.41s-15-27.65-47.35-26.76C1896,152.65,1911.7,181.4,1943.36,179.41Z"/><path class="cls-3" d="M1943.36,124.72s-28.65-2.41-47.35,27.93C1896,152.65,1931.57,151.25,1943.36,124.72Z"/><path class="cls-3" d="M1896,96.9s17.35,27.54,0,55.75C1896,152.65,1877.91,127.69,1896,96.9Z"/><path class="cls-3" d="M1848,124.26s29.93-1.5,48,28.39A54.49,54.49,0,0,1,1848,124.26Z"/><path class="cls-3" d="M1848,179.52s16-27.26,48-26.87C1896,152.65,1879.91,179.63,1848,179.52Z"/></g><g class="cls-1"><path class="cls-3" d="M1896.34,402.24s16.54-28.79,0-55.26C1896.34,347,1878.49,370.58,1896.34,402.24Z"/><path class="cls-3" d="M1943.7,373.75s-15-27.66-47.36-26.77C1896.34,347,1912,375.73,1943.7,373.75Z"/><path class="cls-3" d="M1943.7,319.05S1915,316.64,1896.34,347C1896.34,347,1931.9,345.58,1943.7,319.05Z"/><path class="cls-3" d="M1896.34,291.23s17.35,27.54,0,55.75C1896.34,347,1878.25,322,1896.34,291.23Z"/><path class="cls-3" d="M1848.32,318.59s29.93-1.5,48,28.39A54.47,54.47,0,0,1,1848.32,318.59Z"/><path class="cls-3" d="M1848.32,373.85s16-27.26,48-26.87C1896.34,347,1880.24,374,1848.32,373.85Z"/></g><text class="cls-4" transform="translate(1873.41 259.22)"><tspan class="cls-5">D</tspan><tspan x="23.45" y="0">C</tspan></text><text class="cls-4" transform="translate(1873.24 453.55)"><tspan class="cls-5">D</tspan><tspan x="23.45" y="0">C</tspan></text><g class="cls-1"><path class="cls-3" d="M1896,789.3s16.54-28.79,0-55.26C1896,734,1878.16,757.64,1896,789.3Z"/><path class="cls-3" d="M1943.36,760.81s-15-27.66-47.35-26.77C1896,734,1911.7,762.79,1943.36,760.81Z"/><path class="cls-3" d="M1943.36,706.11S1914.71,703.7,1896,734C1896,734,1931.57,732.64,1943.36,706.11Z"/><path class="cls-3" d="M1896,678.29s17.35,27.54,0,55.75C1896,734,1877.91,709.08,1896,678.29Z"/><path class="cls-3" d="M1848,705.65s29.93-1.5,48,28.39A54.49,54.49,0,0,1,1848,705.65Z"/><path class="cls-3" d="M1848,760.91s16-27.26,48-26.87C1896,734,1879.91,761,1848,760.91Z"/></g><g class="cls-1"><path class="cls-3" d="M1896.34,983.64s16.54-28.8,0-55.27C1896.34,928.37,1878.49,952,1896.34,983.64Z"/><path class="cls-3" d="M1943.7,955.14s-15-27.66-47.36-26.77C1896.34,928.37,1912,957.12,1943.7,955.14Z"/><path class="cls-3" d="M1943.7,900.44S1915,898,1896.34,928.37C1896.34,928.37,1931.9,927,1943.7,900.44Z"/><path class="cls-3" d="M1896.34,872.62s17.35,27.54,0,55.75C1896.34,928.37,1878.25,903.41,1896.34,872.62Z"/><path class="cls-3" d="M1848.32,900s29.93-1.5,48,28.39A54.45,54.45,0,0,1,1848.32,900Z"/><path class="cls-3" d="M1848.32,955.24s16-27.26,48-26.87C1896.34,928.37,1880.24,955.35,1848.32,955.24Z"/></g><text class="cls-4" transform="translate(1873.41 840.61)"><tspan class="cls-5">D</tspan><tspan x="23.45" y="0">C</tspan></text><text class="cls-4" transform="translate(1873.08 646.77)"><tspan class="cls-5">D</tspan><tspan x="23.45" y="0">C</tspan></text></svg>