<svg id="Layer_1" data-name="Layer 1" xmlns="http://www.w3.org/2000/svg" viewBox="0 0 2060 1080"><defs><style>.cls-1,.cls-4{opacity:0.05;}.cls-2{fill:none;stroke:#231f20;stroke-miterlimit:10;stroke-width:3.11px;}.cls-3{fill:#231f20;}.cls-4{font-size:32.12px;font-family:OxtailOT-Medium, Oxtail OT;font-weight:500;}.cls-5{letter-spacing:-0.01em;}</style></defs><title>1Artboard 10</title><g class="cls-1"><path class="cls-2" d="M534,324.81s16.54-28.79,0-55.26C534,269.55,516.15,293.15,534,324.81Z"/><path class="cls-2" d="M581.35,296.31s-15-27.65-47.35-26.76C534,269.55,549.69,298.3,581.35,296.31Z"/><path class="cls-2" d="M581.35,241.62s-28.66-2.41-47.35,27.93C534,269.55,569.56,268.15,581.35,241.62Z"/><path class="cls-2" d="M534,213.8s17.35,27.54,0,55.75C534,269.55,515.9,244.59,534,213.8Z"/><path class="cls-2" d="M486,241.16s29.93-1.5,48,28.39A54.49,54.49,0,0,1,486,241.16Z"/><path class="cls-2" d="M486,296.42s16-27.26,48-26.87C534,269.55,517.9,296.53,486,296.42Z"/></g><g class="cls-1"><path class="cls-3" d="M653.33,616.57s16.54-28.79,0-55.26C653.33,561.31,635.48,584.91,653.33,616.57Z"/><path class="cls-3" d="M700.68,588.08s-15-27.66-47.35-26.77C653.33,561.31,669,590.06,700.68,588.08Z"/><path class="cls-3" d="M700.68,533.38S672,531,653.33,561.31C653.33,561.31,688.89,559.91,700.68,533.38Z"/><path class="cls-3" d="M653.33,505.56s17.35,27.54,0,55.75C653.33,561.31,635.23,536.35,653.33,505.56Z"/><path class="cls-3" d="M605.3,532.92s29.93-1.5,48,28.39A54.49,54.49,0,0,1,605.3,532.92Z"/><path class="cls-3" d="M605.3,588.18s16-27.26,48-26.87C653.33,561.31,637.23,588.29,605.3,588.18Z"/></g><g class="cls-1"><path class="cls-3" d="M652.66,227.91s16.54-28.79,0-55.26C652.66,172.65,634.81,196.25,652.66,227.91Z"/><path class="cls-3" d="M700,199.41s-15-27.65-47.35-26.76C652.66,172.65,668.35,201.4,700,199.41Z"/><path class="cls-3" d="M700,144.72s-28.65-2.41-47.35,27.93C652.66,172.65,688.22,171.25,700,144.72Z"/><path class="cls-3" d="M652.66,116.9s17.35,27.54,0,55.75C652.66,172.65,634.57,147.69,652.66,116.9Z"/><path class="cls-3" d="M604.64,144.26s29.93-1.5,48,28.39A54.47,54.47,0,0,1,604.64,144.26Z"/><path class="cls-3" d="M604.64,199.52s16-27.26,48-26.87C652.66,172.65,636.56,199.63,604.64,199.52Z"/></g><g class="cls-1"><path class="cls-3" d="M653,422.24s16.54-28.79,0-55.26C653,367,635.14,390.58,653,422.24Z"/><path class="cls-3" d="M700.35,393.75S685.37,366.09,653,367C653,367,668.69,395.73,700.35,393.75Z"/><path class="cls-3" d="M700.35,339.05S671.69,336.64,653,367C653,367,688.55,365.58,700.35,339.05Z"/><path class="cls-3" d="M653,311.23s17.36,27.54,0,55.75C653,367,634.9,342,653,311.23Z"/><path class="cls-3" d="M605,338.59s29.93-1.5,48,28.39A54.48,54.48,0,0,1,605,338.59Z"/><path class="cls-3" d="M605,393.85s16-27.26,48-26.87C653,367,636.89,394,605,393.85Z"/></g><g class="cls-1"><path class="cls-2" d="M533.66,518.61s16.54-28.79,0-55.26C533.66,463.35,515.81,486.94,533.66,518.61Z"/><path class="cls-2" d="M581,490.11s-15-27.66-47.36-26.76C533.66,463.35,549.36,492.1,581,490.11Z"/><path class="cls-2" d="M581,435.42s-28.66-2.42-47.36,27.93C533.66,463.35,569.22,461.94,581,435.42Z"/><path class="cls-2" d="M533.66,407.59s17.36,27.55,0,55.76C533.66,463.35,515.57,438.38,533.66,407.59Z"/><path class="cls-2" d="M485.64,435s29.93-1.5,48,28.4A54.48,54.48,0,0,1,485.64,435Z"/><path class="cls-2" d="M485.64,490.21s16-27.26,48-26.86C533.66,463.35,517.56,490.33,485.64,490.21Z"/></g><text class="cls-4" transform="translate(511.4 182.05)"><tspan class="cls-5">D</tspan><tspan x="23.45" y="0">C</tspan></text><text class="cls-4" transform="translate(630.06 279.22)"><tspan class="cls-5">D</tspan><tspan x="23.45" y="0">C</tspan></text><text class="cls-4" transform="translate(511.4 375.85)"><tspan class="cls-5">D</tspan><tspan x="23.45" y="0">C</tspan></text><text class="cls-4" transform="translate(511.4 569.65)"><tspan class="cls-5">D</tspan><tspan x="23.45" y="0">C</tspan></text><text class="cls-4" transform="translate(629.9 473.55)"><tspan class="cls-5">D</tspan><tspan x="23.45" y="0">C</tspan></text><g class="cls-1"><path class="cls-2" d="M534,906.2s16.54-28.79,0-55.26C534,850.94,516.15,874.54,534,906.2Z"/><path class="cls-2" d="M581.35,877.71s-15-27.66-47.35-26.77C534,850.94,549.69,879.69,581.35,877.71Z"/><path class="cls-2" d="M581.35,823S552.69,820.6,534,850.94C534,850.94,569.56,849.54,581.35,823Z"/><path class="cls-2" d="M534,795.19s17.35,27.54,0,55.75C534,850.94,515.9,826,534,795.19Z"/><path class="cls-2" d="M486,822.55s29.93-1.5,48,28.39A54.49,54.49,0,0,1,486,822.55Z"/><path class="cls-2" d="M486,877.81s16-27.26,48-26.87C534,850.94,517.9,877.92,486,877.81Z"/></g><g class="cls-1"><path class="cls-3" d="M652.66,809.3s16.54-28.79,0-55.26C652.66,754,634.81,777.64,652.66,809.3Z"/><path class="cls-3" d="M700,780.81S685,753.15,652.66,754C652.66,754,668.35,782.79,700,780.81Z"/><path class="cls-3" d="M700,726.11S671.36,723.7,652.66,754C652.66,754,688.22,752.64,700,726.11Z"/><path class="cls-3" d="M652.66,698.29s17.35,27.54,0,55.75C652.66,754,634.57,729.08,652.66,698.29Z"/><path class="cls-3" d="M604.64,725.65s29.93-1.5,48,28.39A54.47,54.47,0,0,1,604.64,725.65Z"/><path class="cls-3" d="M604.64,780.91s16-27.26,48-26.87C652.66,754,636.56,781,604.64,780.91Z"/></g><g class="cls-1"><path class="cls-2" d="M533.66,712.41s16.54-28.8,0-55.27C533.66,657.14,515.81,680.74,533.66,712.41Z"/><path class="cls-2" d="M581,683.91s-15-27.66-47.36-26.77C533.66,657.14,549.36,685.89,581,683.91Z"/><path class="cls-2" d="M581,629.21s-28.66-2.41-47.36,27.93C533.66,657.14,569.22,655.74,581,629.21Z"/><path class="cls-2" d="M533.66,601.39s17.36,27.54,0,55.75C533.66,657.14,515.57,632.18,533.66,601.39Z"/><path class="cls-2" d="M485.64,628.75s29.93-1.5,48,28.39A54.46,54.46,0,0,1,485.64,628.75Z"/><path class="cls-2" d="M485.64,684s16-27.26,48-26.87C533.66,657.14,517.56,684.12,485.64,684Z"/></g><text class="cls-4" transform="translate(511.4 763.45)"><tspan class="cls-5">D</tspan><tspan x="23.45" y="0">C</tspan></text><text class="cls-4" transform="translate(630.06 860.61)"><tspan class="cls-5">D</tspan><tspan x="23.45" y="0">C</tspan></text><g class="cls-1"><path class="cls-2" d="M293,324.81s16.54-28.79,0-55.26C293,269.55,275.15,293.15,293,324.81Z"/><path class="cls-2" d="M340.35,296.31s-15-27.65-47.35-26.76C293,269.55,308.69,298.3,340.35,296.31Z"/><path class="cls-2" d="M340.35,241.62S311.7,239.21,293,269.55C293,269.55,328.56,268.15,340.35,241.62Z"/><path class="cls-2" d="M293,213.8s17.35,27.54,0,55.75C293,269.55,274.91,244.59,293,213.8Z"/><path class="cls-2" d="M245,241.16s29.93-1.5,48,28.39A54.47,54.47,0,0,1,245,241.16Z"/><path class="cls-2" d="M245,296.42s16-27.26,48-26.87C293,269.55,276.9,296.53,245,296.42Z"/></g><g class="cls-1"><path class="cls-2" d="M292.66,518.61s16.55-28.79,0-55.26C292.66,463.35,274.82,486.94,292.66,518.61Z"/><path class="cls-2" d="M340,490.11s-15-27.66-47.36-26.76C292.66,463.35,308.36,492.1,340,490.11Z"/><path class="cls-2" d="M340,435.42s-28.66-2.42-47.36,27.93C292.66,463.35,328.23,461.94,340,435.42Z"/><path class="cls-2" d="M292.66,407.59s17.36,27.55,0,55.76C292.66,463.35,274.57,438.38,292.66,407.59Z"/><path class="cls-2" d="M244.64,435s29.93-1.5,48,28.4A54.48,54.48,0,0,1,244.64,435Z"/><path class="cls-2" d="M244.64,490.21s16-27.26,48-26.86C292.66,463.35,276.57,490.33,244.64,490.21Z"/></g><text class="cls-4" transform="translate(270.4 182.05)"><tspan class="cls-5">D</tspan><tspan x="23.45" y="0">C</tspan></text><text class="cls-4" transform="translate(270.4 375.85)"><tspan class="cls-5">D</tspan><tspan x="23.45" y="0">C</tspan></text><text class="cls-4" transform="translate(270.4 569.65)"><tspan class="cls-5">D</tspan><tspan x="23.45" y="0">C</tspan></text><g class="cls-1"><path class="cls-2" d="M293,906.2s16.54-28.79,0-55.26C293,850.94,275.15,874.54,293,906.2Z"/><path class="cls-2" d="M340.35,877.71s-15-27.66-47.35-26.77C293,850.94,308.69,879.69,340.35,877.71Z"/><path class="cls-2" d="M340.35,823S311.7,820.6,293,850.94C293,850.94,328.56,849.54,340.35,823Z"/><path class="cls-2" d="M293,795.19s17.35,27.54,0,55.75C293,850.94,274.91,826,293,795.19Z"/><path class="cls-2" d="M245,822.55s29.93-1.5,48,28.39A54.47,54.47,0,0,1,245,822.55Z"/><path class="cls-2" d="M245,877.81s16-27.26,48-26.87C293,850.94,276.9,877.92,245,877.81Z"/></g><g class="cls-1"><path class="cls-2" d="M292.66,712.41s16.55-28.8,0-55.27C292.66,657.14,274.82,680.74,292.66,712.41Z"/><path class="cls-2" d="M340,683.91s-15-27.66-47.36-26.77C292.66,657.14,308.36,685.89,340,683.91Z"/><path class="cls-2" d="M340,629.21s-28.66-2.41-47.36,27.93C292.66,657.14,328.23,655.74,340,629.21Z"/><path class="cls-2" d="M292.66,601.39s17.36,27.54,0,55.75C292.66,657.14,274.57,632.18,292.66,601.39Z"/><path class="cls-2" d="M244.64,628.75s29.93-1.5,48,28.39A54.46,54.46,0,0,1,244.64,628.75Z"/><path class="cls-2" d="M244.64,684s16-27.26,48-26.87C292.66,657.14,276.57,684.12,244.64,684Z"/></g><text class="cls-4" transform="translate(270.4 763.45)"><tspan class="cls-5">D</tspan><tspan x="23.45" y="0">C</tspan></text><g class="cls-1"><path class="cls-2" d="M49,324.81S65.54,296,49,269.55C49,269.55,31.15,293.15,49,324.81Z"/><path class="cls-2" d="M96.35,296.31s-15-27.65-47.35-26.76C49,269.55,64.69,298.3,96.35,296.31Z"/><path class="cls-2" d="M96.35,241.62S67.7,239.21,49,269.55C49,269.55,84.56,268.15,96.35,241.62Z"/><path class="cls-2" d="M49,213.8s17.35,27.54,0,55.75C49,269.55,30.91,244.59,49,213.8Z"/><path class="cls-2" d="M1,241.16s29.93-1.5,48,28.39A54.47,54.47,0,0,1,1,241.16Z"/><path class="cls-2" d="M1,296.42s16-27.26,48-26.87C49,269.55,32.9,296.53,1,296.42Z"/></g><g class="cls-1"><path class="cls-2" d="M48.67,518.61s16.54-28.79,0-55.26C48.67,463.35,30.82,486.94,48.67,518.61Z"/><path class="cls-2" d="M96,490.11s-15-27.66-47.35-26.76C48.67,463.35,64.36,492.1,96,490.11Z"/><path class="cls-2" d="M96,435.42S67.37,433,48.67,463.35C48.67,463.35,84.23,461.94,96,435.42Z"/><path class="cls-2" d="M48.67,407.59s17.35,27.55,0,55.76C48.67,463.35,30.57,438.38,48.67,407.59Z"/><path class="cls-2" d="M.64,435s29.93-1.5,48,28.4A54.49,54.49,0,0,1,.64,435Z"/><path class="cls-2" d="M.64,490.21s16-27.26,48-26.86C48.67,463.35,32.57,490.33.64,490.21Z"/></g><text class="cls-4" transform="translate(26.4 182.05)"><tspan class="cls-5">D</tspan><tspan x="23.45" y="0">C</tspan></text><text class="cls-4" transform="translate(26.4 375.85)"><tspan class="cls-5">D</tspan><tspan x="23.45" y="0">C</tspan></text><text class="cls-4" transform="translate(26.4 569.65)"><tspan class="cls-5">D</tspan><tspan x="23.45" y="0">C</tspan></text><g class="cls-1"><path class="cls-2" d="M49,906.2s16.54-28.79,0-55.26C49,850.94,31.15,874.54,49,906.2Z"/><path class="cls-2" d="M96.35,877.71s-15-27.66-47.35-26.77C49,850.94,64.69,879.69,96.35,877.71Z"/><path class="cls-2" d="M96.35,823S67.7,820.6,49,850.94C49,850.94,84.56,849.54,96.35,823Z"/><path class="cls-2" d="M49,795.19s17.35,27.54,0,55.75C49,850.94,30.91,826,49,795.19Z"/><path class="cls-2" d="M1,822.55s29.93-1.5,48,28.39A54.47,54.47,0,0,1,1,822.55Z"/><path class="cls-2" d="M1,877.81s16-27.26,48-26.87C49,850.94,32.9,877.92,1,877.81Z"/></g><g class="cls-1"><path class="cls-2" d="M48.67,712.41s16.54-28.8,0-55.27C48.67,657.14,30.82,680.74,48.67,712.41Z"/><path class="cls-2" d="M96,683.91s-15-27.66-47.35-26.77C48.67,657.14,64.36,685.89,96,683.91Z"/><path class="cls-2" d="M96,629.21s-28.65-2.41-47.35,27.93C48.67,657.14,84.23,655.74,96,629.21Z"/><path class="cls-2" d="M48.67,601.39s17.35,27.54,0,55.75C48.67,657.14,30.57,632.18,48.67,601.39Z"/><path class="cls-2" d="M.64,628.75s29.93-1.5,48,28.39A54.47,54.47,0,0,1,.64,628.75Z"/><path class="cls-2" d="M.64,684s16-27.26,48-26.87C48.67,657.14,32.57,684.12.64,684Z"/></g><text class="cls-4" transform="translate(26.4 763.45)"><tspan class="cls-5">D</tspan><tspan x="23.45" y="0">C</tspan></text><g class="cls-1"><path class="cls-2" d="M773.32,324.81s16.55-28.79,0-55.26C773.32,269.55,755.48,293.15,773.32,324.81Z"/><path class="cls-2" d="M820.68,296.31s-15-27.65-47.36-26.76C773.32,269.55,789,298.3,820.68,296.31Z"/><path class="cls-2" d="M820.68,241.62s-28.66-2.41-47.36,27.93C773.32,269.55,808.88,268.15,820.68,241.62Z"/><path class="cls-2" d="M773.32,213.8s17.36,27.54,0,55.75C773.32,269.55,755.23,244.59,773.32,213.8Z"/><path class="cls-2" d="M725.3,241.16s29.93-1.5,48,28.39A54.48,54.48,0,0,1,725.3,241.16Z"/><path class="cls-2" d="M725.3,296.42s16-27.26,48-26.87C773.32,269.55,757.23,296.53,725.3,296.42Z"/></g><g class="cls-1"><path class="cls-2" d="M773,518.61s16.54-28.79,0-55.26C773,463.35,755.14,486.94,773,518.61Z"/><path class="cls-2" d="M820.34,490.11s-15-27.66-47.35-26.76C773,463.35,788.68,492.1,820.34,490.11Z"/><path class="cls-2" d="M820.34,435.42S791.69,433,773,463.35C773,463.35,808.55,461.94,820.34,435.42Z"/><path class="cls-2" d="M773,407.59s17.35,27.55,0,55.76C773,463.35,754.9,438.38,773,407.59Z"/><path class="cls-2" d="M725,435s29.93-1.5,48,28.4A54.47,54.47,0,0,1,725,435Z"/><path class="cls-2" d="M725,490.21s16-27.26,48-26.86C773,463.35,756.89,490.33,725,490.21Z"/></g><text class="cls-4" transform="translate(750.73 182.05)"><tspan class="cls-5">D</tspan><tspan x="23.45" y="0">C</tspan></text><text class="cls-4" transform="translate(750.73 375.85)"><tspan class="cls-5">D</tspan><tspan x="23.45" y="0">C</tspan></text><text class="cls-4" transform="translate(750.73 569.65)"><tspan class="cls-5">D</tspan><tspan x="23.45" y="0">C</tspan></text><g class="cls-1"><path class="cls-2" d="M773.32,906.2s16.55-28.79,0-55.26C773.32,850.94,755.48,874.54,773.32,906.2Z"/><path class="cls-2" d="M820.68,877.71s-15-27.66-47.36-26.77C773.32,850.94,789,879.69,820.68,877.71Z"/><path class="cls-2" d="M820.68,823S792,820.6,773.32,850.94C773.32,850.94,808.88,849.54,820.68,823Z"/><path class="cls-2" d="M773.32,795.19s17.36,27.54,0,55.75C773.32,850.94,755.23,826,773.32,795.19Z"/><path class="cls-2" d="M725.3,822.55s29.93-1.5,48,28.39A54.48,54.48,0,0,1,725.3,822.55Z"/><path class="cls-2" d="M725.3,877.81s16-27.26,48-26.87C773.32,850.94,757.23,877.92,725.3,877.81Z"/></g><g class="cls-1"><path class="cls-2" d="M773,712.41s16.54-28.8,0-55.27C773,657.14,755.14,680.74,773,712.41Z"/><path class="cls-2" d="M820.34,683.91s-15-27.66-47.35-26.77C773,657.14,788.68,685.89,820.34,683.91Z"/><path class="cls-2" d="M820.34,629.21S791.69,626.8,773,657.14C773,657.14,808.55,655.74,820.34,629.21Z"/><path class="cls-2" d="M773,601.39s17.35,27.54,0,55.75C773,657.14,754.9,632.18,773,601.39Z"/><path class="cls-2" d="M725,628.75s29.93-1.5,48,28.39A54.45,54.45,0,0,1,725,628.75Z"/><path class="cls-2" d="M725,684s16-27.26,48-26.87C773,657.14,756.89,684.12,725,684Z"/></g><text class="cls-4" transform="translate(750.73 763.45)"><tspan class="cls-5">D</tspan><tspan x="23.45" y="0">C</tspan></text><g class="cls-1"><path class="cls-2" d="M1016,324.81s16.54-28.79,0-55.26C1016,269.55,998.14,293.15,1016,324.81Z"/><path class="cls-2" d="M1063.34,296.31s-15-27.65-47.35-26.76C1016,269.55,1031.68,298.3,1063.34,296.31Z"/><path class="cls-2" d="M1063.34,241.62s-28.65-2.41-47.35,27.93C1016,269.55,1051.55,268.15,1063.34,241.62Z"/><path class="cls-2" d="M1016,213.8s17.35,27.54,0,55.75C1016,269.55,997.9,244.59,1016,213.8Z"/><path class="cls-2" d="M968,241.16s29.93-1.5,48,28.39A54.47,54.47,0,0,1,968,241.16Z"/><path class="cls-2" d="M968,296.42s16-27.26,48-26.87C1016,269.55,999.89,296.53,968,296.42Z"/></g><g class="cls-1"><path class="cls-2" d="M1015.65,518.61s16.55-28.79,0-55.26C1015.65,463.35,997.81,486.94,1015.65,518.61Z"/><path class="cls-2" d="M1063,490.11s-15-27.66-47.36-26.76C1015.65,463.35,1031.35,492.1,1063,490.11Z"/><path class="cls-2" d="M1063,435.42s-28.66-2.42-47.36,27.93C1015.65,463.35,1051.22,461.94,1063,435.42Z"/><path class="cls-2" d="M1015.65,407.59s17.36,27.55,0,55.76C1015.65,463.35,997.56,438.38,1015.65,407.59Z"/><path class="cls-2" d="M967.63,435s29.93-1.5,48,28.4A54.48,54.48,0,0,1,967.63,435Z"/><path class="cls-2" d="M967.63,490.21s16-27.26,48-26.86C1015.65,463.35,999.56,490.33,967.63,490.21Z"/></g><text class="cls-4" transform="translate(993.39 182.05)"><tspan class="cls-5">D</tspan><tspan x="23.45" y="0">C</tspan></text><text class="cls-4" transform="translate(993.39 375.85)"><tspan class="cls-5">D</tspan><tspan x="23.45" y="0">C</tspan></text><text class="cls-4" transform="translate(993.39 569.65)"><tspan class="cls-5">D</tspan><tspan x="23.45" y="0">C</tspan></text><g class="cls-1"><path class="cls-2" d="M1016,906.2s16.54-28.79,0-55.26C1016,850.94,998.14,874.54,1016,906.2Z"/><path class="cls-2" d="M1063.34,877.71s-15-27.66-47.35-26.77C1016,850.94,1031.68,879.69,1063.34,877.71Z"/><path class="cls-2" d="M1063.34,823s-28.65-2.41-47.35,27.93C1016,850.94,1051.55,849.54,1063.34,823Z"/><path class="cls-2" d="M1016,795.19s17.35,27.54,0,55.75C1016,850.94,997.9,826,1016,795.19Z"/><path class="cls-2" d="M968,822.55s29.93-1.5,48,28.39A54.47,54.47,0,0,1,968,822.55Z"/><path class="cls-2" d="M968,877.81s16-27.26,48-26.87C1016,850.94,999.89,877.92,968,877.81Z"/></g><g class="cls-1"><path class="cls-2" d="M1015.65,712.41s16.55-28.8,0-55.27C1015.65,657.14,997.81,680.74,1015.65,712.41Z"/><path class="cls-2" d="M1063,683.91s-15-27.66-47.36-26.77C1015.65,657.14,1031.35,685.89,1063,683.91Z"/><path class="cls-2" d="M1063,629.21s-28.66-2.41-47.36,27.93C1015.65,657.14,1051.22,655.74,1063,629.21Z"/><path class="cls-2" d="M1015.65,601.39s17.36,27.54,0,55.75C1015.65,657.14,997.56,632.18,1015.65,601.39Z"/><path class="cls-2" d="M967.63,628.75s29.93-1.5,48,28.39A54.46,54.46,0,0,1,967.63,628.75Z"/><path class="cls-2" d="M967.63,684s16-27.26,48-26.87C1015.65,657.14,999.56,684.12,967.63,684Z"/></g><text class="cls-4" transform="translate(993.39 763.45)"><tspan class="cls-5">D</tspan><tspan x="23.45" y="0">C</tspan></text><g class="cls-1"><path class="cls-2" d="M1262.66,324.81s16.54-28.79,0-55.26C1262.66,269.55,1244.81,293.15,1262.66,324.81Z"/><path class="cls-2" d="M1310,296.31s-15-27.65-47.35-26.76C1262.66,269.55,1278.35,298.3,1310,296.31Z"/><path class="cls-2" d="M1310,241.62s-28.65-2.41-47.35,27.93C1262.66,269.55,1298.22,268.15,1310,241.62Z"/><path class="cls-2" d="M1262.66,213.8s17.35,27.54,0,55.75C1262.66,269.55,1244.56,244.59,1262.66,213.8Z"/><path class="cls-2" d="M1214.63,241.16s29.93-1.5,48,28.39A54.49,54.49,0,0,1,1214.63,241.16Z"/><path class="cls-2" d="M1214.63,296.42s16-27.26,48-26.87C1262.66,269.55,1246.56,296.53,1214.63,296.42Z"/></g><g class="cls-1"><path class="cls-2" d="M1262.32,518.61s16.54-28.79,0-55.26C1262.32,463.35,1244.47,486.94,1262.32,518.61Z"/><path class="cls-2" d="M1309.68,490.11s-15-27.66-47.36-26.76C1262.32,463.35,1278,492.1,1309.68,490.11Z"/><path class="cls-2" d="M1309.68,435.42S1281,433,1262.32,463.35C1262.32,463.35,1297.88,461.94,1309.68,435.42Z"/><path class="cls-2" d="M1262.32,407.59s17.36,27.55,0,55.76C1262.32,463.35,1244.23,438.38,1262.32,407.59Z"/><path class="cls-2" d="M1214.3,435s29.93-1.5,48,28.4A54.48,54.48,0,0,1,1214.3,435Z"/><path class="cls-2" d="M1214.3,490.21s16-27.26,48-26.86C1262.32,463.35,1246.23,490.33,1214.3,490.21Z"/></g><text class="cls-4" transform="translate(1240.06 182.05)"><tspan class="cls-5">D</tspan><tspan x="23.45" y="0">C</tspan></text><text class="cls-4" transform="translate(1240.06 375.85)"><tspan class="cls-5">D</tspan><tspan x="23.45" y="0">C</tspan></text><text class="cls-4" transform="translate(1240.06 569.65)"><tspan class="cls-5">D</tspan><tspan x="23.45" y="0">C</tspan></text><g class="cls-1"><path class="cls-2" d="M1262.66,906.2s16.54-28.79,0-55.26C1262.66,850.94,1244.81,874.54,1262.66,906.2Z"/><path class="cls-2" d="M1310,877.71s-15-27.66-47.35-26.77C1262.66,850.94,1278.35,879.69,1310,877.71Z"/><path class="cls-2" d="M1310,823s-28.65-2.41-47.35,27.93C1262.66,850.94,1298.22,849.54,1310,823Z"/><path class="cls-2" d="M1262.66,795.19s17.35,27.54,0,55.75C1262.66,850.94,1244.56,826,1262.66,795.19Z"/><path class="cls-2" d="M1214.63,822.55s29.93-1.5,48,28.39A54.49,54.49,0,0,1,1214.63,822.55Z"/><path class="cls-2" d="M1214.63,877.81s16-27.26,48-26.87C1262.66,850.94,1246.56,877.92,1214.63,877.81Z"/></g><g class="cls-1"><path class="cls-2" d="M1262.32,712.41s16.54-28.8,0-55.27C1262.32,657.14,1244.47,680.74,1262.32,712.41Z"/><path class="cls-2" d="M1309.68,683.91s-15-27.66-47.36-26.77C1262.32,657.14,1278,685.89,1309.68,683.91Z"/><path class="cls-2" d="M1309.68,629.21s-28.66-2.41-47.36,27.93C1262.32,657.14,1297.88,655.74,1309.68,629.21Z"/><path class="cls-2" d="M1262.32,601.39s17.36,27.54,0,55.75C1262.32,657.14,1244.23,632.18,1262.32,601.39Z"/><path class="cls-2" d="M1214.3,628.75s29.93-1.5,48,28.39A54.46,54.46,0,0,1,1214.3,628.75Z"/><path class="cls-2" d="M1214.3,684s16-27.26,48-26.87C1262.32,657.14,1246.23,684.12,1214.3,684Z"/></g><text class="cls-4" transform="translate(1240.06 763.45)"><tspan class="cls-5">D</tspan><tspan x="23.45" y="0">C</tspan></text><g class="cls-1"><path class="cls-2" d="M1513.33,324.81s16.54-28.79,0-55.26C1513.33,269.55,1495.48,293.15,1513.33,324.81Z"/><path class="cls-2" d="M1560.68,296.31s-15-27.65-47.35-26.76C1513.33,269.55,1529,298.3,1560.68,296.31Z"/><path class="cls-2" d="M1560.68,241.62s-28.65-2.41-47.35,27.93C1513.33,269.55,1548.89,268.15,1560.68,241.62Z"/><path class="cls-2" d="M1513.33,213.8s17.35,27.54,0,55.75C1513.33,269.55,1495.23,244.59,1513.33,213.8Z"/><path class="cls-2" d="M1465.31,241.16s29.92-1.5,48,28.39A54.47,54.47,0,0,1,1465.31,241.16Z"/><path class="cls-2" d="M1465.31,296.42s16-27.26,48-26.87C1513.33,269.55,1497.23,296.53,1465.31,296.42Z"/></g><g class="cls-1"><path class="cls-2" d="M1513,518.61s16.55-28.79,0-55.26C1513,463.35,1495.15,486.94,1513,518.61Z"/><path class="cls-2" d="M1560.35,490.11s-15-27.66-47.36-26.76C1513,463.35,1528.69,492.1,1560.35,490.11Z"/><path class="cls-2" d="M1560.35,435.42S1531.69,433,1513,463.35C1513,463.35,1548.56,461.94,1560.35,435.42Z"/><path class="cls-2" d="M1513,407.59s17.36,27.55,0,55.76C1513,463.35,1494.9,438.38,1513,407.59Z"/><path class="cls-2" d="M1465,435s29.93-1.5,48,28.4A54.48,54.48,0,0,1,1465,435Z"/><path class="cls-2" d="M1465,490.21s16-27.26,48-26.86C1513,463.35,1496.9,490.33,1465,490.21Z"/></g><text class="cls-4" transform="translate(1490.73 182.05)"><tspan class="cls-5">D</tspan><tspan x="23.45" y="0">C</tspan></text><text class="cls-4" transform="translate(1490.73 375.85)"><tspan class="cls-5">D</tspan><tspan x="23.45" y="0">C</tspan></text><text class="cls-4" transform="translate(1490.73 569.65)"><tspan class="cls-5">D</tspan><tspan x="23.45" y="0">C</tspan></text><g class="cls-1"><path class="cls-2" d="M1513.33,906.2s16.54-28.79,0-55.26C1513.33,850.94,1495.48,874.54,1513.33,906.2Z"/><path class="cls-2" d="M1560.68,877.71s-15-27.66-47.35-26.77C1513.33,850.94,1529,879.69,1560.68,877.71Z"/><path class="cls-2" d="M1560.68,823s-28.65-2.41-47.35,27.93C1513.33,850.94,1548.89,849.54,1560.68,823Z"/><path class="cls-2" d="M1513.33,795.19s17.35,27.54,0,55.75C1513.33,850.94,1495.23,826,1513.33,795.19Z"/><path class="cls-2" d="M1465.31,822.55s29.92-1.5,48,28.39A54.47,54.47,0,0,1,1465.31,822.55Z"/><path class="cls-2" d="M1465.31,877.81s16-27.26,48-26.87C1513.33,850.94,1497.23,877.92,1465.31,877.81Z"/></g><g class="cls-1"><path class="cls-2" d="M1513,712.41s16.55-28.8,0-55.27C1513,657.14,1495.15,680.74,1513,712.41Z"/><path class="cls-2" d="M1560.35,683.91s-15-27.66-47.36-26.77C1513,657.14,1528.69,685.89,1560.35,683.91Z"/><path class="cls-2" d="M1560.35,629.21s-28.66-2.41-47.36,27.93C1513,657.14,1548.56,655.74,1560.35,629.21Z"/><path class="cls-2" d="M1513,601.39s17.36,27.54,0,55.75C1513,657.14,1494.9,632.18,1513,601.39Z"/><path class="cls-2" d="M1465,628.75s29.93-1.5,48,28.39A54.46,54.46,0,0,1,1465,628.75Z"/><path class="cls-2" d="M1465,684s16-27.26,48-26.87C1513,657.14,1496.9,684.12,1465,684Z"/></g><text class="cls-4" transform="translate(1490.73 763.45)"><tspan class="cls-5">D</tspan><tspan x="23.45" y="0">C</tspan></text><g class="cls-1"><path class="cls-2" d="M1768,324.81s16.54-28.79,0-55.26C1768,269.55,1750.15,293.15,1768,324.81Z"/><path class="cls-2" d="M1815.36,296.31s-15-27.65-47.36-26.76C1768,269.55,1783.7,298.3,1815.36,296.31Z"/><path class="cls-2" d="M1815.36,241.62s-28.66-2.41-47.36,27.93C1768,269.55,1803.56,268.15,1815.36,241.62Z"/><path class="cls-2" d="M1768,213.8s17.36,27.54,0,55.75C1768,269.55,1749.91,244.59,1768,213.8Z"/><path class="cls-2" d="M1720,241.16s29.93-1.5,48,28.39A54.48,54.48,0,0,1,1720,241.16Z"/><path class="cls-2" d="M1720,296.42s16-27.26,48-26.87C1768,269.55,1751.9,296.53,1720,296.42Z"/></g><g class="cls-1"><path class="cls-2" d="M1767.67,518.61s16.54-28.79,0-55.26C1767.67,463.35,1749.82,486.94,1767.67,518.61Z"/><path class="cls-2" d="M1815,490.11s-15-27.66-47.35-26.76C1767.67,463.35,1783.36,492.1,1815,490.11Z"/><path class="cls-2" d="M1815,435.42s-28.65-2.42-47.35,27.93C1767.67,463.35,1803.23,461.94,1815,435.42Z"/><path class="cls-2" d="M1767.67,407.59s17.35,27.55,0,55.76C1767.67,463.35,1749.58,438.38,1767.67,407.59Z"/><path class="cls-2" d="M1719.65,435s29.93-1.5,48,28.4A54.47,54.47,0,0,1,1719.65,435Z"/><path class="cls-2" d="M1719.65,490.21s16-27.26,48-26.86C1767.67,463.35,1751.57,490.33,1719.65,490.21Z"/></g><text class="cls-4" transform="translate(1745.4 182.05)"><tspan class="cls-5">D</tspan><tspan x="23.45" y="0">C</tspan></text><text class="cls-4" transform="translate(1745.4 375.85)"><tspan class="cls-5">D</tspan><tspan x="23.45" y="0">C</tspan></text><text class="cls-4" transform="translate(1745.4 569.65)"><tspan class="cls-5">D</tspan><tspan x="23.45" y="0">C</tspan></text><g class="cls-1"><path class="cls-2" d="M1768,906.2s16.54-28.79,0-55.26C1768,850.94,1750.15,874.54,1768,906.2Z"/><path class="cls-2" d="M1815.36,877.71s-15-27.66-47.36-26.77C1768,850.94,1783.7,879.69,1815.36,877.71Z"/><path class="cls-2" d="M1815.36,823s-28.66-2.41-47.36,27.93C1768,850.94,1803.56,849.54,1815.36,823Z"/><path class="cls-2" d="M1768,795.19s17.36,27.54,0,55.75C1768,850.94,1749.91,826,1768,795.19Z"/><path class="cls-2" d="M1720,822.55s29.93-1.5,48,28.39A54.48,54.48,0,0,1,1720,822.55Z"/><path class="cls-2" d="M1720,877.81s16-27.26,48-26.87C1768,850.94,1751.9,877.92,1720,877.81Z"/></g><g class="cls-1"><path class="cls-2" d="M1767.67,712.41s16.54-28.8,0-55.27C1767.67,657.14,1749.82,680.74,1767.67,712.41Z"/><path class="cls-2" d="M1815,683.91s-15-27.66-47.35-26.77C1767.67,657.14,1783.36,685.89,1815,683.91Z"/><path class="cls-2" d="M1815,629.21s-28.65-2.41-47.35,27.93C1767.67,657.14,1803.23,655.74,1815,629.21Z"/><path class="cls-2" d="M1767.67,601.39s17.35,27.54,0,55.75C1767.67,657.14,1749.58,632.18,1767.67,601.39Z"/><path class="cls-2" d="M1719.65,628.75s29.93-1.5,48,28.39A54.45,54.45,0,0,1,1719.65,628.75Z"/><path class="cls-2" d="M1719.65,684s16-27.26,48-26.87C1767.67,657.14,1751.57,684.12,1719.65,684Z"/></g><text class="cls-4" transform="translate(1745.4 763.45)"><tspan class="cls-5">D</tspan><tspan x="23.45" y="0">C</tspan></text><g class="cls-1"><path class="cls-2" d="M2010.67,324.81s16.55-28.79,0-55.26C2010.67,269.55,1992.83,293.15,2010.67,324.81Z"/><path class="cls-2" d="M2058,296.31s-15-27.65-47.36-26.76C2010.67,269.55,2026.37,298.3,2058,296.31Z"/><path class="cls-2" d="M2058,241.62s-28.66-2.41-47.36,27.93C2010.67,269.55,2046.23,268.15,2058,241.62Z"/><path class="cls-2" d="M2010.67,213.8s17.36,27.54,0,55.75C2010.67,269.55,1992.58,244.59,2010.67,213.8Z"/><path class="cls-2" d="M1962.65,241.16s29.93-1.5,48,28.39A54.48,54.48,0,0,1,1962.65,241.16Z"/><path class="cls-2" d="M1962.65,296.42s16-27.26,48-26.87C2010.67,269.55,1994.58,296.53,1962.65,296.42Z"/></g><g class="cls-1"><path class="cls-2" d="M2010.34,518.61s16.54-28.79,0-55.26C2010.34,463.35,1992.49,486.94,2010.34,518.61Z"/><path class="cls-2" d="M2057.69,490.11s-15-27.66-47.35-26.76C2010.34,463.35,2026,492.1,2057.69,490.11Z"/><path class="cls-2" d="M2057.69,435.42S2029,433,2010.34,463.35C2010.34,463.35,2045.9,461.94,2057.69,435.42Z"/><path class="cls-2" d="M2010.34,407.59s17.35,27.55,0,55.76C2010.34,463.35,1992.25,438.38,2010.34,407.59Z"/><path class="cls-2" d="M1962.32,435s29.93-1.5,48,28.4A54.47,54.47,0,0,1,1962.32,435Z"/><path class="cls-2" d="M1962.32,490.21s16-27.26,48-26.86C2010.34,463.35,1994.24,490.33,1962.32,490.21Z"/></g><text class="cls-4" transform="translate(1988.07 182.05)"><tspan class="cls-5">D</tspan><tspan x="23.45" y="0">C</tspan></text><text class="cls-4" transform="translate(1988.07 375.85)"><tspan class="cls-5">D</tspan><tspan x="23.45" y="0">C</tspan></text><text class="cls-4" transform="translate(1988.07 569.65)"><tspan class="cls-5">D</tspan><tspan x="23.45" y="0">C</tspan></text><g class="cls-1"><path class="cls-2" d="M2010.67,906.2s16.55-28.79,0-55.26C2010.67,850.94,1992.83,874.54,2010.67,906.2Z"/><path class="cls-2" d="M2058,877.71s-15-27.66-47.36-26.77C2010.67,850.94,2026.37,879.69,2058,877.71Z"/><path class="cls-2" d="M2058,823s-28.66-2.41-47.36,27.93C2010.67,850.94,2046.23,849.54,2058,823Z"/><path class="cls-2" d="M2010.67,795.19s17.36,27.54,0,55.75C2010.67,850.94,1992.58,826,2010.67,795.19Z"/><path class="cls-2" d="M1962.65,822.55s29.93-1.5,48,28.39A54.48,54.48,0,0,1,1962.65,822.55Z"/><path class="cls-2" d="M1962.65,877.81s16-27.26,48-26.87C2010.67,850.94,1994.58,877.92,1962.65,877.81Z"/></g><g class="cls-1"><path class="cls-2" d="M2010.34,712.41s16.54-28.8,0-55.27C2010.34,657.14,1992.49,680.74,2010.34,712.41Z"/><path class="cls-2" d="M2057.69,683.91s-15-27.66-47.35-26.77C2010.34,657.14,2026,685.89,2057.69,683.91Z"/><path class="cls-2" d="M2057.69,629.21s-28.65-2.41-47.35,27.93C2010.34,657.14,2045.9,655.74,2057.69,629.21Z"/><path class="cls-2" d="M2010.34,601.39s17.35,27.54,0,55.75C2010.34,657.14,1992.25,632.18,2010.34,601.39Z"/><path class="cls-2" d="M1962.32,628.75s29.93-1.5,48,28.39A54.45,54.45,0,0,1,1962.32,628.75Z"/><path class="cls-2" d="M1962.32,684s16-27.26,48-26.87C2010.34,657.14,1994.24,684.12,1962.32,684Z"/></g><text class="cls-4" transform="translate(1988.07 763.45)"><tspan class="cls-5">D</tspan><tspan x="23.45" y="0">C</tspan></text><text class="cls-4" transform="translate(629.73 666.77)"><tspan class="cls-5">D</tspan><tspan x="23.45" y="0">C</tspan></text><g class="cls-1"><path class="cls-3" d="M414,616.57s16.54-28.79,0-55.26C414,561.31,396.15,584.91,414,616.57Z"/><path class="cls-3" d="M461.35,588.08s-15-27.66-47.35-26.77C414,561.31,429.69,590.06,461.35,588.08Z"/><path class="cls-3" d="M461.35,533.38S432.7,531,414,561.31C414,561.31,449.56,559.91,461.35,533.38Z"/><path class="cls-3" d="M414,505.56s17.35,27.54,0,55.75C414,561.31,395.9,536.35,414,505.56Z"/><path class="cls-3" d="M366,532.92s29.92-1.5,48,28.39A54.47,54.47,0,0,1,366,532.92Z"/><path class="cls-3" d="M366,588.18s16-27.26,48-26.87C414,561.31,397.9,588.29,366,588.18Z"/></g><g class="cls-1"><path class="cls-3" d="M413.33,227.91s16.54-28.79,0-55.26C413.33,172.65,395.48,196.25,413.33,227.91Z"/><path class="cls-3" d="M460.68,199.41s-15-27.65-47.35-26.76C413.33,172.65,429,201.4,460.68,199.41Z"/><path class="cls-3" d="M460.68,144.72s-28.65-2.41-47.35,27.93C413.33,172.65,448.89,171.25,460.68,144.72Z"/><path class="cls-3" d="M413.33,116.9s17.35,27.54,0,55.75C413.33,172.65,395.24,147.69,413.33,116.9Z"/><path class="cls-3" d="M365.31,144.26s29.93-1.5,48,28.39A54.47,54.47,0,0,1,365.31,144.26Z"/><path class="cls-3" d="M365.31,199.52s16-27.26,48-26.87C413.33,172.65,397.23,199.63,365.31,199.52Z"/></g><g class="cls-1"><path class="cls-3" d="M413.66,422.24s16.55-28.79,0-55.26C413.66,367,395.82,390.58,413.66,422.24Z"/><path class="cls-3" d="M461,393.75S446,366.09,413.66,367C413.66,367,429.36,395.73,461,393.75Z"/><path class="cls-3" d="M461,339.05s-28.66-2.41-47.36,27.93C413.66,367,449.22,365.58,461,339.05Z"/><path class="cls-3" d="M413.66,311.23s17.36,27.54,0,55.75C413.66,367,395.57,342,413.66,311.23Z"/><path class="cls-3" d="M365.64,338.59s29.93-1.5,48,28.39A54.48,54.48,0,0,1,365.64,338.59Z"/><path class="cls-3" d="M365.64,393.85s16-27.26,48-26.87C413.66,367,397.57,394,365.64,393.85Z"/></g><text class="cls-4" transform="translate(390.73 279.22)"><tspan class="cls-5">D</tspan><tspan x="23.45" y="0">C</tspan></text><text class="cls-4" transform="translate(390.57 473.55)"><tspan class="cls-5">D</tspan><tspan x="23.45" y="0">C</tspan></text><g class="cls-1"><path class="cls-3" d="M413.33,809.3s16.54-28.79,0-55.26C413.33,754,395.48,777.64,413.33,809.3Z"/><path class="cls-3" d="M460.68,780.81s-15-27.66-47.35-26.77C413.33,754,429,782.79,460.68,780.81Z"/><path class="cls-3" d="M460.68,726.11S432,723.7,413.33,754C413.33,754,448.89,752.64,460.68,726.11Z"/><path class="cls-3" d="M413.33,698.29s17.35,27.54,0,55.75C413.33,754,395.24,729.08,413.33,698.29Z"/><path class="cls-3" d="M365.31,725.65s29.93-1.5,48,28.39A54.47,54.47,0,0,1,365.31,725.65Z"/><path class="cls-3" d="M365.31,780.91s16-27.26,48-26.87C413.33,754,397.23,781,365.31,780.91Z"/></g><text class="cls-4" transform="translate(390.73 860.61)"><tspan class="cls-5">D</tspan><tspan x="23.45" y="0">C</tspan></text><text class="cls-4" transform="translate(390.4 666.77)"><tspan class="cls-5">D</tspan><tspan x="23.45" y="0">C</tspan></text><g class="cls-1"><path class="cls-3" d="M171.67,616.57s16.54-28.79,0-55.26C171.67,561.31,153.82,584.91,171.67,616.57Z"/><path class="cls-3" d="M219,588.08s-15-27.66-47.35-26.77C171.67,561.31,187.36,590.06,219,588.08Z"/><path class="cls-3" d="M219,533.38s-28.65-2.41-47.35,27.93C171.67,561.31,207.23,559.91,219,533.38Z"/><path class="cls-3" d="M171.67,505.56s17.35,27.54,0,55.75C171.67,561.31,153.57,536.35,171.67,505.56Z"/><path class="cls-3" d="M123.64,532.92s29.93-1.5,48,28.39A54.49,54.49,0,0,1,123.64,532.92Z"/><path class="cls-3" d="M123.64,588.18s16-27.26,48-26.87C171.67,561.31,155.57,588.29,123.64,588.18Z"/></g><g class="cls-1"><path class="cls-3" d="M171,227.91s16.54-28.79,0-55.26C171,172.65,153.15,196.25,171,227.91Z"/><path class="cls-3" d="M218.35,199.41s-15-27.65-47.35-26.76C171,172.65,186.69,201.4,218.35,199.41Z"/><path class="cls-3" d="M218.35,144.72S189.7,142.31,171,172.65C171,172.65,206.56,171.25,218.35,144.72Z"/><path class="cls-3" d="M171,116.9s17.35,27.54,0,55.75C171,172.65,152.91,147.69,171,116.9Z"/><path class="cls-3" d="M123,144.26s29.93-1.5,48,28.39A54.47,54.47,0,0,1,123,144.26Z"/><path class="cls-3" d="M123,199.52s16-27.26,48-26.87C171,172.65,154.9,199.63,123,199.52Z"/></g><g class="cls-1"><path class="cls-3" d="M171.33,422.24s16.54-28.79,0-55.26C171.33,367,153.48,390.58,171.33,422.24Z"/><path class="cls-3" d="M218.69,393.75s-15-27.66-47.36-26.77C171.33,367,187,395.73,218.69,393.75Z"/><path class="cls-3" d="M218.69,339.05S190,336.64,171.33,367C171.33,367,206.89,365.58,218.69,339.05Z"/><path class="cls-3" d="M171.33,311.23s17.36,27.54,0,55.75C171.33,367,153.24,342,171.33,311.23Z"/><path class="cls-3" d="M123.31,338.59s29.93-1.5,48,28.39A54.48,54.48,0,0,1,123.31,338.59Z"/><path class="cls-3" d="M123.31,393.85s16-27.26,48-26.87C171.33,367,155.24,394,123.31,393.85Z"/></g><text class="cls-4" transform="translate(148.4 279.22)"><tspan class="cls-5">D</tspan><tspan x="23.45" y="0">C</tspan></text><text class="cls-4" transform="translate(148.24 473.55)"><tspan class="cls-5">D</tspan><tspan x="23.45" y="0">C</tspan></text><g class="cls-1"><path class="cls-3" d="M171,809.3s16.54-28.79,0-55.26C171,754,153.15,777.64,171,809.3Z"/><path class="cls-3" d="M218.35,780.81S203.38,753.15,171,754C171,754,186.69,782.79,218.35,780.81Z"/><path class="cls-3" d="M218.35,726.11S189.7,723.7,171,754C171,754,206.56,752.64,218.35,726.11Z"/><path class="cls-3" d="M171,698.29s17.35,27.54,0,55.75C171,754,152.91,729.08,171,698.29Z"/><path class="cls-3" d="M123,725.65s29.93-1.5,48,28.39A54.47,54.47,0,0,1,123,725.65Z"/><path class="cls-3" d="M123,780.91s16-27.26,48-26.87C171,754,154.9,781,123,780.91Z"/></g><text class="cls-4" transform="translate(148.4 860.61)"><tspan class="cls-5">D</tspan><tspan x="23.45" y="0">C</tspan></text><text class="cls-4" transform="translate(148.07 666.77)"><tspan class="cls-5">D</tspan><tspan x="23.45" y="0">C</tspan></text><g class="cls-1"><path class="cls-3" d="M894.32,616.57s16.54-28.79,0-55.26C894.32,561.31,876.47,584.91,894.32,616.57Z"/><path class="cls-3" d="M941.68,588.08s-15-27.66-47.36-26.77C894.32,561.31,910,590.06,941.68,588.08Z"/><path class="cls-3" d="M941.68,533.38S913,531,894.32,561.31C894.32,561.31,929.88,559.91,941.68,533.38Z"/><path class="cls-3" d="M894.32,505.56s17.36,27.54,0,55.75C894.32,561.31,876.23,536.35,894.32,505.56Z"/><path class="cls-3" d="M846.3,532.92s29.93-1.5,48,28.39A54.48,54.48,0,0,1,846.3,532.92Z"/><path class="cls-3" d="M846.3,588.18s16-27.26,48-26.87C894.32,561.31,878.23,588.29,846.3,588.18Z"/></g><g class="cls-1"><path class="cls-3" d="M893.66,227.91s16.54-28.79,0-55.26C893.66,172.65,875.81,196.25,893.66,227.91Z"/><path class="cls-3" d="M941,199.41s-15-27.65-47.35-26.76C893.66,172.65,909.35,201.4,941,199.41Z"/><path class="cls-3" d="M941,144.72s-28.65-2.41-47.35,27.93C893.66,172.65,929.22,171.25,941,144.72Z"/><path class="cls-3" d="M893.66,116.9s17.35,27.54,0,55.75C893.66,172.65,875.56,147.69,893.66,116.9Z"/><path class="cls-3" d="M845.63,144.26s29.93-1.5,48,28.39A54.49,54.49,0,0,1,845.63,144.26Z"/><path class="cls-3" d="M845.63,199.52s16-27.26,48-26.87C893.66,172.65,877.56,199.63,845.63,199.52Z"/></g><g class="cls-1"><path class="cls-3" d="M894,422.24s16.54-28.79,0-55.26C894,367,876.14,390.58,894,422.24Z"/><path class="cls-3" d="M941.34,393.75S926.37,366.09,894,367C894,367,909.68,395.73,941.34,393.75Z"/><path class="cls-3" d="M941.34,339.05S912.69,336.64,894,367C894,367,929.55,365.58,941.34,339.05Z"/><path class="cls-3" d="M894,311.23s17.35,27.54,0,55.75C894,367,875.9,342,894,311.23Z"/><path class="cls-3" d="M846,338.59s29.93-1.5,48,28.39A54.47,54.47,0,0,1,846,338.59Z"/><path class="cls-3" d="M846,393.85s16-27.26,48-26.87C894,367,877.89,394,846,393.85Z"/></g><text class="cls-4" transform="translate(871.06 279.22)"><tspan class="cls-5">D</tspan><tspan x="23.45" y="0">C</tspan></text><text class="cls-4" transform="translate(870.89 473.55)"><tspan class="cls-5">D</tspan><tspan x="23.45" y="0">C</tspan></text><g class="cls-1"><path class="cls-3" d="M893.66,809.3s16.54-28.79,0-55.26C893.66,754,875.81,777.64,893.66,809.3Z"/><path class="cls-3" d="M941,780.81S926,753.15,893.66,754C893.66,754,909.35,782.79,941,780.81Z"/><path class="cls-3" d="M941,726.11S912.36,723.7,893.66,754C893.66,754,929.22,752.64,941,726.11Z"/><path class="cls-3" d="M893.66,698.29s17.35,27.54,0,55.75C893.66,754,875.56,729.08,893.66,698.29Z"/><path class="cls-3" d="M845.63,725.65s29.93-1.5,48,28.39A54.49,54.49,0,0,1,845.63,725.65Z"/><path class="cls-3" d="M845.63,780.91s16-27.26,48-26.87C893.66,754,877.56,781,845.63,780.91Z"/></g><text class="cls-4" transform="translate(871.06 860.61)"><tspan class="cls-5">D</tspan><tspan x="23.45" y="0">C</tspan></text><text class="cls-4" transform="translate(870.72 666.77)"><tspan class="cls-5">D</tspan><tspan x="23.45" y="0">C</tspan></text><g class="cls-1"><path class="cls-3" d="M1139,616.57s16.54-28.79,0-55.26C1139,561.31,1121.14,584.91,1139,616.57Z"/><path class="cls-3" d="M1186.34,588.08s-15-27.66-47.35-26.77C1139,561.31,1154.68,590.06,1186.34,588.08Z"/><path class="cls-3" d="M1186.34,533.38S1157.69,531,1139,561.31C1139,561.31,1174.55,559.91,1186.34,533.38Z"/><path class="cls-3" d="M1139,505.56s17.35,27.54,0,55.75C1139,561.31,1120.9,536.35,1139,505.56Z"/><path class="cls-3" d="M1091,532.92s29.93-1.5,48,28.39A54.47,54.47,0,0,1,1091,532.92Z"/><path class="cls-3" d="M1091,588.18s16-27.26,48-26.87C1139,561.31,1122.89,588.29,1091,588.18Z"/></g><g class="cls-1"><path class="cls-3" d="M1138.32,227.91s16.54-28.79,0-55.26C1138.32,172.65,1120.47,196.25,1138.32,227.91Z"/><path class="cls-3" d="M1185.68,199.41s-15-27.65-47.36-26.76C1138.32,172.65,1154,201.4,1185.68,199.41Z"/><path class="cls-3" d="M1185.68,144.72s-28.66-2.41-47.36,27.93C1138.32,172.65,1173.88,171.25,1185.68,144.72Z"/><path class="cls-3" d="M1138.32,116.9s17.36,27.54,0,55.75C1138.32,172.65,1120.23,147.69,1138.32,116.9Z"/><path class="cls-3" d="M1090.3,144.26s29.93-1.5,48,28.39A54.48,54.48,0,0,1,1090.3,144.26Z"/><path class="cls-3" d="M1090.3,199.52s16-27.26,48-26.87C1138.32,172.65,1122.22,199.63,1090.3,199.52Z"/></g><g class="cls-1"><path class="cls-3" d="M1138.66,422.24s16.54-28.79,0-55.26C1138.66,367,1120.81,390.58,1138.66,422.24Z"/><path class="cls-3" d="M1186,393.75s-15-27.66-47.35-26.77C1138.66,367,1154.35,395.73,1186,393.75Z"/><path class="cls-3" d="M1186,339.05s-28.65-2.41-47.35,27.93C1138.66,367,1174.22,365.58,1186,339.05Z"/><path class="cls-3" d="M1138.66,311.23s17.35,27.54,0,55.75C1138.66,367,1120.56,342,1138.66,311.23Z"/><path class="cls-3" d="M1090.63,338.59s29.93-1.5,48,28.39A54.49,54.49,0,0,1,1090.63,338.59Z"/><path class="cls-3" d="M1090.63,393.85s16-27.26,48-26.87C1138.66,367,1122.56,394,1090.63,393.85Z"/></g><text class="cls-4" transform="translate(1115.72 279.22)"><tspan class="cls-5">D</tspan><tspan x="23.45" y="0">C</tspan></text><text class="cls-4" transform="translate(1115.56 473.55)"><tspan class="cls-5">D</tspan><tspan x="23.45" y="0">C</tspan></text><g class="cls-1"><path class="cls-3" d="M1138.32,809.3s16.54-28.79,0-55.26C1138.32,754,1120.47,777.64,1138.32,809.3Z"/><path class="cls-3" d="M1185.68,780.81s-15-27.66-47.36-26.77C1138.32,754,1154,782.79,1185.68,780.81Z"/><path class="cls-3" d="M1185.68,726.11S1157,723.7,1138.32,754C1138.32,754,1173.88,752.64,1185.68,726.11Z"/><path class="cls-3" d="M1138.32,698.29s17.36,27.54,0,55.75C1138.32,754,1120.23,729.08,1138.32,698.29Z"/><path class="cls-3" d="M1090.3,725.65s29.93-1.5,48,28.39A54.48,54.48,0,0,1,1090.3,725.65Z"/><path class="cls-3" d="M1090.3,780.91s16-27.26,48-26.87C1138.32,754,1122.22,781,1090.3,780.91Z"/></g><text class="cls-4" transform="translate(1115.72 860.61)"><tspan class="cls-5">D</tspan><tspan x="23.45" y="0">C</tspan></text><text class="cls-4" transform="translate(1115.39 666.77)"><tspan class="cls-5">D</tspan><tspan x="23.45" y="0">C</tspan></text><g class="cls-1"><path class="cls-3" d="M1387.66,616.57s16.54-28.79,0-55.26C1387.66,561.31,1369.81,584.91,1387.66,616.57Z"/><path class="cls-3" d="M1435,588.08s-15-27.66-47.35-26.77C1387.66,561.31,1403.35,590.06,1435,588.08Z"/><path class="cls-3" d="M1435,533.38s-28.65-2.41-47.35,27.93C1387.66,561.31,1423.22,559.91,1435,533.38Z"/><path class="cls-3" d="M1387.66,505.56s17.35,27.54,0,55.75C1387.66,561.31,1369.57,536.35,1387.66,505.56Z"/><path class="cls-3" d="M1339.64,532.92s29.93-1.5,48,28.39A54.47,54.47,0,0,1,1339.64,532.92Z"/><path class="cls-3" d="M1339.64,588.18s16-27.26,48-26.87C1387.66,561.31,1371.56,588.29,1339.64,588.18Z"/></g><g class="cls-1"><path class="cls-3" d="M1387,227.91s16.54-28.79,0-55.26C1387,172.65,1369.14,196.25,1387,227.91Z"/><path class="cls-3" d="M1434.35,199.41s-15-27.65-47.36-26.76C1387,172.65,1402.69,201.4,1434.35,199.41Z"/><path class="cls-3" d="M1434.35,144.72s-28.66-2.41-47.36,27.93C1387,172.65,1422.55,171.25,1434.35,144.72Z"/><path class="cls-3" d="M1387,116.9s17.36,27.54,0,55.75C1387,172.65,1368.9,147.69,1387,116.9Z"/><path class="cls-3" d="M1339,144.26s29.93-1.5,48,28.39A54.47,54.47,0,0,1,1339,144.26Z"/><path class="cls-3" d="M1339,199.52s16-27.26,48-26.87C1387,172.65,1370.89,199.63,1339,199.52Z"/></g><g class="cls-1"><path class="cls-3" d="M1387.33,422.24s16.54-28.79,0-55.26C1387.33,367,1369.48,390.58,1387.33,422.24Z"/><path class="cls-3" d="M1434.68,393.75s-15-27.66-47.35-26.77C1387.33,367,1403,395.73,1434.68,393.75Z"/><path class="cls-3" d="M1434.68,339.05S1406,336.64,1387.33,367C1387.33,367,1422.89,365.58,1434.68,339.05Z"/><path class="cls-3" d="M1387.33,311.23s17.35,27.54,0,55.75C1387.33,367,1369.23,342,1387.33,311.23Z"/><path class="cls-3" d="M1339.3,338.59s29.93-1.5,48,28.39A54.49,54.49,0,0,1,1339.3,338.59Z"/><path class="cls-3" d="M1339.3,393.85s16-27.26,48-26.87C1387.33,367,1371.23,394,1339.3,393.85Z"/></g><text class="cls-4" transform="translate(1364.39 279.22)"><tspan class="cls-5">D</tspan><tspan x="23.45" y="0">C</tspan></text><text class="cls-4" transform="translate(1364.23 473.55)"><tspan class="cls-5">D</tspan><tspan x="23.45" y="0">C</tspan></text><g class="cls-1"><path class="cls-3" d="M1387,809.3s16.54-28.79,0-55.26C1387,754,1369.14,777.64,1387,809.3Z"/><path class="cls-3" d="M1434.35,780.81s-15-27.66-47.36-26.77C1387,754,1402.69,782.79,1434.35,780.81Z"/><path class="cls-3" d="M1434.35,726.11S1405.69,723.7,1387,754C1387,754,1422.55,752.64,1434.35,726.11Z"/><path class="cls-3" d="M1387,698.29s17.36,27.54,0,55.75C1387,754,1368.9,729.08,1387,698.29Z"/><path class="cls-3" d="M1339,725.65s29.93-1.5,48,28.39A54.47,54.47,0,0,1,1339,725.65Z"/><path class="cls-3" d="M1339,780.91s16-27.26,48-26.87C1387,754,1370.89,781,1339,780.91Z"/></g><text class="cls-4" transform="translate(1364.39 860.61)"><tspan class="cls-5">D</tspan><tspan x="23.45" y="0">C</tspan></text><text class="cls-4" transform="translate(1364.06 666.77)"><tspan class="cls-5">D</tspan><tspan x="23.45" y="0">C</tspan></text><g class="cls-1"><path class="cls-3" d="M1640.33,616.57s16.54-28.79,0-55.26C1640.33,561.31,1622.48,584.91,1640.33,616.57Z"/><path class="cls-3" d="M1687.69,588.08s-15-27.66-47.36-26.77C1640.33,561.31,1656,590.06,1687.69,588.08Z"/><path class="cls-3" d="M1687.69,533.38S1659,531,1640.33,561.31C1640.33,561.31,1675.89,559.91,1687.69,533.38Z"/><path class="cls-3" d="M1640.33,505.56s17.36,27.54,0,55.75C1640.33,561.31,1622.24,536.35,1640.33,505.56Z"/><path class="cls-3" d="M1592.31,532.92s29.93-1.5,48,28.39A54.48,54.48,0,0,1,1592.31,532.92Z"/><path class="cls-3" d="M1592.31,588.18s16-27.26,48-26.87C1640.33,561.31,1624.23,588.29,1592.31,588.18Z"/></g><g class="cls-1"><path class="cls-3" d="M1639.66,227.91s16.55-28.79,0-55.26C1639.66,172.65,1621.82,196.25,1639.66,227.91Z"/><path class="cls-3" d="M1687,199.41s-15-27.65-47.36-26.76C1639.66,172.65,1655.36,201.4,1687,199.41Z"/><path class="cls-3" d="M1687,144.72s-28.66-2.41-47.36,27.93C1639.66,172.65,1675.23,171.25,1687,144.72Z"/><path class="cls-3" d="M1639.66,116.9s17.36,27.54,0,55.75C1639.66,172.65,1621.57,147.69,1639.66,116.9Z"/><path class="cls-3" d="M1591.64,144.26s29.93-1.5,48,28.39A54.48,54.48,0,0,1,1591.64,144.26Z"/><path class="cls-3" d="M1591.64,199.52s16-27.26,48-26.87C1639.66,172.65,1623.57,199.63,1591.64,199.52Z"/></g><g class="cls-1"><path class="cls-3" d="M1640,422.24s16.54-28.79,0-55.26C1640,367,1622.15,390.58,1640,422.24Z"/><path class="cls-3" d="M1687.35,393.75s-15-27.66-47.35-26.77C1640,367,1655.69,395.73,1687.35,393.75Z"/><path class="cls-3" d="M1687.35,339.05S1658.7,336.64,1640,367C1640,367,1675.56,365.58,1687.35,339.05Z"/><path class="cls-3" d="M1640,311.23s17.35,27.54,0,55.75C1640,367,1621.9,342,1640,311.23Z"/><path class="cls-3" d="M1592,338.59s29.92-1.5,48,28.39A54.47,54.47,0,0,1,1592,338.59Z"/><path class="cls-3" d="M1592,393.85s16-27.26,48-26.87C1640,367,1623.9,394,1592,393.85Z"/></g><text class="cls-4" transform="translate(1617.07 279.22)"><tspan class="cls-5">D</tspan><tspan x="23.45" y="0">C</tspan></text><text class="cls-4" transform="translate(1616.9 473.55)"><tspan class="cls-5">D</tspan><tspan x="23.45" y="0">C</tspan></text><g class="cls-1"><path class="cls-3" d="M1639.66,809.3s16.55-28.79,0-55.26C1639.66,754,1621.82,777.64,1639.66,809.3Z"/><path class="cls-3" d="M1687,780.81s-15-27.66-47.36-26.77C1639.66,754,1655.36,782.79,1687,780.81Z"/><path class="cls-3" d="M1687,726.11s-28.66-2.41-47.36,27.93C1639.66,754,1675.23,752.64,1687,726.11Z"/><path class="cls-3" d="M1639.66,698.29s17.36,27.54,0,55.75C1639.66,754,1621.57,729.08,1639.66,698.29Z"/><path class="cls-3" d="M1591.64,725.65s29.93-1.5,48,28.39A54.48,54.48,0,0,1,1591.64,725.65Z"/><path class="cls-3" d="M1591.64,780.91s16-27.26,48-26.87C1639.66,754,1623.57,781,1591.64,780.91Z"/></g><text class="cls-4" transform="translate(1617.07 860.61)"><tspan class="cls-5">D</tspan><tspan x="23.45" y="0">C</tspan></text><text class="cls-4" transform="translate(1616.73 666.77)"><tspan class="cls-5">D</tspan><tspan x="23.45" y="0">C</tspan></text><g class="cls-1"><path class="cls-3" d="M1896.67,616.57s16.55-28.79,0-55.26C1896.67,561.31,1878.83,584.91,1896.67,616.57Z"/><path class="cls-3" d="M1944,588.08s-15-27.66-47.36-26.77C1896.67,561.31,1912.37,590.06,1944,588.08Z"/><path class="cls-3" d="M1944,533.38s-28.66-2.41-47.36,27.93C1896.67,561.31,1932.23,559.91,1944,533.38Z"/><path class="cls-3" d="M1896.67,505.56s17.36,27.54,0,55.75C1896.67,561.31,1878.58,536.35,1896.67,505.56Z"/><path class="cls-3" d="M1848.65,532.92s29.93-1.5,48,28.39A54.48,54.48,0,0,1,1848.65,532.92Z"/><path class="cls-3" d="M1848.65,588.18s16-27.26,48-26.87C1896.67,561.31,1880.58,588.29,1848.65,588.18Z"/></g><g class="cls-1"><path class="cls-3" d="M1896,227.91s16.54-28.79,0-55.26C1896,172.65,1878.16,196.25,1896,227.91Z"/><path class="cls-3" d="M1943.36,199.41s-15-27.65-47.35-26.76C1896,172.65,1911.7,201.4,1943.36,199.41Z"/><path class="cls-3" d="M1943.36,144.72s-28.65-2.41-47.35,27.93C1896,172.65,1931.57,171.25,1943.36,144.72Z"/><path class="cls-3" d="M1896,116.9s17.35,27.54,0,55.75C1896,172.65,1877.91,147.69,1896,116.9Z"/><path class="cls-3" d="M1848,144.26s29.93-1.5,48,28.39A54.49,54.49,0,0,1,1848,144.26Z"/><path class="cls-3" d="M1848,199.52s16-27.26,48-26.87C1896,172.65,1879.91,199.63,1848,199.52Z"/></g><g class="cls-1"><path class="cls-3" d="M1896.34,422.24s16.54-28.79,0-55.26C1896.34,367,1878.49,390.58,1896.34,422.24Z"/><path class="cls-3" d="M1943.7,393.75s-15-27.66-47.36-26.77C1896.34,367,1912,395.73,1943.7,393.75Z"/><path class="cls-3" d="M1943.7,339.05S1915,336.64,1896.34,367C1896.34,367,1931.9,365.58,1943.7,339.05Z"/><path class="cls-3" d="M1896.34,311.23s17.35,27.54,0,55.75C1896.34,367,1878.25,342,1896.34,311.23Z"/><path class="cls-3" d="M1848.32,338.59s29.93-1.5,48,28.39A54.47,54.47,0,0,1,1848.32,338.59Z"/><path class="cls-3" d="M1848.32,393.85s16-27.26,48-26.87C1896.34,367,1880.24,394,1848.32,393.85Z"/></g><text class="cls-4" transform="translate(1873.41 279.22)"><tspan class="cls-5">D</tspan><tspan x="23.45" y="0">C</tspan></text><g class="cls-1"><path class="cls-2" d="M534,131s16.54-28.79,0-55.26C534,75.75,516.15,99.35,534,131Z"/><path class="cls-2" d="M581.35,102.52s-15-27.66-47.35-26.77C534,75.75,549.69,104.5,581.35,102.52Z"/><path class="cls-2" d="M581.35,47.82S552.69,45.41,534,75.75C534,75.75,569.56,74.35,581.35,47.82Z"/><path class="cls-2" d="M534,20s17.35,27.54,0,55.75C534,75.75,515.9,50.79,534,20Z"/><path class="cls-2" d="M486,47.36s29.93-1.5,48,28.39A54.49,54.49,0,0,1,486,47.36Z"/><path class="cls-2" d="M486,102.62s16-27.26,48-26.87C534,75.75,517.9,102.73,486,102.62Z"/></g><text class="cls-4" transform="translate(630.06 85.42)"><tspan class="cls-5">D</tspan><tspan x="23.45" y="0">C</tspan></text><g class="cls-1"><path class="cls-2" d="M293,131s16.54-28.79,0-55.26C293,75.75,275.15,99.35,293,131Z"/><path class="cls-2" d="M340.35,102.52s-15-27.66-47.35-26.77C293,75.75,308.69,104.5,340.35,102.52Z"/><path class="cls-2" d="M340.35,47.82S311.7,45.41,293,75.75C293,75.75,328.56,74.35,340.35,47.82Z"/><path class="cls-2" d="M293,20s17.35,27.54,0,55.75C293,75.75,274.91,50.79,293,20Z"/><path class="cls-2" d="M245,47.36s29.93-1.5,48,28.39A54.47,54.47,0,0,1,245,47.36Z"/><path class="cls-2" d="M245,102.62s16-27.26,48-26.87C293,75.75,276.9,102.73,245,102.62Z"/></g><g class="cls-1"><path class="cls-2" d="M49,131s16.54-28.79,0-55.26C49,75.75,31.15,99.35,49,131Z"/><path class="cls-2" d="M96.35,102.52S81.38,74.86,49,75.75C49,75.75,64.69,104.5,96.35,102.52Z"/><path class="cls-2" d="M96.35,47.82S67.7,45.41,49,75.75C49,75.75,84.56,74.35,96.35,47.82Z"/><path class="cls-2" d="M49,20s17.35,27.54,0,55.75C49,75.75,30.91,50.79,49,20Z"/><path class="cls-2" d="M1,47.36s29.93-1.5,48,28.39A54.47,54.47,0,0,1,1,47.36Z"/><path class="cls-2" d="M1,102.62S17,75.36,49,75.75C49,75.75,32.9,102.73,1,102.62Z"/></g><g class="cls-1"><path class="cls-2" d="M773.32,131s16.55-28.79,0-55.26C773.32,75.75,755.48,99.35,773.32,131Z"/><path class="cls-2" d="M820.68,102.52s-15-27.66-47.36-26.77C773.32,75.75,789,104.5,820.68,102.52Z"/><path class="cls-2" d="M820.68,47.82S792,45.41,773.32,75.75C773.32,75.75,808.88,74.35,820.68,47.82Z"/><path class="cls-2" d="M773.32,20s17.36,27.54,0,55.75C773.32,75.75,755.23,50.79,773.32,20Z"/><path class="cls-2" d="M725.3,47.36s29.93-1.5,48,28.39A54.48,54.48,0,0,1,725.3,47.36Z"/><path class="cls-2" d="M725.3,102.62s16-27.26,48-26.87C773.32,75.75,757.23,102.73,725.3,102.62Z"/></g><g class="cls-1"><path class="cls-2" d="M1016,131s16.54-28.79,0-55.26C1016,75.75,998.14,99.35,1016,131Z"/><path class="cls-2" d="M1063.34,102.52s-15-27.66-47.35-26.77C1016,75.75,1031.68,104.5,1063.34,102.52Z"/><path class="cls-2" d="M1063.34,47.82s-28.65-2.41-47.35,27.93C1016,75.75,1051.55,74.35,1063.34,47.82Z"/><path class="cls-2" d="M1016,20s17.35,27.54,0,55.75C1016,75.75,997.9,50.79,1016,20Z"/><path class="cls-2" d="M968,47.36s29.93-1.5,48,28.39A54.47,54.47,0,0,1,968,47.36Z"/><path class="cls-2" d="M968,102.62s16-27.26,48-26.87C1016,75.75,999.89,102.73,968,102.62Z"/></g><g class="cls-1"><path class="cls-2" d="M1262.66,131s16.54-28.79,0-55.26C1262.66,75.75,1244.81,99.35,1262.66,131Z"/><path class="cls-2" d="M1310,102.52s-15-27.66-47.35-26.77C1262.66,75.75,1278.35,104.5,1310,102.52Z"/><path class="cls-2" d="M1310,47.82s-28.65-2.41-47.35,27.93C1262.66,75.75,1298.22,74.35,1310,47.82Z"/><path class="cls-2" d="M1262.66,20s17.35,27.54,0,55.75C1262.66,75.75,1244.56,50.79,1262.66,20Z"/><path class="cls-2" d="M1214.63,47.36s29.93-1.5,48,28.39A54.49,54.49,0,0,1,1214.63,47.36Z"/><path class="cls-2" d="M1214.63,102.62s16-27.26,48-26.87C1262.66,75.75,1246.56,102.73,1214.63,102.62Z"/></g><g class="cls-1"><path class="cls-2" d="M1513.33,131s16.54-28.79,0-55.26C1513.33,75.75,1495.48,99.35,1513.33,131Z"/><path class="cls-2" d="M1560.68,102.52s-15-27.66-47.35-26.77C1513.33,75.75,1529,104.5,1560.68,102.52Z"/><path class="cls-2" d="M1560.68,47.82s-28.65-2.41-47.35,27.93C1513.33,75.75,1548.89,74.35,1560.68,47.82Z"/><path class="cls-2" d="M1513.33,20s17.35,27.54,0,55.75C1513.33,75.75,1495.23,50.79,1513.33,20Z"/><path class="cls-2" d="M1465.31,47.36s29.92-1.5,48,28.39A54.47,54.47,0,0,1,1465.31,47.36Z"/><path class="cls-2" d="M1465.31,102.62s16-27.26,48-26.87C1513.33,75.75,1497.23,102.73,1465.31,102.62Z"/></g><g class="cls-1"><path class="cls-2" d="M1768,131s16.54-28.79,0-55.26C1768,75.75,1750.15,99.35,1768,131Z"/><path class="cls-2" d="M1815.36,102.52s-15-27.66-47.36-26.77C1768,75.75,1783.7,104.5,1815.36,102.52Z"/><path class="cls-2" d="M1815.36,47.82S1786.7,45.41,1768,75.75C1768,75.75,1803.56,74.35,1815.36,47.82Z"/><path class="cls-2" d="M1768,20s17.36,27.54,0,55.75C1768,75.75,1749.91,50.79,1768,20Z"/><path class="cls-2" d="M1720,47.36s29.93-1.5,48,28.39A54.48,54.48,0,0,1,1720,47.36Z"/><path class="cls-2" d="M1720,102.62s16-27.26,48-26.87C1768,75.75,1751.9,102.73,1720,102.62Z"/></g><g class="cls-1"><path class="cls-2" d="M2010.67,131s16.55-28.79,0-55.26C2010.67,75.75,1992.83,99.35,2010.67,131Z"/><path class="cls-2" d="M2058,102.52s-15-27.66-47.36-26.77C2010.67,75.75,2026.37,104.5,2058,102.52Z"/><path class="cls-2" d="M2058,47.82s-28.66-2.41-47.36,27.93C2010.67,75.75,2046.23,74.35,2058,47.82Z"/><path class="cls-2" d="M2010.67,20s17.36,27.54,0,55.75C2010.67,75.75,1992.58,50.79,2010.67,20Z"/><path class="cls-2" d="M1962.65,47.36s29.93-1.5,48,28.39A54.48,54.48,0,0,1,1962.65,47.36Z"/><path class="cls-2" d="M1962.65,102.62s16-27.26,48-26.87C2010.67,75.75,1994.58,102.73,1962.65,102.62Z"/></g><text class="cls-4" transform="translate(390.73 85.42)"><tspan class="cls-5">D</tspan><tspan x="23.45" y="0">C</tspan></text><text class="cls-4" transform="translate(148.4 85.42)"><tspan class="cls-5">D</tspan><tspan x="23.45" y="0">C</tspan></text><text class="cls-4" transform="translate(871.06 85.42)"><tspan class="cls-5">D</tspan><tspan x="23.45" y="0">C</tspan></text><text class="cls-4" transform="translate(1115.72 85.42)"><tspan class="cls-5">D</tspan><tspan x="23.45" y="0">C</tspan></text><text class="cls-4" transform="translate(1364.39 85.42)"><tspan class="cls-5">D</tspan><tspan x="23.45" y="0">C</tspan></text><text class="cls-4" transform="translate(1617.07 85.42)"><tspan class="cls-5">D</tspan><tspan x="23.45" y="0">C</tspan></text><text class="cls-4" transform="translate(1873.41 85.42)"><tspan class="cls-5">D</tspan><tspan x="23.45" y="0">C</tspan></text><text class="cls-4" transform="translate(1873.24 473.55)"><tspan class="cls-5">D</tspan><tspan x="23.45" y="0">C</tspan></text><g class="cls-1"><path class="cls-3" d="M1896,809.3s16.54-28.79,0-55.26C1896,754,1878.16,777.64,1896,809.3Z"/><path class="cls-3" d="M1943.36,780.81s-15-27.66-47.35-26.77C1896,754,1911.7,782.79,1943.36,780.81Z"/><path class="cls-3" d="M1943.36,726.11S1914.71,723.7,1896,754C1896,754,1931.57,752.64,1943.36,726.11Z"/><path class="cls-3" d="M1896,698.29s17.35,27.54,0,55.75C1896,754,1877.91,729.08,1896,698.29Z"/><path class="cls-3" d="M1848,725.65s29.93-1.5,48,28.39A54.49,54.49,0,0,1,1848,725.65Z"/><path class="cls-3" d="M1848,780.91s16-27.26,48-26.87C1896,754,1879.91,781,1848,780.91Z"/></g><text class="cls-4" transform="translate(1873.41 860.61)"><tspan class="cls-5">D</tspan><tspan x="23.45" y="0">C</tspan></text><text class="cls-4" transform="translate(1873.08 666.77)"><tspan class="cls-5">D</tspan><tspan x="23.45" y="0">C</tspan></text></svg>