<svg id="Layer_1" data-name="Layer 1" xmlns="http://www.w3.org/2000/svg" viewBox="0 0 1920 1080"><defs><style>.cls-1,.cls-4{opacity:0.18;}.cls-2{fill:none;stroke:#231f20;stroke-miterlimit:10;stroke-width:3.11px;}.cls-3{fill:#231f20;}.cls-4{font-size:32.12px;font-family:OxtailOT-Medium, Oxtail OT;font-weight:500;}.cls-5{letter-spacing:-0.01em;}.cls-6{font-size:120px;}.cls-6,.cls-8{font-family:EBGaramond-Italic, EB Garamond;font-style:italic;}.cls-7{letter-spacing:-0.02em;}.cls-8{font-size:187px;}</style></defs><title>1Artboard 7</title><g class="cls-1"><path class="cls-2" d="M464,304.81s16.54-28.79,0-55.26C464,249.55,446.15,273.15,464,304.81Z"/><path class="cls-2" d="M511.35,276.31s-15-27.65-47.35-26.76C464,249.55,479.69,278.3,511.35,276.31Z"/><path class="cls-2" d="M511.35,221.62s-28.66-2.41-47.35,27.93C464,249.55,499.56,248.15,511.35,221.62Z"/><path class="cls-2" d="M464,193.8s17.35,27.54,0,55.75C464,249.55,445.9,224.59,464,193.8Z"/><path class="cls-2" d="M416,221.16s29.93-1.5,48,28.39A54.49,54.49,0,0,1,416,221.16Z"/><path class="cls-2" d="M416,276.42s16-27.26,48-26.87C464,249.55,447.9,276.53,416,276.42Z"/></g><g class="cls-1"><path class="cls-3" d="M583.33,596.57s16.54-28.79,0-55.26C583.33,541.31,565.48,564.91,583.33,596.57Z"/><path class="cls-3" d="M630.68,568.08s-15-27.66-47.35-26.77C583.33,541.31,599,570.06,630.68,568.08Z"/><path class="cls-3" d="M630.68,513.38S602,511,583.33,541.31C583.33,541.31,618.89,539.91,630.68,513.38Z"/><path class="cls-3" d="M583.33,485.56s17.35,27.54,0,55.75C583.33,541.31,565.23,516.35,583.33,485.56Z"/><path class="cls-3" d="M535.3,512.92s29.93-1.5,48,28.39A54.49,54.49,0,0,1,535.3,512.92Z"/><path class="cls-3" d="M535.3,568.18s16-27.26,48-26.87C583.33,541.31,567.23,568.29,535.3,568.18Z"/></g><g class="cls-1"><path class="cls-3" d="M582.66,207.91s16.54-28.79,0-55.26C582.66,152.65,564.81,176.25,582.66,207.91Z"/><path class="cls-3" d="M630,179.41s-15-27.65-47.35-26.76C582.66,152.65,598.35,181.4,630,179.41Z"/><path class="cls-3" d="M630,124.72s-28.65-2.41-47.35,27.93C582.66,152.65,618.22,151.25,630,124.72Z"/><path class="cls-3" d="M582.66,96.9s17.35,27.54,0,55.75C582.66,152.65,564.57,127.69,582.66,96.9Z"/><path class="cls-3" d="M534.64,124.26s29.93-1.5,48,28.39A54.47,54.47,0,0,1,534.64,124.26Z"/><path class="cls-3" d="M534.64,179.52s16-27.26,48-26.87C582.66,152.65,566.56,179.63,534.64,179.52Z"/></g><g class="cls-1"><path class="cls-2" d="M463.66,111s16.54-28.79,0-55.26C463.66,55.75,445.81,79.35,463.66,111Z"/><path class="cls-2" d="M511,82.52s-15-27.66-47.36-26.77C463.66,55.75,479.36,84.5,511,82.52Z"/><path class="cls-2" d="M511,27.82s-28.66-2.41-47.36,27.93C463.66,55.75,499.22,54.35,511,27.82Z"/><path class="cls-2" d="M463.66,0s17.36,27.54,0,55.75C463.66,55.75,445.57,30.79,463.66,0Z"/><path class="cls-2" d="M415.64,27.36s29.93-1.5,48,28.39A54.48,54.48,0,0,1,415.64,27.36Z"/><path class="cls-2" d="M415.64,82.62s16-27.26,48-26.87C463.66,55.75,447.56,82.73,415.64,82.62Z"/></g><g class="cls-1"><path class="cls-3" d="M583,402.24s16.54-28.79,0-55.26C583,347,565.14,370.58,583,402.24Z"/><path class="cls-3" d="M630.35,373.75S615.37,346.09,583,347C583,347,598.69,375.73,630.35,373.75Z"/><path class="cls-3" d="M630.35,319.05S601.69,316.64,583,347C583,347,618.55,345.58,630.35,319.05Z"/><path class="cls-3" d="M583,291.23s17.36,27.54,0,55.75C583,347,564.9,322,583,291.23Z"/><path class="cls-3" d="M535,318.59s29.93-1.5,48,28.39A54.48,54.48,0,0,1,535,318.59Z"/><path class="cls-3" d="M535,373.85s16-27.26,48-26.87C583,347,566.89,374,535,373.85Z"/></g><g class="cls-1"><path class="cls-2" d="M463.66,498.61s16.54-28.79,0-55.26C463.66,443.35,445.81,466.94,463.66,498.61Z"/><path class="cls-2" d="M511,470.11s-15-27.66-47.36-26.76C463.66,443.35,479.36,472.1,511,470.11Z"/><path class="cls-2" d="M511,415.42s-28.66-2.42-47.36,27.93C463.66,443.35,499.22,441.94,511,415.42Z"/><path class="cls-2" d="M463.66,387.59s17.36,27.55,0,55.76C463.66,443.35,445.57,418.38,463.66,387.59Z"/><path class="cls-2" d="M415.64,415s29.93-1.5,48,28.4A54.48,54.48,0,0,1,415.64,415Z"/><path class="cls-2" d="M415.64,470.21s16-27.26,48-26.86C463.66,443.35,447.56,470.33,415.64,470.21Z"/></g><text class="cls-4" transform="translate(441.4 162.05)"><tspan class="cls-5">D</tspan><tspan x="23.45" y="0">C</tspan></text><text class="cls-4" transform="translate(560.06 259.22)"><tspan class="cls-5">D</tspan><tspan x="23.45" y="0">C</tspan></text><text class="cls-4" transform="translate(441.4 355.85)"><tspan class="cls-5">D</tspan><tspan x="23.45" y="0">C</tspan></text><text class="cls-4" transform="translate(441.4 549.65)"><tspan class="cls-5">D</tspan><tspan x="23.45" y="0">C</tspan></text><text class="cls-4" transform="translate(559.9 453.55)"><tspan class="cls-5">D</tspan><tspan x="23.45" y="0">C</tspan></text><text class="cls-4" transform="translate(559.73 65.38)"><tspan class="cls-5">D</tspan><tspan x="23.45" y="0">C</tspan></text><g class="cls-1"><path class="cls-2" d="M464,886.2s16.54-28.79,0-55.26C464,830.94,446.15,854.54,464,886.2Z"/><path class="cls-2" d="M511.35,857.71s-15-27.66-47.35-26.77C464,830.94,479.69,859.69,511.35,857.71Z"/><path class="cls-2" d="M511.35,803S482.69,800.6,464,830.94C464,830.94,499.56,829.54,511.35,803Z"/><path class="cls-2" d="M464,775.19s17.35,27.54,0,55.75C464,830.94,445.9,806,464,775.19Z"/><path class="cls-2" d="M416,802.55s29.93-1.5,48,28.39A54.49,54.49,0,0,1,416,802.55Z"/><path class="cls-2" d="M416,857.81s16-27.26,48-26.87C464,830.94,447.9,857.92,416,857.81Z"/></g><g class="cls-1"><path class="cls-3" d="M582.66,789.3s16.54-28.79,0-55.26C582.66,734,564.81,757.64,582.66,789.3Z"/><path class="cls-3" d="M630,760.81S615,733.15,582.66,734C582.66,734,598.35,762.79,630,760.81Z"/><path class="cls-3" d="M630,706.11S601.36,703.7,582.66,734C582.66,734,618.22,732.64,630,706.11Z"/><path class="cls-3" d="M582.66,678.29s17.35,27.54,0,55.75C582.66,734,564.57,709.08,582.66,678.29Z"/><path class="cls-3" d="M534.64,705.65s29.93-1.5,48,28.39A54.47,54.47,0,0,1,534.64,705.65Z"/><path class="cls-3" d="M534.64,760.91s16-27.26,48-26.87C582.66,734,566.56,761,534.64,760.91Z"/></g><g class="cls-1"><path class="cls-2" d="M463.66,692.41s16.54-28.8,0-55.27C463.66,637.14,445.81,660.74,463.66,692.41Z"/><path class="cls-2" d="M511,663.91s-15-27.66-47.36-26.77C463.66,637.14,479.36,665.89,511,663.91Z"/><path class="cls-2" d="M511,609.21s-28.66-2.41-47.36,27.93C463.66,637.14,499.22,635.74,511,609.21Z"/><path class="cls-2" d="M463.66,581.39s17.36,27.54,0,55.75C463.66,637.14,445.57,612.18,463.66,581.39Z"/><path class="cls-2" d="M415.64,608.75s29.93-1.5,48,28.39A54.46,54.46,0,0,1,415.64,608.75Z"/><path class="cls-2" d="M415.64,664s16-27.26,48-26.87C463.66,637.14,447.56,664.12,415.64,664Z"/></g><g class="cls-1"><path class="cls-3" d="M583,983.64s16.54-28.8,0-55.27C583,928.37,565.14,952,583,983.64Z"/><path class="cls-3" d="M630.35,955.14s-15-27.66-47.36-26.77C583,928.37,598.69,957.12,630.35,955.14Z"/><path class="cls-3" d="M630.35,900.44S601.69,898,583,928.37C583,928.37,618.55,927,630.35,900.44Z"/><path class="cls-3" d="M583,872.62s17.36,27.54,0,55.75C583,928.37,564.9,903.41,583,872.62Z"/><path class="cls-3" d="M535,900s29.93-1.5,48,28.39A54.46,54.46,0,0,1,535,900Z"/><path class="cls-3" d="M535,955.24s16-27.26,48-26.87C583,928.37,566.89,955.35,535,955.24Z"/></g><g class="cls-1"><path class="cls-2" d="M463.66,1080s16.54-28.79,0-55.26C463.66,1024.74,445.81,1048.34,463.66,1080Z"/><path class="cls-2" d="M511,1051.5s-15-27.66-47.36-26.76C463.66,1024.74,479.36,1053.49,511,1051.5Z"/><path class="cls-2" d="M511,996.81s-28.66-2.41-47.36,27.93C463.66,1024.74,499.22,1023.34,511,996.81Z"/><path class="cls-2" d="M463.66,969s17.36,27.54,0,55.75C463.66,1024.74,445.57,999.78,463.66,969Z"/><path class="cls-2" d="M415.64,996.34s29.93-1.49,48,28.4A54.48,54.48,0,0,1,415.64,996.34Z"/><path class="cls-2" d="M415.64,1051.61s16-27.26,48-26.87C463.66,1024.74,447.56,1051.72,415.64,1051.61Z"/></g><text class="cls-4" transform="translate(441.4 743.45)"><tspan class="cls-5">D</tspan><tspan x="23.45" y="0">C</tspan></text><text class="cls-4" transform="translate(560.06 840.61)"><tspan class="cls-5">D</tspan><tspan x="23.45" y="0">C</tspan></text><text class="cls-4" transform="translate(441.4 937.24)"><tspan class="cls-5">D</tspan><tspan x="23.45" y="0">C</tspan></text><g class="cls-1"><path class="cls-2" d="M223,304.81s16.54-28.79,0-55.26C223,249.55,205.15,273.15,223,304.81Z"/><path class="cls-2" d="M270.35,276.31s-15-27.65-47.35-26.76C223,249.55,238.69,278.3,270.35,276.31Z"/><path class="cls-2" d="M270.35,221.62S241.7,219.21,223,249.55C223,249.55,258.56,248.15,270.35,221.62Z"/><path class="cls-2" d="M223,193.8s17.35,27.54,0,55.75C223,249.55,204.91,224.59,223,193.8Z"/><path class="cls-2" d="M175,221.16s29.93-1.5,48,28.39A54.47,54.47,0,0,1,175,221.16Z"/><path class="cls-2" d="M175,276.42s16-27.26,48-26.87C223,249.55,206.9,276.53,175,276.42Z"/></g><g class="cls-1"><path class="cls-2" d="M222.66,111s16.55-28.79,0-55.26C222.66,55.75,204.82,79.35,222.66,111Z"/><path class="cls-2" d="M270,82.52s-15-27.66-47.36-26.77C222.66,55.75,238.36,84.5,270,82.52Z"/><path class="cls-2" d="M270,27.82s-28.66-2.41-47.36,27.93C222.66,55.75,258.23,54.35,270,27.82Z"/><path class="cls-2" d="M222.66,0s17.36,27.54,0,55.75C222.66,55.75,204.57,30.79,222.66,0Z"/><path class="cls-2" d="M174.64,27.36s29.93-1.5,48,28.39A54.48,54.48,0,0,1,174.64,27.36Z"/><path class="cls-2" d="M174.64,82.62s16-27.26,48-26.87C222.66,55.75,206.57,82.73,174.64,82.62Z"/></g><g class="cls-1"><path class="cls-2" d="M222.66,498.61s16.55-28.79,0-55.26C222.66,443.35,204.82,466.94,222.66,498.61Z"/><path class="cls-2" d="M270,470.11s-15-27.66-47.36-26.76C222.66,443.35,238.36,472.1,270,470.11Z"/><path class="cls-2" d="M270,415.42s-28.66-2.42-47.36,27.93C222.66,443.35,258.23,441.94,270,415.42Z"/><path class="cls-2" d="M222.66,387.59s17.36,27.55,0,55.76C222.66,443.35,204.57,418.38,222.66,387.59Z"/><path class="cls-2" d="M174.64,415s29.93-1.5,48,28.4A54.48,54.48,0,0,1,174.64,415Z"/><path class="cls-2" d="M174.64,470.21s16-27.26,48-26.86C222.66,443.35,206.57,470.33,174.64,470.21Z"/></g><text class="cls-4" transform="translate(200.4 162.05)"><tspan class="cls-5">D</tspan><tspan x="23.45" y="0">C</tspan></text><text class="cls-4" transform="translate(200.4 355.85)"><tspan class="cls-5">D</tspan><tspan x="23.45" y="0">C</tspan></text><text class="cls-4" transform="translate(200.4 549.65)"><tspan class="cls-5">D</tspan><tspan x="23.45" y="0">C</tspan></text><g class="cls-1"><path class="cls-2" d="M223,886.2s16.54-28.79,0-55.26C223,830.94,205.15,854.54,223,886.2Z"/><path class="cls-2" d="M270.35,857.71s-15-27.66-47.35-26.77C223,830.94,238.69,859.69,270.35,857.71Z"/><path class="cls-2" d="M270.35,803S241.7,800.6,223,830.94C223,830.94,258.56,829.54,270.35,803Z"/><path class="cls-2" d="M223,775.19s17.35,27.54,0,55.75C223,830.94,204.91,806,223,775.19Z"/><path class="cls-2" d="M175,802.55s29.93-1.5,48,28.39A54.47,54.47,0,0,1,175,802.55Z"/><path class="cls-2" d="M175,857.81s16-27.26,48-26.87C223,830.94,206.9,857.92,175,857.81Z"/></g><g class="cls-1"><path class="cls-2" d="M222.66,692.41s16.55-28.8,0-55.27C222.66,637.14,204.82,660.74,222.66,692.41Z"/><path class="cls-2" d="M270,663.91s-15-27.66-47.36-26.77C222.66,637.14,238.36,665.89,270,663.91Z"/><path class="cls-2" d="M270,609.21s-28.66-2.41-47.36,27.93C222.66,637.14,258.23,635.74,270,609.21Z"/><path class="cls-2" d="M222.66,581.39s17.36,27.54,0,55.75C222.66,637.14,204.57,612.18,222.66,581.39Z"/><path class="cls-2" d="M174.64,608.75s29.93-1.5,48,28.39A54.46,54.46,0,0,1,174.64,608.75Z"/><path class="cls-2" d="M174.64,664s16-27.26,48-26.87C222.66,637.14,206.57,664.12,174.64,664Z"/></g><g class="cls-1"><path class="cls-2" d="M222.66,1080s16.55-28.79,0-55.26C222.66,1024.74,204.82,1048.34,222.66,1080Z"/><path class="cls-2" d="M270,1051.5s-15-27.66-47.36-26.76C222.66,1024.74,238.36,1053.49,270,1051.5Z"/><path class="cls-2" d="M270,996.81s-28.66-2.41-47.36,27.93C222.66,1024.74,258.23,1023.34,270,996.81Z"/><path class="cls-2" d="M222.66,969s17.36,27.54,0,55.75C222.66,1024.74,204.57,999.78,222.66,969Z"/><path class="cls-2" d="M174.64,996.34s29.93-1.49,48,28.4A54.48,54.48,0,0,1,174.64,996.34Z"/><path class="cls-2" d="M174.64,1051.61s16-27.26,48-26.87C222.66,1024.74,206.57,1051.72,174.64,1051.61Z"/></g><text class="cls-4" transform="translate(200.4 743.45)"><tspan class="cls-5">D</tspan><tspan x="23.45" y="0">C</tspan></text><text class="cls-4" transform="translate(200.4 937.24)"><tspan class="cls-5">D</tspan><tspan x="23.45" y="0">C</tspan></text><g class="cls-1"><path class="cls-2" d="M703.32,304.81s16.55-28.79,0-55.26C703.32,249.55,685.48,273.15,703.32,304.81Z"/><path class="cls-2" d="M750.68,276.31s-15-27.65-47.36-26.76C703.32,249.55,719,278.3,750.68,276.31Z"/><path class="cls-2" d="M750.68,221.62s-28.66-2.41-47.36,27.93C703.32,249.55,738.88,248.15,750.68,221.62Z"/><path class="cls-2" d="M703.32,193.8s17.36,27.54,0,55.75C703.32,249.55,685.23,224.59,703.32,193.8Z"/><path class="cls-2" d="M655.3,221.16s29.93-1.5,48,28.39A54.48,54.48,0,0,1,655.3,221.16Z"/><path class="cls-2" d="M655.3,276.42s16-27.26,48-26.87C703.32,249.55,687.23,276.53,655.3,276.42Z"/></g><g class="cls-1"><path class="cls-2" d="M703,111s16.54-28.79,0-55.26C703,55.75,685.14,79.35,703,111Z"/><path class="cls-2" d="M750.34,82.52s-15-27.66-47.35-26.77C703,55.75,718.68,84.5,750.34,82.52Z"/><path class="cls-2" d="M750.34,27.82S721.69,25.41,703,55.75C703,55.75,738.55,54.35,750.34,27.82Z"/><path class="cls-2" d="M703,0s17.35,27.54,0,55.75C703,55.75,684.9,30.79,703,0Z"/><path class="cls-2" d="M655,27.36s29.93-1.5,48,28.39A54.47,54.47,0,0,1,655,27.36Z"/><path class="cls-2" d="M655,82.62s16-27.26,48-26.87C703,55.75,686.89,82.73,655,82.62Z"/></g><g class="cls-1"><path class="cls-2" d="M703,498.61s16.54-28.79,0-55.26C703,443.35,685.14,466.94,703,498.61Z"/><path class="cls-2" d="M750.34,470.11s-15-27.66-47.35-26.76C703,443.35,718.68,472.1,750.34,470.11Z"/><path class="cls-2" d="M750.34,415.42S721.69,413,703,443.35C703,443.35,738.55,441.94,750.34,415.42Z"/><path class="cls-2" d="M703,387.59s17.35,27.55,0,55.76C703,443.35,684.9,418.38,703,387.59Z"/><path class="cls-2" d="M655,415s29.93-1.5,48,28.4A54.47,54.47,0,0,1,655,415Z"/><path class="cls-2" d="M655,470.21s16-27.26,48-26.86C703,443.35,686.89,470.33,655,470.21Z"/></g><text class="cls-4" transform="translate(680.73 162.05)"><tspan class="cls-5">D</tspan><tspan x="23.45" y="0">C</tspan></text><text class="cls-4" transform="translate(680.73 355.85)"><tspan class="cls-5">D</tspan><tspan x="23.45" y="0">C</tspan></text><text class="cls-4" transform="translate(680.73 549.65)"><tspan class="cls-5">D</tspan><tspan x="23.45" y="0">C</tspan></text><g class="cls-1"><path class="cls-2" d="M703.32,886.2s16.55-28.79,0-55.26C703.32,830.94,685.48,854.54,703.32,886.2Z"/><path class="cls-2" d="M750.68,857.71s-15-27.66-47.36-26.77C703.32,830.94,719,859.69,750.68,857.71Z"/><path class="cls-2" d="M750.68,803S722,800.6,703.32,830.94C703.32,830.94,738.88,829.54,750.68,803Z"/><path class="cls-2" d="M703.32,775.19s17.36,27.54,0,55.75C703.32,830.94,685.23,806,703.32,775.19Z"/><path class="cls-2" d="M655.3,802.55s29.93-1.5,48,28.39A54.48,54.48,0,0,1,655.3,802.55Z"/><path class="cls-2" d="M655.3,857.81s16-27.26,48-26.87C703.32,830.94,687.23,857.92,655.3,857.81Z"/></g><g class="cls-1"><path class="cls-2" d="M703,692.41s16.54-28.8,0-55.27C703,637.14,685.14,660.74,703,692.41Z"/><path class="cls-2" d="M750.34,663.91s-15-27.66-47.35-26.77C703,637.14,718.68,665.89,750.34,663.91Z"/><path class="cls-2" d="M750.34,609.21S721.69,606.8,703,637.14C703,637.14,738.55,635.74,750.34,609.21Z"/><path class="cls-2" d="M703,581.39s17.35,27.54,0,55.75C703,637.14,684.9,612.18,703,581.39Z"/><path class="cls-2" d="M655,608.75s29.93-1.5,48,28.39A54.45,54.45,0,0,1,655,608.75Z"/><path class="cls-2" d="M655,664s16-27.26,48-26.87C703,637.14,686.89,664.12,655,664Z"/></g><g class="cls-1"><path class="cls-2" d="M703,1080s16.54-28.79,0-55.26C703,1024.74,685.14,1048.34,703,1080Z"/><path class="cls-2" d="M750.34,1051.5s-15-27.66-47.35-26.76C703,1024.74,718.68,1053.49,750.34,1051.5Z"/><path class="cls-2" d="M750.34,996.81s-28.65-2.41-47.35,27.93C703,1024.74,738.55,1023.34,750.34,996.81Z"/><path class="cls-2" d="M703,969s17.35,27.54,0,55.75C703,1024.74,684.9,999.78,703,969Z"/><path class="cls-2" d="M655,996.34s29.93-1.49,48,28.4A54.47,54.47,0,0,1,655,996.34Z"/><path class="cls-2" d="M655,1051.61s16-27.26,48-26.87C703,1024.74,686.89,1051.72,655,1051.61Z"/></g><text class="cls-4" transform="translate(680.73 743.45)"><tspan class="cls-5">D</tspan><tspan x="23.45" y="0">C</tspan></text><text class="cls-4" transform="translate(680.73 937.24)"><tspan class="cls-5">D</tspan><tspan x="23.45" y="0">C</tspan></text><g class="cls-1"><path class="cls-2" d="M946,304.81s16.54-28.79,0-55.26C946,249.55,928.14,273.15,946,304.81Z"/><path class="cls-2" d="M993.34,276.31s-15-27.65-47.35-26.76C946,249.55,961.68,278.3,993.34,276.31Z"/><path class="cls-2" d="M993.34,221.62s-28.65-2.41-47.35,27.93C946,249.55,981.55,248.15,993.34,221.62Z"/><path class="cls-2" d="M946,193.8s17.35,27.54,0,55.75C946,249.55,927.9,224.59,946,193.8Z"/><path class="cls-2" d="M898,221.16s29.93-1.5,48,28.39A54.47,54.47,0,0,1,898,221.16Z"/><path class="cls-2" d="M898,276.42s16-27.26,48-26.87C946,249.55,929.89,276.53,898,276.42Z"/></g><g class="cls-1"><path class="cls-2" d="M945.65,111s16.55-28.79,0-55.26C945.65,55.75,927.81,79.35,945.65,111Z"/><path class="cls-2" d="M993,82.52s-15-27.66-47.36-26.77C945.65,55.75,961.35,84.5,993,82.52Z"/><path class="cls-2" d="M993,27.82s-28.66-2.41-47.36,27.93C945.65,55.75,981.22,54.35,993,27.82Z"/><path class="cls-2" d="M945.65,0s17.36,27.54,0,55.75C945.65,55.75,927.56,30.79,945.65,0Z"/><path class="cls-2" d="M897.63,27.36s29.93-1.5,48,28.39A54.48,54.48,0,0,1,897.63,27.36Z"/><path class="cls-2" d="M897.63,82.62s16-27.26,48-26.87C945.65,55.75,929.56,82.73,897.63,82.62Z"/></g><g class="cls-1"><path class="cls-2" d="M945.65,498.61s16.55-28.79,0-55.26C945.65,443.35,927.81,466.94,945.65,498.61Z"/><path class="cls-2" d="M993,470.11s-15-27.66-47.36-26.76C945.65,443.35,961.35,472.1,993,470.11Z"/><path class="cls-2" d="M993,415.42s-28.66-2.42-47.36,27.93C945.65,443.35,981.22,441.94,993,415.42Z"/><path class="cls-2" d="M945.65,387.59s17.36,27.55,0,55.76C945.65,443.35,927.56,418.38,945.65,387.59Z"/><path class="cls-2" d="M897.63,415s29.93-1.5,48,28.4A54.48,54.48,0,0,1,897.63,415Z"/><path class="cls-2" d="M897.63,470.21s16-27.26,48-26.86C945.65,443.35,929.56,470.33,897.63,470.21Z"/></g><text class="cls-4" transform="translate(923.39 162.05)"><tspan class="cls-5">D</tspan><tspan x="23.45" y="0">C</tspan></text><text class="cls-4" transform="translate(923.39 355.85)"><tspan class="cls-5">D</tspan><tspan x="23.45" y="0">C</tspan></text><text class="cls-4" transform="translate(923.39 549.65)"><tspan class="cls-5">D</tspan><tspan x="23.45" y="0">C</tspan></text><g class="cls-1"><path class="cls-2" d="M946,886.2s16.54-28.79,0-55.26C946,830.94,928.14,854.54,946,886.2Z"/><path class="cls-2" d="M993.34,857.71s-15-27.66-47.35-26.77C946,830.94,961.68,859.69,993.34,857.71Z"/><path class="cls-2" d="M993.34,803S964.69,800.6,946,830.94C946,830.94,981.55,829.54,993.34,803Z"/><path class="cls-2" d="M946,775.19s17.35,27.54,0,55.75C946,830.94,927.9,806,946,775.19Z"/><path class="cls-2" d="M898,802.55s29.93-1.5,48,28.39A54.47,54.47,0,0,1,898,802.55Z"/><path class="cls-2" d="M898,857.81s16-27.26,48-26.87C946,830.94,929.89,857.92,898,857.81Z"/></g><g class="cls-1"><path class="cls-2" d="M945.65,692.41s16.55-28.8,0-55.27C945.65,637.14,927.81,660.74,945.65,692.41Z"/><path class="cls-2" d="M993,663.91s-15-27.66-47.36-26.77C945.65,637.14,961.35,665.89,993,663.91Z"/><path class="cls-2" d="M993,609.21s-28.66-2.41-47.36,27.93C945.65,637.14,981.22,635.74,993,609.21Z"/><path class="cls-2" d="M945.65,581.39s17.36,27.54,0,55.75C945.65,637.14,927.56,612.18,945.65,581.39Z"/><path class="cls-2" d="M897.63,608.75s29.93-1.5,48,28.39A54.46,54.46,0,0,1,897.63,608.75Z"/><path class="cls-2" d="M897.63,664s16-27.26,48-26.87C945.65,637.14,929.56,664.12,897.63,664Z"/></g><g class="cls-1"><path class="cls-2" d="M945.65,1080s16.55-28.79,0-55.26C945.65,1024.74,927.81,1048.34,945.65,1080Z"/><path class="cls-2" d="M993,1051.5s-15-27.66-47.36-26.76C945.65,1024.74,961.35,1053.49,993,1051.5Z"/><path class="cls-2" d="M993,996.81s-28.66-2.41-47.36,27.93C945.65,1024.74,981.22,1023.34,993,996.81Z"/><path class="cls-2" d="M945.65,969s17.36,27.54,0,55.75C945.65,1024.74,927.56,999.78,945.65,969Z"/><path class="cls-2" d="M897.63,996.34s29.93-1.49,48,28.4A54.48,54.48,0,0,1,897.63,996.34Z"/><path class="cls-2" d="M897.63,1051.61s16-27.26,48-26.87C945.65,1024.74,929.56,1051.72,897.63,1051.61Z"/></g><text class="cls-4" transform="translate(923.39 743.45)"><tspan class="cls-5">D</tspan><tspan x="23.45" y="0">C</tspan></text><text class="cls-4" transform="translate(923.39 937.24)"><tspan class="cls-5">D</tspan><tspan x="23.45" y="0">C</tspan></text><g class="cls-1"><path class="cls-2" d="M1192.66,304.81s16.54-28.79,0-55.26C1192.66,249.55,1174.81,273.15,1192.66,304.81Z"/><path class="cls-2" d="M1240,276.31s-15-27.65-47.35-26.76C1192.66,249.55,1208.35,278.3,1240,276.31Z"/><path class="cls-2" d="M1240,221.62s-28.65-2.41-47.35,27.93C1192.66,249.55,1228.22,248.15,1240,221.62Z"/><path class="cls-2" d="M1192.66,193.8s17.35,27.54,0,55.75C1192.66,249.55,1174.56,224.59,1192.66,193.8Z"/><path class="cls-2" d="M1144.63,221.16s29.93-1.5,48,28.39A54.49,54.49,0,0,1,1144.63,221.16Z"/><path class="cls-2" d="M1144.63,276.42s16-27.26,48-26.87C1192.66,249.55,1176.56,276.53,1144.63,276.42Z"/></g><g class="cls-1"><path class="cls-2" d="M1192.32,111s16.54-28.79,0-55.26C1192.32,55.75,1174.47,79.35,1192.32,111Z"/><path class="cls-2" d="M1239.68,82.52s-15-27.66-47.36-26.77C1192.32,55.75,1208,84.5,1239.68,82.52Z"/><path class="cls-2" d="M1239.68,27.82s-28.66-2.41-47.36,27.93C1192.32,55.75,1227.88,54.35,1239.68,27.82Z"/><path class="cls-2" d="M1192.32,0s17.36,27.54,0,55.75C1192.32,55.75,1174.23,30.79,1192.32,0Z"/><path class="cls-2" d="M1144.3,27.36s29.93-1.5,48,28.39A54.48,54.48,0,0,1,1144.3,27.36Z"/><path class="cls-2" d="M1144.3,82.62s16-27.26,48-26.87C1192.32,55.75,1176.23,82.73,1144.3,82.62Z"/></g><g class="cls-1"><path class="cls-2" d="M1192.32,498.61s16.54-28.79,0-55.26C1192.32,443.35,1174.47,466.94,1192.32,498.61Z"/><path class="cls-2" d="M1239.68,470.11s-15-27.66-47.36-26.76C1192.32,443.35,1208,472.1,1239.68,470.11Z"/><path class="cls-2" d="M1239.68,415.42S1211,413,1192.32,443.35C1192.32,443.35,1227.88,441.94,1239.68,415.42Z"/><path class="cls-2" d="M1192.32,387.59s17.36,27.55,0,55.76C1192.32,443.35,1174.23,418.38,1192.32,387.59Z"/><path class="cls-2" d="M1144.3,415s29.93-1.5,48,28.4A54.48,54.48,0,0,1,1144.3,415Z"/><path class="cls-2" d="M1144.3,470.21s16-27.26,48-26.86C1192.32,443.35,1176.23,470.33,1144.3,470.21Z"/></g><text class="cls-4" transform="translate(1170.06 162.05)"><tspan class="cls-5">D</tspan><tspan x="23.45" y="0">C</tspan></text><text class="cls-4" transform="translate(1170.06 355.85)"><tspan class="cls-5">D</tspan><tspan x="23.45" y="0">C</tspan></text><text class="cls-4" transform="translate(1170.06 549.65)"><tspan class="cls-5">D</tspan><tspan x="23.45" y="0">C</tspan></text><g class="cls-1"><path class="cls-2" d="M1192.66,886.2s16.54-28.79,0-55.26C1192.66,830.94,1174.81,854.54,1192.66,886.2Z"/><path class="cls-2" d="M1240,857.71s-15-27.66-47.35-26.77C1192.66,830.94,1208.35,859.69,1240,857.71Z"/><path class="cls-2" d="M1240,803s-28.65-2.41-47.35,27.93C1192.66,830.94,1228.22,829.54,1240,803Z"/><path class="cls-2" d="M1192.66,775.19s17.35,27.54,0,55.75C1192.66,830.94,1174.56,806,1192.66,775.19Z"/><path class="cls-2" d="M1144.63,802.55s29.93-1.5,48,28.39A54.49,54.49,0,0,1,1144.63,802.55Z"/><path class="cls-2" d="M1144.63,857.81s16-27.26,48-26.87C1192.66,830.94,1176.56,857.92,1144.63,857.81Z"/></g><g class="cls-1"><path class="cls-2" d="M1192.32,692.41s16.54-28.8,0-55.27C1192.32,637.14,1174.47,660.74,1192.32,692.41Z"/><path class="cls-2" d="M1239.68,663.91s-15-27.66-47.36-26.77C1192.32,637.14,1208,665.89,1239.68,663.91Z"/><path class="cls-2" d="M1239.68,609.21s-28.66-2.41-47.36,27.93C1192.32,637.14,1227.88,635.74,1239.68,609.21Z"/><path class="cls-2" d="M1192.32,581.39s17.36,27.54,0,55.75C1192.32,637.14,1174.23,612.18,1192.32,581.39Z"/><path class="cls-2" d="M1144.3,608.75s29.93-1.5,48,28.39A54.46,54.46,0,0,1,1144.3,608.75Z"/><path class="cls-2" d="M1144.3,664s16-27.26,48-26.87C1192.32,637.14,1176.23,664.12,1144.3,664Z"/></g><g class="cls-1"><path class="cls-2" d="M1192.32,1080s16.54-28.79,0-55.26C1192.32,1024.74,1174.47,1048.34,1192.32,1080Z"/><path class="cls-2" d="M1239.68,1051.5s-15-27.66-47.36-26.76C1192.32,1024.74,1208,1053.49,1239.68,1051.5Z"/><path class="cls-2" d="M1239.68,996.81s-28.66-2.41-47.36,27.93C1192.32,1024.74,1227.88,1023.34,1239.68,996.81Z"/><path class="cls-2" d="M1192.32,969s17.36,27.54,0,55.75C1192.32,1024.74,1174.23,999.78,1192.32,969Z"/><path class="cls-2" d="M1144.3,996.34s29.93-1.49,48,28.4A54.48,54.48,0,0,1,1144.3,996.34Z"/><path class="cls-2" d="M1144.3,1051.61s16-27.26,48-26.87C1192.32,1024.74,1176.23,1051.72,1144.3,1051.61Z"/></g><text class="cls-4" transform="translate(1170.06 743.45)"><tspan class="cls-5">D</tspan><tspan x="23.45" y="0">C</tspan></text><text class="cls-4" transform="translate(1170.06 937.24)"><tspan class="cls-5">D</tspan><tspan x="23.45" y="0">C</tspan></text><g class="cls-1"><path class="cls-2" d="M1443.33,304.81s16.54-28.79,0-55.26C1443.33,249.55,1425.48,273.15,1443.33,304.81Z"/><path class="cls-2" d="M1490.68,276.31s-15-27.65-47.35-26.76C1443.33,249.55,1459,278.3,1490.68,276.31Z"/><path class="cls-2" d="M1490.68,221.62s-28.65-2.41-47.35,27.93C1443.33,249.55,1478.89,248.15,1490.68,221.62Z"/><path class="cls-2" d="M1443.33,193.8s17.35,27.54,0,55.75C1443.33,249.55,1425.23,224.59,1443.33,193.8Z"/><path class="cls-2" d="M1395.31,221.16s29.92-1.5,48,28.39A54.47,54.47,0,0,1,1395.31,221.16Z"/><path class="cls-2" d="M1395.31,276.42s16-27.26,48-26.87C1443.33,249.55,1427.23,276.53,1395.31,276.42Z"/></g><g class="cls-1"><path class="cls-2" d="M1443,111s16.55-28.79,0-55.26C1443,55.75,1425.15,79.35,1443,111Z"/><path class="cls-2" d="M1490.35,82.52s-15-27.66-47.36-26.77C1443,55.75,1458.69,84.5,1490.35,82.52Z"/><path class="cls-2" d="M1490.35,27.82s-28.66-2.41-47.36,27.93C1443,55.75,1478.56,54.35,1490.35,27.82Z"/><path class="cls-2" d="M1443,0s17.36,27.54,0,55.75C1443,55.75,1424.9,30.79,1443,0Z"/><path class="cls-2" d="M1395,27.36s29.93-1.5,48,28.39A54.48,54.48,0,0,1,1395,27.36Z"/><path class="cls-2" d="M1395,82.62s16-27.26,48-26.87C1443,55.75,1426.9,82.73,1395,82.62Z"/></g><g class="cls-1"><path class="cls-2" d="M1443,498.61s16.55-28.79,0-55.26C1443,443.35,1425.15,466.94,1443,498.61Z"/><path class="cls-2" d="M1490.35,470.11s-15-27.66-47.36-26.76C1443,443.35,1458.69,472.1,1490.35,470.11Z"/><path class="cls-2" d="M1490.35,415.42S1461.69,413,1443,443.35C1443,443.35,1478.56,441.94,1490.35,415.42Z"/><path class="cls-2" d="M1443,387.59s17.36,27.55,0,55.76C1443,443.35,1424.9,418.38,1443,387.59Z"/><path class="cls-2" d="M1395,415s29.93-1.5,48,28.4A54.48,54.48,0,0,1,1395,415Z"/><path class="cls-2" d="M1395,470.21s16-27.26,48-26.86C1443,443.35,1426.9,470.33,1395,470.21Z"/></g><text class="cls-4" transform="translate(1420.73 162.05)"><tspan class="cls-5">D</tspan><tspan x="23.45" y="0">C</tspan></text><text class="cls-4" transform="translate(1420.73 355.85)"><tspan class="cls-5">D</tspan><tspan x="23.45" y="0">C</tspan></text><text class="cls-4" transform="translate(1420.73 549.65)"><tspan class="cls-5">D</tspan><tspan x="23.45" y="0">C</tspan></text><g class="cls-1"><path class="cls-2" d="M1443.33,886.2s16.54-28.79,0-55.26C1443.33,830.94,1425.48,854.54,1443.33,886.2Z"/><path class="cls-2" d="M1490.68,857.71s-15-27.66-47.35-26.77C1443.33,830.94,1459,859.69,1490.68,857.71Z"/><path class="cls-2" d="M1490.68,803s-28.65-2.41-47.35,27.93C1443.33,830.94,1478.89,829.54,1490.68,803Z"/><path class="cls-2" d="M1443.33,775.19s17.35,27.54,0,55.75C1443.33,830.94,1425.23,806,1443.33,775.19Z"/><path class="cls-2" d="M1395.31,802.55s29.92-1.5,48,28.39A54.47,54.47,0,0,1,1395.31,802.55Z"/><path class="cls-2" d="M1395.31,857.81s16-27.26,48-26.87C1443.33,830.94,1427.23,857.92,1395.31,857.81Z"/></g><g class="cls-1"><path class="cls-2" d="M1443,692.41s16.55-28.8,0-55.27C1443,637.14,1425.15,660.74,1443,692.41Z"/><path class="cls-2" d="M1490.35,663.91s-15-27.66-47.36-26.77C1443,637.14,1458.69,665.89,1490.35,663.91Z"/><path class="cls-2" d="M1490.35,609.21s-28.66-2.41-47.36,27.93C1443,637.14,1478.56,635.74,1490.35,609.21Z"/><path class="cls-2" d="M1443,581.39s17.36,27.54,0,55.75C1443,637.14,1424.9,612.18,1443,581.39Z"/><path class="cls-2" d="M1395,608.75s29.93-1.5,48,28.39A54.46,54.46,0,0,1,1395,608.75Z"/><path class="cls-2" d="M1395,664s16-27.26,48-26.87C1443,637.14,1426.9,664.12,1395,664Z"/></g><g class="cls-1"><path class="cls-2" d="M1443,1080s16.55-28.79,0-55.26C1443,1024.74,1425.15,1048.34,1443,1080Z"/><path class="cls-2" d="M1490.35,1051.5s-15-27.66-47.36-26.76C1443,1024.74,1458.69,1053.49,1490.35,1051.5Z"/><path class="cls-2" d="M1490.35,996.81s-28.66-2.41-47.36,27.93C1443,1024.74,1478.56,1023.34,1490.35,996.81Z"/><path class="cls-2" d="M1443,969s17.36,27.54,0,55.75C1443,1024.74,1424.9,999.78,1443,969Z"/><path class="cls-2" d="M1395,996.34s29.93-1.49,48,28.4A54.48,54.48,0,0,1,1395,996.34Z"/><path class="cls-2" d="M1395,1051.61s16-27.26,48-26.87C1443,1024.74,1426.9,1051.72,1395,1051.61Z"/></g><text class="cls-4" transform="translate(1420.73 743.45)"><tspan class="cls-5">D</tspan><tspan x="23.45" y="0">C</tspan></text><text class="cls-4" transform="translate(1420.73 937.24)"><tspan class="cls-5">D</tspan><tspan x="23.45" y="0">C</tspan></text><g class="cls-1"><path class="cls-2" d="M1698,304.81s16.54-28.79,0-55.26C1698,249.55,1680.15,273.15,1698,304.81Z"/><path class="cls-2" d="M1745.36,276.31s-15-27.65-47.36-26.76C1698,249.55,1713.7,278.3,1745.36,276.31Z"/><path class="cls-2" d="M1745.36,221.62s-28.66-2.41-47.36,27.93C1698,249.55,1733.56,248.15,1745.36,221.62Z"/><path class="cls-2" d="M1698,193.8s17.36,27.54,0,55.75C1698,249.55,1679.91,224.59,1698,193.8Z"/><path class="cls-2" d="M1650,221.16s29.93-1.5,48,28.39A54.48,54.48,0,0,1,1650,221.16Z"/><path class="cls-2" d="M1650,276.42s16-27.26,48-26.87C1698,249.55,1681.9,276.53,1650,276.42Z"/></g><g class="cls-1"><path class="cls-2" d="M1697.67,111s16.54-28.79,0-55.26C1697.67,55.75,1679.82,79.35,1697.67,111Z"/><path class="cls-2" d="M1745,82.52s-15-27.66-47.35-26.77C1697.67,55.75,1713.36,84.5,1745,82.52Z"/><path class="cls-2" d="M1745,27.82s-28.65-2.41-47.35,27.93C1697.67,55.75,1733.23,54.35,1745,27.82Z"/><path class="cls-2" d="M1697.67,0s17.35,27.54,0,55.75C1697.67,55.75,1679.58,30.79,1697.67,0Z"/><path class="cls-2" d="M1649.65,27.36s29.93-1.5,48,28.39A54.47,54.47,0,0,1,1649.65,27.36Z"/><path class="cls-2" d="M1649.65,82.62s16-27.26,48-26.87C1697.67,55.75,1681.57,82.73,1649.65,82.62Z"/></g><g class="cls-1"><path class="cls-2" d="M1697.67,498.61s16.54-28.79,0-55.26C1697.67,443.35,1679.82,466.94,1697.67,498.61Z"/><path class="cls-2" d="M1745,470.11s-15-27.66-47.35-26.76C1697.67,443.35,1713.36,472.1,1745,470.11Z"/><path class="cls-2" d="M1745,415.42s-28.65-2.42-47.35,27.93C1697.67,443.35,1733.23,441.94,1745,415.42Z"/><path class="cls-2" d="M1697.67,387.59s17.35,27.55,0,55.76C1697.67,443.35,1679.58,418.38,1697.67,387.59Z"/><path class="cls-2" d="M1649.65,415s29.93-1.5,48,28.4A54.47,54.47,0,0,1,1649.65,415Z"/><path class="cls-2" d="M1649.65,470.21s16-27.26,48-26.86C1697.67,443.35,1681.57,470.33,1649.65,470.21Z"/></g><text class="cls-4" transform="translate(1675.4 162.05)"><tspan class="cls-5">D</tspan><tspan x="23.45" y="0">C</tspan></text><text class="cls-4" transform="translate(1675.4 355.85)"><tspan class="cls-5">D</tspan><tspan x="23.45" y="0">C</tspan></text><text class="cls-4" transform="translate(1675.4 549.65)"><tspan class="cls-5">D</tspan><tspan x="23.45" y="0">C</tspan></text><g class="cls-1"><path class="cls-2" d="M1698,886.2s16.54-28.79,0-55.26C1698,830.94,1680.15,854.54,1698,886.2Z"/><path class="cls-2" d="M1745.36,857.71s-15-27.66-47.36-26.77C1698,830.94,1713.7,859.69,1745.36,857.71Z"/><path class="cls-2" d="M1745.36,803s-28.66-2.41-47.36,27.93C1698,830.94,1733.56,829.54,1745.36,803Z"/><path class="cls-2" d="M1698,775.19s17.36,27.54,0,55.75C1698,830.94,1679.91,806,1698,775.19Z"/><path class="cls-2" d="M1650,802.55s29.93-1.5,48,28.39A54.48,54.48,0,0,1,1650,802.55Z"/><path class="cls-2" d="M1650,857.81s16-27.26,48-26.87C1698,830.94,1681.9,857.92,1650,857.81Z"/></g><g class="cls-1"><path class="cls-2" d="M1697.67,692.41s16.54-28.8,0-55.27C1697.67,637.14,1679.82,660.74,1697.67,692.41Z"/><path class="cls-2" d="M1745,663.91s-15-27.66-47.35-26.77C1697.67,637.14,1713.36,665.89,1745,663.91Z"/><path class="cls-2" d="M1745,609.21s-28.65-2.41-47.35,27.93C1697.67,637.14,1733.23,635.74,1745,609.21Z"/><path class="cls-2" d="M1697.67,581.39s17.35,27.54,0,55.75C1697.67,637.14,1679.58,612.18,1697.67,581.39Z"/><path class="cls-2" d="M1649.65,608.75s29.93-1.5,48,28.39A54.45,54.45,0,0,1,1649.65,608.75Z"/><path class="cls-2" d="M1649.65,664s16-27.26,48-26.87C1697.67,637.14,1681.57,664.12,1649.65,664Z"/></g><g class="cls-1"><path class="cls-2" d="M1697.67,1080s16.54-28.79,0-55.26C1697.67,1024.74,1679.82,1048.34,1697.67,1080Z"/><path class="cls-2" d="M1745,1051.5s-15-27.66-47.35-26.76C1697.67,1024.74,1713.36,1053.49,1745,1051.5Z"/><path class="cls-2" d="M1745,996.81s-28.65-2.41-47.35,27.93C1697.67,1024.74,1733.23,1023.34,1745,996.81Z"/><path class="cls-2" d="M1697.67,969s17.35,27.54,0,55.75C1697.67,1024.74,1679.58,999.78,1697.67,969Z"/><path class="cls-2" d="M1649.65,996.34s29.93-1.49,48,28.4A54.47,54.47,0,0,1,1649.65,996.34Z"/><path class="cls-2" d="M1649.65,1051.61s16-27.26,48-26.87C1697.67,1024.74,1681.57,1051.72,1649.65,1051.61Z"/></g><text class="cls-4" transform="translate(1675.4 743.45)"><tspan class="cls-5">D</tspan><tspan x="23.45" y="0">C</tspan></text><text class="cls-4" transform="translate(1675.4 937.24)"><tspan class="cls-5">D</tspan><tspan x="23.45" y="0">C</tspan></text><text class="cls-4" transform="translate(559.9 1034.94)"><tspan class="cls-5">D</tspan><tspan x="23.45" y="0">C</tspan></text><text class="cls-4" transform="translate(559.73 646.77)"><tspan class="cls-5">D</tspan><tspan x="23.45" y="0">C</tspan></text><g class="cls-1"><path class="cls-3" d="M344,596.57s16.54-28.79,0-55.26C344,541.31,326.15,564.91,344,596.57Z"/><path class="cls-3" d="M391.35,568.08s-15-27.66-47.35-26.77C344,541.31,359.69,570.06,391.35,568.08Z"/><path class="cls-3" d="M391.35,513.38S362.7,511,344,541.31C344,541.31,379.56,539.91,391.35,513.38Z"/><path class="cls-3" d="M344,485.56s17.35,27.54,0,55.75C344,541.31,325.9,516.35,344,485.56Z"/><path class="cls-3" d="M296,512.92s29.92-1.5,48,28.39A54.47,54.47,0,0,1,296,512.92Z"/><path class="cls-3" d="M296,568.18s16-27.26,48-26.87C344,541.31,327.9,568.29,296,568.18Z"/></g><g class="cls-1"><path class="cls-3" d="M343.33,207.91s16.54-28.79,0-55.26C343.33,152.65,325.48,176.25,343.33,207.91Z"/><path class="cls-3" d="M390.68,179.41s-15-27.65-47.35-26.76C343.33,152.65,359,181.4,390.68,179.41Z"/><path class="cls-3" d="M390.68,124.72s-28.65-2.41-47.35,27.93C343.33,152.65,378.89,151.25,390.68,124.72Z"/><path class="cls-3" d="M343.33,96.9s17.35,27.54,0,55.75C343.33,152.65,325.24,127.69,343.33,96.9Z"/><path class="cls-3" d="M295.31,124.26s29.93-1.5,48,28.39A54.47,54.47,0,0,1,295.31,124.26Z"/><path class="cls-3" d="M295.31,179.52s16-27.26,48-26.87C343.33,152.65,327.23,179.63,295.31,179.52Z"/></g><g class="cls-1"><path class="cls-3" d="M343.66,402.24s16.55-28.79,0-55.26C343.66,347,325.82,370.58,343.66,402.24Z"/><path class="cls-3" d="M391,373.75S376,346.09,343.66,347C343.66,347,359.36,375.73,391,373.75Z"/><path class="cls-3" d="M391,319.05s-28.66-2.41-47.36,27.93C343.66,347,379.22,345.58,391,319.05Z"/><path class="cls-3" d="M343.66,291.23s17.36,27.54,0,55.75C343.66,347,325.57,322,343.66,291.23Z"/><path class="cls-3" d="M295.64,318.59s29.93-1.5,48,28.39A54.48,54.48,0,0,1,295.64,318.59Z"/><path class="cls-3" d="M295.64,373.85s16-27.26,48-26.87C343.66,347,327.57,374,295.64,373.85Z"/></g><text class="cls-4" transform="translate(320.73 259.22)"><tspan class="cls-5">D</tspan><tspan x="23.45" y="0">C</tspan></text><text class="cls-4" transform="translate(320.57 453.55)"><tspan class="cls-5">D</tspan><tspan x="23.45" y="0">C</tspan></text><text class="cls-4" transform="translate(320.4 65.38)"><tspan class="cls-5">D</tspan><tspan x="23.45" y="0">C</tspan></text><g class="cls-1"><path class="cls-3" d="M343.33,789.3s16.54-28.79,0-55.26C343.33,734,325.48,757.64,343.33,789.3Z"/><path class="cls-3" d="M390.68,760.81s-15-27.66-47.35-26.77C343.33,734,359,762.79,390.68,760.81Z"/><path class="cls-3" d="M390.68,706.11S362,703.7,343.33,734C343.33,734,378.89,732.64,390.68,706.11Z"/><path class="cls-3" d="M343.33,678.29s17.35,27.54,0,55.75C343.33,734,325.24,709.08,343.33,678.29Z"/><path class="cls-3" d="M295.31,705.65s29.93-1.5,48,28.39A54.47,54.47,0,0,1,295.31,705.65Z"/><path class="cls-3" d="M295.31,760.91s16-27.26,48-26.87C343.33,734,327.23,761,295.31,760.91Z"/></g><g class="cls-1"><path class="cls-3" d="M343.66,983.64s16.55-28.8,0-55.27C343.66,928.37,325.82,952,343.66,983.64Z"/><path class="cls-3" d="M391,955.14s-15-27.66-47.36-26.77C343.66,928.37,359.36,957.12,391,955.14Z"/><path class="cls-3" d="M391,900.44s-28.66-2.41-47.36,27.93C343.66,928.37,379.22,927,391,900.44Z"/><path class="cls-3" d="M343.66,872.62s17.36,27.54,0,55.75C343.66,928.37,325.57,903.41,343.66,872.62Z"/><path class="cls-3" d="M295.64,900s29.93-1.5,48,28.39A54.46,54.46,0,0,1,295.64,900Z"/><path class="cls-3" d="M295.64,955.24s16-27.26,48-26.87C343.66,928.37,327.57,955.35,295.64,955.24Z"/></g><text class="cls-4" transform="translate(320.73 840.61)"><tspan class="cls-5">D</tspan><tspan x="23.45" y="0">C</tspan></text><text class="cls-4" transform="translate(320.57 1034.94)"><tspan class="cls-5">D</tspan><tspan x="23.45" y="0">C</tspan></text><text class="cls-4" transform="translate(320.4 646.77)"><tspan class="cls-5">D</tspan><tspan x="23.45" y="0">C</tspan></text><g class="cls-1"><path class="cls-3" d="M824.32,596.57s16.54-28.79,0-55.26C824.32,541.31,806.47,564.91,824.32,596.57Z"/><path class="cls-3" d="M871.68,568.08s-15-27.66-47.36-26.77C824.32,541.31,840,570.06,871.68,568.08Z"/><path class="cls-3" d="M871.68,513.38S843,511,824.32,541.31C824.32,541.31,859.88,539.91,871.68,513.38Z"/><path class="cls-3" d="M824.32,485.56s17.36,27.54,0,55.75C824.32,541.31,806.23,516.35,824.32,485.56Z"/><path class="cls-3" d="M776.3,512.92s29.93-1.5,48,28.39A54.48,54.48,0,0,1,776.3,512.92Z"/><path class="cls-3" d="M776.3,568.18s16-27.26,48-26.87C824.32,541.31,808.23,568.29,776.3,568.18Z"/></g><g class="cls-1"><path class="cls-3" d="M823.66,207.91s16.54-28.79,0-55.26C823.66,152.65,805.81,176.25,823.66,207.91Z"/><path class="cls-3" d="M871,179.41s-15-27.65-47.35-26.76C823.66,152.65,839.35,181.4,871,179.41Z"/><path class="cls-3" d="M871,124.72s-28.65-2.41-47.35,27.93C823.66,152.65,859.22,151.25,871,124.72Z"/><path class="cls-3" d="M823.66,96.9s17.35,27.54,0,55.75C823.66,152.65,805.56,127.69,823.66,96.9Z"/><path class="cls-3" d="M775.63,124.26s29.93-1.5,48,28.39A54.49,54.49,0,0,1,775.63,124.26Z"/><path class="cls-3" d="M775.63,179.52s16-27.26,48-26.87C823.66,152.65,807.56,179.63,775.63,179.52Z"/></g><g class="cls-1"><path class="cls-3" d="M824,402.24s16.54-28.79,0-55.26C824,347,806.14,370.58,824,402.24Z"/><path class="cls-3" d="M871.34,373.75S856.37,346.09,824,347C824,347,839.68,375.73,871.34,373.75Z"/><path class="cls-3" d="M871.34,319.05S842.69,316.64,824,347C824,347,859.55,345.58,871.34,319.05Z"/><path class="cls-3" d="M824,291.23s17.35,27.54,0,55.75C824,347,805.9,322,824,291.23Z"/><path class="cls-3" d="M776,318.59s29.93-1.5,48,28.39A54.47,54.47,0,0,1,776,318.59Z"/><path class="cls-3" d="M776,373.85s16-27.26,48-26.87C824,347,807.89,374,776,373.85Z"/></g><text class="cls-4" transform="translate(801.06 259.22)"><tspan class="cls-5">D</tspan><tspan x="23.45" y="0">C</tspan></text><text class="cls-4" transform="translate(800.89 453.55)"><tspan class="cls-5">D</tspan><tspan x="23.45" y="0">C</tspan></text><text class="cls-4" transform="translate(800.72 65.38)"><tspan class="cls-5">D</tspan><tspan x="23.45" y="0">C</tspan></text><g class="cls-1"><path class="cls-3" d="M823.66,789.3s16.54-28.79,0-55.26C823.66,734,805.81,757.64,823.66,789.3Z"/><path class="cls-3" d="M871,760.81S856,733.15,823.66,734C823.66,734,839.35,762.79,871,760.81Z"/><path class="cls-3" d="M871,706.11S842.36,703.7,823.66,734C823.66,734,859.22,732.64,871,706.11Z"/><path class="cls-3" d="M823.66,678.29s17.35,27.54,0,55.75C823.66,734,805.56,709.08,823.66,678.29Z"/><path class="cls-3" d="M775.63,705.65s29.93-1.5,48,28.39A54.49,54.49,0,0,1,775.63,705.65Z"/><path class="cls-3" d="M775.63,760.91s16-27.26,48-26.87C823.66,734,807.56,761,775.63,760.91Z"/></g><g class="cls-1"><path class="cls-3" d="M824,983.64s16.54-28.8,0-55.27C824,928.37,806.14,952,824,983.64Z"/><path class="cls-3" d="M871.34,955.14s-15-27.66-47.35-26.77C824,928.37,839.68,957.12,871.34,955.14Z"/><path class="cls-3" d="M871.34,900.44S842.69,898,824,928.37C824,928.37,859.55,927,871.34,900.44Z"/><path class="cls-3" d="M824,872.62s17.35,27.54,0,55.75C824,928.37,805.9,903.41,824,872.62Z"/><path class="cls-3" d="M776,900s29.93-1.5,48,28.39A54.45,54.45,0,0,1,776,900Z"/><path class="cls-3" d="M776,955.24s16-27.26,48-26.87C824,928.37,807.89,955.35,776,955.24Z"/></g><text class="cls-4" transform="translate(801.06 840.61)"><tspan class="cls-5">D</tspan><tspan x="23.45" y="0">C</tspan></text><text class="cls-4" transform="translate(800.89 1034.94)"><tspan class="cls-5">D</tspan><tspan x="23.45" y="0">C</tspan></text><text class="cls-4" transform="translate(800.72 646.77)"><tspan class="cls-5">D</tspan><tspan x="23.45" y="0">C</tspan></text><g class="cls-1"><path class="cls-3" d="M1069,596.57s16.54-28.79,0-55.26C1069,541.31,1051.14,564.91,1069,596.57Z"/><path class="cls-3" d="M1116.34,568.08s-15-27.66-47.35-26.77C1069,541.31,1084.68,570.06,1116.34,568.08Z"/><path class="cls-3" d="M1116.34,513.38S1087.69,511,1069,541.31C1069,541.31,1104.55,539.91,1116.34,513.38Z"/><path class="cls-3" d="M1069,485.56s17.35,27.54,0,55.75C1069,541.31,1050.9,516.35,1069,485.56Z"/><path class="cls-3" d="M1021,512.92s29.93-1.5,48,28.39A54.47,54.47,0,0,1,1021,512.92Z"/><path class="cls-3" d="M1021,568.18s16-27.26,48-26.87C1069,541.31,1052.89,568.29,1021,568.18Z"/></g><g class="cls-1"><path class="cls-3" d="M1068.32,207.91s16.54-28.79,0-55.26C1068.32,152.65,1050.47,176.25,1068.32,207.91Z"/><path class="cls-3" d="M1115.68,179.41s-15-27.65-47.36-26.76C1068.32,152.65,1084,181.4,1115.68,179.41Z"/><path class="cls-3" d="M1115.68,124.72s-28.66-2.41-47.36,27.93C1068.32,152.65,1103.88,151.25,1115.68,124.72Z"/><path class="cls-3" d="M1068.32,96.9s17.36,27.54,0,55.75C1068.32,152.65,1050.23,127.69,1068.32,96.9Z"/><path class="cls-3" d="M1020.3,124.26s29.93-1.5,48,28.39A54.48,54.48,0,0,1,1020.3,124.26Z"/><path class="cls-3" d="M1020.3,179.52s16-27.26,48-26.87C1068.32,152.65,1052.22,179.63,1020.3,179.52Z"/></g><g class="cls-1"><path class="cls-3" d="M1068.66,402.24s16.54-28.79,0-55.26C1068.66,347,1050.81,370.58,1068.66,402.24Z"/><path class="cls-3" d="M1116,373.75s-15-27.66-47.35-26.77C1068.66,347,1084.35,375.73,1116,373.75Z"/><path class="cls-3" d="M1116,319.05s-28.65-2.41-47.35,27.93C1068.66,347,1104.22,345.58,1116,319.05Z"/><path class="cls-3" d="M1068.66,291.23s17.35,27.54,0,55.75C1068.66,347,1050.56,322,1068.66,291.23Z"/><path class="cls-3" d="M1020.63,318.59s29.93-1.5,48,28.39A54.49,54.49,0,0,1,1020.63,318.59Z"/><path class="cls-3" d="M1020.63,373.85s16-27.26,48-26.87C1068.66,347,1052.56,374,1020.63,373.85Z"/></g><text class="cls-4" transform="translate(1045.72 259.22)"><tspan class="cls-5">D</tspan><tspan x="23.45" y="0">C</tspan></text><text class="cls-4" transform="translate(1045.56 453.55)"><tspan class="cls-5">D</tspan><tspan x="23.45" y="0">C</tspan></text><text class="cls-4" transform="translate(1045.39 65.38)"><tspan class="cls-5">D</tspan><tspan x="23.45" y="0">C</tspan></text><g class="cls-1"><path class="cls-3" d="M1068.32,789.3s16.54-28.79,0-55.26C1068.32,734,1050.47,757.64,1068.32,789.3Z"/><path class="cls-3" d="M1115.68,760.81s-15-27.66-47.36-26.77C1068.32,734,1084,762.79,1115.68,760.81Z"/><path class="cls-3" d="M1115.68,706.11S1087,703.7,1068.32,734C1068.32,734,1103.88,732.64,1115.68,706.11Z"/><path class="cls-3" d="M1068.32,678.29s17.36,27.54,0,55.75C1068.32,734,1050.23,709.08,1068.32,678.29Z"/><path class="cls-3" d="M1020.3,705.65s29.93-1.5,48,28.39A54.48,54.48,0,0,1,1020.3,705.65Z"/><path class="cls-3" d="M1020.3,760.91s16-27.26,48-26.87C1068.32,734,1052.22,761,1020.3,760.91Z"/></g><g class="cls-1"><path class="cls-3" d="M1068.66,983.64s16.54-28.8,0-55.27C1068.66,928.37,1050.81,952,1068.66,983.64Z"/><path class="cls-3" d="M1116,955.14s-15-27.66-47.35-26.77C1068.66,928.37,1084.35,957.12,1116,955.14Z"/><path class="cls-3" d="M1116,900.44s-28.65-2.41-47.35,27.93C1068.66,928.37,1104.22,927,1116,900.44Z"/><path class="cls-3" d="M1068.66,872.62s17.35,27.54,0,55.75C1068.66,928.37,1050.56,903.41,1068.66,872.62Z"/><path class="cls-3" d="M1020.63,900s29.93-1.5,48,28.39A54.47,54.47,0,0,1,1020.63,900Z"/><path class="cls-3" d="M1020.63,955.24s16-27.26,48-26.87C1068.66,928.37,1052.56,955.35,1020.63,955.24Z"/></g><text class="cls-4" transform="translate(1045.72 840.61)"><tspan class="cls-5">D</tspan><tspan x="23.45" y="0">C</tspan></text><text class="cls-4" transform="translate(1045.56 1034.94)"><tspan class="cls-5">D</tspan><tspan x="23.45" y="0">C</tspan></text><text class="cls-4" transform="translate(1045.39 646.77)"><tspan class="cls-5">D</tspan><tspan x="23.45" y="0">C</tspan></text><g class="cls-1"><path class="cls-3" d="M1317.66,596.57s16.54-28.79,0-55.26C1317.66,541.31,1299.81,564.91,1317.66,596.57Z"/><path class="cls-3" d="M1365,568.08s-15-27.66-47.35-26.77C1317.66,541.31,1333.35,570.06,1365,568.08Z"/><path class="cls-3" d="M1365,513.38s-28.65-2.41-47.35,27.93C1317.66,541.31,1353.22,539.91,1365,513.38Z"/><path class="cls-3" d="M1317.66,485.56s17.35,27.54,0,55.75C1317.66,541.31,1299.57,516.35,1317.66,485.56Z"/><path class="cls-3" d="M1269.64,512.92s29.93-1.5,48,28.39A54.47,54.47,0,0,1,1269.64,512.92Z"/><path class="cls-3" d="M1269.64,568.18s16-27.26,48-26.87C1317.66,541.31,1301.56,568.29,1269.64,568.18Z"/></g><g class="cls-1"><path class="cls-3" d="M1317,207.91s16.54-28.79,0-55.26C1317,152.65,1299.14,176.25,1317,207.91Z"/><path class="cls-3" d="M1364.35,179.41s-15-27.65-47.36-26.76C1317,152.65,1332.69,181.4,1364.35,179.41Z"/><path class="cls-3" d="M1364.35,124.72s-28.66-2.41-47.36,27.93C1317,152.65,1352.55,151.25,1364.35,124.72Z"/><path class="cls-3" d="M1317,96.9s17.36,27.54,0,55.75C1317,152.65,1298.9,127.69,1317,96.9Z"/><path class="cls-3" d="M1269,124.26s29.93-1.5,48,28.39A54.47,54.47,0,0,1,1269,124.26Z"/><path class="cls-3" d="M1269,179.52s16-27.26,48-26.87C1317,152.65,1300.89,179.63,1269,179.52Z"/></g><g class="cls-1"><path class="cls-3" d="M1317.33,402.24s16.54-28.79,0-55.26C1317.33,347,1299.48,370.58,1317.33,402.24Z"/><path class="cls-3" d="M1364.68,373.75s-15-27.66-47.35-26.77C1317.33,347,1333,375.73,1364.68,373.75Z"/><path class="cls-3" d="M1364.68,319.05S1336,316.64,1317.33,347C1317.33,347,1352.89,345.58,1364.68,319.05Z"/><path class="cls-3" d="M1317.33,291.23s17.35,27.54,0,55.75C1317.33,347,1299.23,322,1317.33,291.23Z"/><path class="cls-3" d="M1269.3,318.59s29.93-1.5,48,28.39A54.49,54.49,0,0,1,1269.3,318.59Z"/><path class="cls-3" d="M1269.3,373.85s16-27.26,48-26.87C1317.33,347,1301.23,374,1269.3,373.85Z"/></g><text class="cls-4" transform="translate(1294.39 259.22)"><tspan class="cls-5">D</tspan><tspan x="23.45" y="0">C</tspan></text><text class="cls-4" transform="translate(1294.23 453.55)"><tspan class="cls-5">D</tspan><tspan x="23.45" y="0">C</tspan></text><text class="cls-4" transform="translate(1294.06 65.38)"><tspan class="cls-5">D</tspan><tspan x="23.45" y="0">C</tspan></text><g class="cls-1"><path class="cls-3" d="M1317,789.3s16.54-28.79,0-55.26C1317,734,1299.14,757.64,1317,789.3Z"/><path class="cls-3" d="M1364.35,760.81s-15-27.66-47.36-26.77C1317,734,1332.69,762.79,1364.35,760.81Z"/><path class="cls-3" d="M1364.35,706.11S1335.69,703.7,1317,734C1317,734,1352.55,732.64,1364.35,706.11Z"/><path class="cls-3" d="M1317,678.29s17.36,27.54,0,55.75C1317,734,1298.9,709.08,1317,678.29Z"/><path class="cls-3" d="M1269,705.65s29.93-1.5,48,28.39A54.47,54.47,0,0,1,1269,705.65Z"/><path class="cls-3" d="M1269,760.91s16-27.26,48-26.87C1317,734,1300.89,761,1269,760.91Z"/></g><g class="cls-1"><path class="cls-3" d="M1317.33,983.64s16.54-28.8,0-55.27C1317.33,928.37,1299.48,952,1317.33,983.64Z"/><path class="cls-3" d="M1364.68,955.14s-15-27.66-47.35-26.77C1317.33,928.37,1333,957.12,1364.68,955.14Z"/><path class="cls-3" d="M1364.68,900.44S1336,898,1317.33,928.37C1317.33,928.37,1352.89,927,1364.68,900.44Z"/><path class="cls-3" d="M1317.33,872.62s17.35,27.54,0,55.75C1317.33,928.37,1299.23,903.41,1317.33,872.62Z"/><path class="cls-3" d="M1269.3,900s29.93-1.5,48,28.39A54.47,54.47,0,0,1,1269.3,900Z"/><path class="cls-3" d="M1269.3,955.24s16-27.26,48-26.87C1317.33,928.37,1301.23,955.35,1269.3,955.24Z"/></g><text class="cls-4" transform="translate(1294.39 840.61)"><tspan class="cls-5">D</tspan><tspan x="23.45" y="0">C</tspan></text><text class="cls-4" transform="translate(1294.23 1034.94)"><tspan class="cls-5">D</tspan><tspan x="23.45" y="0">C</tspan></text><text class="cls-4" transform="translate(1294.06 646.77)"><tspan class="cls-5">D</tspan><tspan x="23.45" y="0">C</tspan></text><g class="cls-1"><path class="cls-3" d="M1570.33,596.57s16.54-28.79,0-55.26C1570.33,541.31,1552.48,564.91,1570.33,596.57Z"/><path class="cls-3" d="M1617.69,568.08s-15-27.66-47.36-26.77C1570.33,541.31,1586,570.06,1617.69,568.08Z"/><path class="cls-3" d="M1617.69,513.38S1589,511,1570.33,541.31C1570.33,541.31,1605.89,539.91,1617.69,513.38Z"/><path class="cls-3" d="M1570.33,485.56s17.36,27.54,0,55.75C1570.33,541.31,1552.24,516.35,1570.33,485.56Z"/><path class="cls-3" d="M1522.31,512.92s29.93-1.5,48,28.39A54.48,54.48,0,0,1,1522.31,512.92Z"/><path class="cls-3" d="M1522.31,568.18s16-27.26,48-26.87C1570.33,541.31,1554.23,568.29,1522.31,568.18Z"/></g><g class="cls-1"><path class="cls-3" d="M1569.66,207.91s16.55-28.79,0-55.26C1569.66,152.65,1551.82,176.25,1569.66,207.91Z"/><path class="cls-3" d="M1617,179.41s-15-27.65-47.36-26.76C1569.66,152.65,1585.36,181.4,1617,179.41Z"/><path class="cls-3" d="M1617,124.72s-28.66-2.41-47.36,27.93C1569.66,152.65,1605.23,151.25,1617,124.72Z"/><path class="cls-3" d="M1569.66,96.9s17.36,27.54,0,55.75C1569.66,152.65,1551.57,127.69,1569.66,96.9Z"/><path class="cls-3" d="M1521.64,124.26s29.93-1.5,48,28.39A54.48,54.48,0,0,1,1521.64,124.26Z"/><path class="cls-3" d="M1521.64,179.52s16-27.26,48-26.87C1569.66,152.65,1553.57,179.63,1521.64,179.52Z"/></g><g class="cls-1"><path class="cls-3" d="M1570,402.24s16.54-28.79,0-55.26C1570,347,1552.15,370.58,1570,402.24Z"/><path class="cls-3" d="M1617.35,373.75s-15-27.66-47.35-26.77C1570,347,1585.69,375.73,1617.35,373.75Z"/><path class="cls-3" d="M1617.35,319.05S1588.7,316.64,1570,347C1570,347,1605.56,345.58,1617.35,319.05Z"/><path class="cls-3" d="M1570,291.23s17.35,27.54,0,55.75C1570,347,1551.9,322,1570,291.23Z"/><path class="cls-3" d="M1522,318.59s29.92-1.5,48,28.39A54.47,54.47,0,0,1,1522,318.59Z"/><path class="cls-3" d="M1522,373.85s16-27.26,48-26.87C1570,347,1553.9,374,1522,373.85Z"/></g><text class="cls-4" transform="translate(1547.07 259.22)"><tspan class="cls-5">D</tspan><tspan x="23.45" y="0">C</tspan></text><text class="cls-4" transform="translate(1546.9 453.55)"><tspan class="cls-5">D</tspan><tspan x="23.45" y="0">C</tspan></text><text class="cls-4" transform="translate(1546.73 65.38)"><tspan class="cls-5">D</tspan><tspan x="23.45" y="0">C</tspan></text><g class="cls-1"><path class="cls-3" d="M1569.66,789.3s16.55-28.79,0-55.26C1569.66,734,1551.82,757.64,1569.66,789.3Z"/><path class="cls-3" d="M1617,760.81s-15-27.66-47.36-26.77C1569.66,734,1585.36,762.79,1617,760.81Z"/><path class="cls-3" d="M1617,706.11s-28.66-2.41-47.36,27.93C1569.66,734,1605.23,732.64,1617,706.11Z"/><path class="cls-3" d="M1569.66,678.29s17.36,27.54,0,55.75C1569.66,734,1551.57,709.08,1569.66,678.29Z"/><path class="cls-3" d="M1521.64,705.65s29.93-1.5,48,28.39A54.48,54.48,0,0,1,1521.64,705.65Z"/><path class="cls-3" d="M1521.64,760.91s16-27.26,48-26.87C1569.66,734,1553.57,761,1521.64,760.91Z"/></g><g class="cls-1"><path class="cls-3" d="M1570,983.64s16.54-28.8,0-55.27C1570,928.37,1552.15,952,1570,983.64Z"/><path class="cls-3" d="M1617.35,955.14s-15-27.66-47.35-26.77C1570,928.37,1585.69,957.12,1617.35,955.14Z"/><path class="cls-3" d="M1617.35,900.44S1588.7,898,1570,928.37C1570,928.37,1605.56,927,1617.35,900.44Z"/><path class="cls-3" d="M1570,872.62s17.35,27.54,0,55.75C1570,928.37,1551.9,903.41,1570,872.62Z"/><path class="cls-3" d="M1522,900s29.92-1.5,48,28.39A54.45,54.45,0,0,1,1522,900Z"/><path class="cls-3" d="M1522,955.24s16-27.26,48-26.87C1570,928.37,1553.9,955.35,1522,955.24Z"/></g><text class="cls-4" transform="translate(1547.07 840.61)"><tspan class="cls-5">D</tspan><tspan x="23.45" y="0">C</tspan></text><text class="cls-4" transform="translate(1546.9 1034.94)"><tspan class="cls-5">D</tspan><tspan x="23.45" y="0">C</tspan></text><text class="cls-4" transform="translate(1546.73 646.77)"><tspan class="cls-5">D</tspan><tspan x="23.45" y="0">C</tspan></text><text class="cls-6" transform="translate(872.46 349.25)">The</text><text class="cls-6" transform="translate(849 774.35)">Cl<tspan class="cls-7" x="110.04" y="0">u</tspan><tspan x="168.12" y="0">b</tspan></text><text class="cls-8" transform="translate(528.41 581.61)">D O R S I A</text></svg>