<svg id="Layer_1" data-name="Layer 1" xmlns="http://www.w3.org/2000/svg" viewBox="0 0 1242 2208"><defs><style>.cls-1,.cls-4{opacity:0.05;}.cls-2{fill:none;stroke:#231f20;stroke-miterlimit:10;stroke-width:3.11px;}.cls-3{fill:#231f20;}.cls-4{font-size:32.12px;font-family:OxtailOT-Medium, Oxtail OT;font-weight:500;}.cls-5{letter-spacing:-0.01em;}</style></defs><title>1Artboard 11</title><g class="cls-1"><path class="cls-2" d="M438,319.86s16.54-28.79,0-55.26C438,264.6,420.15,288.2,438,319.86Z"/><path class="cls-2" d="M485.36,291.37s-15-27.66-47.36-26.77C438,264.6,453.69,293.35,485.36,291.37Z"/><path class="cls-2" d="M485.36,236.67S456.7,234.26,438,264.6C438,264.6,473.56,263.2,485.36,236.67Z"/><path class="cls-2" d="M438,208.85s17.35,27.54,0,55.75C438,264.6,419.91,239.64,438,208.85Z"/><path class="cls-2" d="M390,236.21s29.93-1.5,48,28.39A54.47,54.47,0,0,1,390,236.21Z"/><path class="cls-2" d="M390,291.47s16-27.26,48-26.87C438,264.6,421.9,291.58,390,291.47Z"/></g><g class="cls-1"><path class="cls-3" d="M557.33,611.63s16.54-28.79,0-55.26C557.33,556.37,539.48,580,557.33,611.63Z"/><path class="cls-3" d="M604.69,583.13s-15-27.66-47.36-26.76C557.33,556.37,573,585.12,604.69,583.13Z"/><path class="cls-3" d="M604.69,528.44S576,526,557.33,556.37C557.33,556.37,592.89,555,604.69,528.44Z"/><path class="cls-3" d="M557.33,500.61s17.36,27.55,0,55.76C557.33,556.37,539.24,531.4,557.33,500.61Z"/><path class="cls-3" d="M509.31,528s29.93-1.5,48,28.4A54.47,54.47,0,0,1,509.31,528Z"/><path class="cls-3" d="M509.31,583.23s16-27.25,48-26.86C557.33,556.37,541.23,583.35,509.31,583.23Z"/></g><g class="cls-1"><path class="cls-3" d="M556.66,223s16.55-28.8,0-55.26C556.66,167.71,538.82,191.3,556.66,223Z"/><path class="cls-3" d="M604,194.47s-15-27.66-47.36-26.76C556.66,167.71,572.36,196.45,604,194.47Z"/><path class="cls-3" d="M604,139.77s-28.66-2.41-47.36,27.94C556.66,167.71,592.23,166.3,604,139.77Z"/><path class="cls-3" d="M556.66,112s17.36,27.54,0,55.76C556.66,167.71,538.57,142.74,556.66,112Z"/><path class="cls-3" d="M508.64,139.31s29.93-1.5,48,28.4A54.48,54.48,0,0,1,508.64,139.31Z"/><path class="cls-3" d="M508.64,194.57s16-27.26,48-26.86C556.66,167.71,540.57,194.68,508.64,194.57Z"/></g><g class="cls-1"><path class="cls-2" d="M437.67,126.07s16.54-28.79,0-55.26C437.67,70.81,419.82,94.4,437.67,126.07Z"/><path class="cls-2" d="M485,97.57s-15-27.66-47.35-26.76C437.67,70.81,453.36,99.56,485,97.57Z"/><path class="cls-2" d="M485,42.87s-28.65-2.41-47.35,27.94C437.67,70.81,473.23,69.4,485,42.87Z"/><path class="cls-2" d="M437.67,15.05s17.35,27.55,0,55.76C437.67,70.81,419.57,45.84,437.67,15.05Z"/><path class="cls-2" d="M389.65,42.41s29.92-1.5,48,28.4A54.47,54.47,0,0,1,389.65,42.41Z"/><path class="cls-2" d="M389.65,97.67s16-27.26,48-26.86C437.67,70.81,421.57,97.79,389.65,97.67Z"/></g><g class="cls-1"><path class="cls-3" d="M557,417.3s16.54-28.79,0-55.26C557,362,539.15,385.63,557,417.3Z"/><path class="cls-3" d="M604.35,388.8S589.38,361.14,557,362C557,362,572.69,390.79,604.35,388.8Z"/><path class="cls-3" d="M604.35,334.1S575.7,331.69,557,362C557,362,592.56,360.63,604.35,334.1Z"/><path class="cls-3" d="M557,306.28s17.35,27.54,0,55.76C557,362,538.9,337.07,557,306.28Z"/><path class="cls-3" d="M509,333.64s29.92-1.5,48,28.4A54.47,54.47,0,0,1,509,333.64Z"/><path class="cls-3" d="M509,388.9s16-27.26,48-26.86C557,362,540.9,389,509,388.9Z"/></g><g class="cls-1"><path class="cls-2" d="M437.67,513.66s16.54-28.79,0-55.26C437.67,458.4,419.82,482,437.67,513.66Z"/><path class="cls-2" d="M485,485.16s-15-27.65-47.35-26.76C437.67,458.4,453.36,487.15,485,485.16Z"/><path class="cls-2" d="M485,430.47s-28.65-2.41-47.35,27.93C437.67,458.4,473.23,457,485,430.47Z"/><path class="cls-2" d="M437.67,402.65s17.35,27.54,0,55.75C437.67,458.4,419.57,433.44,437.67,402.65Z"/><path class="cls-2" d="M389.65,430s29.92-1.5,48,28.39A54.47,54.47,0,0,1,389.65,430Z"/><path class="cls-2" d="M389.65,485.27s16-27.26,48-26.87C437.67,458.4,421.57,485.38,389.65,485.27Z"/></g><text class="cls-4" transform="translate(415.4 177.11)"><tspan class="cls-5">D</tspan><tspan x="23.45" y="0">C</tspan></text><text class="cls-4" transform="translate(534.07 274.27)"><tspan class="cls-5">D</tspan><tspan x="23.45" y="0">C</tspan></text><text class="cls-4" transform="translate(415.4 370.91)"><tspan class="cls-5">D</tspan><tspan x="23.45" y="0">C</tspan></text><text class="cls-4" transform="translate(415.4 564.7)"><tspan class="cls-5">D</tspan><tspan x="23.45" y="0">C</tspan></text><text class="cls-4" transform="translate(533.9 468.6)"><tspan class="cls-5">D</tspan><tspan x="23.45" y="0">C</tspan></text><text class="cls-4" transform="translate(533.73 80.43)"><tspan class="cls-5">D</tspan><tspan x="23.45" y="0">C</tspan></text><g class="cls-1"><path class="cls-2" d="M438,901.26s16.54-28.79,0-55.26C438,846,420.15,869.59,438,901.26Z"/><path class="cls-2" d="M485.36,872.76S470.38,845.1,438,846C438,846,453.69,874.74,485.36,872.76Z"/><path class="cls-2" d="M485.36,818.06S456.7,815.65,438,846C438,846,473.56,844.59,485.36,818.06Z"/><path class="cls-2" d="M438,790.24s17.35,27.54,0,55.76C438,846,419.91,821,438,790.24Z"/><path class="cls-2" d="M390,817.6s29.93-1.5,48,28.4A54.47,54.47,0,0,1,390,817.6Z"/><path class="cls-2" d="M390,872.86S406,845.6,438,846C438,846,421.9,873,390,872.86Z"/></g><g class="cls-1"><path class="cls-3" d="M556.66,804.36s16.55-28.79,0-55.26C556.66,749.1,538.82,772.69,556.66,804.36Z"/><path class="cls-3" d="M604,775.86s-15-27.66-47.36-26.76C556.66,749.1,572.36,777.85,604,775.86Z"/><path class="cls-3" d="M604,721.17s-28.66-2.42-47.36,27.93C556.66,749.1,592.23,747.69,604,721.17Z"/><path class="cls-3" d="M556.66,693.34s17.36,27.55,0,55.76C556.66,749.1,538.57,724.13,556.66,693.34Z"/><path class="cls-3" d="M508.64,720.7s29.93-1.5,48,28.4A54.48,54.48,0,0,1,508.64,720.7Z"/><path class="cls-3" d="M508.64,776s16-27.26,48-26.86C556.66,749.1,540.57,776.08,508.64,776Z"/></g><g class="cls-1"><path class="cls-2" d="M437.67,707.46s16.54-28.79,0-55.26C437.67,652.2,419.82,675.8,437.67,707.46Z"/><path class="cls-2" d="M485,679s-15-27.66-47.35-26.76C437.67,652.2,453.36,681,485,679Z"/><path class="cls-2" d="M485,624.27s-28.65-2.41-47.35,27.93C437.67,652.2,473.23,650.79,485,624.27Z"/><path class="cls-2" d="M437.67,596.45s17.35,27.54,0,55.75C437.67,652.2,419.57,627.23,437.67,596.45Z"/><path class="cls-2" d="M389.65,623.8s29.92-1.5,48,28.4A54.47,54.47,0,0,1,389.65,623.8Z"/><path class="cls-2" d="M389.65,679.06s16-27.25,48-26.86C437.67,652.2,421.57,679.18,389.65,679.06Z"/></g><g class="cls-1"><path class="cls-3" d="M557,998.69s16.54-28.79,0-55.26C557,943.43,539.15,967,557,998.69Z"/><path class="cls-3" d="M604.35,970.19s-15-27.66-47.35-26.76C557,943.43,572.69,972.18,604.35,970.19Z"/><path class="cls-3" d="M604.35,915.5S575.7,913.09,557,943.43C557,943.43,592.56,942,604.35,915.5Z"/><path class="cls-3" d="M557,887.68s17.35,27.54,0,55.75C557,943.43,538.9,918.46,557,887.68Z"/><path class="cls-3" d="M509,915s29.92-1.5,48,28.4A54.47,54.47,0,0,1,509,915Z"/><path class="cls-3" d="M509,970.29s16-27.25,48-26.86C557,943.43,540.9,970.41,509,970.29Z"/></g><g class="cls-1"><path class="cls-2" d="M437.67,1095.05s16.54-28.79,0-55.26C437.67,1039.79,419.82,1063.39,437.67,1095.05Z"/><path class="cls-2" d="M485,1066.56s-15-27.66-47.35-26.77C437.67,1039.79,453.36,1068.54,485,1066.56Z"/><path class="cls-2" d="M485,1011.86s-28.65-2.41-47.35,27.93C437.67,1039.79,473.23,1038.39,485,1011.86Z"/><path class="cls-2" d="M437.67,984s17.35,27.54,0,55.75C437.67,1039.79,419.57,1014.83,437.67,984Z"/><path class="cls-2" d="M389.65,1011.4s29.92-1.5,48,28.39A54.47,54.47,0,0,1,389.65,1011.4Z"/><path class="cls-2" d="M389.65,1066.66s16-27.26,48-26.87C437.67,1039.79,421.57,1066.77,389.65,1066.66Z"/></g><text class="cls-4" transform="translate(415.4 758.5)"><tspan class="cls-5">D</tspan><tspan x="23.45" y="0">C</tspan></text><text class="cls-4" transform="translate(534.07 855.66)"><tspan class="cls-5">D</tspan><tspan x="23.45" y="0">C</tspan></text><text class="cls-4" transform="translate(415.4 952.3)"><tspan class="cls-5">D</tspan><tspan x="23.45" y="0">C</tspan></text><g class="cls-1"><path class="cls-2" d="M197,319.86s16.55-28.79,0-55.26C197,264.6,179.16,288.2,197,319.86Z"/><path class="cls-2" d="M244.36,291.37s-15-27.66-47.36-26.77C197,264.6,212.7,293.35,244.36,291.37Z"/><path class="cls-2" d="M244.36,236.67S215.7,234.26,197,264.6C197,264.6,232.56,263.2,244.36,236.67Z"/><path class="cls-2" d="M197,208.85s17.36,27.54,0,55.75C197,264.6,178.91,239.64,197,208.85Z"/><path class="cls-2" d="M149,236.21s29.93-1.5,48,28.39A54.48,54.48,0,0,1,149,236.21Z"/><path class="cls-2" d="M149,291.47s16-27.26,48-26.87C197,264.6,180.91,291.58,149,291.47Z"/></g><g class="cls-1"><path class="cls-2" d="M196.67,126.07s16.54-28.79,0-55.26C196.67,70.81,178.82,94.4,196.67,126.07Z"/><path class="cls-2" d="M244,97.57s-15-27.66-47.35-26.76C196.67,70.81,212.36,99.56,244,97.57Z"/><path class="cls-2" d="M244,42.87s-28.65-2.41-47.35,27.94C196.67,70.81,232.23,69.4,244,42.87Z"/><path class="cls-2" d="M196.67,15.05s17.35,27.55,0,55.76C196.67,70.81,178.58,45.84,196.67,15.05Z"/><path class="cls-2" d="M148.65,42.41s29.93-1.5,48,28.4A54.47,54.47,0,0,1,148.65,42.41Z"/><path class="cls-2" d="M148.65,97.67s16-27.26,48-26.86C196.67,70.81,180.57,97.79,148.65,97.67Z"/></g><g class="cls-1"><path class="cls-2" d="M196.67,513.66s16.54-28.79,0-55.26C196.67,458.4,178.82,482,196.67,513.66Z"/><path class="cls-2" d="M244,485.16s-15-27.65-47.35-26.76C196.67,458.4,212.36,487.15,244,485.16Z"/><path class="cls-2" d="M244,430.47s-28.65-2.41-47.35,27.93C196.67,458.4,232.23,457,244,430.47Z"/><path class="cls-2" d="M196.67,402.65s17.35,27.54,0,55.75C196.67,458.4,178.58,433.44,196.67,402.65Z"/><path class="cls-2" d="M148.65,430s29.93-1.5,48,28.39A54.47,54.47,0,0,1,148.65,430Z"/><path class="cls-2" d="M148.65,485.27s16-27.26,48-26.87C196.67,458.4,180.57,485.38,148.65,485.27Z"/></g><text class="cls-4" transform="translate(174.41 177.11)"><tspan class="cls-5">D</tspan><tspan x="23.45" y="0">C</tspan></text><text class="cls-4" transform="translate(174.41 370.91)"><tspan class="cls-5">D</tspan><tspan x="23.45" y="0">C</tspan></text><text class="cls-4" transform="translate(174.41 564.7)"><tspan class="cls-5">D</tspan><tspan x="23.45" y="0">C</tspan></text><g class="cls-1"><path class="cls-2" d="M197,901.26s16.55-28.79,0-55.26C197,846,179.16,869.59,197,901.26Z"/><path class="cls-2" d="M244.36,872.76S229.38,845.1,197,846C197,846,212.7,874.74,244.36,872.76Z"/><path class="cls-2" d="M244.36,818.06S215.7,815.65,197,846C197,846,232.56,844.59,244.36,818.06Z"/><path class="cls-2" d="M197,790.24s17.36,27.54,0,55.76C197,846,178.91,821,197,790.24Z"/><path class="cls-2" d="M149,817.6s29.93-1.5,48,28.4A54.48,54.48,0,0,1,149,817.6Z"/><path class="cls-2" d="M149,872.86S165,845.6,197,846C197,846,180.91,873,149,872.86Z"/></g><g class="cls-1"><path class="cls-2" d="M196.67,707.46s16.54-28.79,0-55.26C196.67,652.2,178.82,675.8,196.67,707.46Z"/><path class="cls-2" d="M244,679s-15-27.66-47.35-26.76C196.67,652.2,212.36,681,244,679Z"/><path class="cls-2" d="M244,624.27s-28.65-2.41-47.35,27.93C196.67,652.2,232.23,650.79,244,624.27Z"/><path class="cls-2" d="M196.67,596.45s17.35,27.54,0,55.75C196.67,652.2,178.58,627.23,196.67,596.45Z"/><path class="cls-2" d="M148.65,623.8s29.93-1.5,48,28.4A54.47,54.47,0,0,1,148.65,623.8Z"/><path class="cls-2" d="M148.65,679.06s16-27.25,48-26.86C196.67,652.2,180.57,679.18,148.65,679.06Z"/></g><g class="cls-1"><path class="cls-2" d="M196.67,1095.05s16.54-28.79,0-55.26C196.67,1039.79,178.82,1063.39,196.67,1095.05Z"/><path class="cls-2" d="M244,1066.56s-15-27.66-47.35-26.77C196.67,1039.79,212.36,1068.54,244,1066.56Z"/><path class="cls-2" d="M244,1011.86s-28.65-2.41-47.35,27.93C196.67,1039.79,232.23,1038.39,244,1011.86Z"/><path class="cls-2" d="M196.67,984s17.35,27.54,0,55.75C196.67,1039.79,178.58,1014.83,196.67,984Z"/><path class="cls-2" d="M148.65,1011.4s29.93-1.5,48,28.39A54.47,54.47,0,0,1,148.65,1011.4Z"/><path class="cls-2" d="M148.65,1066.66s16-27.26,48-26.87C196.67,1039.79,180.57,1066.77,148.65,1066.66Z"/></g><text class="cls-4" transform="translate(174.41 758.5)"><tspan class="cls-5">D</tspan><tspan x="23.45" y="0">C</tspan></text><text class="cls-4" transform="translate(174.41 952.3)"><tspan class="cls-5">D</tspan><tspan x="23.45" y="0">C</tspan></text><g class="cls-1"><path class="cls-2" d="M677.33,319.86s16.54-28.79,0-55.26C677.33,264.6,659.48,288.2,677.33,319.86Z"/><path class="cls-2" d="M724.68,291.37s-15-27.66-47.35-26.77C677.33,264.6,693,293.35,724.68,291.37Z"/><path class="cls-2" d="M724.68,236.67S696,234.26,677.33,264.6C677.33,264.6,712.89,263.2,724.68,236.67Z"/><path class="cls-2" d="M677.33,208.85s17.35,27.54,0,55.75C677.33,264.6,659.24,239.64,677.33,208.85Z"/><path class="cls-2" d="M629.31,236.21s29.93-1.5,48,28.39A54.47,54.47,0,0,1,629.31,236.21Z"/><path class="cls-2" d="M629.31,291.47s16-27.26,48-26.87C677.33,264.6,661.23,291.58,629.31,291.47Z"/></g><g class="cls-1"><path class="cls-2" d="M677,126.07s16.54-28.79,0-55.26C677,70.81,659.15,94.4,677,126.07Z"/><path class="cls-2" d="M724.35,97.57s-15-27.66-47.35-26.76C677,70.81,692.69,99.56,724.35,97.57Z"/><path class="cls-2" d="M724.35,42.87S695.7,40.46,677,70.81C677,70.81,712.56,69.4,724.35,42.87Z"/><path class="cls-2" d="M677,15.05s17.35,27.55,0,55.76C677,70.81,658.9,45.84,677,15.05Z"/><path class="cls-2" d="M629,42.41s29.93-1.5,48,28.4A54.49,54.49,0,0,1,629,42.41Z"/><path class="cls-2" d="M629,97.67s16-27.26,48-26.86C677,70.81,660.9,97.79,629,97.67Z"/></g><g class="cls-1"><path class="cls-2" d="M677,513.66s16.54-28.79,0-55.26C677,458.4,659.15,482,677,513.66Z"/><path class="cls-2" d="M724.35,485.16s-15-27.65-47.35-26.76C677,458.4,692.69,487.15,724.35,485.16Z"/><path class="cls-2" d="M724.35,430.47S695.7,428.06,677,458.4C677,458.4,712.56,457,724.35,430.47Z"/><path class="cls-2" d="M677,402.65s17.35,27.54,0,55.75C677,458.4,658.9,433.44,677,402.65Z"/><path class="cls-2" d="M629,430s29.93-1.5,48,28.39A54.49,54.49,0,0,1,629,430Z"/><path class="cls-2" d="M629,485.27S645,458,677,458.4C677,458.4,660.9,485.38,629,485.27Z"/></g><text class="cls-4" transform="translate(654.73 177.11)"><tspan class="cls-5">D</tspan><tspan x="23.45" y="0">C</tspan></text><text class="cls-4" transform="translate(654.73 370.91)"><tspan class="cls-5">D</tspan><tspan x="23.45" y="0">C</tspan></text><text class="cls-4" transform="translate(654.73 564.7)"><tspan class="cls-5">D</tspan><tspan x="23.45" y="0">C</tspan></text><g class="cls-1"><path class="cls-2" d="M677.33,901.26s16.54-28.79,0-55.26C677.33,846,659.48,869.59,677.33,901.26Z"/><path class="cls-2" d="M724.68,872.76s-15-27.66-47.35-26.76C677.33,846,693,874.74,724.68,872.76Z"/><path class="cls-2" d="M724.68,818.06S696,815.65,677.33,846C677.33,846,712.89,844.59,724.68,818.06Z"/><path class="cls-2" d="M677.33,790.24s17.35,27.54,0,55.76C677.33,846,659.24,821,677.33,790.24Z"/><path class="cls-2" d="M629.31,817.6s29.93-1.5,48,28.4A54.47,54.47,0,0,1,629.31,817.6Z"/><path class="cls-2" d="M629.31,872.86s16-27.26,48-26.86C677.33,846,661.23,873,629.31,872.86Z"/></g><g class="cls-1"><path class="cls-2" d="M677,707.46s16.54-28.79,0-55.26C677,652.2,659.15,675.8,677,707.46Z"/><path class="cls-2" d="M724.35,679s-15-27.66-47.35-26.76C677,652.2,692.69,681,724.35,679Z"/><path class="cls-2" d="M724.35,624.27S695.7,621.86,677,652.2C677,652.2,712.56,650.79,724.35,624.27Z"/><path class="cls-2" d="M677,596.45s17.35,27.54,0,55.75C677,652.2,658.9,627.23,677,596.45Z"/><path class="cls-2" d="M629,623.8s29.93-1.5,48,28.4A54.49,54.49,0,0,1,629,623.8Z"/><path class="cls-2" d="M629,679.06s16-27.25,48-26.86C677,652.2,660.9,679.18,629,679.06Z"/></g><g class="cls-1"><path class="cls-2" d="M677,1095.05s16.54-28.79,0-55.26C677,1039.79,659.15,1063.39,677,1095.05Z"/><path class="cls-2" d="M724.35,1066.56s-15-27.66-47.35-26.77C677,1039.79,692.69,1068.54,724.35,1066.56Z"/><path class="cls-2" d="M724.35,1011.86s-28.65-2.41-47.35,27.93C677,1039.79,712.56,1038.39,724.35,1011.86Z"/><path class="cls-2" d="M677,984s17.35,27.54,0,55.75C677,1039.79,658.9,1014.83,677,984Z"/><path class="cls-2" d="M629,1011.4s29.93-1.5,48,28.39A54.49,54.49,0,0,1,629,1011.4Z"/><path class="cls-2" d="M629,1066.66s16-27.26,48-26.87C677,1039.79,660.9,1066.77,629,1066.66Z"/></g><text class="cls-4" transform="translate(654.73 758.5)"><tspan class="cls-5">D</tspan><tspan x="23.45" y="0">C</tspan></text><text class="cls-4" transform="translate(654.73 952.3)"><tspan class="cls-5">D</tspan><tspan x="23.45" y="0">C</tspan></text><g class="cls-1"><path class="cls-2" d="M920,319.86s16.55-28.79,0-55.26C920,264.6,902.15,288.2,920,319.86Z"/><path class="cls-2" d="M967.35,291.37s-15-27.66-47.36-26.77C920,264.6,935.69,293.35,967.35,291.37Z"/><path class="cls-2" d="M967.35,236.67S938.69,234.26,920,264.6C920,264.6,955.55,263.2,967.35,236.67Z"/><path class="cls-2" d="M920,208.85s17.36,27.54,0,55.75C920,264.6,901.9,239.64,920,208.85Z"/><path class="cls-2" d="M872,236.21s29.93-1.5,48,28.39A54.48,54.48,0,0,1,872,236.21Z"/><path class="cls-2" d="M872,291.47s16-27.26,48-26.87C920,264.6,903.9,291.58,872,291.47Z"/></g><g class="cls-1"><path class="cls-2" d="M919.66,126.07s16.54-28.79,0-55.26C919.66,70.81,901.81,94.4,919.66,126.07Z"/><path class="cls-2" d="M967,97.57s-15-27.66-47.36-26.76C919.66,70.81,935.35,99.56,967,97.57Z"/><path class="cls-2" d="M967,42.87s-28.66-2.41-47.36,27.94C919.66,70.81,955.22,69.4,967,42.87Z"/><path class="cls-2" d="M919.66,15.05s17.35,27.55,0,55.76C919.66,70.81,901.57,45.84,919.66,15.05Z"/><path class="cls-2" d="M871.64,42.41s29.93-1.5,48,28.4A54.47,54.47,0,0,1,871.64,42.41Z"/><path class="cls-2" d="M871.64,97.67s16-27.26,48-26.86C919.66,70.81,903.56,97.79,871.64,97.67Z"/></g><g class="cls-1"><path class="cls-2" d="M919.66,513.66s16.54-28.79,0-55.26C919.66,458.4,901.81,482,919.66,513.66Z"/><path class="cls-2" d="M967,485.16s-15-27.65-47.36-26.76C919.66,458.4,935.35,487.15,967,485.16Z"/><path class="cls-2" d="M967,430.47s-28.66-2.41-47.36,27.93C919.66,458.4,955.22,457,967,430.47Z"/><path class="cls-2" d="M919.66,402.65s17.35,27.54,0,55.75C919.66,458.4,901.57,433.44,919.66,402.65Z"/><path class="cls-2" d="M871.64,430s29.93-1.5,48,28.39A54.47,54.47,0,0,1,871.64,430Z"/><path class="cls-2" d="M871.64,485.27s16-27.26,48-26.87C919.66,458.4,903.56,485.38,871.64,485.27Z"/></g><text class="cls-4" transform="translate(897.4 177.11)"><tspan class="cls-5">D</tspan><tspan x="23.45" y="0">C</tspan></text><text class="cls-4" transform="translate(897.4 370.91)"><tspan class="cls-5">D</tspan><tspan x="23.45" y="0">C</tspan></text><text class="cls-4" transform="translate(897.4 564.7)"><tspan class="cls-5">D</tspan><tspan x="23.45" y="0">C</tspan></text><g class="cls-1"><path class="cls-2" d="M920,901.26s16.55-28.79,0-55.26C920,846,902.15,869.59,920,901.26Z"/><path class="cls-2" d="M967.35,872.76S952.37,845.1,920,846C920,846,935.69,874.74,967.35,872.76Z"/><path class="cls-2" d="M967.35,818.06S938.69,815.65,920,846C920,846,955.55,844.59,967.35,818.06Z"/><path class="cls-2" d="M920,790.24s17.36,27.54,0,55.76C920,846,901.9,821,920,790.24Z"/><path class="cls-2" d="M872,817.6s29.93-1.5,48,28.4A54.48,54.48,0,0,1,872,817.6Z"/><path class="cls-2" d="M872,872.86S888,845.6,920,846C920,846,903.9,873,872,872.86Z"/></g><g class="cls-1"><path class="cls-2" d="M919.66,707.46s16.54-28.79,0-55.26C919.66,652.2,901.81,675.8,919.66,707.46Z"/><path class="cls-2" d="M967,679s-15-27.66-47.36-26.76C919.66,652.2,935.35,681,967,679Z"/><path class="cls-2" d="M967,624.27s-28.66-2.41-47.36,27.93C919.66,652.2,955.22,650.79,967,624.27Z"/><path class="cls-2" d="M919.66,596.45s17.35,27.54,0,55.75C919.66,652.2,901.57,627.23,919.66,596.45Z"/><path class="cls-2" d="M871.64,623.8s29.93-1.5,48,28.4A54.47,54.47,0,0,1,871.64,623.8Z"/><path class="cls-2" d="M871.64,679.06s16-27.25,48-26.86C919.66,652.2,903.56,679.18,871.64,679.06Z"/></g><g class="cls-1"><path class="cls-2" d="M919.66,1095.05s16.54-28.79,0-55.26C919.66,1039.79,901.81,1063.39,919.66,1095.05Z"/><path class="cls-2" d="M967,1066.56s-15-27.66-47.36-26.77C919.66,1039.79,935.35,1068.54,967,1066.56Z"/><path class="cls-2" d="M967,1011.86s-28.66-2.41-47.36,27.93C919.66,1039.79,955.22,1038.39,967,1011.86Z"/><path class="cls-2" d="M919.66,984s17.35,27.54,0,55.75C919.66,1039.79,901.57,1014.83,919.66,984Z"/><path class="cls-2" d="M871.64,1011.4s29.93-1.5,48,28.39A54.47,54.47,0,0,1,871.64,1011.4Z"/><path class="cls-2" d="M871.64,1066.66s16-27.26,48-26.87C919.66,1039.79,903.56,1066.77,871.64,1066.66Z"/></g><text class="cls-4" transform="translate(897.4 758.5)"><tspan class="cls-5">D</tspan><tspan x="23.45" y="0">C</tspan></text><text class="cls-4" transform="translate(897.4 952.3)"><tspan class="cls-5">D</tspan><tspan x="23.45" y="0">C</tspan></text><g class="cls-1"><path class="cls-2" d="M1166.66,319.86s16.54-28.79,0-55.26C1166.66,264.6,1148.81,288.2,1166.66,319.86Z"/><path class="cls-2" d="M1214,291.37s-15-27.66-47.36-26.77C1166.66,264.6,1182.36,293.35,1214,291.37Z"/><path class="cls-2" d="M1214,236.67s-28.66-2.41-47.36,27.93C1166.66,264.6,1202.22,263.2,1214,236.67Z"/><path class="cls-2" d="M1166.66,208.85s17.36,27.54,0,55.75C1166.66,264.6,1148.57,239.64,1166.66,208.85Z"/><path class="cls-2" d="M1118.64,236.21s29.93-1.5,48,28.39A54.48,54.48,0,0,1,1118.64,236.21Z"/><path class="cls-2" d="M1118.64,291.47s16-27.26,48-26.87C1166.66,264.6,1150.56,291.58,1118.64,291.47Z"/></g><g class="cls-1"><path class="cls-2" d="M1166.33,126.07s16.54-28.79,0-55.26C1166.33,70.81,1148.48,94.4,1166.33,126.07Z"/><path class="cls-2" d="M1213.68,97.57s-15-27.66-47.35-26.76C1166.33,70.81,1182,99.56,1213.68,97.57Z"/><path class="cls-2" d="M1213.68,42.87s-28.65-2.41-47.35,27.94C1166.33,70.81,1201.89,69.4,1213.68,42.87Z"/><path class="cls-2" d="M1166.33,15.05s17.35,27.55,0,55.76C1166.33,70.81,1148.24,45.84,1166.33,15.05Z"/><path class="cls-2" d="M1118.31,42.41s29.93-1.5,48,28.4A54.47,54.47,0,0,1,1118.31,42.41Z"/><path class="cls-2" d="M1118.31,97.67s16-27.26,48-26.86C1166.33,70.81,1150.23,97.79,1118.31,97.67Z"/></g><g class="cls-1"><path class="cls-2" d="M1166.33,513.66s16.54-28.79,0-55.26C1166.33,458.4,1148.48,482,1166.33,513.66Z"/><path class="cls-2" d="M1213.68,485.16s-15-27.65-47.35-26.76C1166.33,458.4,1182,487.15,1213.68,485.16Z"/><path class="cls-2" d="M1213.68,430.47s-28.65-2.41-47.35,27.93C1166.33,458.4,1201.89,457,1213.68,430.47Z"/><path class="cls-2" d="M1166.33,402.65s17.35,27.54,0,55.75C1166.33,458.4,1148.24,433.44,1166.33,402.65Z"/><path class="cls-2" d="M1118.31,430s29.93-1.5,48,28.39A54.47,54.47,0,0,1,1118.31,430Z"/><path class="cls-2" d="M1118.31,485.27s16-27.26,48-26.87C1166.33,458.4,1150.23,485.38,1118.31,485.27Z"/></g><text class="cls-4" transform="translate(1144.06 177.11)"><tspan class="cls-5">D</tspan><tspan x="23.45" y="0">C</tspan></text><text class="cls-4" transform="translate(1144.06 370.91)"><tspan class="cls-5">D</tspan><tspan x="23.45" y="0">C</tspan></text><text class="cls-4" transform="translate(1144.06 564.7)"><tspan class="cls-5">D</tspan><tspan x="23.45" y="0">C</tspan></text><g class="cls-1"><path class="cls-2" d="M1166.66,901.26s16.54-28.79,0-55.26C1166.66,846,1148.81,869.59,1166.66,901.26Z"/><path class="cls-2" d="M1214,872.76s-15-27.66-47.36-26.76C1166.66,846,1182.36,874.74,1214,872.76Z"/><path class="cls-2" d="M1214,818.06s-28.66-2.41-47.36,27.94C1166.66,846,1202.22,844.59,1214,818.06Z"/><path class="cls-2" d="M1166.66,790.24s17.36,27.54,0,55.76C1166.66,846,1148.57,821,1166.66,790.24Z"/><path class="cls-2" d="M1118.64,817.6s29.93-1.5,48,28.4A54.48,54.48,0,0,1,1118.64,817.6Z"/><path class="cls-2" d="M1118.64,872.86s16-27.26,48-26.86C1166.66,846,1150.56,873,1118.64,872.86Z"/></g><g class="cls-1"><path class="cls-2" d="M1166.33,707.46s16.54-28.79,0-55.26C1166.33,652.2,1148.48,675.8,1166.33,707.46Z"/><path class="cls-2" d="M1213.68,679s-15-27.66-47.35-26.76C1166.33,652.2,1182,681,1213.68,679Z"/><path class="cls-2" d="M1213.68,624.27s-28.65-2.41-47.35,27.93C1166.33,652.2,1201.89,650.79,1213.68,624.27Z"/><path class="cls-2" d="M1166.33,596.45s17.35,27.54,0,55.75C1166.33,652.2,1148.24,627.23,1166.33,596.45Z"/><path class="cls-2" d="M1118.31,623.8s29.93-1.5,48,28.4A54.47,54.47,0,0,1,1118.31,623.8Z"/><path class="cls-2" d="M1118.31,679.06s16-27.25,48-26.86C1166.33,652.2,1150.23,679.18,1118.31,679.06Z"/></g><g class="cls-1"><path class="cls-2" d="M1166.33,1095.05s16.54-28.79,0-55.26C1166.33,1039.79,1148.48,1063.39,1166.33,1095.05Z"/><path class="cls-2" d="M1213.68,1066.56s-15-27.66-47.35-26.77C1166.33,1039.79,1182,1068.54,1213.68,1066.56Z"/><path class="cls-2" d="M1213.68,1011.86s-28.65-2.41-47.35,27.93C1166.33,1039.79,1201.89,1038.39,1213.68,1011.86Z"/><path class="cls-2" d="M1166.33,984s17.35,27.54,0,55.75C1166.33,1039.79,1148.24,1014.83,1166.33,984Z"/><path class="cls-2" d="M1118.31,1011.4s29.93-1.5,48,28.39A54.47,54.47,0,0,1,1118.31,1011.4Z"/><path class="cls-2" d="M1118.31,1066.66s16-27.26,48-26.87C1166.33,1039.79,1150.23,1066.77,1118.31,1066.66Z"/></g><text class="cls-4" transform="translate(1144.06 758.5)"><tspan class="cls-5">D</tspan><tspan x="23.45" y="0">C</tspan></text><text class="cls-4" transform="translate(1144.06 952.3)"><tspan class="cls-5">D</tspan><tspan x="23.45" y="0">C</tspan></text><text class="cls-4" transform="translate(533.9 1050)"><tspan class="cls-5">D</tspan><tspan x="23.45" y="0">C</tspan></text><text class="cls-4" transform="translate(533.73 661.83)"><tspan class="cls-5">D</tspan><tspan x="23.45" y="0">C</tspan></text><g class="cls-1"><path class="cls-3" d="M318,611.63s16.54-28.79,0-55.26C318,556.37,300.15,580,318,611.63Z"/><path class="cls-3" d="M365.36,583.13s-15-27.66-47.36-26.76C318,556.37,333.7,585.12,365.36,583.13Z"/><path class="cls-3" d="M365.36,528.44S336.7,526,318,556.37C318,556.37,353.56,555,365.36,528.44Z"/><path class="cls-3" d="M318,500.61s17.36,27.55,0,55.76C318,556.37,299.91,531.4,318,500.61Z"/><path class="cls-3" d="M270,528s29.93-1.5,48,28.4A54.48,54.48,0,0,1,270,528Z"/><path class="cls-3" d="M270,583.23s16-27.25,48-26.86C318,556.37,301.91,583.35,270,583.23Z"/></g><g class="cls-1"><path class="cls-3" d="M317.34,223s16.54-28.8,0-55.26C317.34,167.71,299.49,191.3,317.34,223Z"/><path class="cls-3" d="M364.69,194.47s-15-27.66-47.35-26.76C317.34,167.71,333,196.45,364.69,194.47Z"/><path class="cls-3" d="M364.69,139.77s-28.65-2.41-47.35,27.94C317.34,167.71,352.9,166.3,364.69,139.77Z"/><path class="cls-3" d="M317.34,112s17.35,27.54,0,55.76C317.34,167.71,299.24,142.74,317.34,112Z"/><path class="cls-3" d="M269.31,139.31s29.93-1.5,48,28.4A54.49,54.49,0,0,1,269.31,139.31Z"/><path class="cls-3" d="M269.31,194.57s16-27.26,48-26.86C317.34,167.71,301.24,194.68,269.31,194.57Z"/></g><g class="cls-1"><path class="cls-3" d="M317.67,417.3s16.54-28.79,0-55.26C317.67,362,299.82,385.63,317.67,417.3Z"/><path class="cls-3" d="M365,388.8s-15-27.66-47.35-26.76C317.67,362,333.36,390.79,365,388.8Z"/><path class="cls-3" d="M365,334.1s-28.65-2.41-47.35,27.94C317.67,362,353.23,360.63,365,334.1Z"/><path class="cls-3" d="M317.67,306.28s17.35,27.54,0,55.76C317.67,362,299.58,337.07,317.67,306.28Z"/><path class="cls-3" d="M269.65,333.64s29.93-1.5,48,28.4A54.47,54.47,0,0,1,269.65,333.64Z"/><path class="cls-3" d="M269.65,388.9s16-27.26,48-26.86C317.67,362,301.57,389,269.65,388.9Z"/></g><text class="cls-4" transform="translate(294.74 274.27)"><tspan class="cls-5">D</tspan><tspan x="23.45" y="0">C</tspan></text><text class="cls-4" transform="translate(294.57 468.6)"><tspan class="cls-5">D</tspan><tspan x="23.45" y="0">C</tspan></text><text class="cls-4" transform="translate(294.4 80.43)"><tspan class="cls-5">D</tspan><tspan x="23.45" y="0">C</tspan></text><g class="cls-1"><path class="cls-3" d="M317.34,804.36s16.54-28.79,0-55.26C317.34,749.1,299.49,772.69,317.34,804.36Z"/><path class="cls-3" d="M364.69,775.86s-15-27.66-47.35-26.76C317.34,749.1,333,777.85,364.69,775.86Z"/><path class="cls-3" d="M364.69,721.17S336,718.75,317.34,749.1C317.34,749.1,352.9,747.69,364.69,721.17Z"/><path class="cls-3" d="M317.34,693.34s17.35,27.55,0,55.76C317.34,749.1,299.24,724.13,317.34,693.34Z"/><path class="cls-3" d="M269.31,720.7s29.93-1.5,48,28.4A54.49,54.49,0,0,1,269.31,720.7Z"/><path class="cls-3" d="M269.31,776s16-27.26,48-26.86C317.34,749.1,301.24,776.08,269.31,776Z"/></g><g class="cls-1"><path class="cls-3" d="M317.67,998.69s16.54-28.79,0-55.26C317.67,943.43,299.82,967,317.67,998.69Z"/><path class="cls-3" d="M365,970.19s-15-27.66-47.35-26.76C317.67,943.43,333.36,972.18,365,970.19Z"/><path class="cls-3" d="M365,915.5s-28.65-2.41-47.35,27.93C317.67,943.43,353.23,942,365,915.5Z"/><path class="cls-3" d="M317.67,887.68s17.35,27.54,0,55.75C317.67,943.43,299.58,918.46,317.67,887.68Z"/><path class="cls-3" d="M269.65,915s29.93-1.5,48,28.4A54.47,54.47,0,0,1,269.65,915Z"/><path class="cls-3" d="M269.65,970.29s16-27.25,48-26.86C317.67,943.43,301.57,970.41,269.65,970.29Z"/></g><text class="cls-4" transform="translate(294.74 855.66)"><tspan class="cls-5">D</tspan><tspan x="23.45" y="0">C</tspan></text><text class="cls-4" transform="translate(294.57 1050)"><tspan class="cls-5">D</tspan><tspan x="23.45" y="0">C</tspan></text><text class="cls-4" transform="translate(294.4 661.83)"><tspan class="cls-5">D</tspan><tspan x="23.45" y="0">C</tspan></text><g class="cls-1"><path class="cls-3" d="M76.67,611.63s16.54-28.79,0-55.26C76.67,556.37,58.82,580,76.67,611.63Z"/><path class="cls-3" d="M124,583.13s-15-27.66-47.36-26.76C76.67,556.37,92.37,585.12,124,583.13Z"/><path class="cls-3" d="M124,528.44S95.37,526,76.67,556.37C76.67,556.37,112.23,555,124,528.44Z"/><path class="cls-3" d="M76.67,500.61s17.36,27.55,0,55.76C76.67,556.37,58.58,531.4,76.67,500.61Z"/><path class="cls-3" d="M28.65,528s29.93-1.5,48,28.4A54.48,54.48,0,0,1,28.65,528Z"/><path class="cls-3" d="M28.65,583.23s16-27.25,48-26.86C76.67,556.37,60.57,583.35,28.65,583.23Z"/></g><g class="cls-1"><path class="cls-3" d="M76,223s16.54-28.8,0-55.26C76,167.71,58.16,191.3,76,223Z"/><path class="cls-3" d="M123.36,194.47s-15-27.66-47.35-26.76C76,167.71,91.7,196.45,123.36,194.47Z"/><path class="cls-3" d="M123.36,139.77S94.7,137.36,76,167.71C76,167.71,111.57,166.3,123.36,139.77Z"/><path class="cls-3" d="M76,112s17.35,27.54,0,55.76C76,167.71,57.91,142.74,76,112Z"/><path class="cls-3" d="M28,139.31s29.93-1.5,48,28.4A54.49,54.49,0,0,1,28,139.31Z"/><path class="cls-3" d="M28,194.57s16-27.26,48-26.86C76,167.71,59.91,194.68,28,194.57Z"/></g><g class="cls-1"><path class="cls-3" d="M76.34,417.3s16.54-28.79,0-55.26C76.34,362,58.49,385.63,76.34,417.3Z"/><path class="cls-3" d="M123.69,388.8s-15-27.66-47.35-26.76C76.34,362,92,390.79,123.69,388.8Z"/><path class="cls-3" d="M123.69,334.1S95,331.69,76.34,362C76.34,362,111.9,360.63,123.69,334.1Z"/><path class="cls-3" d="M76.34,306.28s17.35,27.54,0,55.76C76.34,362,58.25,337.07,76.34,306.28Z"/><path class="cls-3" d="M28.32,333.64s29.93-1.5,48,28.4A54.47,54.47,0,0,1,28.32,333.64Z"/><path class="cls-3" d="M28.32,388.9s16-27.26,48-26.86C76.34,362,60.24,389,28.32,388.9Z"/></g><text class="cls-4" transform="translate(53.41 274.27)"><tspan class="cls-5">D</tspan><tspan x="23.45" y="0">C</tspan></text><text class="cls-4" transform="translate(53.24 468.6)"><tspan class="cls-5">D</tspan><tspan x="23.45" y="0">C</tspan></text><text class="cls-4" transform="translate(53.07 80.43)"><tspan class="cls-5">D</tspan><tspan x="23.45" y="0">C</tspan></text><g class="cls-1"><path class="cls-3" d="M76,804.36s16.54-28.79,0-55.26C76,749.1,58.16,772.69,76,804.36Z"/><path class="cls-3" d="M123.36,775.86S108.38,748.2,76,749.1C76,749.1,91.7,777.85,123.36,775.86Z"/><path class="cls-3" d="M123.36,721.17S94.7,718.75,76,749.1C76,749.1,111.57,747.69,123.36,721.17Z"/><path class="cls-3" d="M76,693.34s17.35,27.55,0,55.76C76,749.1,57.91,724.13,76,693.34Z"/><path class="cls-3" d="M28,720.7s29.93-1.5,48,28.4A54.49,54.49,0,0,1,28,720.7Z"/><path class="cls-3" d="M28,776S44,748.7,76,749.1C76,749.1,59.91,776.08,28,776Z"/></g><g class="cls-1"><path class="cls-3" d="M76.34,998.69s16.54-28.79,0-55.26C76.34,943.43,58.49,967,76.34,998.69Z"/><path class="cls-3" d="M123.69,970.19s-15-27.66-47.35-26.76C76.34,943.43,92,972.18,123.69,970.19Z"/><path class="cls-3" d="M123.69,915.5S95,913.09,76.34,943.43C76.34,943.43,111.9,942,123.69,915.5Z"/><path class="cls-3" d="M76.34,887.68s17.35,27.54,0,55.75C76.34,943.43,58.25,918.46,76.34,887.68Z"/><path class="cls-3" d="M28.32,915s29.93-1.5,48,28.4A54.47,54.47,0,0,1,28.32,915Z"/><path class="cls-3" d="M28.32,970.29s16-27.25,48-26.86C76.34,943.43,60.24,970.41,28.32,970.29Z"/></g><text class="cls-4" transform="translate(53.41 855.66)"><tspan class="cls-5">D</tspan><tspan x="23.45" y="0">C</tspan></text><text class="cls-4" transform="translate(53.24 1050)"><tspan class="cls-5">D</tspan><tspan x="23.45" y="0">C</tspan></text><text class="cls-4" transform="translate(53.07 661.83)"><tspan class="cls-5">D</tspan><tspan x="23.45" y="0">C</tspan></text><g class="cls-1"><path class="cls-3" d="M798.33,611.63s16.54-28.79,0-55.26C798.33,556.37,780.48,580,798.33,611.63Z"/><path class="cls-3" d="M845.68,583.13s-15-27.66-47.35-26.76C798.33,556.37,814,585.12,845.68,583.13Z"/><path class="cls-3" d="M845.68,528.44S817,526,798.33,556.37C798.33,556.37,833.89,555,845.68,528.44Z"/><path class="cls-3" d="M798.33,500.61s17.35,27.55,0,55.76C798.33,556.37,780.24,531.4,798.33,500.61Z"/><path class="cls-3" d="M750.31,528s29.93-1.5,48,28.4A54.47,54.47,0,0,1,750.31,528Z"/><path class="cls-3" d="M750.31,583.23s16-27.25,48-26.86C798.33,556.37,782.23,583.35,750.31,583.23Z"/></g><g class="cls-1"><path class="cls-3" d="M797.66,223s16.54-28.8,0-55.26C797.66,167.71,779.81,191.3,797.66,223Z"/><path class="cls-3" d="M845,194.47s-15-27.66-47.36-26.76C797.66,167.71,813.35,196.45,845,194.47Z"/><path class="cls-3" d="M845,139.77s-28.66-2.41-47.36,27.94C797.66,167.71,833.22,166.3,845,139.77Z"/><path class="cls-3" d="M797.66,112s17.35,27.54,0,55.76C797.66,167.71,779.57,142.74,797.66,112Z"/><path class="cls-3" d="M749.64,139.31s29.93-1.5,48,28.4A54.47,54.47,0,0,1,749.64,139.31Z"/><path class="cls-3" d="M749.64,194.57s16-27.26,48-26.86C797.66,167.71,781.56,194.68,749.64,194.57Z"/></g><g class="cls-1"><path class="cls-3" d="M798,417.3s16.55-28.79,0-55.26C798,362,780.15,385.63,798,417.3Z"/><path class="cls-3" d="M845.35,388.8S830.37,361.14,798,362C798,362,813.69,390.79,845.35,388.8Z"/><path class="cls-3" d="M845.35,334.1S816.69,331.69,798,362C798,362,833.56,360.63,845.35,334.1Z"/><path class="cls-3" d="M798,306.28s17.36,27.54,0,55.76C798,362,779.9,337.07,798,306.28Z"/><path class="cls-3" d="M750,333.64s29.93-1.5,48,28.4A54.48,54.48,0,0,1,750,333.64Z"/><path class="cls-3" d="M750,388.9s16-27.26,48-26.86C798,362,781.9,389,750,388.9Z"/></g><text class="cls-4" transform="translate(775.06 274.27)"><tspan class="cls-5">D</tspan><tspan x="23.45" y="0">C</tspan></text><text class="cls-4" transform="translate(774.9 468.6)"><tspan class="cls-5">D</tspan><tspan x="23.45" y="0">C</tspan></text><text class="cls-4" transform="translate(774.73 80.43)"><tspan class="cls-5">D</tspan><tspan x="23.45" y="0">C</tspan></text><g class="cls-1"><path class="cls-3" d="M797.66,804.36s16.54-28.79,0-55.26C797.66,749.1,779.81,772.69,797.66,804.36Z"/><path class="cls-3" d="M845,775.86s-15-27.66-47.36-26.76C797.66,749.1,813.35,777.85,845,775.86Z"/><path class="cls-3" d="M845,721.17s-28.66-2.42-47.36,27.93C797.66,749.1,833.22,747.69,845,721.17Z"/><path class="cls-3" d="M797.66,693.34s17.35,27.55,0,55.76C797.66,749.1,779.57,724.13,797.66,693.34Z"/><path class="cls-3" d="M749.64,720.7s29.93-1.5,48,28.4A54.47,54.47,0,0,1,749.64,720.7Z"/><path class="cls-3" d="M749.64,776s16-27.26,48-26.86C797.66,749.1,781.56,776.08,749.64,776Z"/></g><g class="cls-1"><path class="cls-3" d="M798,998.69s16.55-28.79,0-55.26C798,943.43,780.15,967,798,998.69Z"/><path class="cls-3" d="M845.35,970.19s-15-27.66-47.36-26.76C798,943.43,813.69,972.18,845.35,970.19Z"/><path class="cls-3" d="M845.35,915.5s-28.66-2.41-47.36,27.93C798,943.43,833.56,942,845.35,915.5Z"/><path class="cls-3" d="M798,887.68s17.36,27.54,0,55.75C798,943.43,779.9,918.46,798,887.68Z"/><path class="cls-3" d="M750,915s29.93-1.5,48,28.4A54.48,54.48,0,0,1,750,915Z"/><path class="cls-3" d="M750,970.29s16-27.25,48-26.86C798,943.43,781.9,970.41,750,970.29Z"/></g><text class="cls-4" transform="translate(775.06 855.66)"><tspan class="cls-5">D</tspan><tspan x="23.45" y="0">C</tspan></text><text class="cls-4" transform="translate(774.9 1050)"><tspan class="cls-5">D</tspan><tspan x="23.45" y="0">C</tspan></text><text class="cls-4" transform="translate(774.73 661.83)"><tspan class="cls-5">D</tspan><tspan x="23.45" y="0">C</tspan></text><g class="cls-1"><path class="cls-3" d="M1043,611.63s16.55-28.79,0-55.26C1043,556.37,1025.15,580,1043,611.63Z"/><path class="cls-3" d="M1090.35,583.13s-15-27.66-47.36-26.76C1043,556.37,1058.69,585.12,1090.35,583.13Z"/><path class="cls-3" d="M1090.35,528.44S1061.69,526,1043,556.37C1043,556.37,1078.56,555,1090.35,528.44Z"/><path class="cls-3" d="M1043,500.61s17.36,27.55,0,55.76C1043,556.37,1024.9,531.4,1043,500.61Z"/><path class="cls-3" d="M995,528s29.93-1.5,48,28.4A54.48,54.48,0,0,1,995,528Z"/><path class="cls-3" d="M995,583.23s16-27.25,48-26.86C1043,556.37,1026.9,583.35,995,583.23Z"/></g><g class="cls-1"><path class="cls-3" d="M1042.33,223s16.54-28.8,0-55.26C1042.33,167.71,1024.48,191.3,1042.33,223Z"/><path class="cls-3" d="M1089.68,194.47s-15-27.66-47.35-26.76C1042.33,167.71,1058,196.45,1089.68,194.47Z"/><path class="cls-3" d="M1089.68,139.77s-28.65-2.41-47.35,27.94C1042.33,167.71,1077.89,166.3,1089.68,139.77Z"/><path class="cls-3" d="M1042.33,112s17.35,27.54,0,55.76C1042.33,167.71,1024.23,142.74,1042.33,112Z"/><path class="cls-3" d="M994.31,139.31s29.92-1.5,48,28.4A54.47,54.47,0,0,1,994.31,139.31Z"/><path class="cls-3" d="M994.31,194.57s16-27.26,48-26.86C1042.33,167.71,1026.23,194.68,994.31,194.57Z"/></g><g class="cls-1"><path class="cls-3" d="M1042.66,417.3s16.54-28.79,0-55.26C1042.66,362,1024.81,385.63,1042.66,417.3Z"/><path class="cls-3" d="M1090,388.8s-15-27.66-47.36-26.76C1042.66,362,1058.35,390.79,1090,388.8Z"/><path class="cls-3" d="M1090,334.1s-28.66-2.41-47.36,27.94C1042.66,362,1078.22,360.63,1090,334.1Z"/><path class="cls-3" d="M1042.66,306.28s17.35,27.54,0,55.76C1042.66,362,1024.57,337.07,1042.66,306.28Z"/><path class="cls-3" d="M994.64,333.64s29.93-1.5,48,28.4A54.47,54.47,0,0,1,994.64,333.64Z"/><path class="cls-3" d="M994.64,388.9s16-27.26,48-26.86C1042.66,362,1026.56,389,994.64,388.9Z"/></g><text class="cls-4" transform="translate(1019.73 274.27)"><tspan class="cls-5">D</tspan><tspan x="23.45" y="0">C</tspan></text><text class="cls-4" transform="translate(1019.56 468.6)"><tspan class="cls-5">D</tspan><tspan x="23.45" y="0">C</tspan></text><text class="cls-4" transform="translate(1019.39 80.43)"><tspan class="cls-5">D</tspan><tspan x="23.45" y="0">C</tspan></text><g class="cls-1"><path class="cls-3" d="M1042.33,804.36s16.54-28.79,0-55.26C1042.33,749.1,1024.48,772.69,1042.33,804.36Z"/><path class="cls-3" d="M1089.68,775.86s-15-27.66-47.35-26.76C1042.33,749.1,1058,777.85,1089.68,775.86Z"/><path class="cls-3" d="M1089.68,721.17s-28.65-2.42-47.35,27.93C1042.33,749.1,1077.89,747.69,1089.68,721.17Z"/><path class="cls-3" d="M1042.33,693.34s17.35,27.55,0,55.76C1042.33,749.1,1024.23,724.13,1042.33,693.34Z"/><path class="cls-3" d="M994.31,720.7s29.92-1.5,48,28.4A54.47,54.47,0,0,1,994.31,720.7Z"/><path class="cls-3" d="M994.31,776s16-27.26,48-26.86C1042.33,749.1,1026.23,776.08,994.31,776Z"/></g><g class="cls-1"><path class="cls-3" d="M1042.66,998.69s16.54-28.79,0-55.26C1042.66,943.43,1024.81,967,1042.66,998.69Z"/><path class="cls-3" d="M1090,970.19s-15-27.66-47.36-26.76C1042.66,943.43,1058.35,972.18,1090,970.19Z"/><path class="cls-3" d="M1090,915.5s-28.66-2.41-47.36,27.93C1042.66,943.43,1078.22,942,1090,915.5Z"/><path class="cls-3" d="M1042.66,887.68s17.35,27.54,0,55.75C1042.66,943.43,1024.57,918.46,1042.66,887.68Z"/><path class="cls-3" d="M994.64,915s29.93-1.5,48,28.4A54.47,54.47,0,0,1,994.64,915Z"/><path class="cls-3" d="M994.64,970.29s16-27.25,48-26.86C1042.66,943.43,1026.56,970.41,994.64,970.29Z"/></g><text class="cls-4" transform="translate(1019.73 855.66)"><tspan class="cls-5">D</tspan><tspan x="23.45" y="0">C</tspan></text><text class="cls-4" transform="translate(1019.56 1050)"><tspan class="cls-5">D</tspan><tspan x="23.45" y="0">C</tspan></text><text class="cls-4" transform="translate(1019.39 661.83)"><tspan class="cls-5">D</tspan><tspan x="23.45" y="0">C</tspan></text><g class="cls-1"><path class="cls-2" d="M315.67,1408.81s16.54-28.79,0-55.26C315.67,1353.55,297.82,1377.15,315.67,1408.81Z"/><path class="cls-2" d="M363,1380.31s-15-27.65-47.35-26.76C315.67,1353.55,331.36,1382.3,363,1380.31Z"/><path class="cls-2" d="M363,1325.62s-28.65-2.41-47.35,27.93C315.67,1353.55,351.23,1352.15,363,1325.62Z"/><path class="cls-2" d="M315.67,1297.8s17.35,27.54,0,55.75C315.67,1353.55,297.57,1328.59,315.67,1297.8Z"/><path class="cls-2" d="M267.65,1325.16s29.92-1.5,48,28.39A54.47,54.47,0,0,1,267.65,1325.16Z"/><path class="cls-2" d="M267.65,1380.42s16-27.26,48-26.87C315.67,1353.55,299.57,1380.53,267.65,1380.42Z"/></g><g class="cls-1"><path class="cls-3" d="M435,1700.57s16.54-28.79,0-55.26C435,1645.31,417.15,1668.91,435,1700.57Z"/><path class="cls-3" d="M482.35,1672.08s-15-27.66-47.35-26.77C435,1645.31,450.69,1674.06,482.35,1672.08Z"/><path class="cls-3" d="M482.35,1617.38S453.7,1615,435,1645.31C435,1645.31,470.56,1643.91,482.35,1617.38Z"/><path class="cls-3" d="M435,1589.56s17.35,27.54,0,55.75C435,1645.31,416.91,1620.35,435,1589.56Z"/><path class="cls-3" d="M387,1616.92s29.93-1.5,48,28.39A54.47,54.47,0,0,1,387,1616.92Z"/><path class="cls-3" d="M387,1672.18s16-27.26,48-26.87C435,1645.31,418.9,1672.29,387,1672.18Z"/></g><g class="cls-1"><path class="cls-3" d="M434.33,1311.91s16.54-28.79,0-55.26C434.33,1256.65,416.48,1280.25,434.33,1311.91Z"/><path class="cls-3" d="M481.69,1283.41s-15-27.65-47.36-26.76C434.33,1256.65,450,1285.4,481.69,1283.41Z"/><path class="cls-3" d="M481.69,1228.72s-28.66-2.41-47.36,27.93C434.33,1256.65,469.89,1255.25,481.69,1228.72Z"/><path class="cls-3" d="M434.33,1200.9s17.35,27.54,0,55.75C434.33,1256.65,416.24,1231.69,434.33,1200.9Z"/><path class="cls-3" d="M386.31,1228.26s29.93-1.5,48,28.39A54.47,54.47,0,0,1,386.31,1228.26Z"/><path class="cls-3" d="M386.31,1283.52s16-27.26,48-26.87C434.33,1256.65,418.23,1283.63,386.31,1283.52Z"/></g><g class="cls-1"><path class="cls-2" d="M315.33,1215s16.55-28.79,0-55.26C315.33,1159.75,297.49,1183.35,315.33,1215Z"/><path class="cls-2" d="M362.69,1186.52s-15-27.66-47.36-26.77C315.33,1159.75,331,1188.5,362.69,1186.52Z"/><path class="cls-2" d="M362.69,1131.82s-28.66-2.41-47.36,27.93C315.33,1159.75,350.89,1158.35,362.69,1131.82Z"/><path class="cls-2" d="M315.33,1104s17.36,27.54,0,55.75C315.33,1159.75,297.24,1134.79,315.33,1104Z"/><path class="cls-2" d="M267.31,1131.36s29.93-1.5,48,28.39A54.48,54.48,0,0,1,267.31,1131.36Z"/><path class="cls-2" d="M267.31,1186.62s16-27.26,48-26.87C315.33,1159.75,299.24,1186.73,267.31,1186.62Z"/></g><g class="cls-1"><path class="cls-3" d="M434.66,1506.24s16.55-28.79,0-55.26C434.66,1451,416.82,1474.58,434.66,1506.24Z"/><path class="cls-3" d="M482,1477.75s-15-27.66-47.36-26.77C434.66,1451,450.36,1479.73,482,1477.75Z"/><path class="cls-3" d="M482,1423.05s-28.66-2.41-47.36,27.93C434.66,1451,470.23,1449.58,482,1423.05Z"/><path class="cls-3" d="M434.66,1395.23s17.36,27.54,0,55.75C434.66,1451,416.57,1426,434.66,1395.23Z"/><path class="cls-3" d="M386.64,1422.59s29.93-1.5,48,28.39A54.48,54.48,0,0,1,386.64,1422.59Z"/><path class="cls-3" d="M386.64,1477.85s16-27.26,48-26.87C434.66,1451,418.57,1478,386.64,1477.85Z"/></g><g class="cls-1"><path class="cls-2" d="M315.33,1602.61s16.55-28.79,0-55.26C315.33,1547.35,297.49,1570.94,315.33,1602.61Z"/><path class="cls-2" d="M362.69,1574.11s-15-27.66-47.36-26.76C315.33,1547.35,331,1576.1,362.69,1574.11Z"/><path class="cls-2" d="M362.69,1519.42S334,1517,315.33,1547.35C315.33,1547.35,350.89,1545.94,362.69,1519.42Z"/><path class="cls-2" d="M315.33,1491.59s17.36,27.55,0,55.76C315.33,1547.35,297.24,1522.38,315.33,1491.59Z"/><path class="cls-2" d="M267.31,1519s29.93-1.5,48,28.4A54.48,54.48,0,0,1,267.31,1519Z"/><path class="cls-2" d="M267.31,1574.21s16-27.26,48-26.86C315.33,1547.35,299.24,1574.33,267.31,1574.21Z"/></g><text class="cls-4" transform="translate(293.07 1266.05)"><tspan class="cls-5">D</tspan><tspan x="23.45" y="0">C</tspan></text><text class="cls-4" transform="translate(411.73 1363.22)"><tspan class="cls-5">D</tspan><tspan x="23.45" y="0">C</tspan></text><text class="cls-4" transform="translate(293.07 1459.85)"><tspan class="cls-5">D</tspan><tspan x="23.45" y="0">C</tspan></text><text class="cls-4" transform="translate(293.07 1653.65)"><tspan class="cls-5">D</tspan><tspan x="23.45" y="0">C</tspan></text><text class="cls-4" transform="translate(411.57 1557.55)"><tspan class="cls-5">D</tspan><tspan x="23.45" y="0">C</tspan></text><text class="cls-4" transform="translate(411.4 1169.38)"><tspan class="cls-5">D</tspan><tspan x="23.45" y="0">C</tspan></text><g class="cls-1"><path class="cls-2" d="M315.67,1990.2s16.54-28.79,0-55.26C315.67,1934.94,297.82,1958.54,315.67,1990.2Z"/><path class="cls-2" d="M363,1961.71s-15-27.66-47.35-26.77C315.67,1934.94,331.36,1963.69,363,1961.71Z"/><path class="cls-2" d="M363,1907s-28.65-2.41-47.35,27.93C315.67,1934.94,351.23,1933.54,363,1907Z"/><path class="cls-2" d="M315.67,1879.19s17.35,27.54,0,55.75C315.67,1934.94,297.57,1910,315.67,1879.19Z"/><path class="cls-2" d="M267.65,1906.55s29.92-1.5,48,28.39A54.47,54.47,0,0,1,267.65,1906.55Z"/><path class="cls-2" d="M267.65,1961.81s16-27.26,48-26.87C315.67,1934.94,299.57,1961.92,267.65,1961.81Z"/></g><g class="cls-1"><path class="cls-3" d="M434.33,1893.3s16.54-28.79,0-55.26C434.33,1838,416.48,1861.64,434.33,1893.3Z"/><path class="cls-3" d="M481.69,1864.81s-15-27.66-47.36-26.77C434.33,1838,450,1866.79,481.69,1864.81Z"/><path class="cls-3" d="M481.69,1810.11S453,1807.7,434.33,1838C434.33,1838,469.89,1836.64,481.69,1810.11Z"/><path class="cls-3" d="M434.33,1782.29s17.35,27.54,0,55.75C434.33,1838,416.24,1813.08,434.33,1782.29Z"/><path class="cls-3" d="M386.31,1809.65s29.93-1.5,48,28.39A54.47,54.47,0,0,1,386.31,1809.65Z"/><path class="cls-3" d="M386.31,1864.91s16-27.26,48-26.87C434.33,1838,418.23,1865,386.31,1864.91Z"/></g><g class="cls-1"><path class="cls-2" d="M315.33,1796.41s16.55-28.8,0-55.27C315.33,1741.14,297.49,1764.74,315.33,1796.41Z"/><path class="cls-2" d="M362.69,1767.91s-15-27.66-47.36-26.77C315.33,1741.14,331,1769.89,362.69,1767.91Z"/><path class="cls-2" d="M362.69,1713.21s-28.66-2.41-47.36,27.93C315.33,1741.14,350.89,1739.74,362.69,1713.21Z"/><path class="cls-2" d="M315.33,1685.39s17.36,27.54,0,55.75C315.33,1741.14,297.24,1716.18,315.33,1685.39Z"/><path class="cls-2" d="M267.31,1712.75s29.93-1.5,48,28.39A54.46,54.46,0,0,1,267.31,1712.75Z"/><path class="cls-2" d="M267.31,1768s16-27.26,48-26.87C315.33,1741.14,299.24,1768.12,267.31,1768Z"/></g><g class="cls-1"><path class="cls-3" d="M434.66,2087.64s16.55-28.8,0-55.27C434.66,2032.37,416.82,2056,434.66,2087.64Z"/><path class="cls-3" d="M482,2059.14s-15-27.66-47.36-26.77C434.66,2032.37,450.36,2061.12,482,2059.14Z"/><path class="cls-3" d="M482,2004.44s-28.66-2.41-47.36,27.93C434.66,2032.37,470.23,2031,482,2004.44Z"/><path class="cls-3" d="M434.66,1976.62s17.36,27.54,0,55.75C434.66,2032.37,416.57,2007.41,434.66,1976.62Z"/><path class="cls-3" d="M386.64,2004s29.93-1.5,48,28.39A54.46,54.46,0,0,1,386.64,2004Z"/><path class="cls-3" d="M386.64,2059.24s16-27.26,48-26.87C434.66,2032.37,418.57,2059.35,386.64,2059.24Z"/></g><g class="cls-1"><path class="cls-2" d="M315.33,2184s16.55-28.79,0-55.26C315.33,2128.74,297.49,2152.34,315.33,2184Z"/><path class="cls-2" d="M362.69,2155.5s-15-27.66-47.36-26.76C315.33,2128.74,331,2157.49,362.69,2155.5Z"/><path class="cls-2" d="M362.69,2100.81s-28.66-2.41-47.36,27.93C315.33,2128.74,350.89,2127.34,362.69,2100.81Z"/><path class="cls-2" d="M315.33,2073s17.36,27.54,0,55.75C315.33,2128.74,297.24,2103.78,315.33,2073Z"/><path class="cls-2" d="M267.31,2100.34s29.93-1.49,48,28.4A54.48,54.48,0,0,1,267.31,2100.34Z"/><path class="cls-2" d="M267.31,2155.61s16-27.26,48-26.87C315.33,2128.74,299.24,2155.72,267.31,2155.61Z"/></g><text class="cls-4" transform="translate(293.07 1847.45)"><tspan class="cls-5">D</tspan><tspan x="23.45" y="0">C</tspan></text><text class="cls-4" transform="translate(411.73 1944.61)"><tspan class="cls-5">D</tspan><tspan x="23.45" y="0">C</tspan></text><text class="cls-4" transform="translate(293.07 2041.24)"><tspan class="cls-5">D</tspan><tspan x="23.45" y="0">C</tspan></text><g class="cls-1"><path class="cls-2" d="M74.67,1408.81s16.54-28.79,0-55.26C74.67,1353.55,56.82,1377.15,74.67,1408.81Z"/><path class="cls-2" d="M122,1380.31s-15-27.65-47.36-26.76C74.67,1353.55,90.36,1382.3,122,1380.31Z"/><path class="cls-2" d="M122,1325.62s-28.66-2.41-47.36,27.93C74.67,1353.55,110.23,1352.15,122,1325.62Z"/><path class="cls-2" d="M74.67,1297.8s17.35,27.54,0,55.75C74.67,1353.55,56.58,1328.59,74.67,1297.8Z"/><path class="cls-2" d="M26.65,1325.16s29.93-1.5,48,28.39A54.47,54.47,0,0,1,26.65,1325.16Z"/><path class="cls-2" d="M26.65,1380.42s16-27.26,48-26.87C74.67,1353.55,58.57,1380.53,26.65,1380.42Z"/></g><g class="cls-1"><path class="cls-2" d="M74.34,1215s16.54-28.79,0-55.26C74.34,1159.75,56.49,1183.35,74.34,1215Z"/><path class="cls-2" d="M121.69,1186.52s-15-27.66-47.35-26.77C74.34,1159.75,90,1188.5,121.69,1186.52Z"/><path class="cls-2" d="M121.69,1131.82s-28.65-2.41-47.35,27.93C74.34,1159.75,109.9,1158.35,121.69,1131.82Z"/><path class="cls-2" d="M74.34,1104s17.35,27.54,0,55.75C74.34,1159.75,56.24,1134.79,74.34,1104Z"/><path class="cls-2" d="M26.32,1131.36s29.92-1.5,48,28.39A54.47,54.47,0,0,1,26.32,1131.36Z"/><path class="cls-2" d="M26.32,1186.62s16-27.26,48-26.87C74.34,1159.75,58.24,1186.73,26.32,1186.62Z"/></g><g class="cls-1"><path class="cls-2" d="M74.34,1602.61s16.54-28.79,0-55.26C74.34,1547.35,56.49,1570.94,74.34,1602.61Z"/><path class="cls-2" d="M121.69,1574.11s-15-27.66-47.35-26.76C74.34,1547.35,90,1576.1,121.69,1574.11Z"/><path class="cls-2" d="M121.69,1519.42S93,1517,74.34,1547.35C74.34,1547.35,109.9,1545.94,121.69,1519.42Z"/><path class="cls-2" d="M74.34,1491.59s17.35,27.55,0,55.76C74.34,1547.35,56.24,1522.38,74.34,1491.59Z"/><path class="cls-2" d="M26.32,1519s29.92-1.5,48,28.4A54.47,54.47,0,0,1,26.32,1519Z"/><path class="cls-2" d="M26.32,1574.21s16-27.26,48-26.86C74.34,1547.35,58.24,1574.33,26.32,1574.21Z"/></g><text class="cls-4" transform="translate(52.07 1266.05)"><tspan class="cls-5">D</tspan><tspan x="23.45" y="0">C</tspan></text><text class="cls-4" transform="translate(52.07 1459.85)"><tspan class="cls-5">D</tspan><tspan x="23.45" y="0">C</tspan></text><text class="cls-4" transform="translate(52.07 1653.65)"><tspan class="cls-5">D</tspan><tspan x="23.45" y="0">C</tspan></text><g class="cls-1"><path class="cls-2" d="M74.67,1990.2s16.54-28.79,0-55.26C74.67,1934.94,56.82,1958.54,74.67,1990.2Z"/><path class="cls-2" d="M122,1961.71s-15-27.66-47.36-26.77C74.67,1934.94,90.36,1963.69,122,1961.71Z"/><path class="cls-2" d="M122,1907s-28.66-2.41-47.36,27.93C74.67,1934.94,110.23,1933.54,122,1907Z"/><path class="cls-2" d="M74.67,1879.19s17.35,27.54,0,55.75C74.67,1934.94,56.58,1910,74.67,1879.19Z"/><path class="cls-2" d="M26.65,1906.55s29.93-1.5,48,28.39A54.47,54.47,0,0,1,26.65,1906.55Z"/><path class="cls-2" d="M26.65,1961.81s16-27.26,48-26.87C74.67,1934.94,58.57,1961.92,26.65,1961.81Z"/></g><g class="cls-1"><path class="cls-2" d="M74.34,1796.41s16.54-28.8,0-55.27C74.34,1741.14,56.49,1764.74,74.34,1796.41Z"/><path class="cls-2" d="M121.69,1767.91s-15-27.66-47.35-26.77C74.34,1741.14,90,1769.89,121.69,1767.91Z"/><path class="cls-2" d="M121.69,1713.21S93,1710.8,74.34,1741.14C74.34,1741.14,109.9,1739.74,121.69,1713.21Z"/><path class="cls-2" d="M74.34,1685.39s17.35,27.54,0,55.75C74.34,1741.14,56.24,1716.18,74.34,1685.39Z"/><path class="cls-2" d="M26.32,1712.75s29.92-1.5,48,28.39A54.45,54.45,0,0,1,26.32,1712.75Z"/><path class="cls-2" d="M26.32,1768s16-27.26,48-26.87C74.34,1741.14,58.24,1768.12,26.32,1768Z"/></g><g class="cls-1"><path class="cls-2" d="M74.34,2184s16.54-28.79,0-55.26C74.34,2128.74,56.49,2152.34,74.34,2184Z"/><path class="cls-2" d="M121.69,2155.5s-15-27.66-47.35-26.76C74.34,2128.74,90,2157.49,121.69,2155.5Z"/><path class="cls-2" d="M121.69,2100.81S93,2098.4,74.34,2128.74C74.34,2128.74,109.9,2127.34,121.69,2100.81Z"/><path class="cls-2" d="M74.34,2073s17.35,27.54,0,55.75C74.34,2128.74,56.24,2103.78,74.34,2073Z"/><path class="cls-2" d="M26.32,2100.34s29.92-1.49,48,28.4A54.47,54.47,0,0,1,26.32,2100.34Z"/><path class="cls-2" d="M26.32,2155.61s16-27.26,48-26.87C74.34,2128.74,58.24,2155.72,26.32,2155.61Z"/></g><text class="cls-4" transform="translate(52.07 1847.45)"><tspan class="cls-5">D</tspan><tspan x="23.45" y="0">C</tspan></text><text class="cls-4" transform="translate(52.07 2041.24)"><tspan class="cls-5">D</tspan><tspan x="23.45" y="0">C</tspan></text><g class="cls-1"><path class="cls-2" d="M555,1408.81s16.54-28.79,0-55.26C555,1353.55,537.15,1377.15,555,1408.81Z"/><path class="cls-2" d="M602.35,1380.31s-15-27.65-47.35-26.76C555,1353.55,570.69,1382.3,602.35,1380.31Z"/><path class="cls-2" d="M602.35,1325.62s-28.65-2.41-47.35,27.93C555,1353.55,590.56,1352.15,602.35,1325.62Z"/><path class="cls-2" d="M555,1297.8s17.35,27.54,0,55.75C555,1353.55,536.9,1328.59,555,1297.8Z"/><path class="cls-2" d="M507,1325.16s29.93-1.5,48,28.39A54.49,54.49,0,0,1,507,1325.16Z"/><path class="cls-2" d="M507,1380.42s16-27.26,48-26.87C555,1353.55,538.9,1380.53,507,1380.42Z"/></g><g class="cls-1"><path class="cls-2" d="M554.66,1215s16.54-28.79,0-55.26C554.66,1159.75,536.81,1183.35,554.66,1215Z"/><path class="cls-2" d="M602,1186.52s-15-27.66-47.36-26.77C554.66,1159.75,570.36,1188.5,602,1186.52Z"/><path class="cls-2" d="M602,1131.82s-28.66-2.41-47.36,27.93C554.66,1159.75,590.22,1158.35,602,1131.82Z"/><path class="cls-2" d="M554.66,1104s17.36,27.54,0,55.75C554.66,1159.75,536.57,1134.79,554.66,1104Z"/><path class="cls-2" d="M506.64,1131.36s29.93-1.5,48,28.39A54.48,54.48,0,0,1,506.64,1131.36Z"/><path class="cls-2" d="M506.64,1186.62s16-27.26,48-26.87C554.66,1159.75,538.57,1186.73,506.64,1186.62Z"/></g><g class="cls-1"><path class="cls-2" d="M554.66,1602.61s16.54-28.79,0-55.26C554.66,1547.35,536.81,1570.94,554.66,1602.61Z"/><path class="cls-2" d="M602,1574.11s-15-27.66-47.36-26.76C554.66,1547.35,570.36,1576.1,602,1574.11Z"/><path class="cls-2" d="M602,1519.42s-28.66-2.42-47.36,27.93C554.66,1547.35,590.22,1545.94,602,1519.42Z"/><path class="cls-2" d="M554.66,1491.59s17.36,27.55,0,55.76C554.66,1547.35,536.57,1522.38,554.66,1491.59Z"/><path class="cls-2" d="M506.64,1519s29.93-1.5,48,28.4A54.48,54.48,0,0,1,506.64,1519Z"/><path class="cls-2" d="M506.64,1574.21s16-27.26,48-26.86C554.66,1547.35,538.57,1574.33,506.64,1574.21Z"/></g><text class="cls-4" transform="translate(532.4 1266.05)"><tspan class="cls-5">D</tspan><tspan x="23.45" y="0">C</tspan></text><text class="cls-4" transform="translate(532.4 1459.85)"><tspan class="cls-5">D</tspan><tspan x="23.45" y="0">C</tspan></text><text class="cls-4" transform="translate(532.4 1653.65)"><tspan class="cls-5">D</tspan><tspan x="23.45" y="0">C</tspan></text><g class="cls-1"><path class="cls-2" d="M555,1990.2s16.54-28.79,0-55.26C555,1934.94,537.15,1958.54,555,1990.2Z"/><path class="cls-2" d="M602.35,1961.71s-15-27.66-47.35-26.77C555,1934.94,570.69,1963.69,602.35,1961.71Z"/><path class="cls-2" d="M602.35,1907s-28.65-2.41-47.35,27.93C555,1934.94,590.56,1933.54,602.35,1907Z"/><path class="cls-2" d="M555,1879.19s17.35,27.54,0,55.75C555,1934.94,536.9,1910,555,1879.19Z"/><path class="cls-2" d="M507,1906.55s29.93-1.5,48,28.39A54.49,54.49,0,0,1,507,1906.55Z"/><path class="cls-2" d="M507,1961.81s16-27.26,48-26.87C555,1934.94,538.9,1961.92,507,1961.81Z"/></g><g class="cls-1"><path class="cls-2" d="M554.66,1796.41s16.54-28.8,0-55.27C554.66,1741.14,536.81,1764.74,554.66,1796.41Z"/><path class="cls-2" d="M602,1767.91s-15-27.66-47.36-26.77C554.66,1741.14,570.36,1769.89,602,1767.91Z"/><path class="cls-2" d="M602,1713.21s-28.66-2.41-47.36,27.93C554.66,1741.14,590.22,1739.74,602,1713.21Z"/><path class="cls-2" d="M554.66,1685.39s17.36,27.54,0,55.75C554.66,1741.14,536.57,1716.18,554.66,1685.39Z"/><path class="cls-2" d="M506.64,1712.75s29.93-1.5,48,28.39A54.46,54.46,0,0,1,506.64,1712.75Z"/><path class="cls-2" d="M506.64,1768s16-27.26,48-26.87C554.66,1741.14,538.57,1768.12,506.64,1768Z"/></g><g class="cls-1"><path class="cls-2" d="M554.66,2184s16.54-28.79,0-55.26C554.66,2128.74,536.81,2152.34,554.66,2184Z"/><path class="cls-2" d="M602,2155.5s-15-27.66-47.36-26.76C554.66,2128.74,570.36,2157.49,602,2155.5Z"/><path class="cls-2" d="M602,2100.81s-28.66-2.41-47.36,27.93C554.66,2128.74,590.22,2127.34,602,2100.81Z"/><path class="cls-2" d="M554.66,2073s17.36,27.54,0,55.75C554.66,2128.74,536.57,2103.78,554.66,2073Z"/><path class="cls-2" d="M506.64,2100.34s29.93-1.49,48,28.4A54.48,54.48,0,0,1,506.64,2100.34Z"/><path class="cls-2" d="M506.64,2155.61s16-27.26,48-26.87C554.66,2128.74,538.57,2155.72,506.64,2155.61Z"/></g><text class="cls-4" transform="translate(532.4 1847.45)"><tspan class="cls-5">D</tspan><tspan x="23.45" y="0">C</tspan></text><text class="cls-4" transform="translate(532.4 2041.24)"><tspan class="cls-5">D</tspan><tspan x="23.45" y="0">C</tspan></text><g class="cls-1"><path class="cls-2" d="M797.66,1408.81s16.54-28.79,0-55.26C797.66,1353.55,779.81,1377.15,797.66,1408.81Z"/><path class="cls-2" d="M845,1380.31s-15-27.65-47.36-26.76C797.66,1353.55,813.35,1382.3,845,1380.31Z"/><path class="cls-2" d="M845,1325.62s-28.66-2.41-47.36,27.93C797.66,1353.55,833.22,1352.15,845,1325.62Z"/><path class="cls-2" d="M797.66,1297.8s17.35,27.54,0,55.75C797.66,1353.55,779.57,1328.59,797.66,1297.8Z"/><path class="cls-2" d="M749.64,1325.16s29.93-1.5,48,28.39A54.47,54.47,0,0,1,749.64,1325.16Z"/><path class="cls-2" d="M749.64,1380.42s16-27.26,48-26.87C797.66,1353.55,781.56,1380.53,749.64,1380.42Z"/></g><g class="cls-1"><path class="cls-2" d="M797.33,1215s16.54-28.79,0-55.26C797.33,1159.75,779.48,1183.35,797.33,1215Z"/><path class="cls-2" d="M844.68,1186.52s-15-27.66-47.35-26.77C797.33,1159.75,813,1188.5,844.68,1186.52Z"/><path class="cls-2" d="M844.68,1131.82s-28.65-2.41-47.35,27.93C797.33,1159.75,832.89,1158.35,844.68,1131.82Z"/><path class="cls-2" d="M797.33,1104s17.35,27.54,0,55.75C797.33,1159.75,779.23,1134.79,797.33,1104Z"/><path class="cls-2" d="M749.31,1131.36s29.92-1.5,48,28.39A54.47,54.47,0,0,1,749.31,1131.36Z"/><path class="cls-2" d="M749.31,1186.62s16-27.26,48-26.87C797.33,1159.75,781.23,1186.73,749.31,1186.62Z"/></g><g class="cls-1"><path class="cls-2" d="M797.33,1602.61s16.54-28.79,0-55.26C797.33,1547.35,779.48,1570.94,797.33,1602.61Z"/><path class="cls-2" d="M844.68,1574.11s-15-27.66-47.35-26.76C797.33,1547.35,813,1576.1,844.68,1574.11Z"/><path class="cls-2" d="M844.68,1519.42S816,1517,797.33,1547.35C797.33,1547.35,832.89,1545.94,844.68,1519.42Z"/><path class="cls-2" d="M797.33,1491.59s17.35,27.55,0,55.76C797.33,1547.35,779.23,1522.38,797.33,1491.59Z"/><path class="cls-2" d="M749.31,1519s29.92-1.5,48,28.4A54.47,54.47,0,0,1,749.31,1519Z"/><path class="cls-2" d="M749.31,1574.21s16-27.26,48-26.86C797.33,1547.35,781.23,1574.33,749.31,1574.21Z"/></g><text class="cls-4" transform="translate(775.06 1266.05)"><tspan class="cls-5">D</tspan><tspan x="23.45" y="0">C</tspan></text><text class="cls-4" transform="translate(775.06 1459.85)"><tspan class="cls-5">D</tspan><tspan x="23.45" y="0">C</tspan></text><text class="cls-4" transform="translate(775.06 1653.65)"><tspan class="cls-5">D</tspan><tspan x="23.45" y="0">C</tspan></text><g class="cls-1"><path class="cls-2" d="M797.66,1990.2s16.54-28.79,0-55.26C797.66,1934.94,779.81,1958.54,797.66,1990.2Z"/><path class="cls-2" d="M845,1961.71s-15-27.66-47.36-26.77C797.66,1934.94,813.35,1963.69,845,1961.71Z"/><path class="cls-2" d="M845,1907s-28.66-2.41-47.36,27.93C797.66,1934.94,833.22,1933.54,845,1907Z"/><path class="cls-2" d="M797.66,1879.19s17.35,27.54,0,55.75C797.66,1934.94,779.57,1910,797.66,1879.19Z"/><path class="cls-2" d="M749.64,1906.55s29.93-1.5,48,28.39A54.47,54.47,0,0,1,749.64,1906.55Z"/><path class="cls-2" d="M749.64,1961.81s16-27.26,48-26.87C797.66,1934.94,781.56,1961.92,749.64,1961.81Z"/></g><g class="cls-1"><path class="cls-2" d="M797.33,1796.41s16.54-28.8,0-55.27C797.33,1741.14,779.48,1764.74,797.33,1796.41Z"/><path class="cls-2" d="M844.68,1767.91s-15-27.66-47.35-26.77C797.33,1741.14,813,1769.89,844.68,1767.91Z"/><path class="cls-2" d="M844.68,1713.21s-28.65-2.41-47.35,27.93C797.33,1741.14,832.89,1739.74,844.68,1713.21Z"/><path class="cls-2" d="M797.33,1685.39s17.35,27.54,0,55.75C797.33,1741.14,779.23,1716.18,797.33,1685.39Z"/><path class="cls-2" d="M749.31,1712.75s29.92-1.5,48,28.39A54.45,54.45,0,0,1,749.31,1712.75Z"/><path class="cls-2" d="M749.31,1768s16-27.26,48-26.87C797.33,1741.14,781.23,1768.12,749.31,1768Z"/></g><g class="cls-1"><path class="cls-2" d="M797.33,2184s16.54-28.79,0-55.26C797.33,2128.74,779.48,2152.34,797.33,2184Z"/><path class="cls-2" d="M844.68,2155.5s-15-27.66-47.35-26.76C797.33,2128.74,813,2157.49,844.68,2155.5Z"/><path class="cls-2" d="M844.68,2100.81s-28.65-2.41-47.35,27.93C797.33,2128.74,832.89,2127.34,844.68,2100.81Z"/><path class="cls-2" d="M797.33,2073s17.35,27.54,0,55.75C797.33,2128.74,779.23,2103.78,797.33,2073Z"/><path class="cls-2" d="M749.31,2100.34s29.92-1.49,48,28.4A54.47,54.47,0,0,1,749.31,2100.34Z"/><path class="cls-2" d="M749.31,2155.61s16-27.26,48-26.87C797.33,2128.74,781.23,2155.72,749.31,2155.61Z"/></g><text class="cls-4" transform="translate(775.06 1847.45)"><tspan class="cls-5">D</tspan><tspan x="23.45" y="0">C</tspan></text><text class="cls-4" transform="translate(775.06 2041.24)"><tspan class="cls-5">D</tspan><tspan x="23.45" y="0">C</tspan></text><g class="cls-1"><path class="cls-2" d="M1044.33,1408.81s16.54-28.79,0-55.26C1044.33,1353.55,1026.48,1377.15,1044.33,1408.81Z"/><path class="cls-2" d="M1091.68,1380.31s-15-27.65-47.35-26.76C1044.33,1353.55,1060,1382.3,1091.68,1380.31Z"/><path class="cls-2" d="M1091.68,1325.62s-28.65-2.41-47.35,27.93C1044.33,1353.55,1079.89,1352.15,1091.68,1325.62Z"/><path class="cls-2" d="M1044.33,1297.8s17.35,27.54,0,55.75C1044.33,1353.55,1026.24,1328.59,1044.33,1297.8Z"/><path class="cls-2" d="M996.31,1325.16s29.93-1.5,48,28.39A54.47,54.47,0,0,1,996.31,1325.16Z"/><path class="cls-2" d="M996.31,1380.42s16-27.26,48-26.87C1044.33,1353.55,1028.23,1380.53,996.31,1380.42Z"/></g><g class="cls-1"><path class="cls-2" d="M1044,1215s16.54-28.79,0-55.26C1044,1159.75,1026.15,1183.35,1044,1215Z"/><path class="cls-2" d="M1091.35,1186.52s-15-27.66-47.35-26.77C1044,1159.75,1059.69,1188.5,1091.35,1186.52Z"/><path class="cls-2" d="M1091.35,1131.82s-28.65-2.41-47.35,27.93C1044,1159.75,1079.56,1158.35,1091.35,1131.82Z"/><path class="cls-2" d="M1044,1104s17.35,27.54,0,55.75C1044,1159.75,1025.9,1134.79,1044,1104Z"/><path class="cls-2" d="M996,1131.36s29.93-1.5,48,28.39A54.49,54.49,0,0,1,996,1131.36Z"/><path class="cls-2" d="M996,1186.62s16-27.26,48-26.87C1044,1159.75,1027.9,1186.73,996,1186.62Z"/></g><g class="cls-1"><path class="cls-2" d="M1044,1602.61s16.54-28.79,0-55.26C1044,1547.35,1026.15,1570.94,1044,1602.61Z"/><path class="cls-2" d="M1091.35,1574.11s-15-27.66-47.35-26.76C1044,1547.35,1059.69,1576.1,1091.35,1574.11Z"/><path class="cls-2" d="M1091.35,1519.42s-28.65-2.42-47.35,27.93C1044,1547.35,1079.56,1545.94,1091.35,1519.42Z"/><path class="cls-2" d="M1044,1491.59s17.35,27.55,0,55.76C1044,1547.35,1025.9,1522.38,1044,1491.59Z"/><path class="cls-2" d="M996,1519s29.93-1.5,48,28.4A54.49,54.49,0,0,1,996,1519Z"/><path class="cls-2" d="M996,1574.21s16-27.26,48-26.86C1044,1547.35,1027.9,1574.33,996,1574.21Z"/></g><text class="cls-4" transform="translate(1021.73 1266.05)"><tspan class="cls-5">D</tspan><tspan x="23.45" y="0">C</tspan></text><text class="cls-4" transform="translate(1021.73 1459.85)"><tspan class="cls-5">D</tspan><tspan x="23.45" y="0">C</tspan></text><text class="cls-4" transform="translate(1021.73 1653.65)"><tspan class="cls-5">D</tspan><tspan x="23.45" y="0">C</tspan></text><g class="cls-1"><path class="cls-2" d="M1044.33,1990.2s16.54-28.79,0-55.26C1044.33,1934.94,1026.48,1958.54,1044.33,1990.2Z"/><path class="cls-2" d="M1091.68,1961.71s-15-27.66-47.35-26.77C1044.33,1934.94,1060,1963.69,1091.68,1961.71Z"/><path class="cls-2" d="M1091.68,1907s-28.65-2.41-47.35,27.93C1044.33,1934.94,1079.89,1933.54,1091.68,1907Z"/><path class="cls-2" d="M1044.33,1879.19s17.35,27.54,0,55.75C1044.33,1934.94,1026.24,1910,1044.33,1879.19Z"/><path class="cls-2" d="M996.31,1906.55s29.93-1.5,48,28.39A54.47,54.47,0,0,1,996.31,1906.55Z"/><path class="cls-2" d="M996.31,1961.81s16-27.26,48-26.87C1044.33,1934.94,1028.23,1961.92,996.31,1961.81Z"/></g><g class="cls-1"><path class="cls-2" d="M1044,1796.41s16.54-28.8,0-55.27C1044,1741.14,1026.15,1764.74,1044,1796.41Z"/><path class="cls-2" d="M1091.35,1767.91s-15-27.66-47.35-26.77C1044,1741.14,1059.69,1769.89,1091.35,1767.91Z"/><path class="cls-2" d="M1091.35,1713.21s-28.65-2.41-47.35,27.93C1044,1741.14,1079.56,1739.74,1091.35,1713.21Z"/><path class="cls-2" d="M1044,1685.39s17.35,27.54,0,55.75C1044,1741.14,1025.9,1716.18,1044,1685.39Z"/><path class="cls-2" d="M996,1712.75s29.93-1.5,48,28.39A54.47,54.47,0,0,1,996,1712.75Z"/><path class="cls-2" d="M996,1768s16-27.26,48-26.87C1044,1741.14,1027.9,1768.12,996,1768Z"/></g><g class="cls-1"><path class="cls-2" d="M1044,2184s16.54-28.79,0-55.26C1044,2128.74,1026.15,2152.34,1044,2184Z"/><path class="cls-2" d="M1091.35,2155.5s-15-27.66-47.35-26.76C1044,2128.74,1059.69,2157.49,1091.35,2155.5Z"/><path class="cls-2" d="M1091.35,2100.81s-28.65-2.41-47.35,27.93C1044,2128.74,1079.56,2127.34,1091.35,2100.81Z"/><path class="cls-2" d="M1044,2073s17.35,27.54,0,55.75C1044,2128.74,1025.9,2103.78,1044,2073Z"/><path class="cls-2" d="M996,2100.34s29.93-1.49,48,28.4A54.49,54.49,0,0,1,996,2100.34Z"/><path class="cls-2" d="M996,2155.61s16-27.26,48-26.87C1044,2128.74,1027.9,2155.72,996,2155.61Z"/></g><text class="cls-4" transform="translate(1021.73 1847.45)"><tspan class="cls-5">D</tspan><tspan x="23.45" y="0">C</tspan></text><text class="cls-4" transform="translate(1021.73 2041.24)"><tspan class="cls-5">D</tspan><tspan x="23.45" y="0">C</tspan></text><text class="cls-4" transform="translate(411.57 2138.94)"><tspan class="cls-5">D</tspan><tspan x="23.45" y="0">C</tspan></text><text class="cls-4" transform="translate(411.4 1750.77)"><tspan class="cls-5">D</tspan><tspan x="23.45" y="0">C</tspan></text><g class="cls-1"><path class="cls-3" d="M195.67,1700.57s16.54-28.79,0-55.26C195.67,1645.31,177.82,1668.91,195.67,1700.57Z"/><path class="cls-3" d="M243,1672.08s-15-27.66-47.35-26.77C195.67,1645.31,211.36,1674.06,243,1672.08Z"/><path class="cls-3" d="M243,1617.38s-28.65-2.41-47.35,27.93C195.67,1645.31,231.23,1643.91,243,1617.38Z"/><path class="cls-3" d="M195.67,1589.56s17.35,27.54,0,55.75C195.67,1645.31,177.58,1620.35,195.67,1589.56Z"/><path class="cls-3" d="M147.65,1616.92s29.93-1.5,48,28.39A54.47,54.47,0,0,1,147.65,1616.92Z"/><path class="cls-3" d="M147.65,1672.18s16-27.26,48-26.87C195.67,1645.31,179.57,1672.29,147.65,1672.18Z"/></g><g class="cls-1"><path class="cls-3" d="M195,1311.91s16.54-28.79,0-55.26C195,1256.65,177.15,1280.25,195,1311.91Z"/><path class="cls-3" d="M242.36,1283.41s-15-27.65-47.36-26.76C195,1256.65,210.7,1285.4,242.36,1283.41Z"/><path class="cls-3" d="M242.36,1228.72s-28.66-2.41-47.36,27.93C195,1256.65,230.56,1255.25,242.36,1228.72Z"/><path class="cls-3" d="M195,1200.9s17.36,27.54,0,55.75C195,1256.65,176.91,1231.69,195,1200.9Z"/><path class="cls-3" d="M147,1228.26s29.93-1.5,48,28.39A54.48,54.48,0,0,1,147,1228.26Z"/><path class="cls-3" d="M147,1283.52s16-27.26,48-26.87C195,1256.65,178.9,1283.63,147,1283.52Z"/></g><g class="cls-1"><path class="cls-3" d="M195.34,1506.24s16.54-28.79,0-55.26C195.34,1451,177.49,1474.58,195.34,1506.24Z"/><path class="cls-3" d="M242.69,1477.75s-15-27.66-47.35-26.77C195.34,1451,211,1479.73,242.69,1477.75Z"/><path class="cls-3" d="M242.69,1423.05S214,1420.64,195.34,1451C195.34,1451,230.9,1449.58,242.69,1423.05Z"/><path class="cls-3" d="M195.34,1395.23s17.35,27.54,0,55.75C195.34,1451,177.24,1426,195.34,1395.23Z"/><path class="cls-3" d="M147.31,1422.59s29.93-1.5,48,28.39A54.49,54.49,0,0,1,147.31,1422.59Z"/><path class="cls-3" d="M147.31,1477.85s16-27.26,48-26.87C195.34,1451,179.24,1478,147.31,1477.85Z"/></g><text class="cls-4" transform="translate(172.4 1363.22)"><tspan class="cls-5">D</tspan><tspan x="23.45" y="0">C</tspan></text><text class="cls-4" transform="translate(172.24 1557.55)"><tspan class="cls-5">D</tspan><tspan x="23.45" y="0">C</tspan></text><text class="cls-4" transform="translate(172.07 1169.38)"><tspan class="cls-5">D</tspan><tspan x="23.45" y="0">C</tspan></text><g class="cls-1"><path class="cls-3" d="M195,1893.3s16.54-28.79,0-55.26C195,1838,177.15,1861.64,195,1893.3Z"/><path class="cls-3" d="M242.36,1864.81s-15-27.66-47.36-26.77C195,1838,210.7,1866.79,242.36,1864.81Z"/><path class="cls-3" d="M242.36,1810.11S213.7,1807.7,195,1838C195,1838,230.56,1836.64,242.36,1810.11Z"/><path class="cls-3" d="M195,1782.29s17.36,27.54,0,55.75C195,1838,176.91,1813.08,195,1782.29Z"/><path class="cls-3" d="M147,1809.65s29.93-1.5,48,28.39A54.48,54.48,0,0,1,147,1809.65Z"/><path class="cls-3" d="M147,1864.91s16-27.26,48-26.87C195,1838,178.9,1865,147,1864.91Z"/></g><g class="cls-1"><path class="cls-3" d="M195.34,2087.64s16.54-28.8,0-55.27C195.34,2032.37,177.49,2056,195.34,2087.64Z"/><path class="cls-3" d="M242.69,2059.14s-15-27.66-47.35-26.77C195.34,2032.37,211,2061.12,242.69,2059.14Z"/><path class="cls-3" d="M242.69,2004.44S214,2002,195.34,2032.37C195.34,2032.37,230.9,2031,242.69,2004.44Z"/><path class="cls-3" d="M195.34,1976.62s17.35,27.54,0,55.75C195.34,2032.37,177.24,2007.41,195.34,1976.62Z"/><path class="cls-3" d="M147.31,2004s29.93-1.5,48,28.39A54.47,54.47,0,0,1,147.31,2004Z"/><path class="cls-3" d="M147.31,2059.24s16-27.26,48-26.87C195.34,2032.37,179.24,2059.35,147.31,2059.24Z"/></g><text class="cls-4" transform="translate(172.4 1944.61)"><tspan class="cls-5">D</tspan><tspan x="23.45" y="0">C</tspan></text><text class="cls-4" transform="translate(172.24 2138.94)"><tspan class="cls-5">D</tspan><tspan x="23.45" y="0">C</tspan></text><text class="cls-4" transform="translate(172.07 1750.77)"><tspan class="cls-5">D</tspan><tspan x="23.45" y="0">C</tspan></text><g class="cls-1"><path class="cls-3" d="M1167.33,1700.57s16.54-28.79,0-55.26C1167.33,1645.31,1149.48,1668.91,1167.33,1700.57Z"/><path class="cls-3" d="M1214.68,1672.08s-15-27.66-47.35-26.77C1167.33,1645.31,1183,1674.06,1214.68,1672.08Z"/><path class="cls-3" d="M1214.68,1617.38s-28.65-2.41-47.35,27.93C1167.33,1645.31,1202.89,1643.91,1214.68,1617.38Z"/><path class="cls-3" d="M1167.33,1589.56s17.35,27.54,0,55.75C1167.33,1645.31,1149.24,1620.35,1167.33,1589.56Z"/><path class="cls-3" d="M1119.31,1616.92s29.93-1.5,48,28.39A54.47,54.47,0,0,1,1119.31,1616.92Z"/><path class="cls-3" d="M1119.31,1672.18s16-27.26,48-26.87C1167.33,1645.31,1151.23,1672.29,1119.31,1672.18Z"/></g><g class="cls-1"><path class="cls-3" d="M1166.66,1311.91s16.54-28.79,0-55.26C1166.66,1256.65,1148.81,1280.25,1166.66,1311.91Z"/><path class="cls-3" d="M1214,1283.41s-15-27.65-47.36-26.76C1166.66,1256.65,1182.36,1285.4,1214,1283.41Z"/><path class="cls-3" d="M1214,1228.72s-28.66-2.41-47.36,27.93C1166.66,1256.65,1202.22,1255.25,1214,1228.72Z"/><path class="cls-3" d="M1166.66,1200.9s17.36,27.54,0,55.75C1166.66,1256.65,1148.57,1231.69,1166.66,1200.9Z"/><path class="cls-3" d="M1118.64,1228.26s29.93-1.5,48,28.39A54.48,54.48,0,0,1,1118.64,1228.26Z"/><path class="cls-3" d="M1118.64,1283.52s16-27.26,48-26.87C1166.66,1256.65,1150.56,1283.63,1118.64,1283.52Z"/></g><g class="cls-1"><path class="cls-3" d="M1167,1506.24s16.54-28.79,0-55.26C1167,1451,1149.15,1474.58,1167,1506.24Z"/><path class="cls-3" d="M1214.35,1477.75s-15-27.66-47.35-26.77C1167,1451,1182.69,1479.73,1214.35,1477.75Z"/><path class="cls-3" d="M1214.35,1423.05s-28.65-2.41-47.35,27.93C1167,1451,1202.56,1449.58,1214.35,1423.05Z"/><path class="cls-3" d="M1167,1395.23s17.35,27.54,0,55.75C1167,1451,1148.9,1426,1167,1395.23Z"/><path class="cls-3" d="M1119,1422.59s29.93-1.5,48,28.39A54.49,54.49,0,0,1,1119,1422.59Z"/><path class="cls-3" d="M1119,1477.85s16-27.26,48-26.87C1167,1451,1150.9,1478,1119,1477.85Z"/></g><text class="cls-4" transform="translate(1144.06 1363.22)"><tspan class="cls-5">D</tspan><tspan x="23.45" y="0">C</tspan></text><text class="cls-4" transform="translate(1143.9 1557.55)"><tspan class="cls-5">D</tspan><tspan x="23.45" y="0">C</tspan></text><text class="cls-4" transform="translate(1143.73 1169.38)"><tspan class="cls-5">D</tspan><tspan x="23.45" y="0">C</tspan></text><g class="cls-1"><path class="cls-3" d="M1166.66,1893.3s16.54-28.79,0-55.26C1166.66,1838,1148.81,1861.64,1166.66,1893.3Z"/><path class="cls-3" d="M1214,1864.81s-15-27.66-47.36-26.77C1166.66,1838,1182.36,1866.79,1214,1864.81Z"/><path class="cls-3" d="M1214,1810.11s-28.66-2.41-47.36,27.93C1166.66,1838,1202.22,1836.64,1214,1810.11Z"/><path class="cls-3" d="M1166.66,1782.29s17.36,27.54,0,55.75C1166.66,1838,1148.57,1813.08,1166.66,1782.29Z"/><path class="cls-3" d="M1118.64,1809.65s29.93-1.5,48,28.39A54.48,54.48,0,0,1,1118.64,1809.65Z"/><path class="cls-3" d="M1118.64,1864.91s16-27.26,48-26.87C1166.66,1838,1150.56,1865,1118.64,1864.91Z"/></g><g class="cls-1"><path class="cls-3" d="M1167,2087.64s16.54-28.8,0-55.27C1167,2032.37,1149.15,2056,1167,2087.64Z"/><path class="cls-3" d="M1214.35,2059.14s-15-27.66-47.35-26.77C1167,2032.37,1182.69,2061.12,1214.35,2059.14Z"/><path class="cls-3" d="M1214.35,2004.44s-28.65-2.41-47.35,27.93C1167,2032.37,1202.56,2031,1214.35,2004.44Z"/><path class="cls-3" d="M1167,1976.62s17.35,27.54,0,55.75C1167,2032.37,1148.9,2007.41,1167,1976.62Z"/><path class="cls-3" d="M1119,2004s29.93-1.5,48,28.39A54.47,54.47,0,0,1,1119,2004Z"/><path class="cls-3" d="M1119,2059.24s16-27.26,48-26.87C1167,2032.37,1150.9,2059.35,1119,2059.24Z"/></g><text class="cls-4" transform="translate(1144.06 1944.61)"><tspan class="cls-5">D</tspan><tspan x="23.45" y="0">C</tspan></text><text class="cls-4" transform="translate(1143.9 2138.94)"><tspan class="cls-5">D</tspan><tspan x="23.45" y="0">C</tspan></text><text class="cls-4" transform="translate(1143.73 1750.77)"><tspan class="cls-5">D</tspan><tspan x="23.45" y="0">C</tspan></text><g class="cls-1"><path class="cls-3" d="M676,1700.57s16.55-28.79,0-55.26C676,1645.31,658.15,1668.91,676,1700.57Z"/><path class="cls-3" d="M723.35,1672.08s-15-27.66-47.36-26.77C676,1645.31,691.69,1674.06,723.35,1672.08Z"/><path class="cls-3" d="M723.35,1617.38S694.69,1615,676,1645.31C676,1645.31,711.56,1643.91,723.35,1617.38Z"/><path class="cls-3" d="M676,1589.56s17.36,27.54,0,55.75C676,1645.31,657.9,1620.35,676,1589.56Z"/><path class="cls-3" d="M628,1616.92s29.93-1.5,48,28.39A54.48,54.48,0,0,1,628,1616.92Z"/><path class="cls-3" d="M628,1672.18s16-27.26,48-26.87C676,1645.31,659.9,1672.29,628,1672.18Z"/></g><g class="cls-1"><path class="cls-3" d="M675.33,1311.91s16.54-28.79,0-55.26C675.33,1256.65,657.48,1280.25,675.33,1311.91Z"/><path class="cls-3" d="M722.68,1283.41s-15-27.65-47.35-26.76C675.33,1256.65,691,1285.4,722.68,1283.41Z"/><path class="cls-3" d="M722.68,1228.72s-28.65-2.41-47.35,27.93C675.33,1256.65,710.89,1255.25,722.68,1228.72Z"/><path class="cls-3" d="M675.33,1200.9s17.35,27.54,0,55.75C675.33,1256.65,657.23,1231.69,675.33,1200.9Z"/><path class="cls-3" d="M627.31,1228.26s29.92-1.5,48,28.39A54.47,54.47,0,0,1,627.31,1228.26Z"/><path class="cls-3" d="M627.31,1283.52s16-27.26,48-26.87C675.33,1256.65,659.23,1283.63,627.31,1283.52Z"/></g><g class="cls-1"><path class="cls-3" d="M675.66,1506.24s16.54-28.79,0-55.26C675.66,1451,657.81,1474.58,675.66,1506.24Z"/><path class="cls-3" d="M723,1477.75s-15-27.66-47.36-26.77C675.66,1451,691.36,1479.73,723,1477.75Z"/><path class="cls-3" d="M723,1423.05s-28.66-2.41-47.36,27.93C675.66,1451,711.22,1449.58,723,1423.05Z"/><path class="cls-3" d="M675.66,1395.23s17.35,27.54,0,55.75C675.66,1451,657.57,1426,675.66,1395.23Z"/><path class="cls-3" d="M627.64,1422.59s29.93-1.5,48,28.39A54.47,54.47,0,0,1,627.64,1422.59Z"/><path class="cls-3" d="M627.64,1477.85s16-27.26,48-26.87C675.66,1451,659.56,1478,627.64,1477.85Z"/></g><text class="cls-4" transform="translate(652.73 1363.22)"><tspan class="cls-5">D</tspan><tspan x="23.45" y="0">C</tspan></text><text class="cls-4" transform="translate(652.57 1557.55)"><tspan class="cls-5">D</tspan><tspan x="23.45" y="0">C</tspan></text><text class="cls-4" transform="translate(652.4 1169.38)"><tspan class="cls-5">D</tspan><tspan x="23.45" y="0">C</tspan></text><g class="cls-1"><path class="cls-3" d="M675.33,1893.3s16.54-28.79,0-55.26C675.33,1838,657.48,1861.64,675.33,1893.3Z"/><path class="cls-3" d="M722.68,1864.81s-15-27.66-47.35-26.77C675.33,1838,691,1866.79,722.68,1864.81Z"/><path class="cls-3" d="M722.68,1810.11S694,1807.7,675.33,1838C675.33,1838,710.89,1836.64,722.68,1810.11Z"/><path class="cls-3" d="M675.33,1782.29s17.35,27.54,0,55.75C675.33,1838,657.23,1813.08,675.33,1782.29Z"/><path class="cls-3" d="M627.31,1809.65s29.92-1.5,48,28.39A54.47,54.47,0,0,1,627.31,1809.65Z"/><path class="cls-3" d="M627.31,1864.91s16-27.26,48-26.87C675.33,1838,659.23,1865,627.31,1864.91Z"/></g><g class="cls-1"><path class="cls-3" d="M675.66,2087.64s16.54-28.8,0-55.27C675.66,2032.37,657.81,2056,675.66,2087.64Z"/><path class="cls-3" d="M723,2059.14s-15-27.66-47.36-26.77C675.66,2032.37,691.36,2061.12,723,2059.14Z"/><path class="cls-3" d="M723,2004.44s-28.66-2.41-47.36,27.93C675.66,2032.37,711.22,2031,723,2004.44Z"/><path class="cls-3" d="M675.66,1976.62s17.35,27.54,0,55.75C675.66,2032.37,657.57,2007.41,675.66,1976.62Z"/><path class="cls-3" d="M627.64,2004s29.93-1.5,48,28.39A54.45,54.45,0,0,1,627.64,2004Z"/><path class="cls-3" d="M627.64,2059.24s16-27.26,48-26.87C675.66,2032.37,659.56,2059.35,627.64,2059.24Z"/></g><text class="cls-4" transform="translate(652.73 1944.61)"><tspan class="cls-5">D</tspan><tspan x="23.45" y="0">C</tspan></text><text class="cls-4" transform="translate(652.57 2138.94)"><tspan class="cls-5">D</tspan><tspan x="23.45" y="0">C</tspan></text><text class="cls-4" transform="translate(652.4 1750.77)"><tspan class="cls-5">D</tspan><tspan x="23.45" y="0">C</tspan></text><g class="cls-1"><path class="cls-3" d="M920.66,1700.57s16.54-28.79,0-55.26C920.66,1645.31,902.81,1668.91,920.66,1700.57Z"/><path class="cls-3" d="M968,1672.08s-15-27.66-47.36-26.77C920.66,1645.31,936.36,1674.06,968,1672.08Z"/><path class="cls-3" d="M968,1617.38s-28.66-2.41-47.36,27.93C920.66,1645.31,956.22,1643.91,968,1617.38Z"/><path class="cls-3" d="M920.66,1589.56s17.35,27.54,0,55.75C920.66,1645.31,902.57,1620.35,920.66,1589.56Z"/><path class="cls-3" d="M872.64,1616.92s29.93-1.5,48,28.39A54.47,54.47,0,0,1,872.64,1616.92Z"/><path class="cls-3" d="M872.64,1672.18s16-27.26,48-26.87C920.66,1645.31,904.56,1672.29,872.64,1672.18Z"/></g><g class="cls-1"><path class="cls-3" d="M920,1311.91s16.55-28.79,0-55.26C920,1256.65,902.15,1280.25,920,1311.91Z"/><path class="cls-3" d="M967.35,1283.41s-15-27.65-47.36-26.76C920,1256.65,935.69,1285.4,967.35,1283.41Z"/><path class="cls-3" d="M967.35,1228.72s-28.66-2.41-47.36,27.93C920,1256.65,955.55,1255.25,967.35,1228.72Z"/><path class="cls-3" d="M920,1200.9s17.36,27.54,0,55.75C920,1256.65,901.9,1231.69,920,1200.9Z"/><path class="cls-3" d="M872,1228.26s29.93-1.5,48,28.39A54.48,54.48,0,0,1,872,1228.26Z"/><path class="cls-3" d="M872,1283.52s16-27.26,48-26.87C920,1256.65,903.9,1283.63,872,1283.52Z"/></g><g class="cls-1"><path class="cls-3" d="M920.33,1506.24s16.54-28.79,0-55.26C920.33,1451,902.48,1474.58,920.33,1506.24Z"/><path class="cls-3" d="M967.68,1477.75s-15-27.66-47.35-26.77C920.33,1451,936,1479.73,967.68,1477.75Z"/><path class="cls-3" d="M967.68,1423.05S939,1420.64,920.33,1451C920.33,1451,955.89,1449.58,967.68,1423.05Z"/><path class="cls-3" d="M920.33,1395.23s17.35,27.54,0,55.75C920.33,1451,902.23,1426,920.33,1395.23Z"/><path class="cls-3" d="M872.31,1422.59s29.92-1.5,48,28.39A54.47,54.47,0,0,1,872.31,1422.59Z"/><path class="cls-3" d="M872.31,1477.85s16-27.26,48-26.87C920.33,1451,904.23,1478,872.31,1477.85Z"/></g><text class="cls-4" transform="translate(897.4 1363.22)"><tspan class="cls-5">D</tspan><tspan x="23.45" y="0">C</tspan></text><text class="cls-4" transform="translate(897.23 1557.55)"><tspan class="cls-5">D</tspan><tspan x="23.45" y="0">C</tspan></text><text class="cls-4" transform="translate(897.06 1169.38)"><tspan class="cls-5">D</tspan><tspan x="23.45" y="0">C</tspan></text><g class="cls-1"><path class="cls-3" d="M920,1893.3s16.55-28.79,0-55.26C920,1838,902.15,1861.64,920,1893.3Z"/><path class="cls-3" d="M967.35,1864.81s-15-27.66-47.36-26.77C920,1838,935.69,1866.79,967.35,1864.81Z"/><path class="cls-3" d="M967.35,1810.11S938.69,1807.7,920,1838C920,1838,955.55,1836.64,967.35,1810.11Z"/><path class="cls-3" d="M920,1782.29s17.36,27.54,0,55.75C920,1838,901.9,1813.08,920,1782.29Z"/><path class="cls-3" d="M872,1809.65s29.93-1.5,48,28.39A54.48,54.48,0,0,1,872,1809.65Z"/><path class="cls-3" d="M872,1864.91s16-27.26,48-26.87C920,1838,903.9,1865,872,1864.91Z"/></g><g class="cls-1"><path class="cls-3" d="M920.33,2087.64s16.54-28.8,0-55.27C920.33,2032.37,902.48,2056,920.33,2087.64Z"/><path class="cls-3" d="M967.68,2059.14s-15-27.66-47.35-26.77C920.33,2032.37,936,2061.12,967.68,2059.14Z"/><path class="cls-3" d="M967.68,2004.44S939,2002,920.33,2032.37C920.33,2032.37,955.89,2031,967.68,2004.44Z"/><path class="cls-3" d="M920.33,1976.62s17.35,27.54,0,55.75C920.33,2032.37,902.23,2007.41,920.33,1976.62Z"/><path class="cls-3" d="M872.31,2004s29.92-1.5,48,28.39A54.45,54.45,0,0,1,872.31,2004Z"/><path class="cls-3" d="M872.31,2059.24s16-27.26,48-26.87C920.33,2032.37,904.23,2059.35,872.31,2059.24Z"/></g><text class="cls-4" transform="translate(897.4 1944.61)"><tspan class="cls-5">D</tspan><tspan x="23.45" y="0">C</tspan></text><text class="cls-4" transform="translate(897.23 2138.94)"><tspan class="cls-5">D</tspan><tspan x="23.45" y="0">C</tspan></text><text class="cls-4" transform="translate(897.06 1750.77)"><tspan class="cls-5">D</tspan><tspan x="23.45" y="0">C</tspan></text></svg>